<svg width="70" height="16" viewBox="0 0 70 16" fill="none" xmlns="http://www.w3.org/2000/svg">
<path d="M8.00005 11.6798L10.7667 13.3531C11.2734 13.6598 11.8934 13.2064 11.76 12.6331L11.0267 9.48643L13.4734 7.36643C13.92 6.97976 13.68 6.24643 13.0934 6.19976L9.87338 5.92643L8.61338 2.9531C8.38672 2.4131 7.61338 2.4131 7.38671 2.9531L6.12672 5.91976L2.90672 6.1931C2.32005 6.23976 2.08005 6.9731 2.52672 7.35976L4.97338 9.47976L4.24005 12.6264C4.10672 13.1998 4.72672 13.6531 5.23338 13.3464L8.00005 11.6798Z" fill="#FFD130"/>
<path d="M26 11.6798L28.7667 13.3531C29.2734 13.6598 29.8934 13.2064 29.76 12.6331L29.0267 9.48643L31.4734 7.36643C31.92 6.97976 31.68 6.24643 31.0934 6.19976L27.8734 5.92643L26.6134 2.9531C26.3867 2.4131 25.6134 2.4131 25.3867 2.9531L24.1267 5.91976L20.9067 6.1931C20.32 6.23976 20.08 6.9731 20.5267 7.35976L22.9734 9.47976L22.24 12.6264C22.1067 13.1998 22.7267 13.6531 23.2334 13.3464L26 11.6798Z" fill="#FFD130"/>
<path d="M44 11.6798L46.7667 13.3531C47.2734 13.6598 47.8934 13.2064 47.76 12.6331L47.0267 9.48643L49.4734 7.36643C49.92 6.97976 49.68 6.24643 49.0934 6.19976L45.8734 5.92643L44.6134 2.9531C44.3867 2.4131 43.6134 2.4131 43.3867 2.9531L42.1267 5.91976L38.9067 6.1931C38.32 6.23976 38.08 6.9731 38.5267 7.35976L40.9734 9.47976L40.24 12.6264C40.1067 13.1998 40.7267 13.6531 41.2334 13.3464L44 11.6798Z" fill="#FFD130"/>
<path fill-rule="evenodd" clip-rule="evenodd" d="M63.8724 5.91641L67.0991 6.19641C67.6857 6.24307 67.9191 6.97641 67.4724 7.36307L65.0257 9.48307L65.7591 12.6364C65.8924 13.2097 65.2724 13.6631 64.7657 13.3564L61.9991 11.6831L59.2324 13.3497C58.7257 13.6564 58.1057 13.2031 58.2391 12.6297L58.9724 9.48307L56.5257 7.36307C56.0791 6.97641 56.3191 6.24307 56.9057 6.19641L60.1257 5.92307L61.3857 2.94974C61.6124 2.40974 62.3857 2.40974 62.6124 2.94974L63.8724 5.91641ZM61.999 4.23641V10.4364L64.5123 11.9564L63.8457 9.10308L66.059 7.18308L63.139 6.92975L61.999 4.23641Z" fill="#FFD130"/>
</svg>

