<svg width="52" height="16" viewBox="0 0 52 16" fill="none" xmlns="http://www.w3.org/2000/svg">
<path d="M8.00005 11.6798L10.7667 13.3531C11.2734 13.6598 11.8934 13.2064 11.76 12.6331L11.0267 9.48643L13.4734 7.36643C13.92 6.97976 13.68 6.24643 13.0934 6.19976L9.87338 5.92643L8.61338 2.9531C8.38672 2.4131 7.61338 2.4131 7.38671 2.9531L6.12672 5.91976L2.90672 6.1931C2.32005 6.23976 2.08005 6.9731 2.52672 7.35976L4.97338 9.47976L4.24005 12.6264C4.10672 13.1998 4.72672 13.6531 5.23338 13.3464L8.00005 11.6798Z" fill="#FFD130"/>
<path d="M26 11.6798L28.7667 13.3531C29.2734 13.6598 29.8934 13.2064 29.76 12.6331L29.0267 9.48643L31.4734 7.36643C31.92 6.97976 31.68 6.24643 31.0934 6.19976L27.8734 5.92643L26.6134 2.9531C26.3867 2.4131 25.6134 2.4131 25.3867 2.9531L24.1267 5.91976L20.9067 6.1931C20.32 6.23976 20.08 6.9731 20.5267 7.35976L22.9734 9.47976L22.24 12.6264C22.1067 13.1998 22.7267 13.6531 23.2334 13.3464L26 11.6798Z" fill="#FFD130"/>
<path d="M44 11.6798L46.7667 13.3531C47.2734 13.6598 47.8934 13.2064 47.76 12.6331L47.0267 9.48643L49.4734 7.36643C49.92 6.97976 49.68 6.24643 49.0934 6.19976L45.8734 5.92643L44.6134 2.9531C44.3867 2.4131 43.6134 2.4131 43.3867 2.9531L42.1267 5.91976L38.9067 6.1931C38.32 6.23976 38.08 6.9731 38.5267 7.35976L40.9734 9.47976L40.24 12.6264C40.1067 13.1998 40.7267 13.6531 41.2334 13.3464L44 11.6798Z" fill="#FFD130"/>
</svg>
