<svg width="185" height="217" viewBox="0 0 185 217" fill="none" xmlns="http://www.w3.org/2000/svg">
<g filter="url(#filter0_d_237_2315)">
<rect x="12.1164" y="12" width="152.825" height="184.921" rx="16.0952" fill="white" shape-rendering="crispEdges"/>
<path d="M73.4382 44.4127V32.7763H77.37C78.2791 32.7763 79.0253 32.9316 79.6087 33.2422C80.192 33.5491 80.6238 33.9714 80.9041 34.5093C81.1844 35.0472 81.3246 35.6589 81.3246 36.3445C81.3246 37.0301 81.1844 37.6381 80.9041 38.1684C80.6238 38.6987 80.1939 39.1153 79.6143 39.4184C79.0348 39.7176 78.2943 39.8672 77.3928 39.8672H74.2109V38.5945H77.3473C77.9685 38.5945 78.4685 38.5036 78.8473 38.3218C79.2299 38.14 79.5064 37.8824 79.6768 37.5491C79.8511 37.2119 79.9382 36.8104 79.9382 36.3445C79.9382 35.8786 79.8511 35.4714 79.6768 35.1229C79.5026 34.7744 79.2242 34.5055 78.8416 34.3161C78.459 34.1229 77.9534 34.0263 77.3246 34.0263H74.8473V44.4127H73.4382ZM78.9155 39.1854L81.7791 44.4127H80.1428L77.3246 39.1854H78.9155ZM84.4699 44.4127H82.9926L87.2653 32.7763H88.7199L92.9926 44.4127H91.5153L88.038 34.6172H87.9471L84.4699 44.4127ZM85.0153 39.8672H90.9699V41.1172H85.0153V39.8672ZM95.1251 44.4127V32.7763H99.1933C100.004 32.7763 100.672 32.9165 101.199 33.1968C101.725 33.4733 102.118 33.8464 102.375 34.3161C102.633 34.782 102.761 35.2991 102.761 35.8672C102.761 36.3672 102.672 36.7801 102.494 37.1059C102.32 37.4316 102.089 37.6892 101.801 37.8786C101.517 38.068 101.208 38.2081 100.875 38.2991V38.4127C101.231 38.4354 101.589 38.5604 101.949 38.7877C102.309 39.015 102.61 39.3407 102.852 39.765C103.095 40.1892 103.216 40.7081 103.216 41.3218C103.216 41.9051 103.083 42.4297 102.818 42.8956C102.553 43.3616 102.135 43.7309 101.563 44.0036C100.991 44.2763 100.246 44.4127 99.3296 44.4127H95.1251ZM96.5342 43.1627H99.3296C100.25 43.1627 100.903 42.9847 101.29 42.6286C101.68 42.2687 101.875 41.8331 101.875 41.3218C101.875 40.9278 101.775 40.5642 101.574 40.2309C101.373 39.8937 101.087 39.6248 100.716 39.4241C100.345 39.2195 99.9054 39.1172 99.3978 39.1172H96.5342V43.1627ZM96.5342 37.89H99.1478C99.572 37.89 99.9546 37.8066 100.296 37.64C100.64 37.4733 100.913 37.2384 101.114 36.9354C101.318 36.6324 101.421 36.2763 101.421 35.8672C101.421 35.3559 101.243 34.9222 100.886 34.5661C100.53 34.2062 99.966 34.0263 99.1933 34.0263H96.5342V37.89Z" fill="#333333"/>
<path d="M42.9439 79.4127V76.7536L49.157 71.0008C49.6854 70.4894 50.1285 70.0292 50.4865 69.6201C50.8501 69.211 51.1257 68.8104 51.3132 68.4184C51.5007 68.0206 51.5945 67.5917 51.5945 67.1314C51.5945 66.6201 51.478 66.1797 51.245 65.8104C51.0121 65.4354 50.6939 65.1485 50.2905 64.9496C49.8871 64.7451 49.4297 64.6428 48.9183 64.6428C48.3842 64.6428 47.9183 64.7508 47.5206 64.9667C47.1229 65.1826 46.816 65.4922 46.6001 65.8956C46.3842 66.2991 46.2763 66.7792 46.2763 67.336H42.7734C42.7734 66.1939 43.032 65.2025 43.549 64.3616C44.066 63.5206 44.7905 62.8701 45.7223 62.4098C46.6541 61.9496 47.728 61.7195 48.9439 61.7195C50.1939 61.7195 51.282 61.9411 52.2081 62.3843C53.1399 62.8218 53.8643 63.4297 54.3814 64.2081C54.8984 64.9866 55.157 65.8786 55.157 66.8843C55.157 67.5434 55.0263 68.1939 54.7649 68.836C54.5092 69.478 54.0518 70.1911 53.3928 70.9752C52.7337 71.7536 51.8047 72.6883 50.6058 73.7792L48.0575 76.2763V76.3956H55.3871V79.4127H42.9439ZM59.2314 79.4127L66.4672 65.0945V64.9752H58.0382V61.9581H70.2854V65.0178L63.0411 79.4127H59.2314ZM79.4315 61.9581H83.9826L88.7894 73.6854H88.994L93.8008 61.9581H98.3519V79.4127H94.7724V68.0519H94.6275L90.1104 79.3275H87.6729L83.1559 68.0093H83.011V79.4127H79.4315V61.9581ZM104.881 79.4127H100.926L106.952 61.9581H111.708L117.725 79.4127H113.77L109.398 65.9468H109.262L104.881 79.4127ZM104.634 72.5519H113.975V75.4326H104.634V72.5519ZM120.306 79.4127V61.9581H127.192C128.51 61.9581 129.635 62.1939 130.567 62.6655C131.504 63.1314 132.217 63.7934 132.706 64.6513C133.2 65.5036 133.448 66.5064 133.448 67.6598C133.448 68.8189 133.198 69.8161 132.698 70.6513C132.198 71.4809 131.473 72.1172 130.524 72.5604C129.581 73.0036 128.439 73.2252 127.098 73.2252H122.487V70.2593H126.502C127.206 70.2593 127.791 70.1627 128.257 69.9695C128.723 69.7763 129.07 69.4866 129.297 69.1002C129.53 68.7138 129.646 68.2337 129.646 67.6598C129.646 67.0803 129.53 66.5917 129.297 66.1939C129.07 65.7962 128.72 65.4951 128.249 65.2905C127.783 65.0803 127.195 64.9752 126.485 64.9752H123.996V79.4127H120.306ZM129.732 71.4695L134.07 79.4127H129.996L125.752 71.4695H129.732Z" fill="#333333"/>
<path d="M138.529 147.46C138.529 134.2 133.261 121.482 123.884 112.105C114.508 102.728 101.79 97.4603 88.5291 97.4603C75.2683 97.4603 62.5506 102.728 53.1738 112.105C43.797 121.482 38.5291 134.199 38.5291 147.46H48.7225C48.7225 136.903 52.9164 126.778 60.3816 119.313C67.8468 111.848 77.9717 107.654 88.5291 107.654C99.0865 107.654 109.211 111.848 116.677 119.313C124.142 126.778 128.336 136.903 128.336 147.46H138.529Z" fill="#4DB53C"/>
<path d="M138.529 147.46C138.529 138.683 136.219 130.061 131.83 122.46C127.442 114.859 121.13 108.547 113.529 104.159C105.928 99.7706 97.306 97.4603 88.5291 97.4603C79.7523 97.4603 71.1301 99.7706 63.5291 104.159L68.6258 112.987C74.6772 109.493 81.5416 107.654 88.5291 107.654C95.5166 107.654 102.381 109.493 108.432 112.987C114.484 116.481 119.509 121.506 123.003 127.557C126.496 133.608 128.336 140.473 128.336 147.46H138.529Z" fill="#D9D9D9"/>
<path d="M65.5359 144.776V142.233L71.9119 132.188H74.1044V135.707H72.8068L68.7873 142.069V142.188H77.848V144.776H65.5359ZM72.8665 147.46V144L72.9261 142.874V132.188H75.9538V147.46H72.8665ZM86.4077 147.796C85.1251 147.791 84.0214 147.475 83.0967 146.849C82.1769 146.222 81.4685 145.315 80.9713 144.127C80.4791 142.939 80.2355 141.509 80.2405 139.839C80.2405 138.173 80.4866 136.754 80.9788 135.581C81.4759 134.407 82.1844 133.515 83.1041 132.904C84.0288 132.287 85.13 131.979 86.4077 131.979C87.6854 131.979 88.7842 132.287 89.7039 132.904C90.6286 133.52 91.3396 134.415 91.8367 135.588C92.3339 136.756 92.58 138.173 92.575 139.839C92.575 141.514 92.3264 142.946 91.8293 144.134C91.3371 145.323 90.6311 146.23 89.7114 146.856C88.7916 147.483 87.6904 147.796 86.4077 147.796ZM86.4077 145.119C87.2827 145.119 87.9813 144.679 88.5033 143.799C89.0253 142.919 89.2838 141.599 89.2788 139.839C89.2788 138.68 89.1595 137.716 88.9209 136.945C88.6872 136.175 88.3541 135.596 87.9216 135.208C87.494 134.82 86.9894 134.626 86.4077 134.626C85.5377 134.626 84.8417 135.061 84.3197 135.931C83.7977 136.801 83.5342 138.104 83.5292 139.839C83.5292 141.012 83.646 141.992 83.8797 142.777C84.1183 143.558 84.4539 144.144 84.8864 144.537C85.319 144.925 85.8261 145.119 86.4077 145.119ZM103.657 144.597V143.791C103.657 143.18 103.786 142.618 104.045 142.106C104.308 141.589 104.689 141.176 105.186 140.868C105.688 140.555 106.3 140.398 107.02 140.398C107.751 140.398 108.365 140.552 108.862 140.861C109.365 141.169 109.742 141.581 109.996 142.098C110.255 142.611 110.384 143.175 110.384 143.791V144.597C110.384 145.208 110.255 145.772 109.996 146.29C109.737 146.802 109.357 147.212 108.855 147.52C108.353 147.833 107.741 147.99 107.02 147.99C106.29 147.99 105.676 147.833 105.179 147.52C104.681 147.212 104.304 146.802 104.045 146.29C103.786 145.772 103.657 145.208 103.657 144.597ZM105.827 143.791V144.597C105.827 144.95 105.912 145.283 106.081 145.596C106.255 145.909 106.568 146.066 107.02 146.066C107.473 146.066 107.781 145.912 107.945 145.603C108.114 145.295 108.199 144.96 108.199 144.597V143.791C108.199 143.428 108.119 143.09 107.96 142.777C107.801 142.464 107.488 142.307 107.02 142.307C106.573 142.307 106.262 142.464 106.088 142.777C105.914 143.09 105.827 143.428 105.827 143.791ZM95.8195 135.857V135.051C95.8195 134.435 95.9512 133.87 96.2147 133.358C96.4782 132.841 96.8585 132.429 97.3557 132.12C97.8578 131.812 98.4644 131.658 99.1753 131.658C99.9111 131.658 100.528 131.812 101.025 132.12C101.522 132.429 101.9 132.841 102.158 133.358C102.417 133.87 102.546 134.435 102.546 135.051V135.857C102.546 136.473 102.414 137.037 102.151 137.549C101.892 138.062 101.512 138.472 101.01 138.78C100.513 139.083 99.9012 139.235 99.1753 139.235C98.4495 139.235 97.8355 139.081 97.3333 138.772C96.8362 138.459 96.4583 138.049 96.1998 137.542C95.9463 137.03 95.8195 136.468 95.8195 135.857ZM98.0045 135.051V135.857C98.0045 136.22 98.089 136.555 98.2581 136.863C98.4321 137.172 98.7378 137.326 99.1753 137.326C99.6327 137.326 99.9434 137.172 100.107 136.863C100.277 136.555 100.361 136.22 100.361 135.857V135.051C100.361 134.688 100.281 134.35 100.122 134.037C99.9633 133.724 99.6476 133.567 99.1753 133.567C98.7328 133.567 98.4271 133.726 98.2581 134.044C98.089 134.363 98.0045 134.698 98.0045 135.051ZM96.8039 147.46L107.304 132.188H109.258L98.7577 147.46H96.8039Z" fill="#4DB53C"/>
<path opacity="0.6" d="M36.0007 169.781V178.508H34.9439V170.889H34.8928L32.7621 172.303V171.23L34.9439 169.781H36.0007ZM41.5972 178.627C40.9552 178.627 40.4083 178.453 39.9566 178.103C39.5049 177.751 39.1597 177.241 38.9211 176.573C38.6825 175.903 38.5631 175.093 38.5631 174.144C38.5631 173.201 38.6825 172.396 38.9211 171.728C39.1626 171.058 39.5092 170.546 39.9609 170.194C40.4154 169.839 40.9609 169.661 41.5972 169.661C42.2336 169.661 42.7776 169.839 43.2293 170.194C43.6839 170.546 44.0305 171.058 44.2691 171.728C44.5106 172.396 44.6313 173.201 44.6313 174.144C44.6313 175.093 44.512 175.903 44.2734 176.573C44.0347 177.241 43.6896 177.751 43.2379 178.103C42.7862 178.453 42.2393 178.627 41.5972 178.627ZM41.5972 177.69C42.2336 177.69 42.7279 177.383 43.0802 176.769C43.4325 176.156 43.6086 175.281 43.6086 174.144C43.6086 173.389 43.5276 172.745 43.3657 172.214C43.2066 171.683 42.9765 171.278 42.6754 170.999C42.3771 170.721 42.0177 170.582 41.5972 170.582C40.9666 170.582 40.4737 170.893 40.1185 171.515C39.7634 172.134 39.5859 173.011 39.5859 174.144C39.5859 174.9 39.6654 175.542 39.8245 176.07C39.9836 176.599 40.2123 177.001 40.5106 177.276C40.8117 177.552 41.1739 177.69 41.5972 177.69ZM53.6 169.781H54.6568V176.019C54.6568 176.576 54.5545 177.049 54.35 177.438C54.1454 177.828 53.8571 178.123 53.4849 178.325C53.1127 178.526 52.6738 178.627 52.1681 178.627C51.6909 178.627 51.2662 178.541 50.894 178.367C50.5218 178.191 50.2292 177.941 50.0162 177.617C49.8031 177.293 49.6966 176.909 49.6966 176.462H50.7363C50.7363 176.71 50.7974 176.926 50.9196 177.11C51.0446 177.292 51.215 177.434 51.4309 177.536C51.6468 177.639 51.8926 177.69 52.1681 177.69C52.4721 177.69 52.7306 177.626 52.9437 177.498C53.1568 177.37 53.3187 177.183 53.4295 176.935C53.5431 176.685 53.6 176.38 53.6 176.019V169.781ZM58.8045 178.661C58.3897 178.661 58.0133 178.583 57.6752 178.427C57.3371 178.268 57.0687 178.039 56.8698 177.741C56.6709 177.44 56.5715 177.076 56.5715 176.65C56.5715 176.275 56.6454 175.971 56.7931 175.738C56.9408 175.502 57.1383 175.318 57.3854 175.184C57.6326 175.051 57.9053 174.951 58.2036 174.886C58.5047 174.818 58.8073 174.764 59.1113 174.724C59.509 174.673 59.8314 174.634 60.0786 174.609C60.3286 174.58 60.5104 174.534 60.6241 174.468C60.7405 174.403 60.7988 174.289 60.7988 174.127V174.093C60.7988 173.673 60.6837 173.346 60.4536 173.113C60.2263 172.88 59.8812 172.764 59.4181 172.764C58.938 172.764 58.5616 172.869 58.2888 173.079C58.0161 173.289 57.8243 173.514 57.7135 173.752L56.759 173.411C56.9295 173.014 57.1567 172.704 57.4408 172.482C57.7277 172.258 58.0402 172.102 58.3783 172.014C58.7192 171.923 59.0545 171.877 59.384 171.877C59.5942 171.877 59.8357 171.903 60.1084 171.954C60.384 172.002 60.6496 172.103 60.9053 172.257C61.1638 172.41 61.3783 172.641 61.5488 172.951C61.7192 173.261 61.8045 173.676 61.8045 174.195V178.508H60.7988V177.622H60.7476C60.6795 177.764 60.5658 177.916 60.4067 178.078C60.2476 178.239 60.036 178.377 59.7718 178.491C59.5076 178.605 59.1851 178.661 58.8045 178.661ZM58.9579 177.758C59.3556 177.758 59.6908 177.68 59.9635 177.524C60.2391 177.367 60.4465 177.166 60.5857 176.918C60.7277 176.671 60.7988 176.411 60.7988 176.139V175.218C60.7562 175.269 60.6624 175.316 60.5175 175.359C60.3755 175.399 60.2107 175.434 60.0232 175.465C59.8385 175.494 59.6581 175.519 59.482 175.542C59.3087 175.562 59.1681 175.579 59.0601 175.593C58.7988 175.627 58.5545 175.683 58.3272 175.759C58.1027 175.833 57.9209 175.945 57.7817 176.096C57.6454 176.244 57.5772 176.445 57.5772 176.701C57.5772 177.051 57.7064 177.315 57.965 177.494C58.2263 177.67 58.5573 177.758 58.9579 177.758ZM66.3516 178.644C65.8062 178.644 65.3246 178.507 64.907 178.231C64.4894 177.953 64.1627 177.56 63.9269 177.055C63.6911 176.546 63.5732 175.945 63.5732 175.252C63.5732 174.565 63.6911 173.968 63.9269 173.462C64.1627 172.957 64.4908 172.566 64.9113 172.291C65.3317 172.015 65.8175 171.877 66.3687 171.877C66.7948 171.877 67.1315 171.948 67.3786 172.09C67.6286 172.23 67.819 172.389 67.9496 172.568C68.0832 172.744 68.1869 172.889 68.2607 173.002H68.3459V169.781H69.3516V178.508H68.38V177.502H68.2607C68.1869 177.622 68.0817 177.772 67.9454 177.954C67.809 178.133 67.6144 178.293 67.3616 178.435C67.1087 178.575 66.7721 178.644 66.3516 178.644ZM66.488 177.741C66.8914 177.741 67.2323 177.636 67.5107 177.426C67.7891 177.212 68.0008 176.918 68.1457 176.543C68.2905 176.166 68.363 175.73 68.363 175.235C68.363 174.747 68.292 174.319 68.1499 173.953C68.0079 173.583 67.7977 173.296 67.5192 173.092C67.2408 172.884 66.8971 172.781 66.488 172.781C66.0619 172.781 65.7067 172.89 65.4227 173.109C65.1414 173.325 64.9298 173.619 64.7877 173.991C64.6485 174.36 64.5789 174.775 64.5789 175.235C64.5789 175.701 64.6499 176.124 64.792 176.505C64.9369 176.883 65.1499 177.184 65.4312 177.409C65.7153 177.63 66.0675 177.741 66.488 177.741ZM73.0561 178.508L71.0618 171.962H72.1186L73.5334 176.974H73.6016L74.9993 171.962H76.0732L77.4538 176.957H77.522L78.9368 171.962H79.9936L77.9993 178.508H77.0107L75.5788 173.48H75.4766L74.0448 178.508H73.0561ZM83.4893 178.661C83.0745 178.661 82.6981 178.583 82.36 178.427C82.022 178.268 81.7535 178.039 81.5546 177.741C81.3558 177.44 81.2563 177.076 81.2563 176.65C81.2563 176.275 81.3302 175.971 81.4779 175.738C81.6257 175.502 81.8231 175.318 82.0703 175.184C82.3174 175.051 82.5902 174.951 82.8884 174.886C83.1896 174.818 83.4921 174.764 83.7961 174.724C84.1938 174.673 84.5163 174.634 84.7634 174.609C85.0134 174.58 85.1953 174.534 85.3089 174.468C85.4254 174.403 85.4836 174.289 85.4836 174.127V174.093C85.4836 173.673 85.3686 173.346 85.1384 173.113C84.9112 172.88 84.566 172.764 84.1029 172.764C83.6228 172.764 83.2464 172.869 82.9737 173.079C82.7009 173.289 82.5092 173.514 82.3984 173.752L81.4438 173.411C81.6143 173.014 81.8416 172.704 82.1257 172.482C82.4126 172.258 82.7251 172.102 83.0632 172.014C83.4041 171.923 83.7393 171.877 84.0688 171.877C84.2791 171.877 84.5205 171.903 84.7933 171.954C85.0688 172.002 85.3345 172.103 85.5902 172.257C85.8487 172.41 86.0632 172.641 86.2336 172.951C86.4041 173.261 86.4893 173.676 86.4893 174.195V178.508H85.4836V177.622H85.4325C85.3643 177.764 85.2507 177.916 85.0916 178.078C84.9325 178.239 84.7208 178.377 84.4566 178.491C84.1924 178.605 83.87 178.661 83.4893 178.661ZM83.6427 177.758C84.0404 177.758 84.3757 177.68 84.6484 177.524C84.924 177.367 85.1313 177.166 85.2705 176.918C85.4126 176.671 85.4836 176.411 85.4836 176.139V175.218C85.441 175.269 85.3473 175.316 85.2024 175.359C85.0603 175.399 84.8955 175.434 84.708 175.465C84.5234 175.494 84.343 175.519 84.1669 175.542C83.9936 175.562 83.8529 175.579 83.745 175.593C83.4836 175.627 83.2393 175.683 83.012 175.759C82.7876 175.833 82.6058 175.945 82.4666 176.096C82.3302 176.244 82.262 176.445 82.262 176.701C82.262 177.051 82.3913 177.315 82.6498 177.494C82.9112 177.67 83.2421 177.758 83.6427 177.758ZM89.5706 169.781V178.508H88.5649V169.781H89.5706ZM94.9266 170.718V169.781H101.472V170.718H98.7278V178.508H97.6709V170.718H94.9266ZM105.002 178.644C104.371 178.644 103.827 178.505 103.37 178.227C102.915 177.945 102.564 177.553 102.317 177.051C102.073 176.545 101.951 175.957 101.951 175.286C101.951 174.616 102.073 174.025 102.317 173.514C102.564 172.999 102.908 172.599 103.348 172.312C103.792 172.022 104.309 171.877 104.9 171.877C105.24 171.877 105.577 171.934 105.91 172.048C106.242 172.161 106.544 172.346 106.817 172.602C107.09 172.855 107.307 173.19 107.469 173.607C107.631 174.025 107.712 174.539 107.712 175.15V175.576H102.667V174.707H106.689C106.689 174.337 106.615 174.008 106.468 173.718C106.323 173.428 106.115 173.2 105.846 173.032C105.579 172.864 105.263 172.781 104.9 172.781C104.499 172.781 104.152 172.88 103.86 173.079C103.57 173.275 103.347 173.531 103.191 173.846C103.035 174.161 102.956 174.499 102.956 174.86V175.44C102.956 175.934 103.042 176.353 103.212 176.697C103.385 177.038 103.625 177.298 103.932 177.477C104.239 177.653 104.596 177.741 105.002 177.741C105.266 177.741 105.505 177.704 105.718 177.63C105.934 177.553 106.12 177.44 106.276 177.289C106.432 177.136 106.553 176.945 106.638 176.718L107.61 176.991C107.508 177.32 107.336 177.61 107.094 177.86C106.853 178.107 106.554 178.301 106.199 178.44C105.844 178.576 105.445 178.644 105.002 178.644ZM109.482 178.508V171.962H110.454V172.951H110.522C110.641 172.627 110.857 172.364 111.169 172.163C111.482 171.961 111.834 171.86 112.226 171.86C112.3 171.86 112.392 171.862 112.503 171.864C112.614 171.867 112.698 171.872 112.755 171.877V172.9C112.721 172.891 112.642 172.879 112.52 172.862C112.401 172.842 112.275 172.832 112.141 172.832C111.823 172.832 111.539 172.899 111.289 173.032C111.042 173.163 110.846 173.345 110.701 173.578C110.559 173.808 110.488 174.07 110.488 174.366V178.508H109.482ZM118.823 173.428L117.92 173.684C117.863 173.534 117.779 173.387 117.668 173.245C117.56 173.1 117.413 172.981 117.225 172.887C117.038 172.793 116.798 172.747 116.505 172.747C116.104 172.747 115.771 172.839 115.504 173.024C115.239 173.205 115.107 173.437 115.107 173.718C115.107 173.968 115.198 174.166 115.38 174.31C115.562 174.455 115.846 174.576 116.232 174.673L117.204 174.911C117.789 175.053 118.225 175.271 118.512 175.563C118.799 175.853 118.942 176.227 118.942 176.684C118.942 177.059 118.834 177.394 118.619 177.69C118.406 177.985 118.107 178.218 117.724 178.389C117.34 178.559 116.894 178.644 116.386 178.644C115.718 178.644 115.165 178.499 114.728 178.21C114.29 177.92 114.013 177.497 113.897 176.94L114.852 176.701C114.942 177.053 115.114 177.318 115.367 177.494C115.623 177.67 115.957 177.758 116.369 177.758C116.837 177.758 117.209 177.659 117.485 177.46C117.763 177.258 117.903 177.016 117.903 176.735C117.903 176.508 117.823 176.318 117.664 176.164C117.505 176.008 117.261 175.891 116.931 175.815L115.84 175.559C115.241 175.417 114.8 175.197 114.519 174.899C114.241 174.597 114.102 174.221 114.102 173.769C114.102 173.4 114.205 173.073 114.413 172.789C114.623 172.505 114.908 172.282 115.269 172.12C115.633 171.958 116.045 171.877 116.505 171.877C117.153 171.877 117.661 172.019 118.031 172.303C118.403 172.587 118.667 172.962 118.823 173.428ZM123.441 178.644C122.81 178.644 122.266 178.505 121.809 178.227C121.354 177.945 121.003 177.553 120.756 177.051C120.512 176.545 120.389 175.957 120.389 175.286C120.389 174.616 120.512 174.025 120.756 173.514C121.003 172.999 121.347 172.599 121.787 172.312C122.23 172.022 122.747 171.877 123.338 171.877C123.679 171.877 124.016 171.934 124.348 172.048C124.681 172.161 124.983 172.346 125.256 172.602C125.529 172.855 125.746 173.19 125.908 173.607C126.07 174.025 126.151 174.539 126.151 175.15V175.576H121.105V174.707H125.128C125.128 174.337 125.054 174.008 124.907 173.718C124.762 173.428 124.554 173.2 124.284 173.032C124.017 172.864 123.702 172.781 123.338 172.781C122.938 172.781 122.591 172.88 122.299 173.079C122.009 173.275 121.786 173.531 121.63 173.846C121.473 174.161 121.395 174.499 121.395 174.86V175.44C121.395 175.934 121.48 176.353 121.651 176.697C121.824 177.038 122.064 177.298 122.371 177.477C122.678 177.653 123.034 177.741 123.441 177.741C123.705 177.741 123.943 177.704 124.157 177.63C124.372 177.553 124.559 177.44 124.715 177.289C124.871 177.136 124.992 176.945 125.077 176.718L126.049 176.991C125.946 177.32 125.774 177.61 125.533 177.86C125.291 178.107 124.993 178.301 124.638 178.44C124.283 178.576 123.884 178.644 123.441 178.644ZM130.392 178.644C129.847 178.644 129.365 178.507 128.948 178.231C128.53 177.953 128.203 177.56 127.968 177.055C127.732 176.546 127.614 175.945 127.614 175.252C127.614 174.565 127.732 173.968 127.968 173.462C128.203 172.957 128.531 172.566 128.952 172.291C129.372 172.015 129.858 171.877 130.409 171.877C130.835 171.877 131.172 171.948 131.419 172.09C131.669 172.23 131.86 172.389 131.99 172.568C132.124 172.744 132.227 172.889 132.301 173.002H132.387V169.781H133.392V178.508H132.421V177.502H132.301C132.227 177.622 132.122 177.772 131.986 177.954C131.85 178.133 131.655 178.293 131.402 178.435C131.149 178.575 130.813 178.644 130.392 178.644ZM130.529 177.741C130.932 177.741 131.273 177.636 131.551 177.426C131.83 177.212 132.041 176.918 132.186 176.543C132.331 176.166 132.404 175.73 132.404 175.235C132.404 174.747 132.333 174.319 132.191 173.953C132.049 173.583 131.838 173.296 131.56 173.092C131.281 172.884 130.938 172.781 130.529 172.781C130.102 172.781 129.747 172.89 129.463 173.109C129.182 173.325 128.97 173.619 128.828 173.991C128.689 174.36 128.62 174.775 128.62 175.235C128.62 175.701 128.691 176.124 128.833 176.505C128.977 176.883 129.191 177.184 129.472 177.409C129.756 177.63 130.108 177.741 130.529 177.741ZM135.614 178.508V171.962H136.619V178.508H135.614ZM136.125 170.872C135.929 170.872 135.76 170.805 135.618 170.671C135.479 170.538 135.409 170.377 135.409 170.19C135.409 170.002 135.479 169.842 135.618 169.708C135.76 169.575 135.929 169.508 136.125 169.508C136.321 169.508 136.489 169.575 136.628 169.708C136.77 169.842 136.841 170.002 136.841 170.19C136.841 170.377 136.77 170.538 136.628 170.671C136.489 170.805 136.321 170.872 136.125 170.872ZM140.628 178.661C140.213 178.661 139.836 178.583 139.498 178.427C139.16 178.268 138.892 178.039 138.693 177.741C138.494 177.44 138.395 177.076 138.395 176.65C138.395 176.275 138.468 175.971 138.616 175.738C138.764 175.502 138.961 175.318 139.209 175.184C139.456 175.051 139.728 174.951 140.027 174.886C140.328 174.818 140.63 174.764 140.934 174.724C141.332 174.673 141.655 174.634 141.902 174.609C142.152 174.58 142.334 174.534 142.447 174.468C142.564 174.403 142.622 174.289 142.622 174.127V174.093C142.622 173.673 142.507 173.346 142.277 173.113C142.049 172.88 141.704 172.764 141.241 172.764C140.761 172.764 140.385 172.869 140.112 173.079C139.839 173.289 139.647 173.514 139.537 173.752L138.582 173.411C138.753 173.014 138.98 172.704 139.264 172.482C139.551 172.258 139.863 172.102 140.201 172.014C140.542 171.923 140.878 171.877 141.207 171.877C141.417 171.877 141.659 171.903 141.932 171.954C142.207 172.002 142.473 172.103 142.728 172.257C142.987 172.41 143.201 172.641 143.372 172.951C143.542 173.261 143.628 173.676 143.628 174.195V178.508H142.622V177.622H142.571C142.503 177.764 142.389 177.916 142.23 178.078C142.071 178.239 141.859 178.377 141.595 178.491C141.331 178.605 141.008 178.661 140.628 178.661ZM140.781 177.758C141.179 177.758 141.514 177.68 141.787 177.524C142.062 177.367 142.27 177.166 142.409 176.918C142.551 176.671 142.622 176.411 142.622 176.139V175.218C142.579 175.269 142.486 175.316 142.341 175.359C142.199 175.399 142.034 175.434 141.846 175.465C141.662 175.494 141.481 175.519 141.305 175.542C141.132 175.562 140.991 175.579 140.883 175.593C140.622 175.627 140.378 175.683 140.15 175.759C139.926 175.833 139.744 175.945 139.605 176.096C139.468 176.244 139.4 176.445 139.4 176.701C139.4 177.051 139.53 177.315 139.788 177.494C140.049 177.67 140.38 177.758 140.781 177.758Z" fill="#333333"/>
</g>
<defs>
<filter id="filter0_d_237_2315" x="0.116394" y="0" width="184.825" height="216.921" filterUnits="userSpaceOnUse" color-interpolation-filters="sRGB">
<feFlood flood-opacity="0" result="BackgroundImageFix"/>
<feColorMatrix in="SourceAlpha" type="matrix" values="0 0 0 0 0 0 0 0 0 0 0 0 0 0 0 0 0 0 127 0" result="hardAlpha"/>
<feOffset dx="4" dy="4"/>
<feGaussianBlur stdDeviation="8"/>
<feComposite in2="hardAlpha" operator="out"/>
<feColorMatrix type="matrix" values="0 0 0 0 0 0 0 0 0 0 0 0 0 0 0 0 0 0 0.08 0"/>
<feBlend mode="normal" in2="BackgroundImageFix" result="effect1_dropShadow_237_2315"/>
<feBlend mode="normal" in="SourceGraphic" in2="effect1_dropShadow_237_2315" result="shape"/>
</filter>
</defs>
</svg>
