<svg width="185" height="217" viewBox="0 0 185 217" fill="none" xmlns="http://www.w3.org/2000/svg">
<g filter="url(#filter0_d_237_2297)">
<rect x="12.0582" y="12" width="152.825" height="184.921" rx="16.0952" fill="white" shape-rendering="crispEdges"/>
<path d="M79.7437 35.6854C79.6755 35.1097 79.399 34.6627 78.9141 34.3445C78.4293 34.0263 77.8346 33.8672 77.13 33.8672C76.6149 33.8672 76.1641 33.9506 75.7778 34.1172C75.3952 34.2839 75.0959 34.5131 74.88 34.8047C74.6679 35.0964 74.5619 35.4278 74.5619 35.7991C74.5619 36.1097 74.6357 36.3767 74.7834 36.6002C74.935 36.8199 75.1281 37.0036 75.363 37.1513C75.5978 37.2953 75.8441 37.4146 76.1016 37.5093C76.3592 37.6002 76.5959 37.6741 76.8119 37.7309L77.9937 38.0491C78.2967 38.1286 78.6338 38.2384 79.005 38.3786C79.38 38.5187 79.738 38.71 80.0789 38.9525C80.4236 39.1911 80.7077 39.4979 80.9312 39.8729C81.1547 40.2479 81.2664 40.7081 81.2664 41.2536C81.2664 41.8824 81.1016 42.4506 80.7721 42.9581C80.4463 43.4657 79.9691 43.8691 79.3403 44.1684C78.7153 44.4676 77.9558 44.6172 77.0619 44.6172C76.2285 44.6172 75.5069 44.4828 74.8971 44.2138C74.291 43.9449 73.8138 43.5699 73.4653 43.0888C73.1206 42.6078 72.9255 42.0491 72.88 41.4127H74.3346C74.3725 41.8521 74.5202 42.2157 74.7778 42.5036C75.0391 42.7877 75.3687 42.9998 75.7664 43.14C76.1679 43.2763 76.5997 43.3445 77.0619 43.3445C77.5997 43.3445 78.0827 43.2574 78.5107 43.0831C78.9388 42.9051 79.2778 42.6589 79.5278 42.3445C79.7778 42.0263 79.9028 41.6551 79.9028 41.2309C79.9028 40.8445 79.7948 40.5301 79.5789 40.2877C79.363 40.0453 79.0789 39.8483 78.7266 39.6968C78.3744 39.5453 77.9937 39.4127 77.5846 39.2991L76.1528 38.89C75.2437 38.6286 74.524 38.2555 73.9937 37.7706C73.4634 37.2858 73.1982 36.6513 73.1982 35.8672C73.1982 35.2157 73.3744 34.6475 73.7266 34.1627C74.0827 33.6741 74.56 33.2953 75.1584 33.0263C75.7607 32.7536 76.4331 32.6172 77.1755 32.6172C77.9255 32.6172 78.5922 32.7517 79.1755 33.0206C79.7588 33.2858 80.2209 33.6494 80.5619 34.1116C80.9066 34.5737 81.0884 35.0983 81.1073 35.6854H79.7437ZM83.9032 44.4127V32.7763H90.9259V34.0263H85.3123V37.9581H90.5623V39.2081H85.3123V43.1627H91.0168V44.4127H83.9032ZM103.013 32.7763V44.4127H101.649L95.3084 35.2763H95.1948V44.4127H93.7857V32.7763H95.1493L101.513 41.9354H101.627V32.7763H103.013Z" fill="#333333"/>
<path d="M42.3857 79.4127V76.7536L48.5988 71.0008C49.1272 70.4894 49.5704 70.0292 49.9283 69.6201C50.292 69.211 50.5675 68.8104 50.755 68.4184C50.9425 68.0206 51.0363 67.5917 51.0363 67.1314C51.0363 66.6201 50.9198 66.1797 50.6869 65.8104C50.4539 65.4354 50.1357 65.1485 49.7323 64.9496C49.3289 64.7451 48.8715 64.6428 48.3602 64.6428C47.8261 64.6428 47.3602 64.7508 46.9624 64.9667C46.5647 65.1826 46.2579 65.4922 46.042 65.8956C45.8261 66.2991 45.7181 66.7792 45.7181 67.336H42.2153C42.2153 66.1939 42.4738 65.2025 42.9908 64.3616C43.5079 63.5206 44.2323 62.8701 45.1641 62.4098C46.0959 61.9496 47.1698 61.7195 48.3857 61.7195C49.6357 61.7195 50.7238 61.9411 51.6499 62.3843C52.5817 62.8218 53.3062 63.4297 53.8232 64.2081C54.3403 64.9866 54.5988 65.8786 54.5988 66.8843C54.5988 67.5434 54.4681 68.1939 54.2067 68.836C53.9511 69.478 53.4937 70.1911 52.8346 70.9752C52.1755 71.7536 51.2465 72.6883 50.0477 73.7792L47.4994 76.2763V76.3956H54.8289V79.4127H42.3857ZM64.3579 79.6513C63.1534 79.6513 62.0795 79.4297 61.1363 78.9866C60.1988 78.5434 59.4545 77.9326 58.9034 77.1542C58.3522 76.3758 58.0653 75.4837 58.0426 74.478H61.6221C61.6619 75.1542 61.946 75.7025 62.4744 76.1229C63.0028 76.5434 63.6306 76.7536 64.3579 76.7536C64.9375 76.7536 65.4488 76.6258 65.892 76.3701C66.3409 76.1087 66.6903 75.7479 66.9403 75.2877C67.196 74.8218 67.3238 74.2877 67.3238 73.6854C67.3238 73.0718 67.1931 72.532 66.9318 72.0661C66.6761 71.6002 66.321 71.2366 65.8664 70.9752C65.4119 70.7138 64.892 70.5803 64.3068 70.5746C63.7954 70.5746 63.2982 70.6797 62.8153 70.89C62.338 71.1002 61.9659 71.3871 61.6988 71.7508L58.4176 71.1627L59.2443 61.9581H69.9147V64.9752H62.2869L61.8352 69.3473H61.9375C62.2443 68.9155 62.7073 68.5576 63.3267 68.2735C63.946 67.9894 64.6392 67.8473 65.4062 67.8473C66.4573 67.8473 67.3948 68.0945 68.2187 68.5888C69.0426 69.0831 69.6931 69.7621 70.1704 70.6258C70.6477 71.4837 70.8835 72.4723 70.8778 73.5917C70.8835 74.7678 70.6107 75.8133 70.0596 76.728C69.5142 77.6371 68.75 78.353 67.767 78.8758C66.7897 79.3928 65.6534 79.6513 64.3579 79.6513ZM80.0686 61.9581H84.6198L89.4266 73.6854H89.6311L94.4379 61.9581H98.9891V79.4127H95.4095V68.0519H95.2646L90.7476 79.3275H88.3101L83.793 68.0093H83.6482V79.4127H80.0686V61.9581ZM105.518 79.4127H101.564L107.589 61.9581H112.345L118.362 79.4127H114.407L110.035 65.9468H109.899L105.518 79.4127ZM105.271 72.5519H114.612V75.4326H105.271V72.5519ZM120.943 79.4127V61.9581H127.829C129.147 61.9581 130.272 62.1939 131.204 62.6655C132.142 63.1314 132.855 63.7934 133.343 64.6513C133.838 65.5036 134.085 66.5064 134.085 67.6598C134.085 68.8189 133.835 69.8161 133.335 70.6513C132.835 71.4809 132.11 72.1172 131.161 72.5604C130.218 73.0036 129.076 73.2252 127.735 73.2252H123.125V70.2593H127.139C127.843 70.2593 128.428 70.1627 128.894 69.9695C129.36 69.7763 129.707 69.4866 129.934 69.1002C130.167 68.7138 130.284 68.2337 130.284 67.6598C130.284 67.0803 130.167 66.5917 129.934 66.1939C129.707 65.7962 129.357 65.4951 128.886 65.2905C128.42 65.0803 127.832 64.9752 127.122 64.9752H124.633V79.4127H120.943ZM130.369 71.4695L134.707 79.4127H130.633L126.389 71.4695H130.369Z" fill="#333333"/>
<path d="M138.471 147.46C138.471 134.2 133.203 121.482 123.826 112.105C114.449 102.728 101.732 97.4603 88.471 97.4603C75.2101 97.4603 62.4924 102.728 53.1156 112.105C43.7388 121.482 38.4709 134.199 38.4709 147.46H48.6643C48.6643 136.903 52.8582 126.778 60.3234 119.313C67.7886 111.848 77.9136 107.654 88.471 107.654C99.0283 107.654 109.153 111.848 116.618 119.313C124.084 126.778 128.278 136.903 128.278 147.46H138.471Z" fill="#FFAA29"/>
<path d="M138.471 147.46C138.471 140.894 137.178 134.392 134.665 128.326C132.152 122.26 128.469 116.748 123.826 112.105C119.183 107.462 113.671 103.779 107.605 101.266C101.539 98.7536 95.037 97.4603 88.471 97.4603V107.654C93.6984 107.654 98.8747 108.683 103.704 110.684C108.534 112.684 112.922 115.616 116.618 119.313C120.315 123.009 123.247 127.397 125.247 132.227C127.248 137.057 128.278 142.233 128.278 147.46H138.471Z" fill="#D9D9D9"/>
<path d="M71.287 147.669C70.233 147.669 69.2934 147.475 68.4681 147.087C67.6478 146.7 66.9965 146.165 66.5143 145.484C66.032 144.803 65.781 144.022 65.7611 143.143H68.8932C68.928 143.734 69.1766 144.214 69.6389 144.582C70.1013 144.95 70.6506 145.134 71.287 145.134C71.7941 145.134 72.2415 145.022 72.6293 144.798C73.0221 144.569 73.3278 144.254 73.5466 143.851C73.7703 143.443 73.8822 142.976 73.8822 142.449C73.8822 141.912 73.7678 141.44 73.5391 141.032C73.3154 140.624 73.0047 140.306 72.607 140.078C72.2092 139.849 71.7543 139.732 71.2423 139.727C70.7948 139.727 70.3598 139.819 69.9372 140.003C69.5196 140.187 69.194 140.438 68.9603 140.756L66.0892 140.242L66.8126 132.188H76.1492V134.828H69.4749L69.0796 138.653H69.1691C69.4376 138.275 69.8428 137.962 70.3847 137.714C70.9266 137.465 71.5331 137.341 72.2043 137.341C73.124 137.341 73.9443 137.557 74.6652 137.989C75.3861 138.422 75.9553 139.016 76.3729 139.772C76.7905 140.522 76.9969 141.388 76.9919 142.367C76.9969 143.396 76.7582 144.311 76.276 145.111C75.7987 145.907 75.13 146.533 74.27 146.991C73.4148 147.443 72.4205 147.669 71.287 147.669ZM85.6523 147.796C84.3696 147.791 83.2659 147.475 82.3412 146.849C81.4215 146.222 80.713 145.315 80.2159 144.127C79.7237 142.939 79.4801 141.509 79.4851 139.839C79.4851 138.173 79.7311 136.754 80.2233 135.581C80.7205 134.407 81.4289 133.515 82.3487 132.904C83.2734 132.287 84.3746 131.979 85.6523 131.979C86.93 131.979 88.0287 132.287 88.9485 132.904C89.8732 133.52 90.5841 134.415 91.0813 135.588C91.5784 136.756 91.8245 138.173 91.8196 139.839C91.8196 141.514 91.571 142.946 91.0738 144.134C90.5816 145.323 89.8757 146.23 88.9559 146.856C88.0362 147.483 86.935 147.796 85.6523 147.796ZM85.6523 145.119C86.5273 145.119 87.2258 144.679 87.7478 143.799C88.2699 142.919 88.5284 141.599 88.5234 139.839C88.5234 138.68 88.4041 137.716 88.1655 136.945C87.9318 136.175 87.5987 135.596 87.1662 135.208C86.7386 134.82 86.234 134.626 85.6523 134.626C84.7823 134.626 84.0863 135.061 83.5642 135.931C83.0422 136.801 82.7787 138.104 82.7738 139.839C82.7738 141.012 82.8906 141.992 83.1243 142.777C83.3629 143.558 83.6985 144.144 84.131 144.537C84.5635 144.925 85.0706 145.119 85.6523 145.119ZM102.902 144.597V143.791C102.902 143.18 103.031 142.618 103.29 142.106C103.553 141.589 103.933 141.176 104.431 140.868C104.933 140.555 105.544 140.398 106.265 140.398C106.996 140.398 107.61 140.552 108.107 140.861C108.609 141.169 108.987 141.581 109.241 142.098C109.499 142.611 109.628 143.175 109.628 143.791V144.597C109.628 145.208 109.499 145.772 109.241 146.29C108.982 146.802 108.602 147.212 108.1 147.52C107.597 147.833 106.986 147.99 106.265 147.99C105.534 147.99 104.92 147.833 104.423 147.52C103.926 147.212 103.548 146.802 103.29 146.29C103.031 145.772 102.902 145.208 102.902 144.597ZM105.072 143.791V144.597C105.072 144.95 105.156 145.283 105.325 145.596C105.499 145.909 105.813 146.066 106.265 146.066C106.717 146.066 107.026 145.912 107.19 145.603C107.359 145.295 107.443 144.96 107.443 144.597V143.791C107.443 143.428 107.364 143.09 107.205 142.777C107.046 142.464 106.732 142.307 106.265 142.307C105.818 142.307 105.507 142.464 105.333 142.777C105.159 143.09 105.072 143.428 105.072 143.791ZM95.0641 135.857V135.051C95.0641 134.435 95.1958 133.87 95.4593 133.358C95.7228 132.841 96.1031 132.429 96.6003 132.12C97.1024 131.812 97.7089 131.658 98.4199 131.658C99.1557 131.658 99.7722 131.812 100.269 132.12C100.766 132.429 101.144 132.841 101.403 133.358C101.661 133.87 101.791 134.435 101.791 135.051V135.857C101.791 136.473 101.659 137.037 101.395 137.549C101.137 138.062 100.757 138.472 100.254 138.78C99.7572 139.083 99.1457 139.235 98.4199 139.235C97.694 139.235 97.08 139.081 96.5779 138.772C96.0807 138.459 95.7029 138.049 95.4444 137.542C95.1908 137.03 95.0641 136.468 95.0641 135.857ZM97.2491 135.051V135.857C97.2491 136.22 97.3336 136.555 97.5026 136.863C97.6766 137.172 97.9824 137.326 98.4199 137.326C98.8773 137.326 99.188 137.172 99.3521 136.863C99.5211 136.555 99.6056 136.22 99.6056 135.857V135.051C99.6056 134.688 99.5261 134.35 99.367 134.037C99.2079 133.724 98.8922 133.567 98.4199 133.567C97.9774 133.567 97.6717 133.726 97.5026 134.044C97.3336 134.363 97.2491 134.698 97.2491 135.051ZM96.0484 147.46L106.548 132.188H108.502L98.0023 147.46H96.0484Z" fill="#FFAA29"/>
<path opacity="0.6" d="M38.6016 178.627C38.1016 178.627 37.6513 178.528 37.2508 178.329C36.8502 178.13 36.5292 177.857 36.2877 177.511C36.0462 177.164 35.9141 176.769 35.8914 176.326H36.9141C36.9539 176.721 37.1329 177.048 37.4511 177.306C37.7721 177.562 38.1556 177.69 38.6016 177.69C38.9596 177.69 39.2778 177.606 39.5562 177.438C39.8374 177.271 40.0576 177.041 40.2167 176.748C40.3786 176.453 40.4596 176.119 40.4596 175.747C40.4596 175.366 40.3758 175.026 40.2082 174.728C40.0434 174.427 39.8161 174.19 39.5263 174.016C39.2366 173.843 38.9056 173.755 38.5334 173.752C38.2664 173.749 37.9923 173.791 37.711 173.876C37.4298 173.958 37.1982 174.065 37.0164 174.195L36.0278 174.076L36.5562 169.781H41.0903V170.718H37.4425L37.1357 173.292H37.1869C37.3658 173.15 37.5903 173.032 37.8602 172.938C38.13 172.845 38.4113 172.798 38.7039 172.798C39.238 172.798 39.7138 172.926 40.1315 173.181C40.5519 173.434 40.8815 173.781 41.1201 174.221C41.3616 174.661 41.4823 175.164 41.4823 175.73C41.4823 176.286 41.3573 176.784 41.1073 177.221C40.8602 177.656 40.5192 177.999 40.0846 178.252C39.6499 178.502 39.1556 178.627 38.6016 178.627ZM50.5245 169.781H51.5813V176.019C51.5813 176.576 51.479 177.049 51.2745 177.438C51.0699 177.828 50.7816 178.123 50.4094 178.325C50.0372 178.526 49.5983 178.627 49.0926 178.627C48.6154 178.627 48.1906 178.541 47.8185 178.367C47.4463 178.191 47.1537 177.941 46.9406 177.617C46.7276 177.293 46.621 176.909 46.621 176.462H47.6608C47.6608 176.71 47.7219 176.926 47.8441 177.11C47.9691 177.292 48.1395 177.434 48.3554 177.536C48.5713 177.639 48.8171 177.69 49.0926 177.69C49.3966 177.69 49.6551 177.626 49.8682 177.498C50.0813 177.37 50.2432 177.183 50.354 176.935C50.4676 176.685 50.5245 176.38 50.5245 176.019V169.781ZM55.7289 178.661C55.3142 178.661 54.9378 178.583 54.5997 178.427C54.2616 178.268 53.9931 178.039 53.7943 177.741C53.5954 177.44 53.496 177.076 53.496 176.65C53.496 176.275 53.5699 175.971 53.7176 175.738C53.8653 175.502 54.0628 175.318 54.3099 175.184C54.5571 175.051 54.8298 174.951 55.1281 174.886C55.4292 174.818 55.7318 174.764 56.0358 174.724C56.4335 174.673 56.7559 174.634 57.0031 174.609C57.2531 174.58 57.4349 174.534 57.5485 174.468C57.665 174.403 57.7233 174.289 57.7233 174.127V174.093C57.7233 173.673 57.6082 173.346 57.3781 173.113C57.1508 172.88 56.8056 172.764 56.3426 172.764C55.8625 172.764 55.486 172.869 55.2133 173.079C54.9406 173.289 54.7488 173.514 54.638 173.752L53.6835 173.411C53.8539 173.014 54.0812 172.704 54.3653 172.482C54.6522 172.258 54.9647 172.102 55.3028 172.014C55.6437 171.923 55.9789 171.877 56.3085 171.877C56.5187 171.877 56.7602 171.903 57.0329 171.954C57.3085 172.002 57.5741 172.103 57.8298 172.257C58.0883 172.41 58.3028 172.641 58.4733 172.951C58.6437 173.261 58.7289 173.676 58.7289 174.195V178.508H57.7233V177.622H57.6721C57.6039 177.764 57.4903 177.916 57.3312 178.078C57.1721 178.239 56.9605 178.377 56.6963 178.491C56.4321 178.605 56.1096 178.661 55.7289 178.661ZM55.8824 177.758C56.2801 177.758 56.6153 177.68 56.888 177.524C57.1636 177.367 57.371 177.166 57.5102 176.918C57.6522 176.671 57.7233 176.411 57.7233 176.139V175.218C57.6806 175.269 57.5869 175.316 57.442 175.359C57.3 175.399 57.1352 175.434 56.9477 175.465C56.763 175.494 56.5826 175.519 56.4065 175.542C56.2332 175.562 56.0926 175.579 55.9846 175.593C55.7233 175.627 55.4789 175.683 55.2517 175.759C55.0272 175.833 54.8454 175.945 54.7062 176.096C54.5699 176.244 54.5017 176.445 54.5017 176.701C54.5017 177.051 54.6309 177.315 54.8895 177.494C55.1508 177.67 55.4818 177.758 55.8824 177.758ZM63.2761 178.644C62.7307 178.644 62.2491 178.507 61.8315 178.231C61.4139 177.953 61.0872 177.56 60.8514 177.055C60.6156 176.546 60.4977 175.945 60.4977 175.252C60.4977 174.565 60.6156 173.968 60.8514 173.462C61.0872 172.957 61.4153 172.566 61.8358 172.291C62.2562 172.015 62.742 171.877 63.2932 171.877C63.7193 171.877 64.0559 171.948 64.3031 172.09C64.5531 172.23 64.7434 172.389 64.8741 172.568C65.0077 172.744 65.1113 172.889 65.1852 173.002H65.2704V169.781H66.2761V178.508H65.3045V177.502H65.1852C65.1113 177.622 65.0062 177.772 64.8699 177.954C64.7335 178.133 64.5389 178.293 64.2861 178.435C64.0332 178.575 63.6966 178.644 63.2761 178.644ZM63.4125 177.741C63.8159 177.741 64.1568 177.636 64.4352 177.426C64.7136 177.212 64.9253 176.918 65.0702 176.543C65.215 176.166 65.2875 175.73 65.2875 175.235C65.2875 174.747 65.2165 174.319 65.0744 173.953C64.9324 173.583 64.7221 173.296 64.4437 173.092C64.1653 172.884 63.8216 172.781 63.4125 172.781C62.9863 172.781 62.6312 172.89 62.3471 173.109C62.0659 173.325 61.8542 173.619 61.7122 173.991C61.573 174.36 61.5034 174.775 61.5034 175.235C61.5034 175.701 61.5744 176.124 61.7165 176.505C61.8613 176.883 62.0744 177.184 62.3557 177.409C62.6398 177.63 62.992 177.741 63.4125 177.741ZM69.9806 178.508L67.9863 171.962H69.0431L70.4579 176.974H70.5261L71.9238 171.962H72.9977L74.3783 176.957H74.4465L75.8613 171.962H76.9181L74.9238 178.508H73.9352L72.5033 173.48H72.4011L70.9692 178.508H69.9806ZM80.4138 178.661C79.999 178.661 79.6226 178.583 79.2845 178.427C78.9465 178.268 78.678 178.039 78.4791 177.741C78.2803 177.44 78.1808 177.076 78.1808 176.65C78.1808 176.275 78.2547 175.971 78.4024 175.738C78.5502 175.502 78.7476 175.318 78.9948 175.184C79.2419 175.051 79.5146 174.951 79.8129 174.886C80.1141 174.818 80.4166 174.764 80.7206 174.724C81.1183 174.673 81.4408 174.634 81.6879 174.609C81.9379 174.58 82.1198 174.534 82.2334 174.468C82.3499 174.403 82.4081 174.289 82.4081 174.127V174.093C82.4081 173.673 82.293 173.346 82.0629 173.113C81.8357 172.88 81.4905 172.764 81.0274 172.764C80.5473 172.764 80.1709 172.869 79.8982 173.079C79.6254 173.289 79.4337 173.514 79.3229 173.752L78.3683 173.411C78.5388 173.014 78.7661 172.704 79.0502 172.482C79.3371 172.258 79.6496 172.102 79.9877 172.014C80.3286 171.923 80.6638 171.877 80.9933 171.877C81.2036 171.877 81.445 171.903 81.7178 171.954C81.9933 172.002 82.259 172.103 82.5146 172.257C82.7732 172.41 82.9877 172.641 83.1581 172.951C83.3286 173.261 83.4138 173.676 83.4138 174.195V178.508H82.4081V177.622H82.357C82.2888 177.764 82.1752 177.916 82.0161 178.078C81.857 178.239 81.6453 178.377 81.3811 178.491C81.1169 178.605 80.7945 178.661 80.4138 178.661ZM80.5672 177.758C80.9649 177.758 81.3002 177.68 81.5729 177.524C81.8484 177.367 82.0558 177.166 82.195 176.918C82.3371 176.671 82.4081 176.411 82.4081 176.139V175.218C82.3655 175.269 82.2717 175.316 82.1269 175.359C81.9848 175.399 81.82 175.434 81.6325 175.465C81.4479 175.494 81.2675 175.519 81.0913 175.542C80.918 175.562 80.7774 175.579 80.6695 175.593C80.4081 175.627 80.1638 175.683 79.9365 175.759C79.7121 175.833 79.5303 175.945 79.3911 176.096C79.2547 176.244 79.1865 176.445 79.1865 176.701C79.1865 177.051 79.3158 177.315 79.5743 177.494C79.8357 177.67 80.1666 177.758 80.5672 177.758ZM86.4951 169.781V178.508H85.4894V169.781H86.4951ZM91.8511 170.718V169.781H98.3966V170.718H95.6523V178.508H94.5954V170.718H91.8511ZM101.926 178.644C101.296 178.644 100.752 178.505 100.294 178.227C99.8397 177.945 99.4888 177.553 99.2417 177.051C98.9974 176.545 98.8752 175.957 98.8752 175.286C98.8752 174.616 98.9974 174.025 99.2417 173.514C99.4888 172.999 99.8326 172.599 100.273 172.312C100.716 172.022 101.233 171.877 101.824 171.877C102.165 171.877 102.502 171.934 102.834 172.048C103.166 172.161 103.469 172.346 103.742 172.602C104.014 172.855 104.232 173.19 104.394 173.607C104.556 174.025 104.637 174.539 104.637 175.15V175.576H99.5911V174.707H103.614C103.614 174.337 103.54 174.008 103.392 173.718C103.247 173.428 103.04 173.2 102.77 173.032C102.503 172.864 102.188 172.781 101.824 172.781C101.424 172.781 101.077 172.88 100.784 173.079C100.495 173.275 100.272 173.531 100.115 173.846C99.959 174.161 99.8809 174.499 99.8809 174.86V175.44C99.8809 175.934 99.9661 176.353 100.137 176.697C100.31 177.038 100.55 177.298 100.857 177.477C101.164 177.653 101.52 177.741 101.926 177.741C102.191 177.741 102.429 177.704 102.642 177.63C102.858 177.553 103.044 177.44 103.2 177.289C103.357 177.136 103.477 176.945 103.563 176.718L104.534 176.991C104.432 177.32 104.26 177.61 104.019 177.86C103.777 178.107 103.479 178.301 103.124 178.44C102.769 178.576 102.37 178.644 101.926 178.644ZM106.406 178.508V171.962H107.378V172.951H107.446C107.565 172.627 107.781 172.364 108.094 172.163C108.406 171.961 108.759 171.86 109.151 171.86C109.225 171.86 109.317 171.862 109.428 171.864C109.539 171.867 109.622 171.872 109.679 171.877V172.9C109.645 172.891 109.567 172.879 109.445 172.862C109.325 172.842 109.199 172.832 109.065 172.832C108.747 172.832 108.463 172.899 108.213 173.032C107.966 173.163 107.77 173.345 107.625 173.578C107.483 173.808 107.412 174.07 107.412 174.366V178.508H106.406ZM115.748 173.428L114.844 173.684C114.787 173.534 114.704 173.387 114.593 173.245C114.485 173.1 114.337 172.981 114.15 172.887C113.962 172.793 113.722 172.747 113.429 172.747C113.029 172.747 112.695 172.839 112.428 173.024C112.164 173.205 112.032 173.437 112.032 173.718C112.032 173.968 112.123 174.166 112.304 174.31C112.486 174.455 112.77 174.576 113.157 174.673L114.128 174.911C114.714 175.053 115.15 175.271 115.437 175.563C115.723 175.853 115.867 176.227 115.867 176.684C115.867 177.059 115.759 177.394 115.543 177.69C115.33 177.985 115.032 178.218 114.648 178.389C114.265 178.559 113.819 178.644 113.31 178.644C112.642 178.644 112.09 178.499 111.652 178.21C111.215 177.92 110.938 177.497 110.821 176.94L111.776 176.701C111.867 177.053 112.039 177.318 112.292 177.494C112.547 177.67 112.881 177.758 113.293 177.758C113.762 177.758 114.134 177.659 114.41 177.46C114.688 177.258 114.827 177.016 114.827 176.735C114.827 176.508 114.748 176.318 114.589 176.164C114.429 176.008 114.185 175.891 113.856 175.815L112.765 175.559C112.165 175.417 111.725 175.197 111.444 174.899C111.165 174.597 111.026 174.221 111.026 173.769C111.026 173.4 111.13 173.073 111.337 172.789C111.547 172.505 111.833 172.282 112.194 172.12C112.557 171.958 112.969 171.877 113.429 171.877C114.077 171.877 114.586 172.019 114.955 172.303C115.327 172.587 115.591 172.962 115.748 173.428ZM120.365 178.644C119.734 178.644 119.19 178.505 118.733 178.227C118.278 177.945 117.928 177.553 117.68 177.051C117.436 176.545 117.314 175.957 117.314 175.286C117.314 174.616 117.436 174.025 117.68 173.514C117.928 172.999 118.271 172.599 118.712 172.312C119.155 172.022 119.672 171.877 120.263 171.877C120.604 171.877 120.94 171.934 121.273 172.048C121.605 172.161 121.908 172.346 122.18 172.602C122.453 172.855 122.67 173.19 122.832 173.607C122.994 174.025 123.075 174.539 123.075 175.15V175.576H118.03V174.707H122.053C122.053 174.337 121.979 174.008 121.831 173.718C121.686 173.428 121.479 173.2 121.209 173.032C120.942 172.864 120.626 172.781 120.263 172.781C119.862 172.781 119.516 172.88 119.223 173.079C118.933 173.275 118.71 173.531 118.554 173.846C118.398 174.161 118.32 174.499 118.32 174.86V175.44C118.32 175.934 118.405 176.353 118.575 176.697C118.749 177.038 118.989 177.298 119.295 177.477C119.602 177.653 119.959 177.741 120.365 177.741C120.629 177.741 120.868 177.704 121.081 177.63C121.297 177.553 121.483 177.44 121.639 177.289C121.795 177.136 121.916 176.945 122.001 176.718L122.973 176.991C122.871 177.32 122.699 177.61 122.457 177.86C122.216 178.107 121.918 178.301 121.563 178.44C121.207 178.576 120.808 178.644 120.365 178.644ZM127.317 178.644C126.771 178.644 126.29 178.507 125.872 178.231C125.455 177.953 125.128 177.56 124.892 177.055C124.656 176.546 124.538 175.945 124.538 175.252C124.538 174.565 124.656 173.968 124.892 173.462C125.128 172.957 125.456 172.566 125.876 172.291C126.297 172.015 126.783 171.877 127.334 171.877C127.76 171.877 128.097 171.948 128.344 172.09C128.594 172.23 128.784 172.389 128.915 172.568C129.048 172.744 129.152 172.889 129.226 173.002H129.311V169.781H130.317V178.508H129.345V177.502H129.226C129.152 177.622 129.047 177.772 128.91 177.954C128.774 178.133 128.58 178.293 128.327 178.435C128.074 178.575 127.737 178.644 127.317 178.644ZM127.453 177.741C127.857 177.741 128.197 177.636 128.476 177.426C128.754 177.212 128.966 176.918 129.111 176.543C129.256 176.166 129.328 175.73 129.328 175.235C129.328 174.747 129.257 174.319 129.115 173.953C128.973 173.583 128.763 173.296 128.484 173.092C128.206 172.884 127.862 172.781 127.453 172.781C127.027 172.781 126.672 172.89 126.388 173.109C126.107 173.325 125.895 173.619 125.753 173.991C125.614 174.36 125.544 174.775 125.544 175.235C125.544 175.701 125.615 176.124 125.757 176.505C125.902 176.883 126.115 177.184 126.396 177.409C126.68 177.63 127.033 177.741 127.453 177.741ZM132.538 178.508V171.962H133.544V178.508H132.538ZM133.05 170.872C132.854 170.872 132.685 170.805 132.543 170.671C132.403 170.538 132.334 170.377 132.334 170.19C132.334 170.002 132.403 169.842 132.543 169.708C132.685 169.575 132.854 169.508 133.05 169.508C133.246 169.508 133.413 169.575 133.552 169.708C133.695 169.842 133.766 170.002 133.766 170.19C133.766 170.377 133.695 170.538 133.552 170.671C133.413 170.805 133.246 170.872 133.05 170.872ZM137.552 178.661C137.137 178.661 136.761 178.583 136.423 178.427C136.085 178.268 135.816 178.039 135.617 177.741C135.419 177.44 135.319 177.076 135.319 176.65C135.319 176.275 135.393 175.971 135.541 175.738C135.688 175.502 135.886 175.318 136.133 175.184C136.38 175.051 136.653 174.951 136.951 174.886C137.252 174.818 137.555 174.764 137.859 174.724C138.257 174.673 138.579 174.634 138.826 174.609C139.076 174.58 139.258 174.534 139.372 174.468C139.488 174.403 139.546 174.289 139.546 174.127V174.093C139.546 173.673 139.431 173.346 139.201 173.113C138.974 172.88 138.629 172.764 138.166 172.764C137.686 172.764 137.309 172.869 137.036 173.079C136.764 173.289 136.572 173.514 136.461 173.752L135.507 173.411C135.677 173.014 135.904 172.704 136.188 172.482C136.475 172.258 136.788 172.102 137.126 172.014C137.467 171.923 137.802 171.877 138.132 171.877C138.342 171.877 138.583 171.903 138.856 171.954C139.132 172.002 139.397 172.103 139.653 172.257C139.911 172.41 140.126 172.641 140.296 172.951C140.467 173.261 140.552 173.676 140.552 174.195V178.508H139.546V177.622H139.495C139.427 177.764 139.313 177.916 139.154 178.078C138.995 178.239 138.784 178.377 138.519 178.491C138.255 178.605 137.933 178.661 137.552 178.661ZM137.705 177.758C138.103 177.758 138.438 177.68 138.711 177.524C138.987 177.367 139.194 177.166 139.333 176.918C139.475 176.671 139.546 176.411 139.546 176.139V175.218C139.504 175.269 139.41 175.316 139.265 175.359C139.123 175.399 138.958 175.434 138.771 175.465C138.586 175.494 138.406 175.519 138.23 175.542C138.056 175.562 137.916 175.579 137.808 175.593C137.546 175.627 137.302 175.683 137.075 175.759C136.85 175.833 136.669 175.945 136.529 176.096C136.393 176.244 136.325 176.445 136.325 176.701C136.325 177.051 136.454 177.315 136.713 177.494C136.974 177.67 137.305 177.758 137.705 177.758Z" fill="#333333"/>
</g>
<defs>
<filter id="filter0_d_237_2297" x="0.0582275" y="0" width="184.825" height="216.921" filterUnits="userSpaceOnUse" color-interpolation-filters="sRGB">
<feFlood flood-opacity="0" result="BackgroundImageFix"/>
<feColorMatrix in="SourceAlpha" type="matrix" values="0 0 0 0 0 0 0 0 0 0 0 0 0 0 0 0 0 0 127 0" result="hardAlpha"/>
<feOffset dx="4" dy="4"/>
<feGaussianBlur stdDeviation="8"/>
<feComposite in2="hardAlpha" operator="out"/>
<feColorMatrix type="matrix" values="0 0 0 0 0 0 0 0 0 0 0 0 0 0 0 0 0 0 0.08 0"/>
<feBlend mode="normal" in2="BackgroundImageFix" result="effect1_dropShadow_237_2297"/>
<feBlend mode="normal" in="SourceGraphic" in2="effect1_dropShadow_237_2297" result="shape"/>
</filter>
</defs>
</svg>
