<svg width="185" height="215" viewBox="0 0 185 215" fill="none" xmlns="http://www.w3.org/2000/svg">
<g filter="url(#filter0_d_237_2252)">
<rect x="12" y="12" width="152.825" height="182.921" rx="16.0952" fill="white" shape-rendering="crispEdges"/>
<path d="M79.6854 35.6854C79.6173 35.1097 79.3408 34.6627 78.8559 34.3445C78.3711 34.0263 77.7764 33.8672 77.0718 33.8672C76.5567 33.8672 76.1059 33.9506 75.7195 34.1172C75.337 34.2839 75.0377 34.5131 74.8218 34.8047C74.6097 35.0964 74.5036 35.4278 74.5036 35.7991C74.5036 36.1097 74.5775 36.3767 74.7252 36.6002C74.8767 36.8199 75.0699 37.0036 75.3048 37.1513C75.5396 37.2953 75.7858 37.4146 76.0434 37.5093C76.301 37.6002 76.5377 37.6741 76.7536 37.7309L77.9354 38.0491C78.2385 38.1286 78.5756 38.2384 78.9468 38.3786C79.3218 38.5187 79.6798 38.71 80.0207 38.9525C80.3654 39.1911 80.6495 39.4979 80.8729 39.8729C81.0964 40.2479 81.2082 40.7081 81.2082 41.2536C81.2082 41.8824 81.0434 42.4506 80.7139 42.9581C80.3881 43.4657 79.9108 43.8691 79.282 44.1684C78.657 44.4676 77.8976 44.6172 77.0036 44.6172C76.1703 44.6172 75.4487 44.4828 74.8389 44.2138C74.2328 43.9449 73.7555 43.5699 73.407 43.0888C73.0623 42.6078 72.8673 42.0491 72.8218 41.4127H74.2764C74.3142 41.8521 74.462 42.2157 74.7195 42.5036C74.9809 42.7877 75.3104 42.9998 75.7082 43.14C76.1097 43.2763 76.5415 43.3445 77.0036 43.3445C77.5415 43.3445 78.0245 43.2574 78.4525 43.0831C78.8805 42.9051 79.2195 42.6589 79.4695 42.3445C79.7195 42.0263 79.8445 41.6551 79.8445 41.2309C79.8445 40.8445 79.7366 40.5301 79.5207 40.2877C79.3048 40.0453 79.0207 39.8483 78.6684 39.6968C78.3161 39.5453 77.9354 39.4127 77.5264 39.2991L76.0945 38.89C75.1854 38.6286 74.4658 38.2555 73.9354 37.7706C73.4051 37.2858 73.14 36.6513 73.14 35.8672C73.14 35.2157 73.3161 34.6475 73.6684 34.1627C74.0245 33.6741 74.5017 33.2953 75.1002 33.0263C75.7025 32.7536 76.3748 32.6172 77.1173 32.6172C77.8673 32.6172 78.5339 32.7517 79.1173 33.0206C79.7006 33.2858 80.1627 33.6494 80.5036 34.1116C80.8483 34.5737 81.0301 35.0983 81.0491 35.6854H79.6854ZM84.3222 44.4127H82.8449L87.1177 32.7763H88.5722L92.8449 44.4127H91.3677L87.8904 34.6172H87.7995L84.3222 44.4127ZM84.8677 39.8672H90.8222V41.1172H84.8677V39.8672ZM94.9774 44.4127V32.7763H99.0456C99.8562 32.7763 100.525 32.9165 101.051 33.1968C101.578 33.4733 101.97 33.8464 102.227 34.3161C102.485 34.782 102.614 35.2991 102.614 35.8672C102.614 36.3672 102.525 36.7801 102.347 37.1059C102.173 37.4316 101.941 37.6892 101.654 37.8786C101.369 38.068 101.061 38.2081 100.727 38.2991V38.4127C101.083 38.4354 101.441 38.5604 101.801 38.7877C102.161 39.015 102.462 39.3407 102.705 39.765C102.947 40.1892 103.068 40.7081 103.068 41.3218C103.068 41.9051 102.936 42.4297 102.671 42.8956C102.405 43.3616 101.987 43.7309 101.415 44.0036C100.843 44.2763 100.099 44.4127 99.182 44.4127H94.9774ZM96.3865 43.1627H99.182C100.102 43.1627 100.756 42.9847 101.142 42.6286C101.532 42.2687 101.727 41.8331 101.727 41.3218C101.727 40.9278 101.627 40.5642 101.426 40.2309C101.226 39.8937 100.94 39.6248 100.568 39.4241C100.197 39.2195 99.7577 39.1172 99.2502 39.1172H96.3865V43.1627ZM96.3865 37.89H99.0002C99.4244 37.89 99.807 37.8066 100.148 37.64C100.493 37.4733 100.765 37.2384 100.966 36.9354C101.171 36.6324 101.273 36.2763 101.273 35.8672C101.273 35.3559 101.095 34.9222 100.739 34.5661C100.383 34.2062 99.8183 34.0263 99.0456 34.0263H96.3865V37.89Z" fill="#333333"/>
<path d="M42.3275 79.4127V76.7536L48.5406 71.0008C49.069 70.4894 49.5122 70.0292 49.8701 69.6201C50.2337 69.211 50.5093 68.8104 50.6968 68.4184C50.8843 68.0206 50.9781 67.5917 50.9781 67.1314C50.9781 66.6201 50.8616 66.1797 50.6286 65.8104C50.3957 65.4354 50.0775 65.1485 49.6741 64.9496C49.2707 64.7451 48.8133 64.6428 48.3019 64.6428C47.7678 64.6428 47.3019 64.7508 46.9042 64.9667C46.5065 65.1826 46.1997 65.4922 45.9837 65.8956C45.7678 66.2991 45.6599 66.7792 45.6599 67.336H42.157C42.157 66.1939 42.4156 65.2025 42.9326 64.3616C43.4497 63.5206 44.1741 62.8701 45.1059 62.4098C46.0377 61.9496 47.1116 61.7195 48.3275 61.7195C49.5775 61.7195 50.6656 61.9411 51.5917 62.3843C52.5235 62.8218 53.2479 63.4297 53.765 64.2081C54.282 64.9866 54.5406 65.8786 54.5406 66.8843C54.5406 67.5434 54.4099 68.1939 54.1485 68.836C53.8928 69.478 53.4354 70.1911 52.7764 70.9752C52.1173 71.7536 51.1883 72.6883 49.9894 73.7792L47.4411 76.2763V76.3956H54.7707V79.4127H42.3275ZM64.3764 79.6513C63.1037 79.6513 61.9701 79.4326 60.9758 78.9951C59.9872 78.5519 59.2059 77.9439 58.6321 77.1712C58.0639 76.3928 57.7713 75.4951 57.7542 74.478H61.4701C61.4929 74.9042 61.6321 75.2792 61.8877 75.603C62.1491 75.9212 62.4957 76.1684 62.9275 76.3445C63.3593 76.5206 63.8451 76.6087 64.3849 76.6087C64.9474 76.6087 65.4446 76.5093 65.8764 76.3104C66.3082 76.1116 66.6463 75.836 66.8906 75.4837C67.1349 75.1314 67.2571 74.7252 67.2571 74.265C67.2571 73.7991 67.1264 73.3871 66.865 73.0292C66.6093 72.6655 66.24 72.3814 65.7571 72.1769C65.2798 71.9723 64.7116 71.8701 64.0525 71.8701H62.4247V69.1598H64.0525C64.6093 69.1598 65.1008 69.0633 65.527 68.8701C65.9588 68.6769 66.294 68.4098 66.5326 68.0689C66.7713 67.7223 66.8906 67.3189 66.8906 66.8587C66.8906 66.4212 66.7855 66.0377 66.5752 65.7081C66.3707 65.3729 66.0809 65.1116 65.7059 64.9241C65.3366 64.7366 64.9048 64.6428 64.4105 64.6428C63.9105 64.6428 63.4531 64.7337 63.0383 64.9155C62.6235 65.0917 62.2912 65.3445 62.0412 65.6741C61.7912 66.0036 61.6576 66.39 61.6406 66.8331H58.1037C58.1207 65.8275 58.4076 64.9411 58.9645 64.1741C59.5213 63.407 60.2713 62.8076 61.2145 62.3758C62.1633 61.9383 63.2343 61.7195 64.4275 61.7195C65.6321 61.7195 66.686 61.9383 67.5895 62.3758C68.4929 62.8133 69.1946 63.4042 69.6946 64.1485C70.2002 64.8871 70.4502 65.7167 70.4446 66.6371C70.4502 67.6144 70.1463 68.4297 69.5326 69.0831C68.9247 69.7366 68.1321 70.1513 67.1548 70.3275V70.4638C68.4389 70.6286 69.4162 71.0746 70.0866 71.8019C70.7627 72.5235 71.098 73.4269 71.0923 74.5121C71.098 75.5064 70.811 76.39 70.2315 77.1627C69.6576 77.9354 68.865 78.5434 67.8537 78.9866C66.8423 79.4297 65.6832 79.6513 64.3764 79.6513ZM80.362 61.9581H84.9131L89.7199 73.6854H89.9245L94.7313 61.9581H99.2824V79.4127H95.7029V68.0519H95.558L91.0409 79.3275H88.6034L84.0864 68.0093H83.9415V79.4127H80.362V61.9581ZM105.811 79.4127H101.857L107.882 61.9581H112.638L118.655 79.4127H114.701L110.328 65.9468H110.192L105.811 79.4127ZM105.564 72.5519H114.905V75.4326H105.564V72.5519ZM121.236 79.4127V61.9581H128.122C129.441 61.9581 130.566 62.1939 131.497 62.6655C132.435 63.1314 133.148 63.7934 133.637 64.6513C134.131 65.5036 134.378 66.5064 134.378 67.6598C134.378 68.8189 134.128 69.8161 133.628 70.6513C133.128 71.4809 132.404 72.1172 131.455 72.5604C130.512 73.0036 129.37 73.2252 128.029 73.2252H123.418V70.2593H127.432C128.137 70.2593 128.722 70.1627 129.188 69.9695C129.654 69.7763 130 69.4866 130.227 69.1002C130.46 68.7138 130.577 68.2337 130.577 67.6598C130.577 67.0803 130.46 66.5917 130.227 66.1939C130 65.7962 129.651 65.4951 129.179 65.2905C128.713 65.0803 128.125 64.9752 127.415 64.9752H124.926V79.4127H121.236ZM130.662 71.4695L135 79.4127H130.926L126.682 71.4695H130.662Z" fill="#333333"/>
<path d="M66.4195 142.776V140.233L72.7955 130.188H74.988V133.707H73.6904L69.6709 140.069V140.188H78.7316V142.776H66.4195ZM73.7501 145.46V142L73.8097 140.874V130.188H76.8374V145.46H73.7501ZM86.8812 145.669C85.8272 145.669 84.8876 145.475 84.0623 145.087C83.242 144.7 82.5907 144.165 82.1085 143.484C81.6262 142.803 81.3752 142.022 81.3553 141.143H84.4874C84.5222 141.734 84.7708 142.214 85.2331 142.582C85.6955 142.95 86.2448 143.134 86.8812 143.134C87.3883 143.134 87.8357 143.022 88.2235 142.798C88.6163 142.569 88.922 142.254 89.1408 141.851C89.3645 141.443 89.4764 140.976 89.4764 140.449C89.4764 139.912 89.362 139.44 89.1333 139.032C88.9096 138.624 88.5989 138.306 88.2012 138.078C87.8034 137.849 87.3485 137.732 86.8364 137.727C86.389 137.727 85.954 137.819 85.5314 138.003C85.1138 138.187 84.7882 138.438 84.5545 138.756L81.6834 138.242L82.4068 130.188H91.7434V132.828H85.069L84.6738 136.653H84.7633C85.0318 136.275 85.4369 135.962 85.9788 135.714C86.5208 135.465 87.1273 135.341 87.7985 135.341C88.7182 135.341 89.5385 135.557 90.2594 135.989C90.9803 136.422 91.5495 137.016 91.9671 137.772C92.3847 138.522 92.5911 139.388 92.5861 140.367C92.5911 141.396 92.3524 142.311 91.8702 143.111C91.3929 143.907 90.7242 144.533 89.8641 144.991C89.009 145.443 88.0147 145.669 86.8812 145.669ZM103.618 142.597V141.791C103.618 141.18 103.747 140.618 104.006 140.106C104.269 139.589 104.65 139.176 105.147 138.868C105.649 138.555 106.26 138.398 106.981 138.398C107.712 138.398 108.326 138.552 108.823 138.861C109.325 139.169 109.703 139.581 109.957 140.098C110.215 140.611 110.345 141.175 110.345 141.791V142.597C110.345 143.208 110.215 143.772 109.957 144.29C109.698 144.802 109.318 145.212 108.816 145.52C108.314 145.833 107.702 145.99 106.981 145.99C106.25 145.99 105.636 145.833 105.139 145.52C104.642 145.212 104.264 144.802 104.006 144.29C103.747 143.772 103.618 143.208 103.618 142.597ZM105.788 141.791V142.597C105.788 142.95 105.873 143.283 106.042 143.596C106.216 143.909 106.529 144.066 106.981 144.066C107.434 144.066 107.742 143.912 107.906 143.603C108.075 143.295 108.16 142.96 108.16 142.597V141.791C108.16 141.428 108.08 141.09 107.921 140.777C107.762 140.464 107.449 140.307 106.981 140.307C106.534 140.307 106.223 140.464 106.049 140.777C105.875 141.09 105.788 141.428 105.788 141.791ZM95.7802 133.857V133.051C95.7802 132.435 95.912 131.87 96.1755 131.358C96.439 130.841 96.8193 130.429 97.3165 130.12C97.8186 129.812 98.4251 129.658 99.1361 129.658C99.8719 129.658 100.488 129.812 100.985 130.12C101.483 130.429 101.86 130.841 102.119 131.358C102.378 131.87 102.507 132.435 102.507 133.051V133.857C102.507 134.473 102.375 135.037 102.112 135.549C101.853 136.062 101.473 136.472 100.971 136.78C100.473 137.083 99.8619 137.235 99.1361 137.235C98.4102 137.235 97.7962 137.081 97.2941 136.772C96.7969 136.459 96.4191 136.049 96.1606 135.542C95.907 135.03 95.7802 134.468 95.7802 133.857ZM97.9653 133.051V133.857C97.9653 134.22 98.0498 134.555 98.2188 134.863C98.3928 135.172 98.6986 135.326 99.1361 135.326C99.5935 135.326 99.9042 135.172 100.068 134.863C100.237 134.555 100.322 134.22 100.322 133.857V133.051C100.322 132.688 100.242 132.35 100.083 132.037C99.9241 131.724 99.6084 131.567 99.1361 131.567C98.6936 131.567 98.3878 131.726 98.2188 132.044C98.0498 132.363 97.9653 132.698 97.9653 133.051ZM96.7646 145.46L107.265 130.188H109.218L98.7185 145.46H96.7646Z" fill="#4DB53C"/>
<path d="M138.413 147.46C138.413 134.2 133.145 121.482 123.768 112.105C114.391 102.728 101.674 97.4603 88.4127 97.4603C75.1519 97.4603 62.4342 102.728 53.0574 112.105C43.6806 121.482 38.4127 134.2 38.4127 147.46L48.6061 147.46C48.6061 136.903 52.8 126.778 60.2652 119.313C67.7304 111.848 77.8554 107.654 88.4127 107.654C98.9701 107.654 109.095 111.848 116.56 119.313C124.025 126.778 128.219 136.903 128.219 147.46H138.413Z" fill="#4DB53C"/>
<path d="M138.413 147.46C138.413 140.459 136.942 133.536 134.097 127.139C131.251 120.742 127.094 115.014 121.894 110.326C116.695 105.637 110.568 102.093 103.912 99.9232C97.2553 97.7529 90.2173 97.0048 83.2534 97.7272L84.3052 107.866C89.8494 107.291 95.4526 107.887 100.752 109.614C106.051 111.342 110.929 114.164 115.069 117.896C119.208 121.629 122.518 126.189 124.783 131.282C127.049 136.375 128.219 141.886 128.219 147.46H138.413Z" fill="#D9D9D9"/>
<path opacity="0.6" d="M35.8843 167.781V176.508H34.8275V168.889H34.7764L32.6457 170.303V169.23L34.8275 167.781H35.8843ZM41.4808 176.627C40.8388 176.627 40.2919 176.453 39.8402 176.103C39.3885 175.751 39.0433 175.241 38.8047 174.573C38.5661 173.903 38.4468 173.093 38.4468 172.144C38.4468 171.201 38.5661 170.396 38.8047 169.728C39.0462 169.058 39.3928 168.546 39.8445 168.194C40.299 167.839 40.8445 167.661 41.4808 167.661C42.1172 167.661 42.6612 167.839 43.1129 168.194C43.5675 168.546 43.9141 169.058 44.1527 169.728C44.3942 170.396 44.5149 171.201 44.5149 172.144C44.5149 173.093 44.3956 173.903 44.157 174.573C43.9183 175.241 43.5732 175.751 43.1215 176.103C42.6698 176.453 42.1229 176.627 41.4808 176.627ZM41.4808 175.69C42.1172 175.69 42.6115 175.383 42.9638 174.769C43.3161 174.156 43.4922 173.281 43.4922 172.144C43.4922 171.389 43.4112 170.745 43.2493 170.214C43.0902 169.683 42.8601 169.278 42.559 168.999C42.2607 168.721 41.9013 168.582 41.4808 168.582C40.8502 168.582 40.3573 168.893 40.0022 169.515C39.647 170.134 39.4695 171.011 39.4695 172.144C39.4695 172.9 39.549 173.542 39.7081 174.07C39.8672 174.599 40.0959 175.001 40.3942 175.276C40.6953 175.552 41.0575 175.69 41.4808 175.69ZM53.4836 167.781H54.5404V174.019C54.5404 174.576 54.4381 175.049 54.2336 175.438C54.029 175.828 53.7407 176.123 53.3685 176.325C52.9964 176.526 52.5574 176.627 52.0518 176.627C51.5745 176.627 51.1498 176.541 50.7776 176.367C50.4054 176.191 50.1128 175.941 49.8998 175.617C49.6867 175.293 49.5802 174.909 49.5802 174.462H50.6199C50.6199 174.71 50.681 174.926 50.8032 175.11C50.9282 175.292 51.0986 175.434 51.3145 175.536C51.5304 175.639 51.7762 175.69 52.0518 175.69C52.3557 175.69 52.6143 175.626 52.8273 175.498C53.0404 175.37 53.2023 175.183 53.3131 174.935C53.4268 174.685 53.4836 174.38 53.4836 174.019V167.781ZM58.6881 176.661C58.2733 176.661 57.8969 176.583 57.5588 176.427C57.2207 176.268 56.9523 176.039 56.7534 175.741C56.5545 175.44 56.4551 175.076 56.4551 174.65C56.4551 174.275 56.529 173.971 56.6767 173.738C56.8244 173.502 57.0219 173.318 57.269 173.184C57.5162 173.051 57.7889 172.951 58.0872 172.886C58.3883 172.818 58.6909 172.764 58.9949 172.724C59.3926 172.673 59.715 172.634 59.9622 172.609C60.2122 172.58 60.394 172.534 60.5077 172.468C60.6241 172.403 60.6824 172.289 60.6824 172.127V172.093C60.6824 171.673 60.5673 171.346 60.3372 171.113C60.1099 170.88 59.7648 170.764 59.3017 170.764C58.8216 170.764 58.4452 170.869 58.1724 171.079C57.8997 171.289 57.7079 171.514 57.5972 171.752L56.6426 171.411C56.8131 171.014 57.0403 170.704 57.3244 170.482C57.6114 170.258 57.9239 170.102 58.2619 170.014C58.6028 169.923 58.9381 169.877 59.2676 169.877C59.4778 169.877 59.7193 169.903 59.992 169.954C60.2676 170.002 60.5332 170.103 60.7889 170.257C61.0474 170.41 61.2619 170.641 61.4324 170.951C61.6028 171.261 61.6881 171.676 61.6881 172.195V176.508H60.6824V175.622H60.6312C60.5631 175.764 60.4494 175.916 60.2903 176.078C60.1312 176.239 59.9196 176.377 59.6554 176.491C59.3912 176.605 59.0687 176.661 58.6881 176.661ZM58.8415 175.758C59.2392 175.758 59.5744 175.68 59.8472 175.524C60.1227 175.367 60.3301 175.166 60.4693 174.918C60.6114 174.671 60.6824 174.411 60.6824 174.139V173.218C60.6398 173.269 60.546 173.316 60.4011 173.359C60.2591 173.399 60.0943 173.434 59.9068 173.465C59.7222 173.494 59.5418 173.519 59.3656 173.542C59.1923 173.562 59.0517 173.579 58.9437 173.593C58.6824 173.627 58.4381 173.683 58.2108 173.759C57.9864 173.833 57.8045 173.945 57.6653 174.096C57.529 174.244 57.4608 174.445 57.4608 174.701C57.4608 175.051 57.59 175.315 57.8486 175.494C58.1099 175.67 58.4409 175.758 58.8415 175.758ZM66.2352 176.644C65.6898 176.644 65.2082 176.507 64.7906 176.231C64.373 175.953 64.0463 175.56 63.8105 175.055C63.5747 174.546 63.4568 173.945 63.4568 173.252C63.4568 172.565 63.5747 171.968 63.8105 171.462C64.0463 170.957 64.3744 170.566 64.7949 170.291C65.2153 170.015 65.7011 169.877 66.2523 169.877C66.6784 169.877 67.0151 169.948 67.2622 170.09C67.5122 170.23 67.7026 170.389 67.8332 170.568C67.9668 170.744 68.0705 170.889 68.1443 171.002H68.2296V167.781H69.2352V176.508H68.2636V175.502H68.1443C68.0705 175.622 67.9653 175.772 67.829 175.954C67.6926 176.133 67.498 176.293 67.2452 176.435C66.9923 176.575 66.6557 176.644 66.2352 176.644ZM66.3716 175.741C66.775 175.741 67.1159 175.636 67.3943 175.426C67.6727 175.212 67.8844 174.918 68.0293 174.543C68.1742 174.166 68.2466 173.73 68.2466 173.235C68.2466 172.747 68.1756 172.319 68.0335 171.953C67.8915 171.583 67.6813 171.296 67.4028 171.092C67.1244 170.884 66.7807 170.781 66.3716 170.781C65.9455 170.781 65.5903 170.89 65.3063 171.109C65.025 171.325 64.8134 171.619 64.6713 171.991C64.5321 172.36 64.4625 172.775 64.4625 173.235C64.4625 173.701 64.5335 174.124 64.6756 174.505C64.8205 174.883 65.0335 175.184 65.3148 175.409C65.5989 175.63 65.9511 175.741 66.3716 175.741ZM72.9397 176.508L70.9454 169.962H72.0022L73.417 174.974H73.4852L74.8829 169.962H75.9568L77.3374 174.957H77.4056L78.8204 169.962H79.8772L77.8829 176.508H76.8943L75.4624 171.48H75.3602L73.9284 176.508H72.9397ZM83.3729 176.661C82.9581 176.661 82.5817 176.583 82.2436 176.427C81.9056 176.268 81.6371 176.039 81.4382 175.741C81.2394 175.44 81.14 175.076 81.14 174.65C81.14 174.275 81.2138 173.971 81.3615 173.738C81.5093 173.502 81.7067 173.318 81.9539 173.184C82.201 173.051 82.4738 172.951 82.7721 172.886C83.0732 172.818 83.3757 172.764 83.6797 172.724C84.0775 172.673 84.3999 172.634 84.6471 172.609C84.8971 172.58 85.0789 172.534 85.1925 172.468C85.309 172.403 85.3672 172.289 85.3672 172.127V172.093C85.3672 171.673 85.2522 171.346 85.0221 171.113C84.7948 170.88 84.4496 170.764 83.9865 170.764C83.5064 170.764 83.13 170.869 82.8573 171.079C82.5846 171.289 82.3928 171.514 82.282 171.752L81.3275 171.411C81.4979 171.014 81.7252 170.704 82.0093 170.482C82.2962 170.258 82.6087 170.102 82.9468 170.014C83.2877 169.923 83.6229 169.877 83.9525 169.877C84.1627 169.877 84.4042 169.903 84.6769 169.954C84.9525 170.002 85.2181 170.103 85.4738 170.257C85.7323 170.41 85.9468 170.641 86.1172 170.951C86.2877 171.261 86.3729 171.676 86.3729 172.195V176.508H85.3672V175.622H85.3161C85.2479 175.764 85.1343 175.916 84.9752 176.078C84.8161 176.239 84.6044 176.377 84.3402 176.491C84.076 176.605 83.7536 176.661 83.3729 176.661ZM83.5263 175.758C83.924 175.758 84.2593 175.68 84.532 175.524C84.8076 175.367 85.015 175.166 85.1542 174.918C85.2962 174.671 85.3672 174.411 85.3672 174.139V173.218C85.3246 173.269 85.2309 173.316 85.086 173.359C84.9439 173.399 84.7792 173.434 84.5917 173.465C84.407 173.494 84.2266 173.519 84.0505 173.542C83.8772 173.562 83.7365 173.579 83.6286 173.593C83.3672 173.627 83.1229 173.683 82.8956 173.759C82.6712 173.833 82.4894 173.945 82.3502 174.096C82.2138 174.244 82.1456 174.445 82.1456 174.701C82.1456 175.051 82.2749 175.315 82.5334 175.494C82.7948 175.67 83.1257 175.758 83.5263 175.758ZM89.4542 167.781V176.508H88.4485V167.781H89.4542ZM94.8102 168.718V167.781H101.356V168.718H98.6114V176.508H97.5546V168.718H94.8102ZM104.885 176.644C104.255 176.644 103.711 176.505 103.253 176.227C102.799 175.945 102.448 175.553 102.201 175.051C101.956 174.545 101.834 173.957 101.834 173.286C101.834 172.616 101.956 172.025 102.201 171.514C102.448 170.999 102.792 170.599 103.232 170.312C103.675 170.022 104.192 169.877 104.783 169.877C105.124 169.877 105.461 169.934 105.793 170.048C106.126 170.161 106.428 170.346 106.701 170.602C106.974 170.855 107.191 171.19 107.353 171.607C107.515 172.025 107.596 172.539 107.596 173.15V173.576H102.55V172.707H106.573C106.573 172.337 106.499 172.008 106.351 171.718C106.206 171.428 105.999 171.2 105.729 171.032C105.462 170.864 105.147 170.781 104.783 170.781C104.383 170.781 104.036 170.88 103.743 171.079C103.454 171.275 103.231 171.531 103.074 171.846C102.918 172.161 102.84 172.499 102.84 172.86V173.44C102.84 173.934 102.925 174.353 103.096 174.697C103.269 175.038 103.509 175.298 103.816 175.477C104.123 175.653 104.479 175.741 104.885 175.741C105.15 175.741 105.388 175.704 105.601 175.63C105.817 175.553 106.003 175.44 106.16 175.289C106.316 175.136 106.437 174.945 106.522 174.718L107.493 174.991C107.391 175.32 107.219 175.61 106.978 175.86C106.736 176.107 106.438 176.301 106.083 176.44C105.728 176.576 105.329 176.644 104.885 176.644ZM109.366 176.508V169.962H110.337V170.951H110.405C110.525 170.627 110.741 170.364 111.053 170.163C111.366 169.961 111.718 169.86 112.11 169.86C112.184 169.86 112.276 169.862 112.387 169.864C112.498 169.867 112.581 169.872 112.638 169.877V170.9C112.604 170.891 112.526 170.879 112.404 170.862C112.285 170.842 112.158 170.832 112.025 170.832C111.706 170.832 111.422 170.899 111.172 171.032C110.925 171.163 110.729 171.345 110.584 171.578C110.442 171.808 110.371 172.07 110.371 172.366V176.508H109.366ZM118.707 171.428L117.803 171.684C117.747 171.534 117.663 171.387 117.552 171.245C117.444 171.1 117.296 170.981 117.109 170.887C116.921 170.793 116.681 170.747 116.389 170.747C115.988 170.747 115.654 170.839 115.387 171.024C115.123 171.205 114.991 171.437 114.991 171.718C114.991 171.968 115.082 172.166 115.264 172.31C115.445 172.455 115.729 172.576 116.116 172.673L117.087 172.911C117.673 173.053 118.109 173.271 118.396 173.563C118.683 173.853 118.826 174.227 118.826 174.684C118.826 175.059 118.718 175.394 118.502 175.69C118.289 175.985 117.991 176.218 117.607 176.389C117.224 176.559 116.778 176.644 116.269 176.644C115.602 176.644 115.049 176.499 114.612 176.21C114.174 175.92 113.897 175.497 113.781 174.94L114.735 174.701C114.826 175.053 114.998 175.318 115.251 175.494C115.506 175.67 115.84 175.758 116.252 175.758C116.721 175.758 117.093 175.659 117.369 175.46C117.647 175.258 117.786 175.016 117.786 174.735C117.786 174.508 117.707 174.318 117.548 174.164C117.389 174.008 117.144 173.891 116.815 173.815L115.724 173.559C115.124 173.417 114.684 173.197 114.403 172.899C114.124 172.597 113.985 172.221 113.985 171.769C113.985 171.4 114.089 171.073 114.296 170.789C114.506 170.505 114.792 170.282 115.153 170.12C115.516 169.958 115.928 169.877 116.389 169.877C117.036 169.877 117.545 170.019 117.914 170.303C118.286 170.587 118.55 170.962 118.707 171.428ZM123.324 176.644C122.694 176.644 122.149 176.505 121.692 176.227C121.238 175.945 120.887 175.553 120.64 175.051C120.395 174.545 120.273 173.957 120.273 173.286C120.273 172.616 120.395 172.025 120.64 171.514C120.887 170.999 121.23 170.599 121.671 170.312C122.114 170.022 122.631 169.877 123.222 169.877C123.563 169.877 123.899 169.934 124.232 170.048C124.564 170.161 124.867 170.346 125.14 170.602C125.412 170.855 125.63 171.19 125.792 171.607C125.953 172.025 126.034 172.539 126.034 173.15V173.576H120.989V172.707H125.012C125.012 172.337 124.938 172.008 124.79 171.718C124.645 171.428 124.438 171.2 124.168 171.032C123.901 170.864 123.586 170.781 123.222 170.781C122.821 170.781 122.475 170.88 122.182 171.079C121.892 171.275 121.669 171.531 121.513 171.846C121.357 172.161 121.279 172.499 121.279 172.86V173.44C121.279 173.934 121.364 174.353 121.534 174.697C121.708 175.038 121.948 175.298 122.255 175.477C122.561 175.653 122.918 175.741 123.324 175.741C123.588 175.741 123.827 175.704 124.04 175.63C124.256 175.553 124.442 175.44 124.598 175.289C124.755 175.136 124.875 174.945 124.961 174.718L125.932 174.991C125.83 175.32 125.658 175.61 125.417 175.86C125.175 176.107 124.877 176.301 124.522 176.44C124.167 176.576 123.767 176.644 123.324 176.644ZM130.276 176.644C129.73 176.644 129.249 176.507 128.831 176.231C128.414 175.953 128.087 175.56 127.851 175.055C127.615 174.546 127.497 173.945 127.497 173.252C127.497 172.565 127.615 171.968 127.851 171.462C128.087 170.957 128.415 170.566 128.836 170.291C129.256 170.015 129.742 169.877 130.293 169.877C130.719 169.877 131.056 169.948 131.303 170.09C131.553 170.23 131.743 170.389 131.874 170.568C132.007 170.744 132.111 170.889 132.185 171.002H132.27V167.781H133.276V176.508H132.304V175.502H132.185C132.111 175.622 132.006 175.772 131.87 175.954C131.733 176.133 131.539 176.293 131.286 176.435C131.033 176.575 130.696 176.644 130.276 176.644ZM130.412 175.741C130.816 175.741 131.157 175.636 131.435 175.426C131.713 175.212 131.925 174.918 132.07 174.543C132.215 174.166 132.287 173.73 132.287 173.235C132.287 172.747 132.216 172.319 132.074 171.953C131.932 171.583 131.722 171.296 131.443 171.092C131.165 170.884 130.821 170.781 130.412 170.781C129.986 170.781 129.631 170.89 129.347 171.109C129.066 171.325 128.854 171.619 128.712 171.991C128.573 172.36 128.503 172.775 128.503 173.235C128.503 173.701 128.574 174.124 128.716 174.505C128.861 174.883 129.074 175.184 129.355 175.409C129.639 175.63 129.992 175.741 130.412 175.741ZM135.497 176.508V169.962H136.503V176.508H135.497ZM136.009 168.872C135.813 168.872 135.644 168.805 135.502 168.671C135.362 168.538 135.293 168.377 135.293 168.19C135.293 168.002 135.362 167.842 135.502 167.708C135.644 167.575 135.813 167.508 136.009 167.508C136.205 167.508 136.372 167.575 136.512 167.708C136.654 167.842 136.725 168.002 136.725 168.19C136.725 168.377 136.654 168.538 136.512 168.671C136.372 168.805 136.205 168.872 136.009 168.872ZM140.511 176.661C140.096 176.661 139.72 176.583 139.382 176.427C139.044 176.268 138.775 176.039 138.577 175.741C138.378 175.44 138.278 175.076 138.278 174.65C138.278 174.275 138.352 173.971 138.5 173.738C138.648 173.502 138.845 173.318 139.092 173.184C139.339 173.051 139.612 172.951 139.91 172.886C140.211 172.818 140.514 172.764 140.818 172.724C141.216 172.673 141.538 172.634 141.785 172.609C142.035 172.58 142.217 172.534 142.331 172.468C142.447 172.403 142.506 172.289 142.506 172.127V172.093C142.506 171.673 142.39 171.346 142.16 171.113C141.933 170.88 141.588 170.764 141.125 170.764C140.645 170.764 140.268 170.869 139.996 171.079C139.723 171.289 139.531 171.514 139.42 171.752L138.466 171.411C138.636 171.014 138.863 170.704 139.148 170.482C139.434 170.258 139.747 170.102 140.085 170.014C140.426 169.923 140.761 169.877 141.091 169.877C141.301 169.877 141.542 169.903 141.815 169.954C142.091 170.002 142.356 170.103 142.612 170.257C142.871 170.41 143.085 170.641 143.256 170.951C143.426 171.261 143.511 171.676 143.511 172.195V176.508H142.506V175.622H142.454C142.386 175.764 142.273 175.916 142.113 176.078C141.954 176.239 141.743 176.377 141.479 176.491C141.214 176.605 140.892 176.661 140.511 176.661ZM140.665 175.758C141.062 175.758 141.398 175.68 141.67 175.524C141.946 175.367 142.153 175.166 142.292 174.918C142.434 174.671 142.506 174.411 142.506 174.139V173.218C142.463 173.269 142.369 173.316 142.224 173.359C142.082 173.399 141.917 173.434 141.73 173.465C141.545 173.494 141.365 173.519 141.189 173.542C141.015 173.562 140.875 173.579 140.767 173.593C140.506 173.627 140.261 173.683 140.034 173.759C139.809 173.833 139.628 173.945 139.488 174.096C139.352 174.244 139.284 174.445 139.284 174.701C139.284 175.051 139.413 175.315 139.672 175.494C139.933 175.67 140.264 175.758 140.665 175.758Z" fill="#333333"/>
</g>
<defs>
<filter id="filter0_d_237_2252" x="0" y="0" width="184.825" height="214.921" filterUnits="userSpaceOnUse" color-interpolation-filters="sRGB">
<feFlood flood-opacity="0" result="BackgroundImageFix"/>
<feColorMatrix in="SourceAlpha" type="matrix" values="0 0 0 0 0 0 0 0 0 0 0 0 0 0 0 0 0 0 127 0" result="hardAlpha"/>
<feOffset dx="4" dy="4"/>
<feGaussianBlur stdDeviation="8"/>
<feComposite in2="hardAlpha" operator="out"/>
<feColorMatrix type="matrix" values="0 0 0 0 0 0 0 0 0 0 0 0 0 0 0 0 0 0 0.08 0"/>
<feBlend mode="normal" in2="BackgroundImageFix" result="effect1_dropShadow_237_2252"/>
<feBlend mode="normal" in="SourceGraphic" in2="effect1_dropShadow_237_2252" result="shape"/>
</filter>
</defs>
</svg>
