<svg width="88" height="16" viewBox="0 0 88 16" fill="none" xmlns="http://www.w3.org/2000/svg">
<path d="M6.87142 4.81324C7.29947 3.74612 7.51349 3.21256 7.86121 3.13861C7.95264 3.11916 8.04714 3.11916 8.13857 3.13861C8.48628 3.21256 8.70031 3.74612 9.12836 4.81324C9.37178 5.4201 9.49349 5.72352 9.72123 5.9299C9.78511 5.98779 9.85446 6.03934 9.92829 6.08384C10.1915 6.24249 10.5201 6.27192 11.1773 6.33078C12.2898 6.43041 12.8461 6.48023 13.0159 6.79739C13.0511 6.86308 13.075 6.9342 13.0867 7.00779C13.143 7.36315 12.7341 7.73519 11.9162 8.47927L11.6891 8.68589C11.3067 9.03376 11.1156 9.2077 11.005 9.42477C10.9386 9.55498 10.8942 9.69521 10.8733 9.83985C10.8386 10.081 10.8946 10.3333 11.0065 10.838L11.0465 11.0183C11.2473 11.9233 11.3477 12.3758 11.2224 12.5982C11.1098 12.798 10.9025 12.9259 10.6734 12.9369C10.4184 12.949 10.0591 12.6562 9.34041 12.0707C8.86694 11.6848 8.6302 11.4919 8.36739 11.4166C8.12723 11.3477 7.87255 11.3477 7.63238 11.4166C7.36957 11.4919 7.13284 11.6848 6.65936 12.0707C5.94071 12.6562 5.58139 12.949 5.32637 12.9369C5.09731 12.9259 4.88994 12.798 4.77737 12.5982C4.65204 12.3758 4.75244 11.9233 4.95323 11.0183L4.99324 10.838C5.10521 10.3333 5.16119 10.081 5.12645 9.83985C5.10561 9.69521 5.06113 9.55498 4.9948 9.42477C4.88422 9.2077 4.69304 9.03376 4.31067 8.68589L4.08356 8.47927C3.2657 7.73519 2.85677 7.36314 2.91308 7.00779C2.92475 6.9342 2.94867 6.86308 2.98385 6.79739C3.15371 6.48023 3.70997 6.43041 4.82248 6.33078C5.47967 6.27192 5.80826 6.24249 6.07149 6.08384C6.14532 6.03934 6.21466 5.98779 6.27854 5.9299C6.50628 5.72352 6.62799 5.4201 6.87142 4.81324Z" fill="#FBD405" stroke="#FBD405" stroke-width="2"/>
<path d="M24.8714 4.81324C25.2995 3.74612 25.5135 3.21256 25.8612 3.13861C25.9526 3.11916 26.0471 3.11916 26.1386 3.13861C26.4863 3.21256 26.7003 3.74612 27.1284 4.81324C27.3718 5.4201 27.4935 5.72352 27.7212 5.9299C27.7851 5.98779 27.8545 6.03934 27.9283 6.08384C28.1915 6.24249 28.5201 6.27192 29.1773 6.33078C30.2898 6.43041 30.8461 6.48023 31.0159 6.79739C31.0511 6.86308 31.075 6.9342 31.0867 7.00779C31.143 7.36315 30.7341 7.73519 29.9162 8.47927L29.6891 8.68589C29.3067 9.03376 29.1156 9.2077 29.005 9.42477C28.9386 9.55498 28.8942 9.69521 28.8733 9.83985C28.8386 10.081 28.8946 10.3333 29.0065 10.838L29.0465 11.0183C29.2473 11.9233 29.3477 12.3758 29.2224 12.5982C29.1098 12.798 28.9025 12.9259 28.6734 12.9369C28.4184 12.949 28.0591 12.6562 27.3404 12.0707C26.8669 11.6848 26.6302 11.4919 26.3674 11.4166C26.1272 11.3477 25.8725 11.3477 25.6324 11.4166C25.3696 11.4919 25.1328 11.6848 24.6594 12.0707C23.9407 12.6562 23.5814 12.949 23.3264 12.9369C23.0973 12.9259 22.8899 12.798 22.7774 12.5982C22.652 12.3758 22.7524 11.9233 22.9532 11.0183L22.9932 10.838C23.1052 10.3333 23.1612 10.081 23.1265 9.83985C23.1056 9.69521 23.0611 9.55498 22.9948 9.42477C22.8842 9.2077 22.693 9.03376 22.3107 8.68589L22.0836 8.47927C21.2657 7.73519 20.8568 7.36314 20.9131 7.00779C20.9247 6.9342 20.9487 6.86308 20.9838 6.79739C21.1537 6.48023 21.71 6.43041 22.8225 6.33078C23.4797 6.27192 23.8083 6.24249 24.0715 6.08384C24.1453 6.03934 24.2147 5.98779 24.2785 5.9299C24.5063 5.72352 24.628 5.4201 24.8714 4.81324Z" fill="#FBD405" stroke="#FBD405" stroke-width="2"/>
<path d="M42.8714 4.81324C43.2995 3.74612 43.5135 3.21256 43.8612 3.13861C43.9526 3.11916 44.0471 3.11916 44.1386 3.13861C44.4863 3.21256 44.7003 3.74612 45.1284 4.81324C45.3718 5.4201 45.4935 5.72352 45.7212 5.9299C45.7851 5.98779 45.8545 6.03934 45.9283 6.08384C46.1915 6.24249 46.5201 6.27192 47.1773 6.33078C48.2898 6.43041 48.8461 6.48023 49.0159 6.79739C49.0511 6.86308 49.075 6.9342 49.0867 7.00779C49.143 7.36315 48.7341 7.73519 47.9162 8.47927L47.6891 8.68589C47.3067 9.03376 47.1156 9.2077 47.005 9.42477C46.9386 9.55498 46.8942 9.69521 46.8733 9.83985C46.8386 10.081 46.8946 10.3333 47.0065 10.838L47.0465 11.0183C47.2473 11.9233 47.3477 12.3758 47.2224 12.5982C47.1098 12.798 46.9025 12.9259 46.6734 12.9369C46.4184 12.949 46.0591 12.6562 45.3404 12.0707C44.8669 11.6848 44.6302 11.4919 44.3674 11.4166C44.1272 11.3477 43.8725 11.3477 43.6324 11.4166C43.3696 11.4919 43.1328 11.6848 42.6594 12.0707C41.9407 12.6562 41.5814 12.949 41.3264 12.9369C41.0973 12.9259 40.8899 12.798 40.7774 12.5982C40.652 12.3758 40.7524 11.9233 40.9532 11.0183L40.9932 10.838C41.1052 10.3333 41.1612 10.081 41.1265 9.83985C41.1056 9.69521 41.0611 9.55498 40.9948 9.42477C40.8842 9.2077 40.693 9.03376 40.3107 8.68589L40.0836 8.47927C39.2657 7.73519 38.8568 7.36314 38.9131 7.00779C38.9247 6.9342 38.9487 6.86308 38.9838 6.79739C39.1537 6.48023 39.71 6.43041 40.8225 6.33078C41.4797 6.27192 41.8083 6.24249 42.0715 6.08384C42.1453 6.03934 42.2147 5.98779 42.2785 5.9299C42.5063 5.72352 42.628 5.4201 42.8714 4.81324Z" fill="#FBD405" stroke="#FBD405" stroke-width="2"/>
<path d="M60.8714 4.81324C61.2995 3.74612 61.5135 3.21256 61.8612 3.13861C61.9526 3.11916 62.0471 3.11916 62.1386 3.13861C62.4863 3.21256 62.7003 3.74612 63.1284 4.81324C63.3718 5.4201 63.4935 5.72352 63.7212 5.9299C63.7851 5.98779 63.8545 6.03934 63.9283 6.08384C64.1915 6.24249 64.5201 6.27192 65.1773 6.33078C66.2898 6.43041 66.8461 6.48023 67.0159 6.79739C67.0511 6.86308 67.075 6.9342 67.0867 7.00779C67.143 7.36315 66.7341 7.73519 65.9162 8.47927L65.6891 8.68589C65.3067 9.03376 65.1156 9.2077 65.005 9.42477C64.9386 9.55498 64.8942 9.69521 64.8733 9.83985C64.8386 10.081 64.8946 10.3333 65.0065 10.838L65.0465 11.0183C65.2473 11.9233 65.3477 12.3758 65.2224 12.5982C65.1098 12.798 64.9025 12.9259 64.6734 12.9369C64.4184 12.949 64.0591 12.6562 63.3404 12.0707C62.8669 11.6848 62.6302 11.4919 62.3674 11.4166C62.1272 11.3477 61.8725 11.3477 61.6324 11.4166C61.3696 11.4919 61.1328 11.6848 60.6594 12.0707C59.9407 12.6562 59.5814 12.949 59.3264 12.9369C59.0973 12.9259 58.8899 12.798 58.7774 12.5982C58.652 12.3758 58.7524 11.9233 58.9532 11.0183L58.9932 10.838C59.1052 10.3333 59.1612 10.081 59.1265 9.83985C59.1056 9.69521 59.0611 9.55498 58.9948 9.42477C58.8842 9.2077 58.693 9.03376 58.3107 8.68589L58.0836 8.47927C57.2657 7.73519 56.8568 7.36314 56.9131 7.00779C56.9247 6.9342 56.9487 6.86308 56.9838 6.79739C57.1537 6.48023 57.71 6.43041 58.8225 6.33078C59.4797 6.27192 59.8083 6.24249 60.0715 6.08384C60.1453 6.03934 60.2147 5.98779 60.2785 5.9299C60.5063 5.72352 60.628 5.4201 60.8714 4.81324Z" fill="#FBD405" stroke="#FBD405" stroke-width="2"/>
<path d="M78.8714 4.81324C79.2995 3.74612 79.5135 3.21256 79.8612 3.13861C79.9526 3.11916 80.0471 3.11916 80.1386 3.13861C80.4863 3.21256 80.7003 3.74612 81.1284 4.81324C81.3718 5.4201 81.4935 5.72352 81.7212 5.9299C81.7851 5.98779 81.8545 6.03934 81.9283 6.08384C82.1915 6.24249 82.5201 6.27192 83.1773 6.33078C84.2898 6.43041 84.8461 6.48023 85.0159 6.79739C85.0511 6.86308 85.075 6.9342 85.0867 7.00779C85.143 7.36315 84.7341 7.73519 83.9162 8.47927L83.6891 8.68589C83.3067 9.03376 83.1156 9.2077 83.005 9.42477C82.9386 9.55498 82.8942 9.69521 82.8733 9.83985C82.8386 10.081 82.8946 10.3333 83.0065 10.838L83.0465 11.0183C83.2473 11.9233 83.3477 12.3758 83.2224 12.5982C83.1098 12.798 82.9025 12.9259 82.6734 12.9369C82.4184 12.949 82.0591 12.6562 81.3404 12.0707C80.8669 11.6848 80.6302 11.4919 80.3674 11.4166C80.1272 11.3477 79.8725 11.3477 79.6324 11.4166C79.3696 11.4919 79.1328 11.6848 78.6594 12.0707C77.9407 12.6562 77.5814 12.949 77.3264 12.9369C77.0973 12.9259 76.8899 12.798 76.7774 12.5982C76.652 12.3758 76.7524 11.9233 76.9532 11.0183L76.9932 10.838C77.1052 10.3333 77.1612 10.081 77.1265 9.83985C77.1056 9.69521 77.0611 9.55498 76.9948 9.42477C76.8842 9.2077 76.693 9.03376 76.3107 8.68589L76.0836 8.47927C75.2657 7.73519 74.8568 7.36314 74.9131 7.00779C74.9247 6.9342 74.9487 6.86308 74.9838 6.79739C75.1537 6.48023 75.71 6.43041 76.8225 6.33078C77.4797 6.27192 77.8083 6.24249 78.0715 6.08384C78.1453 6.03934 78.2147 5.98779 78.2785 5.9299C78.5063 5.72352 78.628 5.4201 78.8714 4.81324Z" fill="#FBD405" stroke="#FBD405" stroke-width="2"/>
</svg>
