<svg width="355" height="250" viewBox="0 0 355 250" fill="none" xmlns="http://www.w3.org/2000/svg">
<path d="M52.7742 221.736C121.922 259.418 233.99 259.425 303.139 221.736C372.287 184.046 372.287 122.941 303.139 85.2512C233.99 47.5613 121.922 47.5613 52.7742 85.2512C-16.3742 122.941 -16.3662 184.03 52.7742 221.736Z" fill="#F5F5F5"/>
<path d="M89.6294 208.057L137.803 235.875C145.64 240.398 158.349 240.398 166.185 235.875L284.262 167.705C292.099 163.182 292.099 155.846 284.262 151.316L236.089 123.497C228.244 118.975 215.535 118.975 207.698 123.497L89.6294 191.668C81.7847 196.19 81.7847 203.527 89.6294 208.057Z" fill="#EBEBEB"/>
<path d="M278.484 159.502C277.991 156.887 277.101 152.619 274.009 149.241C270.662 145.669 266.716 142.71 262.349 140.498C258.01 138.289 255.641 132.336 263.859 132.55C271.442 132.773 278.651 141.293 279.501 148.542L278.484 159.502Z" fill="#37474F"/>
<path d="M279.159 152.619C279.057 152.619 278.959 152.581 278.883 152.512C278.808 152.443 278.762 152.347 278.754 152.246C277.84 140.633 265.314 135.157 262.858 134.927C262.799 134.932 262.739 134.924 262.684 134.904C262.628 134.883 262.577 134.851 262.536 134.809C262.494 134.767 262.462 134.717 262.441 134.661C262.421 134.605 262.413 134.546 262.419 134.487C262.424 134.427 262.442 134.37 262.472 134.319C262.502 134.268 262.543 134.224 262.591 134.19C262.64 134.156 262.695 134.133 262.754 134.123C262.812 134.113 262.872 134.116 262.929 134.132C265.648 134.378 278.635 139.886 279.62 152.198C279.625 152.251 279.619 152.305 279.602 152.356C279.586 152.406 279.559 152.453 279.525 152.494C279.49 152.535 279.447 152.568 279.4 152.592C279.352 152.616 279.3 152.631 279.247 152.635L279.159 152.619Z" fill="white"/>
<path d="M285.136 159.502C285.605 157.674 287.473 154.598 289.905 153.74C292.337 152.881 297.655 154.121 300.055 150.282C302.455 146.443 300.325 141.15 300.723 138.98C301.12 136.81 302.646 135.006 305.674 132.924C308.702 130.841 310.157 126.828 308.44 124.912C306.723 122.997 303.632 122.758 299.57 125.556C295.509 128.354 295.374 127.63 291.797 127.304C288.22 126.979 285.033 130.714 284.469 135.912L285.136 159.502Z" fill="#455A64"/>
<path d="M284.866 150.306H284.771C284.719 150.295 284.669 150.273 284.626 150.243C284.582 150.212 284.545 150.173 284.517 150.128C284.489 150.083 284.47 150.032 284.462 149.979C284.453 149.927 284.456 149.873 284.469 149.821C287.068 138.32 300.182 127.686 304.967 125.882C305.072 125.844 305.188 125.849 305.29 125.897C305.391 125.945 305.469 126.031 305.507 126.136C305.545 126.241 305.54 126.358 305.492 126.459C305.444 126.56 305.358 126.639 305.253 126.677C300.587 128.441 287.767 138.805 285.264 150.036C285.235 150.118 285.181 150.188 285.109 150.236C285.038 150.285 284.953 150.309 284.866 150.306Z" fill="white"/>
<path d="M290.994 138.479C290.913 138.479 290.833 138.455 290.765 138.41C290.697 138.365 290.644 138.3 290.613 138.225C289.325 135.046 289.571 130.833 289.579 130.651C289.61 130.565 289.667 130.492 289.742 130.443C289.818 130.393 289.908 130.37 289.998 130.376C290.088 130.382 290.174 130.418 290.242 130.478C290.31 130.537 290.356 130.618 290.374 130.706C290.374 130.706 290.128 134.927 291.352 137.915C291.372 137.965 291.383 138.019 291.382 138.073C291.382 138.127 291.37 138.18 291.349 138.23C291.327 138.28 291.296 138.324 291.257 138.362C291.218 138.399 291.172 138.428 291.121 138.448C291.081 138.466 291.038 138.477 290.994 138.479Z" fill="white"/>
<path d="M297.178 146.475C295.381 146.475 290.772 146.229 287.163 143.86C287.072 143.801 287.009 143.709 286.987 143.603C286.964 143.497 286.985 143.387 287.044 143.296C287.103 143.205 287.196 143.142 287.301 143.12C287.407 143.097 287.518 143.118 287.608 143.177C291.86 145.967 297.822 145.649 297.885 145.641C297.939 145.637 297.993 145.645 298.044 145.663C298.095 145.681 298.142 145.709 298.182 145.745C298.222 145.781 298.254 145.825 298.277 145.874C298.3 145.923 298.312 145.976 298.314 146.03C298.318 146.083 298.31 146.137 298.293 146.187C298.275 146.238 298.248 146.284 298.213 146.324C298.177 146.364 298.134 146.396 298.086 146.42C298.038 146.443 297.986 146.456 297.933 146.459C297.837 146.467 297.567 146.475 297.178 146.475Z" fill="white"/>
<path d="M148.668 234.453C147.746 231.138 144.63 228.277 139.472 225.304C134.314 222.332 125.483 218.501 127.55 213.311C129.616 208.121 138.605 212.301 141.968 215.234C146.371 219.081 149.78 224.772 149.876 228.69L148.668 234.453Z" fill="#37474F"/>
<path d="M149.502 231.019C149.408 231.019 149.316 230.987 149.242 230.928C149.168 230.868 149.117 230.786 149.097 230.693C147.189 221.624 136.444 214.614 131.222 213.398C131.115 213.373 131.023 213.308 130.965 213.216C130.907 213.123 130.888 213.012 130.912 212.905C130.938 212.8 131.004 212.709 131.096 212.651C131.188 212.594 131.298 212.574 131.405 212.595C136.809 213.859 147.921 221.124 149.9 230.526C149.911 230.579 149.912 230.633 149.902 230.687C149.893 230.74 149.872 230.79 149.843 230.836C149.813 230.881 149.775 230.92 149.73 230.95C149.685 230.98 149.635 231.001 149.582 231.011L149.502 231.019Z" fill="white"/>
<path d="M155.32 234.453C155.734 230.844 158.73 228.698 162.378 227.84C166.026 226.981 169.269 226.401 169.532 222.395C169.794 218.389 166.13 215.091 169.071 211.649C172.011 208.208 176.494 204.607 176.184 198.567C175.874 192.526 170.263 191.899 168.077 195.706C165.891 199.513 165.438 202.152 162.362 201.786C159.286 201.42 154.359 203.431 153.739 212.627L155.32 234.453Z" fill="#455A64"/>
<path d="M154.772 227.172H154.716C154.609 227.156 154.513 227.099 154.447 227.013C154.382 226.927 154.353 226.818 154.367 226.711C155.583 217.706 161.893 210.02 166.503 204.409C168.482 202.024 170.191 199.918 170.93 198.392C170.953 198.343 170.984 198.3 171.024 198.263C171.063 198.227 171.109 198.199 171.159 198.18C171.209 198.162 171.263 198.153 171.316 198.156C171.37 198.158 171.422 198.171 171.471 198.193C171.568 198.242 171.643 198.325 171.68 198.428C171.718 198.53 171.714 198.642 171.67 198.742C170.875 200.331 169.15 202.477 167.131 204.933C162.585 210.497 156.362 218.04 155.209 226.822C155.195 226.926 155.142 227.02 155.061 227.085C154.979 227.15 154.876 227.181 154.772 227.172Z" fill="white"/>
<path d="M159.676 214.296C159.592 214.297 159.51 214.272 159.441 214.223C159.373 214.175 159.321 214.106 159.294 214.026C158.568 211.498 158.223 208.875 158.269 206.245C158.273 206.136 158.319 206.033 158.398 205.957C158.476 205.882 158.581 205.839 158.69 205.839C158.744 205.84 158.797 205.852 158.847 205.874C158.896 205.896 158.941 205.927 158.978 205.967C159.015 206.006 159.043 206.052 159.062 206.103C159.081 206.153 159.09 206.207 159.088 206.261C159.046 208.793 159.375 211.319 160.065 213.756C160.084 213.806 160.092 213.86 160.089 213.914C160.086 213.968 160.073 214.02 160.049 214.069C160.025 214.117 159.992 214.16 159.951 214.195C159.91 214.23 159.862 214.256 159.811 214.272C159.768 214.289 159.722 214.297 159.676 214.296Z" fill="white"/>
<path d="M165.311 222.181C162.309 222.012 159.356 221.351 156.568 220.226C156.518 220.207 156.472 220.179 156.433 220.142C156.394 220.105 156.363 220.061 156.341 220.012C156.32 219.963 156.308 219.91 156.308 219.857C156.307 219.803 156.317 219.75 156.338 219.701C156.356 219.651 156.385 219.605 156.421 219.565C156.458 219.526 156.501 219.494 156.55 219.472C156.599 219.45 156.652 219.438 156.705 219.436C156.759 219.434 156.812 219.443 156.862 219.462C159.561 220.551 162.416 221.2 165.319 221.386C165.373 221.387 165.426 221.399 165.475 221.421C165.525 221.442 165.569 221.474 165.606 221.513C165.643 221.552 165.672 221.598 165.691 221.649C165.71 221.699 165.719 221.753 165.716 221.807C165.71 221.91 165.665 222.006 165.589 222.076C165.513 222.145 165.414 222.183 165.311 222.181Z" fill="white"/>
<path d="M90.6309 174.882C90.8217 174.802 91.4257 162.046 85.9256 154.527C80.4256 147.008 73.7889 146.141 69.4175 147.969C65.046 149.798 65.9362 154.288 71.3171 156.983C76.6979 159.677 83.3981 164.374 84.9957 172.958L90.6309 174.882Z" fill="#37474F"/>
<path d="M88.612 171.138C88.5151 171.138 88.4214 171.103 88.3473 171.041C88.2732 170.978 88.2234 170.892 88.2067 170.796C86.1481 157.841 78.4862 151.49 72.0085 149.869C71.9561 149.857 71.9066 149.835 71.8629 149.803C71.8193 149.772 71.7823 149.732 71.7542 149.686C71.7261 149.64 71.7074 149.589 71.6992 149.536C71.691 149.483 71.6935 149.428 71.7064 149.376C71.717 149.318 71.7401 149.262 71.7741 149.213C71.8081 149.164 71.8523 149.123 71.9037 149.093C71.955 149.063 72.0122 149.044 72.0715 149.038C72.1307 149.032 72.1906 149.039 72.2469 149.058C78.9789 150.743 86.935 157.301 89.0571 170.645C89.0661 170.699 89.0644 170.753 89.052 170.806C89.0397 170.859 89.0169 170.908 88.985 170.952C88.9532 170.996 88.9129 171.032 88.8666 171.06C88.8203 171.088 88.7689 171.107 88.7153 171.114L88.612 171.138Z" fill="white"/>
<path d="M89.6453 198.567C88.8505 195.205 85.4249 193.003 81.427 192.622C77.2702 192.248 72.4377 191.827 71.1501 188.33C69.8626 184.833 71.1501 180.072 70.5699 177.743C69.8626 174.921 68.7816 173.244 63.3213 171.528C58.4332 169.994 55.7309 165.32 60.6587 163.349C65.5865 161.378 70.5222 162.626 73.8763 164.144C77.2304 165.662 77.3735 167.228 82.0947 166.822C86.8158 166.417 90.3368 169.382 90.6309 172.243L89.6453 198.567Z" fill="#455A64"/>
<path d="M89.6454 187.161C89.5608 187.161 89.4785 187.135 89.409 187.086C89.3396 187.038 89.2862 186.97 89.2559 186.891C85.3773 176.082 69.5129 166.298 64.2354 165.678C64.1284 165.664 64.0312 165.609 63.9643 165.524C63.8975 165.439 63.8664 165.332 63.8777 165.225C63.8897 165.116 63.9441 165.017 64.0289 164.949C64.1138 164.88 64.2223 164.848 64.3307 164.859C69.7513 165.503 86.0528 175.533 90.0269 186.613C90.0458 186.664 90.0544 186.717 90.0522 186.771C90.05 186.825 90.037 186.878 90.014 186.927C89.9911 186.976 89.9586 187.02 89.9185 187.056C89.8784 187.092 89.8315 187.12 89.7805 187.138L89.6454 187.161Z" fill="white"/>
<path d="M85.9256 180.668H85.8382C85.732 180.643 85.6398 180.578 85.5817 180.485C85.5237 180.393 85.5044 180.281 85.5282 180.175C86.8317 174.54 85.5282 170.916 85.5282 170.876C85.4913 170.77 85.4978 170.655 85.5463 170.554C85.5947 170.453 85.6811 170.376 85.7865 170.339C85.8919 170.302 86.0077 170.309 86.1083 170.357C86.2089 170.406 86.2861 170.492 86.323 170.598C86.3787 170.749 87.698 174.476 86.323 180.358C86.3002 180.446 86.2489 180.524 86.177 180.58C86.1052 180.637 86.0168 180.667 85.9256 180.668Z" fill="white"/>
<path d="M88.612 184.825C88.5454 184.825 88.4799 184.809 88.4213 184.777C85.242 183.052 78.3272 184.284 78.2557 184.292C78.202 184.306 78.146 184.309 78.0913 184.3C78.0366 184.291 77.9842 184.272 77.9374 184.242C77.8906 184.212 77.8504 184.173 77.8192 184.127C77.7881 184.082 77.7667 184.03 77.7563 183.975C77.746 183.921 77.7469 183.865 77.7591 183.811C77.7712 183.757 77.7943 183.706 77.827 183.661C77.8596 183.616 77.9011 183.578 77.9489 183.55C77.9966 183.522 78.0496 183.504 78.1047 183.497C78.3987 183.442 85.3692 182.202 88.8107 184.062C88.9037 184.099 88.9802 184.168 89.0259 184.257C89.0715 184.346 89.0833 184.449 89.059 184.546C89.0348 184.643 88.9761 184.728 88.8939 184.785C88.8116 184.842 88.7115 184.868 88.612 184.857V184.825Z" fill="white"/>
<path d="M160.161 39.1682C157.117 36.3069 151.609 35.1941 144.694 39.4305C137.779 43.6668 132.311 57.2182 130.594 66.8036C128.877 76.389 127.796 88.9073 131.23 94.2166C134.663 99.5259 147.126 105.153 147.126 105.153L148.636 99.9313L160.161 39.1682Z" fill="#BA68C8"/>
<path opacity="0.4" d="M160.161 39.1682C157.117 36.3069 151.609 35.1941 144.694 39.4305C137.779 43.6668 132.311 57.2182 130.594 66.8036C128.877 76.389 127.796 88.9073 131.23 94.2166C134.663 99.5259 147.126 105.153 147.126 105.153L148.636 99.9313L160.161 39.1682Z" fill="white"/>
<path d="M134.647 92.627C140.044 99.0888 148.668 99.963 148.668 99.963L181.93 80.7048L168.61 73.019L134.647 92.627Z" fill="#BA68C8"/>
<path opacity="0.2" d="M134.647 92.627C140.044 99.0888 148.668 99.963 148.668 99.963L181.93 80.7048L168.61 73.019L134.647 92.627Z" fill="#333333"/>
<path d="M134.647 92.6269C132.462 90.0359 132.017 83.3674 133.201 73.0588C134.488 61.7407 138.677 44.2311 148.66 38.4608C160.367 31.7049 172.258 48.4912 168.633 73.0588L134.647 92.6269Z" fill="#BA68C8"/>
<path d="M212.57 147.405C218.714 154.368 223.213 155.751 224.858 157.237C226.503 158.723 225.852 161.934 222.18 162.96C218.508 163.985 214.383 163.381 211.799 161.163C209.216 158.946 207.301 155.918 204.71 154.344C202.119 152.77 200.831 152.397 200.306 150.37C199.782 148.343 201.181 142.024 201.181 142.024L212.57 147.405Z" fill="#263238"/>
<path d="M209.049 136.341C208.723 139.06 208.326 141.452 210.393 144.544C211.06 145.538 211.787 146.491 212.57 147.397C216.163 151.538 219.08 154.765 219.596 155.345C220.113 155.925 217.482 158.032 214.224 156.935C210.965 155.838 207.905 151.371 205.632 148.725C204.622 147.54 203.637 146.467 202.858 145.641C201.81 144.539 201.202 143.091 201.149 141.571L200.998 137.279L209.049 136.341Z" fill="#FFA8A7"/>
<path d="M193.916 158.795C200.06 165.765 204.551 167.14 206.204 168.627C207.857 170.113 207.197 173.332 203.525 174.357C199.853 175.382 195.728 174.778 193.137 172.553C190.546 170.327 188.647 167.315 186.056 165.741C183.465 164.168 182.169 163.794 181.652 161.767C181.136 159.741 182.527 153.422 182.527 153.422L193.916 158.795Z" fill="#263238"/>
<path d="M190.387 147.739C190.069 150.465 189.664 152.85 191.738 155.941C192.404 156.937 193.131 157.89 193.916 158.795C197.509 162.944 200.418 166.171 200.934 166.743C201.451 167.315 198.828 169.429 195.561 168.332C192.295 167.236 189.243 162.769 186.978 160.13C185.968 158.938 184.983 157.873 184.204 157.046C183.157 155.943 182.55 154.496 182.495 152.977L182.336 148.677L190.387 147.739Z" fill="#FFA8A7"/>
<path d="M165.542 9.00463e-06H170.263C172.107 -0.00207956 173.933 0.359174 175.637 1.06313C177.342 1.76709 178.89 2.79996 180.195 4.10272C181.5 5.40548 182.536 6.95259 183.243 8.65568C183.95 10.3588 184.314 12.1844 184.315 14.0284V49.2861H151.505V14.0284C151.507 10.3071 152.987 6.73894 155.619 4.10834C158.251 1.47774 161.82 8.40803e-06 165.542 9.00463e-06Z" fill="#263238"/>
<path d="M186.286 40.9644C180.794 35.1941 177.988 34.606 174.65 34.606L181.009 53.284C181.009 53.284 191.468 60.1988 197.588 64.0139L201.475 55.4458C201.475 55.4458 191.778 46.7109 186.286 40.9644Z" fill="#FFA8A7"/>
<path d="M149.169 83.0893C147.126 87.4925 144.495 92.1739 147.158 96.7043C149.82 101.235 171.447 96.7043 171.447 96.7043V83.0893H149.169Z" fill="#263238"/>
<path d="M172.568 34.606C174.952 34.4073 177.654 34.4788 180.516 39.2953C183.377 44.1119 184.983 46.8142 184.077 53.8244C183.17 60.8346 179.785 66.2393 179.538 68.8622C179.292 71.4851 179.92 84.0907 179.92 84.0907C179.92 84.0907 175.739 90.0597 165.343 90.3379C162.278 90.405 159.237 89.7894 156.439 88.5357C153.642 87.282 151.158 85.4216 149.169 83.0893L157.117 68.8304L155.082 39.8517L162.847 35.2021L172.568 34.606Z" fill="#BA68C8"/>
<path d="M172.568 34.606C174.952 34.4073 177.654 34.4788 180.516 39.2953C183.377 44.1119 184.983 46.8142 184.077 53.8244C183.17 60.8346 179.785 66.2393 179.538 68.8622C179.292 71.4851 179.92 84.0907 179.92 84.0907C179.92 84.0907 175.739 90.0597 165.343 90.3379C162.278 90.405 159.237 89.7894 156.439 88.5357C153.642 87.282 151.158 85.4216 149.169 83.0893L157.117 68.8304L155.082 39.8517L162.847 35.2021L172.568 34.606Z" fill="#E0E0E0"/>
<path d="M162.855 44.859C162.102 44.859 161.356 44.7105 160.66 44.422C159.965 44.1335 159.332 43.7107 158.8 43.1777C158.268 42.6447 157.846 42.0121 157.559 41.3159C157.271 40.6197 157.124 39.8737 157.125 39.1205V22.4295H162.855V44.859Z" fill="#263238"/>
<path d="M178.91 6.62871C180.635 7.65401 182.781 12.0096 182.566 21.134C182.392 28.8754 179.88 30.7829 178.592 31.3393C177.305 31.8957 174.904 31.5539 172.536 31.1565V35.8061C172.536 35.8061 175.803 39.5973 175.596 41.7195C175.389 43.8416 170.883 44.3582 167.831 42.2758C165.851 40.85 164.151 39.0718 162.815 37.0301V25.7995C162.815 25.7995 161.226 27.9296 158.619 26.1969C156.012 24.4642 155.909 20.1802 157.427 18.6462C158.945 17.1122 162.195 17.5891 162.815 19.7192C162.815 19.7192 166.583 19.8543 171.558 17.1043C173.522 16.0608 175.212 14.568 176.49 12.7476C177.767 10.9271 178.597 8.83054 178.91 6.62871Z" fill="#FFA8A7"/>
<path d="M173.927 19.1946C173.938 19.4518 173.847 19.703 173.674 19.8931C173.5 20.0831 173.258 20.1964 173.001 20.208C172.744 20.2196 172.492 20.1286 172.302 19.9549C172.112 19.7813 171.999 19.5392 171.987 19.2821C171.982 19.1547 172.001 19.0275 172.045 18.9076C172.088 18.7878 172.155 18.6777 172.241 18.5836C172.327 18.4895 172.43 18.4132 172.546 18.3592C172.661 18.3052 172.786 18.2744 172.913 18.2687C173.041 18.2629 173.168 18.2823 173.288 18.3258C173.408 18.3692 173.518 18.4358 173.612 18.5218C173.706 18.6077 173.782 18.7114 173.836 18.8269C173.89 18.9423 173.921 19.0673 173.927 19.1946Z" fill="#263238"/>
<path d="M172.17 16.2141L170.151 17.4619C169.987 17.1854 169.937 16.856 170.011 16.5431C170.085 16.2302 170.278 15.9583 170.549 15.7849C170.683 15.7042 170.832 15.6513 170.987 15.6292C171.141 15.6072 171.299 15.6164 171.45 15.6564C171.602 15.6965 171.743 15.7664 171.867 15.8622C171.991 15.958 172.094 16.0777 172.17 16.2141Z" fill="#263238"/>
<path d="M174.189 25.7518L176.446 26.4751C176.404 26.6248 176.331 26.7645 176.234 26.8859C176.136 27.0073 176.015 27.108 175.878 27.182C175.741 27.2561 175.591 27.302 175.436 27.3171C175.281 27.3322 175.125 27.3161 174.976 27.2699C174.676 27.1646 174.428 26.9489 174.282 26.6668C174.135 26.3847 174.102 26.0574 174.189 25.7518Z" fill="#F28F8F"/>
<path d="M181.931 16.2062L179.959 14.8391C180.041 14.7057 180.15 14.5905 180.278 14.5007C180.407 14.4109 180.552 14.3485 180.706 14.3172C180.859 14.2859 181.017 14.2864 181.171 14.3188C181.324 14.3511 181.469 14.4146 181.597 14.5053C181.859 14.6928 182.039 14.9733 182.101 15.2895C182.163 15.6056 182.102 15.9335 181.931 16.2062Z" fill="#263238"/>
<path d="M181.454 18.4872C181.457 18.6792 181.403 18.8677 181.299 19.0293C181.196 19.1909 181.047 19.3185 180.871 19.3961C180.696 19.4737 180.501 19.4979 180.312 19.4657C180.123 19.4335 179.947 19.3463 179.807 19.215C179.667 19.0837 179.569 18.9141 179.525 18.7273C179.481 18.5405 179.492 18.3448 179.559 18.1647C179.625 17.9845 179.743 17.8278 179.897 17.7142C180.052 17.6005 180.237 17.5349 180.428 17.5255C180.559 17.5213 180.689 17.5428 180.811 17.5888C180.933 17.6349 181.045 17.7046 181.14 17.7939C181.236 17.8832 181.312 17.9904 181.366 18.1094C181.42 18.2283 181.45 18.3567 181.454 18.4872Z" fill="#263238"/>
<path d="M176.86 17.9309L177.019 23.7886L180.102 22.8348L176.86 17.9309Z" fill="#F28F8F"/>
<path d="M172.568 31.1565C170.605 30.9339 166.662 29.7417 165.788 28.4144C165.957 29.2623 166.428 30.0196 167.115 30.5445C168.403 31.7764 172.568 32.6666 172.568 32.6666V31.1565Z" fill="#F28F8F"/>
<path d="M151.99 163.349L88.7472 126.836L221.893 49.9617L285.136 86.4751L151.99 163.349Z" fill="#BA68C8"/>
<path opacity="0.4" d="M151.99 163.349L88.7472 126.836L221.893 49.9617L285.136 86.4751L151.99 163.349Z" fill="white"/>
<path d="M88.7472 126.836V199.863L92.0774 201.786V151.816L148.668 184.483V234.453L151.99 236.376V163.349L88.7472 126.836Z" fill="#BA68C8"/>
<path opacity="0.3" d="M88.7472 126.836V199.863L92.0774 201.786V151.816L148.668 184.483V234.453L151.99 236.376V163.349L88.7472 126.836Z" fill="#333333"/>
<path d="M92.0774 201.786L95.4076 199.863V153.74L92.0774 151.816V201.786Z" fill="#BA68C8"/>
<path opacity="0.5" d="M92.0774 201.786L95.4076 199.863V153.74L92.0774 151.816V201.786Z" fill="#333333"/>
<path d="M151.99 236.376L155.32 234.453V184.483L281.806 111.456V161.426L285.136 159.502V86.4751L151.99 163.349V236.376Z" fill="#BA68C8"/>
<path opacity="0.1" d="M151.99 236.376L155.32 234.453V184.483L281.806 111.456V161.426L285.136 159.502V86.4751L151.99 163.349V236.376Z" fill="#333333"/>
<path d="M155.32 180.644V165.272L195.267 142.207V157.579L155.32 180.644Z" fill="#BA68C8"/>
<path opacity="0.3" d="M155.32 180.644V165.272L195.267 142.207V157.579L155.32 180.644Z" fill="#333333"/>
<path d="M198.59 155.663V140.284L238.537 117.226V132.598L198.59 155.663Z" fill="#BA68C8"/>
<path opacity="0.3" d="M198.59 155.663V140.284L238.537 117.226V132.598L198.59 155.663Z" fill="#333333"/>
<path d="M241.867 130.674V115.303L281.806 92.2375V107.617L241.867 130.674Z" fill="#BA68C8"/>
<path opacity="0.3" d="M241.867 130.674V115.303L281.806 92.2375V107.617L241.867 130.674Z" fill="#333333"/>
<path d="M181.931 149.893V151.125C181.931 151.8 180.341 153.271 178.378 154.399L172.162 157.992C170.199 159.121 168.61 159.494 168.61 158.787V157.563L181.931 149.893Z" fill="#263238"/>
<path d="M225.224 124.912V126.144C225.224 126.82 223.634 128.29 221.671 129.419L215.456 133.011C213.5 134.14 211.911 134.505 211.911 133.806V132.574L225.224 124.912Z" fill="#263238"/>
<path d="M268.493 99.9313V101.155C268.493 101.839 266.903 103.301 264.948 104.438L258.725 108.022C256.77 109.159 255.18 109.525 255.18 108.817V107.585L268.493 99.9313Z" fill="#263238"/>
<path d="M281.806 161.426L278.484 159.502V113.379L281.806 111.456V161.426Z" fill="#BA68C8"/>
<path opacity="0.3" d="M281.806 161.426L278.484 159.502V113.379L281.806 111.456V161.426Z" fill="#333333"/>
<path d="M188.607 91.4188V91.1407C188.621 90.8945 188.693 90.6551 188.815 90.4413C188.938 90.2275 189.109 90.0451 189.314 89.9087L231.209 65.7465C231.43 65.636 231.673 65.5785 231.92 65.5785C232.167 65.5785 232.411 65.636 232.631 65.7465L241.199 70.6902C241.405 70.8267 241.576 71.009 241.698 71.2228C241.821 71.4366 241.892 71.6761 241.907 71.9222V72.2083C241.89 72.4538 241.817 72.6921 241.693 72.9045C241.569 73.1169 241.397 73.2976 241.191 73.4323L199.345 97.5945C199.124 97.705 198.88 97.7626 198.633 97.7626C198.387 97.7626 198.143 97.705 197.922 97.5945L189.314 92.627C189.112 92.4929 188.943 92.3144 188.82 92.105C188.698 91.8956 188.625 91.6609 188.607 91.4188Z" fill="#BA68C8"/>
<path opacity="0.7" d="M188.607 91.4188V91.1407C188.621 90.8945 188.693 90.6551 188.815 90.4413C188.938 90.2275 189.109 90.0451 189.314 89.9087L231.209 65.7465C231.43 65.636 231.673 65.5785 231.92 65.5785C232.167 65.5785 232.411 65.636 232.631 65.7465L241.199 70.6902C241.405 70.8267 241.576 71.009 241.698 71.2228C241.821 71.4366 241.892 71.6761 241.907 71.9222V72.2083C241.89 72.4538 241.817 72.6921 241.693 72.9045C241.569 73.1169 241.397 73.2976 241.191 73.4323L199.345 97.5945C199.124 97.705 198.88 97.7626 198.633 97.7626C198.387 97.7626 198.143 97.705 197.922 97.5945L189.314 92.627C189.112 92.4929 188.943 92.3144 188.82 92.105C188.698 91.8956 188.625 91.6609 188.607 91.4188Z" fill="white"/>
<path d="M189.314 90.7274L197.882 95.679C198.103 95.7895 198.347 95.8471 198.594 95.8471C198.841 95.8471 199.084 95.7895 199.305 95.679L241.152 71.5168C241.228 71.482 241.292 71.426 241.337 71.3555C241.383 71.2851 241.407 71.2032 241.407 71.1194C241.407 71.0357 241.383 70.9538 241.337 70.8833C241.292 70.8129 241.228 70.7569 241.152 70.722L232.584 65.7783C232.363 65.6678 232.119 65.6103 231.872 65.6103C231.625 65.6103 231.382 65.6678 231.161 65.7783L189.306 89.9405C188.925 90.1392 188.925 90.5048 189.314 90.7274Z" fill="#BA68C8"/>
<path opacity="0.9" d="M189.314 90.7274L197.882 95.679C198.103 95.7895 198.347 95.8471 198.594 95.8471C198.841 95.8471 199.084 95.7895 199.305 95.679L241.152 71.5168C241.228 71.482 241.292 71.426 241.337 71.3555C241.383 71.2851 241.407 71.2032 241.407 71.1194C241.407 71.0357 241.383 70.9538 241.337 70.8833C241.292 70.8129 241.228 70.7569 241.152 70.722L232.584 65.7783C232.363 65.6678 232.119 65.6103 231.872 65.6103C231.625 65.6103 231.382 65.6678 231.161 65.7783L189.306 89.9405C188.925 90.1392 188.925 90.5048 189.314 90.7274Z" fill="white"/>
<path d="M136.062 114.429L161.265 128.989C161.486 129.1 161.73 129.157 161.977 129.157C162.224 129.157 162.467 129.1 162.688 128.989L181.239 118.275C181.318 118.243 181.386 118.188 181.433 118.117C181.481 118.047 181.506 117.963 181.506 117.878C181.506 117.793 181.481 117.709 181.433 117.639C181.386 117.568 181.318 117.513 181.239 117.481L156.028 102.928C155.809 102.814 155.567 102.755 155.32 102.755C155.074 102.755 154.831 102.814 154.613 102.928L136.062 113.61C135.665 113.84 135.665 114.206 136.062 114.429Z" fill="#BA68C8"/>
<path opacity="0.8" d="M136.062 114.429L161.265 128.989C161.486 129.1 161.73 129.157 161.977 129.157C162.224 129.157 162.467 129.1 162.688 128.989L181.239 118.275C181.318 118.243 181.386 118.188 181.433 118.117C181.481 118.047 181.506 117.963 181.506 117.878C181.506 117.793 181.481 117.709 181.433 117.639C181.386 117.568 181.318 117.513 181.239 117.481L156.028 102.928C155.809 102.814 155.567 102.755 155.32 102.755C155.074 102.755 154.831 102.814 154.613 102.928L136.062 113.61C135.665 113.84 135.665 114.206 136.062 114.429Z" fill="white"/>
<path d="M154.613 102.904L136.992 113.069L161.266 127.09C161.486 127.2 161.73 127.258 161.977 127.258C162.224 127.258 162.467 127.2 162.688 127.09L180.341 116.916L156.06 102.904C155.837 102.785 155.589 102.723 155.336 102.723C155.084 102.723 154.835 102.785 154.613 102.904Z" fill="#BA68C8"/>
<path opacity="0.7" d="M154.613 102.904L136.992 113.069L161.266 127.09C161.486 127.2 161.73 127.258 161.977 127.258C162.224 127.258 162.467 127.2 162.688 127.09L180.341 116.916L156.06 102.904C155.837 102.785 155.589 102.723 155.336 102.723C155.084 102.723 154.835 102.785 154.613 102.904Z" fill="white"/>
<path d="M136.062 111.869L161.265 126.422C161.486 126.533 161.73 126.59 161.977 126.59C162.224 126.59 162.467 126.533 162.688 126.422L181.239 115.716C181.315 115.681 181.38 115.625 181.425 115.555C181.47 115.484 181.494 115.402 181.494 115.319C181.494 115.235 181.47 115.153 181.425 115.083C181.38 115.012 181.315 114.956 181.239 114.921L156.028 100.337C155.808 100.227 155.566 100.171 155.32 100.171C155.075 100.171 154.833 100.227 154.613 100.337L136.062 111.051C135.975 111.078 135.899 111.133 135.845 111.206C135.791 111.28 135.762 111.369 135.762 111.46C135.762 111.551 135.791 111.64 135.845 111.714C135.899 111.787 135.975 111.842 136.062 111.869Z" fill="#BA68C8"/>
<path opacity="0.9" d="M136.062 111.869L161.265 126.422C161.486 126.533 161.73 126.59 161.977 126.59C162.224 126.59 162.467 126.533 162.688 126.422L181.239 115.716C181.315 115.681 181.38 115.625 181.425 115.555C181.47 115.484 181.494 115.402 181.494 115.319C181.494 115.235 181.47 115.153 181.425 115.083C181.38 115.012 181.315 114.956 181.239 114.921L156.028 100.337C155.808 100.227 155.566 100.171 155.32 100.171C155.075 100.171 154.833 100.227 154.613 100.337L136.062 111.051C135.975 111.078 135.899 111.133 135.845 111.206C135.791 111.28 135.762 111.369 135.762 111.46C135.762 111.551 135.791 111.64 135.845 111.714C135.899 111.787 135.975 111.842 136.062 111.869Z" fill="white"/>
<path d="M150.035 96.7044C149.2 98.9775 150.48 100.814 152.904 100.798C154.178 100.731 155.407 100.308 156.451 99.5752C157.496 98.843 158.313 97.8315 158.809 96.6567C159.652 94.3835 158.364 92.5475 155.94 92.5634C154.666 92.6299 153.437 93.0535 152.393 93.7858C151.348 94.5181 150.531 95.5295 150.035 96.7044Z" fill="#BA68C8"/>
<path opacity="0.1" d="M150.035 96.7044C149.2 98.9775 150.48 100.814 152.904 100.798C154.178 100.731 155.407 100.308 156.451 99.5752C157.496 98.843 158.313 97.8315 158.809 96.6567C159.652 94.3835 158.364 92.5475 155.94 92.5634C154.666 92.6299 153.437 93.0535 152.393 93.7858C151.348 94.5181 150.531 95.5295 150.035 96.7044Z" fill="#333333"/>
<path d="M152.046 107.49C150.146 112.632 153.055 116.789 158.547 116.757C164.039 116.726 170.008 112.497 171.916 107.379C173.823 102.26 170.899 98.0873 165.414 98.1111C159.93 98.135 153.937 102.34 152.046 107.49Z" fill="#455A64"/>
<path d="M156.497 92.627L153.206 94.9239L149.916 97.2209C148.827 101.537 148.501 108.277 152.546 114.079L171.479 100.853C167.393 95.0114 160.892 93.0561 156.497 92.627Z" fill="#455A64"/>
<path d="M158.396 92.9369C158.396 92.9369 158.984 98.1429 155.082 100.504C155.082 100.504 158.754 99.4941 159.851 96.911C160.948 94.3278 158.396 92.9369 158.396 92.9369Z" fill="#263238"/>
<path d="M158.881 93.5251C157.415 91.4876 155.443 89.8684 153.158 88.8278L150.52 90.7035L150.226 90.9102L147.579 92.7859C147.809 95.2757 148.679 97.6635 150.106 99.7166C150.435 100.135 150.861 100.466 151.347 100.683C151.834 100.899 152.365 100.993 152.896 100.957C154.238 100.883 155.531 100.433 156.629 99.659C157.727 98.8845 158.585 97.8164 159.104 96.5772C159.318 96.0852 159.408 95.5483 159.366 95.0135C159.325 94.4787 159.153 93.9622 158.865 93.5092L158.881 93.5251Z" fill="#37474F"/>
<path d="M147.666 91.3712C147.507 91.691 147.438 92.048 147.465 92.4042C147.493 92.7603 147.616 93.1024 147.822 93.3941C148.029 93.6858 148.31 93.9163 148.636 94.0611C148.963 94.2059 149.323 94.2596 149.677 94.2166C150.564 94.1696 151.419 93.8732 152.145 93.3613C152.871 92.8495 153.437 92.1431 153.778 91.3235C153.937 91.0042 154.006 90.6481 153.979 90.2928C153.952 89.9374 153.829 89.596 153.624 89.3045C153.419 89.0131 153.139 88.7825 152.813 88.637C152.488 88.4915 152.129 88.4366 151.775 88.4781C150.889 88.53 150.035 88.8283 149.309 89.3394C148.583 89.8505 148.014 90.5542 147.666 91.3712Z" fill="#455A64"/>
<path d="M153.087 97.833C152.756 97.3571 152.319 96.9654 151.81 96.6893C151.3 96.4132 150.733 96.2605 150.154 96.2434C149.934 96.2241 149.713 96.2695 149.518 96.374C149.323 96.4784 149.163 96.6374 149.057 96.8315L141.252 115.676C141.195 115.859 141.181 116.053 141.211 116.242C141.241 116.431 141.315 116.61 141.427 116.765C141.758 117.243 142.197 117.635 142.707 117.912C143.218 118.188 143.787 118.34 144.368 118.355C144.588 118.375 144.81 118.33 145.005 118.226C145.2 118.121 145.36 117.962 145.465 117.767L153.254 98.9854C153.328 98.7952 153.351 98.5892 153.322 98.3873C153.293 98.1854 153.212 97.9944 153.087 97.833Z" fill="#455A64"/>
<path d="M162.378 143.987C162.378 143.72 162.349 143.454 162.291 143.193C161.622 140.144 159.824 137.461 157.26 135.682H146.728C144.161 137.46 142.361 140.143 141.689 143.193C141.633 143.454 141.607 143.72 141.61 143.987C141.607 144.035 141.607 144.083 141.61 144.131C141.705 145.585 142.707 147.024 144.63 148.105C148.692 150.489 155.265 150.489 159.326 148.105C161.25 146.992 162.251 145.553 162.346 144.131C162.36 144.084 162.37 144.036 162.378 143.987Z" fill="#455A64"/>
<path d="M151.99 142.446C155.888 142.446 159.048 140.62 159.048 138.368C159.048 136.116 155.888 134.291 151.99 134.291C148.092 134.291 144.932 136.116 144.932 138.368C144.932 140.62 148.092 142.446 151.99 142.446Z" fill="#37474F"/>
<path d="M150.321 137.399C150.118 137.466 149.941 137.595 149.816 137.769C149.691 137.942 149.624 138.15 149.624 138.364C149.624 138.578 149.691 138.786 149.816 138.96C149.941 139.133 150.118 139.263 150.321 139.33C150.84 139.592 151.413 139.729 151.994 139.729C152.575 139.729 153.149 139.592 153.667 139.33C153.87 139.263 154.047 139.133 154.172 138.96C154.297 138.786 154.364 138.578 154.364 138.364C154.364 138.15 154.297 137.942 154.172 137.769C154.047 137.595 153.87 137.466 153.667 137.399C153.149 137.136 152.575 136.999 151.994 136.999C151.413 136.999 150.84 137.136 150.321 137.399Z" fill="#455A64"/>
<path d="M140.656 118.975C140.453 119.042 140.277 119.172 140.151 119.345C140.026 119.518 139.959 119.727 139.959 119.941C139.959 120.154 140.026 120.363 140.151 120.536C140.277 120.709 140.453 120.839 140.656 120.906C141.175 121.169 141.748 121.306 142.329 121.306C142.911 121.306 143.484 121.169 144.002 120.906C144.205 120.839 144.382 120.709 144.507 120.536C144.632 120.363 144.7 120.154 144.7 119.941C144.7 119.727 144.632 119.518 144.507 119.345C144.382 119.172 144.205 119.042 144.002 118.975C143.484 118.712 142.911 118.575 142.329 118.575C141.748 118.575 141.175 118.712 140.656 118.975Z" fill="#BA68C8"/>
<path opacity="0.3" d="M140.656 118.975C140.453 119.042 140.277 119.172 140.151 119.345C140.026 119.518 139.959 119.727 139.959 119.941C139.959 120.154 140.026 120.363 140.151 120.536C140.277 120.709 140.453 120.839 140.656 120.906C141.175 121.169 141.748 121.306 142.329 121.306C142.911 121.306 143.484 121.169 144.002 120.906C144.205 120.839 144.382 120.709 144.507 120.536C144.632 120.363 144.7 120.154 144.7 119.941C144.7 119.727 144.632 119.518 144.507 119.345C144.382 119.172 144.205 119.042 144.002 118.975C143.484 118.712 142.911 118.575 142.329 118.575C141.748 118.575 141.175 118.712 140.656 118.975Z" fill="#333333"/>
<path d="M144.606 119.555L154.263 137.979L149.725 138.758L140.052 120.31L144.606 119.555Z" fill="#455A64"/>
<path d="M141.197 114.19C140.898 114.117 140.584 114.132 140.293 114.233C140.002 114.335 139.747 114.519 139.559 114.762C139.014 115.376 138.621 116.11 138.413 116.904C138.204 117.698 138.186 118.53 138.359 119.333C138.407 119.596 138.516 119.845 138.678 120.059C138.839 120.273 139.049 120.446 139.289 120.564L142.897 121.916L144.694 115.478L141.197 114.19Z" fill="#37474F"/>
<path d="M143.12 116.098C142.573 116.712 142.178 117.447 141.968 118.242C141.758 119.038 141.739 119.871 141.912 120.676C142.309 122.13 143.502 122.44 144.551 121.367C145.098 120.754 145.492 120.021 145.702 119.227C145.912 118.433 145.932 117.6 145.759 116.797C145.369 115.343 144.177 115.033 143.12 116.098Z" fill="#263238"/>
<path d="M124.975 132.065C128.329 128.648 130.292 120.104 127.025 117.393H110.398C107.131 120.104 109.094 128.64 112.448 132.065L112.536 132.161L112.655 132.272C112.75 132.368 112.851 132.458 112.957 132.542L113.037 132.606L113.291 132.797C113.428 132.898 113.572 132.991 113.72 133.075C115.269 133.858 116.98 134.267 118.715 134.267C120.451 134.267 122.162 133.858 123.711 133.075C123.854 132.995 123.997 132.9 124.148 132.797L124.378 132.614L124.482 132.542L124.768 132.28L124.903 132.145L124.975 132.065Z" fill="#BA68C8"/>
<path opacity="0.7" d="M124.975 132.065C128.329 128.648 130.292 120.104 127.025 117.393H110.398C107.131 120.104 109.094 128.64 112.448 132.065L112.536 132.161L112.655 132.272C112.75 132.368 112.851 132.458 112.957 132.542L113.037 132.606L113.291 132.797C113.428 132.898 113.572 132.991 113.72 133.075C115.269 133.858 116.98 134.267 118.715 134.267C120.451 134.267 122.162 133.858 123.711 133.075C123.854 132.995 123.997 132.9 124.148 132.797L124.378 132.614L124.482 132.542L124.768 132.28L124.903 132.145L124.975 132.065Z" fill="white"/>
<path d="M118.703 125.882C124.072 125.882 128.424 123.369 128.424 120.27C128.424 117.171 124.072 114.659 118.703 114.659C113.335 114.659 108.983 117.171 108.983 120.27C108.983 123.369 113.335 125.882 118.703 125.882Z" fill="#BA68C8"/>
<path opacity="0.9" d="M118.703 125.882C124.072 125.882 128.424 123.369 128.424 120.27C128.424 117.171 124.072 114.659 118.703 114.659C113.335 114.659 108.983 117.171 108.983 120.27C108.983 123.369 113.335 125.882 118.703 125.882Z" fill="white"/>
<path d="M114.523 117.854C112.218 119.189 112.218 121.351 114.523 122.687C115.821 123.341 117.254 123.682 118.708 123.682C120.161 123.682 121.594 123.341 122.892 122.687C125.197 121.351 125.197 119.189 122.892 117.854C121.595 117.196 120.162 116.853 118.708 116.853C117.253 116.853 115.82 117.196 114.523 117.854Z" fill="#BA68C8"/>
<path opacity="0.7" d="M114.523 117.854C112.218 119.189 112.218 121.351 114.523 122.687C115.821 123.341 117.254 123.682 118.708 123.682C120.161 123.682 121.594 123.341 122.892 122.687C125.197 121.351 125.197 119.189 122.892 117.854C121.595 117.196 120.162 116.853 118.708 116.853C117.253 116.853 115.82 117.196 114.523 117.854Z" fill="white"/>
<path d="M122.892 120.143C121.594 119.489 120.161 119.147 118.708 119.147C117.254 119.147 115.821 119.489 114.523 120.143C113.967 120.45 113.493 120.887 113.14 121.415C113.493 121.943 113.967 122.379 114.523 122.687C115.821 123.341 117.254 123.682 118.708 123.682C120.161 123.682 121.594 123.341 122.892 122.687C123.448 122.379 123.922 121.943 124.275 121.415C123.922 120.887 123.448 120.45 122.892 120.143Z" fill="#BA68C8"/>
<path opacity="0.3" d="M122.892 120.143C121.594 119.489 120.161 119.147 118.708 119.147C117.254 119.147 115.821 119.489 114.523 120.143C113.967 120.45 113.493 120.887 113.14 121.415C113.493 121.943 113.967 122.379 114.523 122.687C115.821 123.341 117.254 123.682 118.708 123.682C120.161 123.682 121.594 123.341 122.892 122.687C123.448 122.379 123.922 121.943 124.275 121.415C123.922 120.887 123.448 120.45 122.892 120.143Z" fill="#333333"/>
<path d="M120.214 121.94C122.622 120.435 124.441 118.148 125.364 115.462C126.898 110.979 125.992 105.559 124.617 103.317C122.757 100.281 118.258 100.623 119.586 105.702C120.913 110.78 121.74 116.273 119.633 119.945L120.214 121.94Z" fill="#37474F"/>
<path d="M120.373 121.018C120.323 121.018 120.276 121.001 120.238 120.97C120.218 120.951 120.203 120.928 120.192 120.902C120.182 120.877 120.176 120.85 120.176 120.823C120.176 120.795 120.182 120.768 120.192 120.743C120.203 120.718 120.218 120.695 120.238 120.676C121.581 119.19 122.61 117.447 123.26 115.552C123.91 113.657 124.169 111.65 124.021 109.652C123.79 105.972 122.431 103.293 121.915 102.888C121.877 102.848 121.856 102.796 121.856 102.741C121.856 102.686 121.877 102.634 121.915 102.594C121.953 102.557 122.004 102.536 122.058 102.536C122.111 102.536 122.162 102.557 122.201 102.594C122.884 103.182 124.22 106.043 124.442 109.636C124.596 111.69 124.33 113.754 123.662 115.702C122.994 117.65 121.937 119.442 120.555 120.97C120.532 120.993 120.502 121.01 120.47 121.018C120.438 121.026 120.405 121.026 120.373 121.018Z" fill="white"/>
<path d="M116.335 121.94C116.206 121.496 115.925 121.113 115.54 120.859C115.065 120.594 114.565 120.378 114.046 120.215C113.148 119.889 112.003 119.42 111.884 118.339C111.856 117.952 111.905 117.563 112.027 117.194C112.248 116.695 112.301 116.137 112.178 115.605C111.979 115.128 111.471 114.874 111.034 114.588C110.551 114.303 110.141 113.911 109.833 113.443C109.574 113.027 109.449 112.541 109.476 112.052C109.563 111.051 110.525 110.391 110.557 109.397C110.596 107.943 107.195 105.972 109.007 104.629C111.328 102.872 114.96 104.907 116.001 106.401C117.042 107.895 117.042 108.563 118.942 109.827C120.532 110.876 122.375 111.09 122.375 113.157C122.375 115.223 119.729 115.319 121.811 117.663C123.067 119.07 121.016 120.286 120.222 121.955C118.926 121.939 117.615 121.876 116.335 121.94Z" fill="#455A64"/>
<path d="M118.433 122.122C118.406 122.121 118.379 122.115 118.355 122.104C118.33 122.092 118.308 122.076 118.289 122.056C118.271 122.036 118.257 122.013 118.247 121.987C118.238 121.962 118.234 121.935 118.235 121.908C118.696 109.898 112.584 105.686 111.359 105.352C111.309 105.335 111.268 105.299 111.243 105.253C111.219 105.206 111.213 105.151 111.227 105.1C111.241 105.05 111.274 105.006 111.32 104.979C111.365 104.952 111.419 104.943 111.471 104.954C113.537 105.519 119.077 110.59 118.624 121.924C118.622 121.974 118.602 122.023 118.567 122.059C118.531 122.096 118.484 122.118 118.433 122.122Z" fill="white"/>
<path d="M117.464 113.586C117.414 113.586 117.367 113.569 117.329 113.538C115.556 111.949 112.091 112.012 112.051 112.012C111.998 112.012 111.946 111.992 111.908 111.955C111.869 111.918 111.846 111.867 111.844 111.814C111.844 111.759 111.865 111.707 111.901 111.667C111.938 111.627 111.989 111.603 112.043 111.599C112.194 111.599 115.707 111.559 117.607 113.189C117.637 113.217 117.658 113.253 117.667 113.293C117.676 113.333 117.674 113.374 117.659 113.413C117.645 113.451 117.619 113.484 117.586 113.508C117.552 113.532 117.513 113.545 117.472 113.546L117.464 113.586Z" fill="white"/>
<path d="M258.677 80.5936L261.666 44.3185C261.697 43.7314 261.575 43.1462 261.314 42.6198C261.052 42.0934 260.658 41.6436 260.171 41.3141C259.633 41.0537 259.041 40.9237 258.443 40.9348C257.845 40.9458 257.258 41.0976 256.73 41.3777L216.989 64.3159C216.464 64.6561 216.018 65.1055 215.682 65.6336C215.346 66.1616 215.128 66.7559 215.042 67.3759L212.054 103.651C212.023 104.238 212.144 104.823 212.406 105.35C212.668 105.876 213.061 106.326 213.548 106.655C214.086 106.916 214.678 107.046 215.276 107.035C215.874 107.024 216.461 106.872 216.989 106.592L256.73 83.6536C257.255 83.3126 257.7 82.863 258.036 82.3351C258.372 81.8071 258.591 81.2133 258.677 80.5936Z" fill="#BA68C8"/>
<path opacity="0.8" d="M258.677 80.5936L261.666 44.3185C261.697 43.7314 261.575 43.1462 261.314 42.6198C261.052 42.0934 260.658 41.6436 260.171 41.3141C259.633 41.0537 259.041 40.9237 258.443 40.9348C257.845 40.9458 257.258 41.0976 256.73 41.3777L216.989 64.3159C216.464 64.6561 216.018 65.1055 215.682 65.6336C215.346 66.1616 215.128 66.7559 215.042 67.3759L212.054 103.651C212.023 104.238 212.144 104.823 212.406 105.35C212.668 105.876 213.061 106.326 213.548 106.655C214.086 106.916 214.678 107.046 215.276 107.035C215.874 107.024 216.461 106.872 216.989 106.592L256.73 83.6536C257.255 83.3126 257.7 82.863 258.036 82.3351C258.372 81.8071 258.591 81.2133 258.677 80.5936Z" fill="white"/>
<path d="M258.677 80.5936L261.666 44.3185C261.697 43.7314 261.576 43.1462 261.314 42.6198C261.052 42.0934 260.658 41.6436 260.171 41.3141C259.633 41.0537 259.041 40.9237 258.443 40.9348C257.845 40.9458 257.258 41.0976 256.73 41.3777L216.989 64.3159C216.462 64.6432 216.018 65.0896 215.694 65.6194L221.87 69.1801V103.754L256.706 83.6377C257.234 83.3017 257.683 82.8558 258.024 82.3305C258.364 81.8052 258.587 81.2128 258.677 80.5936Z" fill="#BA68C8"/>
<path opacity="0.9" d="M258.677 80.5936L261.666 44.3185C261.697 43.7314 261.576 43.1462 261.314 42.6198C261.052 42.0934 260.658 41.6436 260.171 41.3141C259.633 41.0537 259.041 40.9237 258.443 40.9348C257.845 40.9458 257.258 41.0976 256.73 41.3777L216.989 64.3159C216.462 64.6432 216.018 65.0896 215.694 65.6194L221.87 69.1801V103.754L256.706 83.6377C257.234 83.3017 257.683 82.8558 258.024 82.3305C258.364 81.8052 258.587 81.2128 258.677 80.5936Z" fill="white"/>
<path d="M215.408 105.574L218.396 69.2993C218.483 68.6795 218.701 68.0853 219.035 67.5562C219.37 67.0272 219.813 66.5756 220.336 66.2314L260.076 43.3012C261.062 42.7369 261.777 43.1899 261.666 44.3185L258.677 80.5936C258.591 81.2126 258.374 81.8061 258.039 82.3339C257.705 82.8618 257.261 83.3118 256.738 83.6536L216.997 106.592C216.028 107.156 215.312 106.703 215.408 105.574Z" fill="#BA68C8"/>
<path opacity="0.7" d="M215.408 105.574L218.396 69.2993C218.483 68.6795 218.701 68.0853 219.035 67.5562C219.37 67.0272 219.813 66.5756 220.336 66.2314L260.076 43.3012C261.062 42.7369 261.777 43.1899 261.666 44.3185L258.677 80.5936C258.591 81.2126 258.374 81.8061 258.039 82.3339C257.705 82.8618 257.261 83.3118 256.738 83.6536L216.997 106.592C216.028 107.156 215.312 106.703 215.408 105.574Z" fill="white"/>
<path d="M235.906 76.4685C236.014 75.4934 236.329 74.5526 236.831 73.7095C237.333 72.8664 238.009 72.1405 238.815 71.5805C240.269 70.738 241.319 71.5804 241.199 73.4244C241.09 74.3993 240.774 75.3396 240.273 76.1826C239.771 77.0256 239.095 77.7517 238.29 78.3125C236.772 79.1152 235.755 78.3204 235.906 76.4685Z" fill="#BA68C8"/>
<path opacity="0.4" d="M235.906 76.4685C236.014 75.4934 236.329 74.5526 236.831 73.7095C237.333 72.8664 238.009 72.1405 238.815 71.5805C240.269 70.738 241.319 71.5804 241.199 73.4244C241.09 74.3993 240.774 75.3396 240.273 76.1826C239.771 77.0256 239.095 77.7517 238.29 78.3125C236.772 79.1152 235.755 78.3204 235.906 76.4685Z" fill="white"/>
<path d="M235.207 88.3986L248.52 80.7128L246.858 79.7511L233.545 87.4369L235.207 88.3986Z" fill="#BA68C8"/>
<path opacity="0.9" d="M235.207 88.3986L248.52 80.7128L246.858 79.7511L233.545 87.4369L235.207 88.3986Z" fill="white"/>
<path d="M251.134 98.4132L239.212 105.28C238.969 105.411 238.694 105.472 238.418 105.455C238.194 105.446 237.974 105.389 237.774 105.288L232.536 102.268C232.337 102.131 232.172 101.95 232.054 101.739C231.935 101.528 231.866 101.293 231.852 101.052V100.774C231.852 100.321 232.17 100.13 232.56 100.36L235.739 102.181L236.446 102.594L236.287 101.799L233.537 87.4925L235.199 88.4542L248.52 80.7048L251.699 97.1892C251.736 97.4261 251.702 97.6687 251.602 97.8865C251.501 98.1043 251.339 98.2875 251.134 98.4132Z" fill="#BA68C8"/>
<path opacity="0.7" d="M251.134 98.4132L239.212 105.28C238.969 105.411 238.694 105.472 238.418 105.455C238.194 105.446 237.974 105.389 237.774 105.288L232.536 102.268C232.337 102.131 232.172 101.95 232.054 101.739C231.935 101.528 231.866 101.293 231.852 101.052V100.774C231.852 100.321 232.17 100.13 232.56 100.36L235.739 102.181L236.446 102.594L236.287 101.799L233.537 87.4925L235.199 88.4542L248.52 80.7048L251.699 97.1892C251.736 97.4261 251.702 97.6687 251.602 97.8865C251.501 98.1043 251.339 98.2875 251.134 98.4132Z" fill="white"/>
<path d="M232.099 100.281L236.152 97.9363L236.979 103.397L232.099 100.281Z" fill="#BA68C8"/>
<path opacity="0.7" d="M232.099 100.281L236.152 97.9363L236.979 103.397L232.099 100.281Z" fill="white"/>
<path d="M235.183 88.3986L233.522 87.4369L236.272 101.743C236.367 102.181 236.113 102.363 235.723 102.133L232.544 100.313C232.154 100.082 231.837 100.313 231.837 100.726V101.004C231.851 101.246 231.919 101.481 232.038 101.691C232.156 101.902 232.321 102.083 232.52 102.22L237.758 105.241C237.958 105.341 238.178 105.398 238.402 105.407L235.183 88.3986Z" fill="#BA68C8"/>
<path opacity="0.8" d="M235.183 88.3986L233.522 87.4369L236.272 101.743C236.367 102.181 236.113 102.363 235.723 102.133L232.544 100.313C232.154 100.082 231.837 100.313 231.837 100.726V101.004C231.851 101.246 231.919 101.481 232.038 101.691C232.156 101.902 232.321 102.083 232.52 102.22L237.758 105.241C237.958 105.341 238.178 105.398 238.402 105.407L235.183 88.3986Z" fill="white"/>
<path d="M192.263 107.617C194.703 107.434 195.49 106.536 195.887 105.455C196.285 104.374 196.428 103.19 195.482 100.686C194.536 98.1827 189.124 94.9001 183.504 96.1003C177.885 97.3004 177.106 101.592 177.408 102.745C177.71 103.897 181.088 106.822 185.467 107.323C187.72 107.617 189.994 107.715 192.263 107.617Z" fill="#BA68C8"/>
<path opacity="0.7" d="M192.263 107.617C194.703 107.434 195.49 106.536 195.887 105.455C196.285 104.374 196.428 103.19 195.482 100.686C194.536 98.1827 189.124 94.9001 183.504 96.1003C177.885 97.3004 177.106 101.592 177.408 102.745C177.71 103.897 181.088 106.822 185.467 107.323C187.72 107.617 189.994 107.715 192.263 107.617Z" fill="white"/>
<path d="M189.41 99.7802C189.732 99.5256 190.131 99.3871 190.542 99.3871C190.953 99.3871 191.352 99.5256 191.675 99.7802C192.418 100.201 193.013 100.843 193.376 101.616C193.622 102.26 193.503 102.832 193.225 102.832C192.947 102.832 192.74 102.244 191.675 101.354C190.61 100.464 189.171 100.114 189.41 99.7802Z" fill="#BA68C8"/>
<path opacity="0.9" d="M189.41 99.7802C189.732 99.5256 190.131 99.3871 190.542 99.3871C190.953 99.3871 191.352 99.5256 191.675 99.7802C192.418 100.201 193.013 100.843 193.376 101.616C193.622 102.26 193.503 102.832 193.225 102.832C192.947 102.832 192.74 102.244 191.675 101.354C190.61 100.464 189.171 100.114 189.41 99.7802Z" fill="white"/>
<path d="M155.082 39.8676C152.459 41.6321 149.351 43.7224 149.78 50.6055C150.21 57.4885 155.344 76.4765 155.694 78.7893C156.044 81.1022 170 92.3011 172.568 94.5107C175.516 97.0779 176.629 97.6184 177.964 99.0888C179.3 100.559 180.555 104.311 181.938 105.94C184.108 108.46 188.782 108.515 190.936 108.221C193.09 107.927 191.73 105.312 190.936 103.452C190.141 101.592 188.011 99.057 188.615 98.6198C189.028 98.3257 191.277 98.7231 193.018 100.209C194.361 101.354 194.52 102.475 195.275 102.999C196.539 103.889 196.96 102.316 195.657 99.82C194.353 97.3243 192.366 95.536 190.403 94.916C191.269 94.9843 192.136 94.7904 192.891 94.3596C193.972 93.692 194.353 92.1819 193.018 92.5793C192.223 92.8098 191.428 92.5793 189.839 92.5793C184.847 92.5793 183.345 94.3914 177.567 88.8119C171.789 83.2323 164.055 75.6419 164.055 75.6419C164.055 75.6419 161.456 59.8252 160.288 52.823C159.294 46.7904 158.881 42.8402 155.082 39.8676Z" fill="#FFA8A7"/>
<path d="M201.475 55.422L211.338 34.5344L216.902 36.8314C216.902 36.8314 208.724 61.5818 207.547 64.2682C206.856 65.8578 204.638 67.7892 201.427 66.2234C200.728 65.8817 199.337 65.063 197.612 63.99" fill="#FFA8A7"/>
<path d="M214.812 43.0548C215.495 41.0121 217.665 38.8343 217.991 37.968C218.28 37.2838 218.377 36.5333 218.269 35.7982L215.734 36.0525L214.812 43.0548Z" fill="#FFA8A7"/>
<path d="M209.582 38.1826C209.995 37.2368 210.067 33.9224 209.582 32.0149C209.097 30.1073 210.265 27.7229 209.971 26.3797C209.677 25.0365 210.536 24.6311 211.315 25.1159C211.792 25.4187 212.187 25.8347 212.464 26.327C212.741 26.8193 212.893 27.3726 212.904 27.9375C212.944 29.3284 213.031 32.8653 212.467 34.5901C211.903 36.3148 209.582 38.1826 209.582 38.1826Z" fill="#FFA8A7"/>
<path d="M210.893 34.9318C211.044 35.361 211.617 35.9571 213.468 35.6392L216.878 36.8314L218.269 36.7519C217.526 37.2779 216.616 37.5149 215.71 37.4183C214.805 37.3217 213.965 36.8983 213.349 36.2274C213.349 36.2274 210.846 36.5373 210.893 34.9318Z" fill="#F28F8F"/>
<path d="M220.431 33.533C218.293 35.2021 218.595 37.3719 221.115 38.3892C222.511 38.8691 224.001 39.0127 225.464 38.8083C226.926 38.6039 228.32 38.0573 229.532 37.2129C231.67 35.5438 231.36 33.3661 228.848 32.3487C227.451 31.8719 225.96 31.7307 224.498 31.9364C223.036 32.1421 221.643 32.6891 220.431 33.533Z" fill="#BA68C8"/>
<path opacity="0.7" d="M220.431 33.533C218.293 35.2021 218.595 37.3719 221.115 38.3892C222.511 38.8691 224.001 39.0127 225.464 38.8083C226.926 38.6039 228.32 38.0573 229.532 37.2129C231.67 35.5438 231.36 33.3661 228.848 32.3487C227.451 31.8719 225.96 31.7307 224.498 31.9364C223.036 32.1421 221.643 32.6891 220.431 33.533Z" fill="white"/>
<path d="M231.018 21.3486L223.173 22.4454L215.312 23.5422C215.487 28.629 217.212 34.3278 219.461 37.2288L230.779 35.6392C232.154 32.2216 232.242 26.2843 231.018 21.3486Z" fill="#BA68C8"/>
<path opacity="0.7" d="M231.018 21.3486L223.173 22.4454L215.312 23.5422C215.487 28.629 217.212 34.3278 219.461 37.2288L230.779 35.6392C232.154 32.2216 232.242 26.2843 231.018 21.3486Z" fill="white"/>
<path d="M217.331 21.1657C214.454 22.9223 214.756 25.0841 218.007 25.9823C221.786 26.8098 225.738 26.2453 229.134 24.3927C232.011 22.6282 231.709 20.4743 228.459 19.5682C224.678 18.7438 220.727 19.3111 217.331 21.1657Z" fill="#BA68C8"/>
<path opacity="0.9" d="M217.331 21.1657C214.454 22.9223 214.756 25.0841 218.007 25.9823C221.786 26.8098 225.738 26.2453 229.134 24.3927C232.011 22.6282 231.709 20.4743 228.459 19.5682C224.678 18.7438 220.727 19.3111 217.331 21.1657Z" fill="white"/>
<path d="M218.492 21.889C216.107 23.1051 216.338 24.5119 218.929 25.0683C221.973 25.5291 225.086 25.0928 227.886 23.8125C230.231 22.5964 230.04 21.1896 227.441 20.6332C224.399 20.173 221.289 20.6094 218.492 21.889Z" fill="#BA68C8"/>
<path opacity="0.4" d="M218.492 21.889C216.107 23.1051 216.338 24.5119 218.929 25.0683C221.973 25.5291 225.086 25.0928 227.886 23.8125C230.231 22.5964 230.04 21.1896 227.441 20.6332C224.399 20.173 221.289 20.6094 218.492 21.889Z" fill="white"/>
<path d="M218.786 23.7489C218.365 23.9557 217.976 24.2235 217.633 24.5437C218.051 24.7576 218.498 24.9076 218.961 24.9888C222.005 25.4496 225.118 25.0133 227.918 23.733C228.341 23.5295 228.73 23.2613 229.071 22.9382C228.653 22.7242 228.205 22.5742 227.743 22.4931C224.699 22.0322 221.586 22.4686 218.786 23.7489Z" fill="#BA68C8"/>
<path opacity="0.3" d="M218.786 23.7489C218.365 23.9557 217.976 24.2235 217.633 24.5437C218.051 24.7576 218.498 24.9076 218.961 24.9888C222.005 25.4496 225.118 25.0133 227.918 23.733C228.341 23.5295 228.73 23.2613 229.071 22.9382C228.653 22.7242 228.205 22.5742 227.743 22.4931C224.699 22.0322 221.586 22.4686 218.786 23.7489Z" fill="#333333"/>
<path d="M217.117 36.9904C216.457 37.0882 215.785 37.0558 215.138 36.895C214.247 36.6566 213.405 35.7982 212.57 34.2642C211.871 32.9766 210.671 30.1153 211.179 28.5336C211.831 26.5228 214.16 26.2366 215.71 26.0459L216.242 25.9743L216.584 28.4144L216.012 28.4859C215.138 28.5893 213.683 28.7721 213.516 29.2807C213.294 30.2663 214.963 34.1052 215.813 34.5265C216.58 34.6329 217.361 34.5055 218.055 34.1609L219.167 36.3545C218.521 36.6726 217.829 36.8871 217.117 36.9904Z" fill="#BA68C8"/>
<path opacity="0.7" d="M217.117 36.9904C216.457 37.0882 215.785 37.0558 215.138 36.895C214.247 36.6566 213.405 35.7982 212.57 34.2642C211.871 32.9766 210.671 30.1153 211.179 28.5336C211.831 26.5228 214.16 26.2366 215.71 26.0459L216.242 25.9743L216.584 28.4144L216.012 28.4859C215.138 28.5893 213.683 28.7721 213.516 29.2807C213.294 30.2663 214.963 34.1052 215.813 34.5265C216.58 34.6329 217.361 34.5055 218.055 34.1609L219.167 36.3545C218.521 36.6726 217.829 36.8871 217.117 36.9904Z" fill="white"/>
<path d="M214.2 29.2887C212.682 29.2887 208.223 31.0611 208.127 32.6666C208.032 34.2721 211.06 34.1529 211.06 34.1529C210.917 34.3915 210.863 34.6727 210.906 34.9474C210.95 35.222 211.089 35.4726 211.299 35.6551C212.054 36.3069 217.776 34.3198 217.776 34.3198C217.576 33.664 217.273 33.0442 216.878 32.4838C216.593 32.1214 216.176 31.887 215.718 31.8321C215.718 31.8321 216.457 29.2887 214.2 29.2887Z" fill="#FFA8A7"/>
<path d="M100.63 107.561L93.9691 103.723L100.63 101.799V107.561Z" fill="#E0E0E0"/>
<g style="mix-blend-mode:multiply" opacity="0.5">
<path d="M100.63 101.799V107.561L93.9691 103.723" fill="#E0E0E0"/>
</g>
<path d="M60.6824 124.864V130.984L24.0735 109.85V103.723L60.6824 124.864Z" fill="#E0E0E0"/>
<g style="mix-blend-mode:multiply" opacity="0.5">
<path d="M60.6824 124.864V130.984L24.0735 109.85V103.723L60.6824 124.864Z" fill="#E0E0E0"/>
</g>
<path d="M20.7433 55.6763L57.3601 76.8182V126.78L20.7433 105.646V55.6763Z" fill="#E0E0E0"/>
<path d="M57.3601 76.8182L107.282 47.9905V97.9522L57.3601 126.78V76.8182Z" fill="#EBEBEB"/>
<path d="M107.282 47.9905L70.6732 26.8486L20.7433 55.6763L57.3602 76.8182L107.282 47.9905Z" fill="#F5F5F5"/>
<path d="M60.6824 78.7417L103.96 53.7529V65.2856L60.6824 90.2664V78.7417Z" fill="#E0E0E0"/>
<g style="mix-blend-mode:multiply" opacity="0.5">
<path d="M77.3258 70.0862C77.3258 70.6187 78.9154 70.1339 80.8786 69.0053L87.0939 65.4127C89.0571 64.2841 90.6388 62.9329 90.6388 62.4004V61.4387L77.3178 69.1324L77.3258 70.0862Z" fill="#E0E0E0"/>
</g>
<path d="M60.6824 94.1132L103.96 69.1324V80.6572L60.6824 105.646V94.1132Z" fill="#E0E0E0"/>
<g style="mix-blend-mode:multiply" opacity="0.5">
<path d="M77.3258 85.4737C77.3258 86.0062 78.9154 85.4737 80.8786 84.3848L87.0939 80.7923C89.0571 79.6636 90.6388 78.3125 90.6388 77.7879V76.8262L77.3178 84.512L77.3258 85.4737Z" fill="#E0E0E0"/>
</g>
<path d="M60.6824 109.485L103.96 84.504V96.0367L60.6824 121.018V109.485Z" fill="#E0E0E0"/>
<g style="mix-blend-mode:multiply" opacity="0.5">
<path d="M77.3258 100.837C77.3258 101.37 78.9154 100.885 80.8786 99.7485L87.0939 96.1639C89.0571 95.0273 90.6388 93.6841 90.6388 93.1515V92.1898L77.3178 99.8756L77.3258 100.837Z" fill="#E0E0E0"/>
</g>
<path d="M60.6824 130.984L64.0127 129.069V122.941L60.6824 124.864V130.984Z" fill="#E0E0E0"/>
<path d="M100.629 107.561L103.96 105.646V99.8756L100.629 101.799V107.561Z" fill="#E0E0E0"/>
<path d="M42.1475 57.7587C45.5016 54.3331 47.4727 45.8366 44.1981 43.0786H27.5628C24.2961 45.7969 26.2593 54.3331 29.6134 57.7508L29.7008 57.8462L29.82 57.9574C29.9151 58.0536 30.016 58.1438 30.1221 58.2277L30.2015 58.2913L30.4559 58.482C30.5934 58.583 30.7367 58.6759 30.8851 58.7602C32.4337 59.5438 34.1449 59.9521 35.8805 59.9521C37.616 59.9521 39.3272 59.5438 40.8758 58.7602C41.0268 58.676 41.1728 58.5831 41.313 58.482L41.5435 58.3072L41.6468 58.2277L41.9409 57.9654L42.068 57.8382L42.1475 57.7587Z" fill="#EBEBEB"/>
<path d="M29.0093 41.9897C25.2101 44.1834 25.2101 47.7362 29.0093 49.9378C32.8085 52.1394 38.9603 52.1315 42.7515 49.9378C46.5428 47.7441 46.5507 44.1993 42.7515 41.9897C38.9524 39.7802 32.8005 39.7961 29.0093 41.9897Z" fill="#F5F5F5"/>
<path d="M31.7117 43.5396C29.4067 44.8749 29.4067 47.0368 31.7117 48.3721C33.0084 49.0304 34.4421 49.3735 35.8963 49.3735C37.3506 49.3735 38.7843 49.0304 40.081 48.3721C42.386 47.0368 42.386 44.8749 40.081 43.5396C38.7832 42.885 37.3499 42.5439 35.8963 42.5439C34.4428 42.5439 33.0095 42.885 31.7117 43.5396Z" fill="#E0E0E0"/>
<path d="M40.0651 45.8366C38.7684 45.1783 37.3347 44.8351 35.8804 44.8351C34.4262 44.8351 32.9925 45.1783 31.6958 45.8366C31.1379 46.1377 30.6629 46.5718 30.3128 47.1004C30.6624 47.6314 31.1373 48.0682 31.6958 48.3721C32.9925 49.0304 34.4262 49.3735 35.8804 49.3735C37.3347 49.3735 38.7684 49.0304 40.0651 48.3721C40.6235 48.0682 41.0985 47.6314 41.4481 47.1004C41.098 46.5718 40.623 46.1377 40.0651 45.8366Z" fill="#E0E0E0"/>
<g style="mix-blend-mode:multiply" opacity="0.5">
<path d="M40.0651 45.8366C38.7684 45.1783 37.3347 44.8351 35.8804 44.8351C34.4262 44.8351 32.9925 45.1783 31.6958 45.8366C31.1379 46.1377 30.6629 46.5718 30.3128 47.1004C30.6624 47.6314 31.1373 48.0682 31.6958 48.3721C32.9925 49.0304 34.4262 49.3735 35.8804 49.3735C37.3347 49.3735 38.7684 49.0304 40.0651 48.3721C40.6235 48.0682 41.0985 47.6314 41.4481 47.1004C41.098 46.5718 40.623 46.1377 40.0651 45.8366Z" fill="#E0E0E0"/>
</g>
<path d="M32.2124 47.1003C31.0286 45.9004 30.0102 44.5479 29.1841 43.0786C27.7853 40.6147 27.5309 37.3004 28.2542 36.895C28.9775 36.4897 31.9103 39.7881 31.9103 39.7881C31.643 38.3982 31.539 36.9818 31.6004 35.5677C31.7275 33.3661 32.2601 31.3711 32.8959 30.9657C33.5317 30.5604 34.9306 33.3502 35.5347 35.3531C36.1387 37.356 36.4805 39.0171 36.4805 39.0171C36.7238 37.4476 37.0852 35.8986 37.5614 34.3834C38.2926 32.301 38.9603 31.8241 39.4769 31.999C39.9935 32.1738 40.3353 33.1833 40.4863 35.973C40.539 37.299 40.4965 38.6271 40.3591 39.9471C40.3591 39.9471 41.4003 38.8025 42.5449 37.6978C43.8086 36.4817 44.3491 36.3148 44.7147 36.5453C45.0803 36.7758 45.1757 38.6674 43.2205 42.2043C42.2458 44.006 40.9992 45.6467 39.5246 47.0685C39.5246 47.0685 36.8381 48.8489 32.2124 47.1003Z" fill="#EBEBEB"/>
<path d="M75.6964 61.8758L95.5666 50.3511C95.9561 50.1286 95.9561 49.763 95.5666 49.5563L68.2729 34.0099C68.052 33.8993 67.8085 33.8418 67.5615 33.8418C67.3146 33.8418 67.071 33.8993 66.8502 34.0099L47.1548 45.3995C46.7654 45.63 46.7654 45.9956 47.1548 46.1943L74.2737 61.852C74.4927 61.9662 74.7353 62.0278 74.9822 62.032C75.2292 62.0361 75.4737 61.9827 75.6964 61.8758Z" fill="#E0E0E0"/>
<g style="mix-blend-mode:multiply" opacity="0.5">
<path d="M75.6964 61.8758L95.5666 50.3511C95.9561 50.1286 95.9561 49.763 95.5666 49.5563L68.2729 34.0099C68.052 33.8993 67.8085 33.8418 67.5615 33.8418C67.3146 33.8418 67.071 33.8993 66.8502 34.0099L47.1548 45.3995C46.7654 45.63 46.7654 45.9956 47.1548 46.1943L74.2737 61.852C74.4927 61.9662 74.7353 62.0278 74.9822 62.032C75.2292 62.0361 75.4737 61.9827 75.6964 61.8758Z" fill="#E0E0E0"/>
</g>
<path d="M47.1389 45.3756L69.5366 31.1327C69.7537 31.0192 69.9951 30.9599 70.24 30.9599C70.485 30.9599 70.7264 31.0192 70.9434 31.1327L79.0107 35.7902C79.1995 35.9047 79.3384 36.0857 79.4002 36.2976C79.462 36.5095 79.4422 36.7368 79.3446 36.9348L79.0187 37.5706C78.9211 37.7686 78.9012 37.9959 78.963 38.2078C79.0248 38.4197 79.1638 38.6007 79.3525 38.7151L95.6063 48.1177C95.6926 48.1515 95.7667 48.2106 95.8189 48.2871C95.8712 48.3637 95.8991 48.4542 95.8991 48.5469C95.8991 48.6396 95.8712 48.7301 95.8189 48.8067C95.7667 48.8832 95.6926 48.9423 95.6063 48.9761L75.6567 61.8202C75.4423 61.9378 75.2017 61.9994 74.9572 61.9994C74.7127 61.9994 74.4722 61.9378 74.2578 61.8202L47.1389 46.1625C47.0696 46.1229 47.0119 46.0656 46.9718 45.9965C46.9317 45.9274 46.9105 45.849 46.9105 45.7691C46.9105 45.6892 46.9317 45.6107 46.9718 45.5416C47.0119 45.4725 47.0696 45.4152 47.1389 45.3756Z" fill="#EBEBEB"/>
<path d="M328.7 79.1788C334.47 73.2893 337.864 49.3179 332.229 44.6444H303.616C297.981 49.3099 301.374 73.2575 307.145 79.1709L307.296 79.3298L307.494 79.5285C307.661 79.6875 307.836 79.8385 308.019 79.9895L308.154 80.1008C308.297 80.2121 308.44 80.3233 308.591 80.4267C308.83 80.6014 309.079 80.7607 309.338 80.9035C314.107 83.6456 321.785 83.6456 326.538 80.9035C326.797 80.7607 327.046 80.6014 327.285 80.4267L327.69 80.1167L327.865 79.9816C328.04 79.8385 328.207 79.6875 328.366 79.5365L328.597 79.3139L328.7 79.1788Z" fill="#37474F"/>
<path d="M306.072 42.7607C299.53 46.536 299.53 52.6561 306.072 56.4314C312.613 60.2068 323.208 60.1988 329.741 56.4314C336.274 52.664 336.274 46.536 329.741 42.7607C323.208 38.9854 312.605 38.9854 306.072 42.7607Z" fill="#455A64"/>
<path d="M309.211 44.5729C304.442 47.3467 304.442 51.8374 309.211 54.6113C313.98 57.3852 321.801 57.3852 326.594 54.6113C331.386 51.8374 331.362 47.3467 326.594 44.5729C321.825 41.799 314.012 41.8069 309.211 44.5729Z" fill="#37474F"/>
<path d="M326.586 49.3417C321.817 46.5678 314.004 46.5678 309.203 49.3417C308.043 49.97 307.055 50.8734 306.326 51.9725C307.055 53.0742 308.043 53.9803 309.203 54.6113C313.972 57.3852 321.785 57.3852 326.586 54.6113C327.749 53.9846 328.738 53.0777 329.463 51.9725C328.737 50.8703 327.748 49.9662 326.586 49.3417Z" fill="#E0E0E0"/>
<g style="mix-blend-mode:multiply">
<path d="M326.586 49.3417C321.817 46.5678 314.004 46.5678 309.203 49.3417C308.043 49.97 307.055 50.8734 306.326 51.9725C307.055 53.0742 308.043 53.9803 309.203 54.6113C313.972 57.3852 321.785 57.3852 326.586 54.6113C327.749 53.9846 328.738 53.0777 329.463 51.9725C328.737 50.8703 327.748 49.9662 326.586 49.3417Z" fill="#263238"/>
</g>
<path d="M323.263 51.9884C324.654 47.7759 326.594 40.0663 333.802 34.288C341.194 28.3429 348.483 23.6376 345.971 19.7351C343.682 16.1902 336.799 15.6657 328.93 21.738C321.292 27.6196 317.843 41.1154 318.518 50.065L323.263 51.9884Z" fill="#BA68C8"/>
<g opacity="0.1">
<path d="M323.263 51.9884C324.654 47.7759 326.594 40.0663 333.802 34.288C341.194 28.3429 348.483 23.6376 345.971 19.7351C343.682 16.1902 336.799 15.6657 328.93 21.738C321.292 27.6196 317.843 41.1154 318.518 50.065L323.263 51.9884Z" fill="#333333"/>
</g>
<path d="M319.75 50.979H319.695C319.642 50.9732 319.59 50.9567 319.544 50.9305C319.497 50.9044 319.456 50.8691 319.424 50.8268C319.391 50.7845 319.367 50.7361 319.354 50.6844C319.34 50.6327 319.337 50.5788 319.345 50.526C322.079 29.3761 335.241 20.0133 341.671 19.7033C341.725 19.6978 341.779 19.7035 341.831 19.7201C341.882 19.7367 341.929 19.7638 341.97 19.7996C342.01 19.8355 342.042 19.8794 342.065 19.9285C342.087 19.9776 342.099 20.0308 342.1 20.0848C342.105 20.194 342.067 20.3005 341.994 20.3821C341.921 20.4637 341.82 20.5138 341.711 20.522C336.942 20.7445 323.049 28.3111 320.156 50.6293C320.142 50.7269 320.094 50.8162 320.019 50.8806C319.944 50.9449 319.849 50.9799 319.75 50.979Z" fill="white"/>
<path d="M312.748 52.974C312.561 51.7878 312.092 50.6636 311.381 49.6956C310.671 48.7277 309.738 47.944 308.663 47.4103C306.318 46.1386 303.465 47.4103 300.715 43.5714C297.965 39.7325 300.373 36.6168 299.92 34.757C299.467 32.8971 298.99 31.6811 295.858 30.3458C292.727 29.0105 291.884 27.0473 292.965 22.6441C294.046 18.2409 293.99 16.9056 291.312 14.9742C288.633 13.0428 288.506 10.5948 291.312 8.98134C294.118 7.36788 299.109 7.39172 303.059 10.8968C307.009 14.4019 307.51 15.9121 311.858 16.3333C316.205 16.7546 318.693 16.9294 319.679 19.5125C320.664 22.0957 320.156 24.0986 319.679 26.5148C319.455 27.6178 319.605 28.7639 320.106 29.7718C320.607 30.7796 321.43 31.5914 322.445 32.0785C324.344 32.9766 327.508 33.6681 328.684 37.1334C329.86 40.5988 327.253 47.6647 323.915 52.0043C323.875 51.9884 323.08 54.5239 312.748 52.974Z" fill="#BA68C8"/>
<path d="M320.021 53.3793C319.967 53.3793 319.913 53.3686 319.864 53.3477C319.814 53.3269 319.769 53.2963 319.731 53.2578C319.693 53.2193 319.664 53.1737 319.644 53.1236C319.624 53.0735 319.614 53.0199 319.615 52.966C319.486 46.1853 317.974 39.5023 315.172 33.3263C310.697 23.6694 296.399 12.2639 295.525 11.7393C295.475 11.7235 295.43 11.6976 295.391 11.6633C295.352 11.6289 295.321 11.5868 295.299 11.5397C295.277 11.4926 295.266 11.4415 295.265 11.3897C295.264 11.3378 295.274 11.2864 295.294 11.2386C295.337 11.1352 295.417 11.052 295.519 11.0062C295.621 10.9603 295.737 10.9553 295.842 10.9922C296.335 11.1512 311.206 22.811 315.911 32.9766C318.762 39.2688 320.3 46.0756 320.434 52.9819C320.434 53.0355 320.423 53.0885 320.402 53.1378C320.381 53.187 320.35 53.2316 320.312 53.2687C320.273 53.3058 320.228 53.3348 320.177 53.3538C320.127 53.3728 320.074 53.3815 320.021 53.3793Z" fill="white"/>
<path d="M310.562 25.9823C310.496 25.9826 310.43 25.9662 310.372 25.9346C307.375 24.2894 300.214 25.4577 300.142 25.4736C300.035 25.4876 299.927 25.46 299.84 25.3963C299.752 25.3327 299.693 25.2381 299.673 25.1319C299.664 25.0791 299.666 25.0251 299.678 24.9729C299.69 24.9208 299.712 24.8714 299.743 24.8278C299.774 24.7843 299.813 24.7472 299.858 24.7189C299.904 24.6906 299.954 24.6716 300.007 24.6629C300.309 24.6152 307.526 23.4389 310.761 25.2193C310.808 25.245 310.85 25.2799 310.884 25.3219C310.917 25.364 310.942 25.4123 310.957 25.4641C310.972 25.5159 310.976 25.5701 310.97 25.6236C310.964 25.6771 310.947 25.7288 310.92 25.7756C310.885 25.8396 310.833 25.8926 310.77 25.9291C310.707 25.9655 310.635 25.9839 310.562 25.9823Z" fill="white"/>
<path d="M319.281 45.7333C319.182 45.7444 319.082 45.7191 319 45.662C318.917 45.6049 318.859 45.5199 318.834 45.4228C318.81 45.3257 318.822 45.2231 318.867 45.134C318.913 45.0449 318.99 44.9754 319.083 44.9385C322.453 43.1104 325.028 37.9442 325.052 37.8965C325.071 37.8415 325.101 37.7911 325.141 37.7488C325.182 37.7064 325.23 37.673 325.284 37.6508C325.338 37.6285 325.396 37.6179 325.454 37.6196C325.512 37.6213 325.569 37.6353 325.622 37.6606C325.674 37.686 325.721 37.7222 325.758 37.7668C325.796 37.8114 325.823 37.8635 325.839 37.9195C325.855 37.9756 325.859 38.0344 325.851 38.092C325.843 38.1497 325.822 38.2049 325.791 38.2541C325.68 38.4767 323.065 43.7065 319.472 45.6618C319.416 45.7018 319.35 45.7264 319.281 45.7333Z" fill="white"/>
</svg>
