<svg width="251" height="250" viewBox="0 0 251 250" fill="none" xmlns="http://www.w3.org/2000/svg">
<path d="M231.004 149.473V175.54C231.004 177.806 230.104 179.979 228.502 181.582C226.9 183.184 224.726 184.084 222.46 184.084H128.989C126.725 184.082 124.553 183.182 122.952 181.579C121.351 179.977 120.452 177.805 120.452 175.54V153.511L108.81 141.285L222.436 140.935C223.56 140.931 224.673 141.149 225.713 141.576C226.752 142.003 227.697 142.632 228.493 143.425C229.289 144.218 229.92 145.16 230.351 146.198C230.782 147.236 231.004 148.349 231.004 149.473Z" fill="#F5F5F5"/>
<path d="M134.226 156.726L219.049 156.332L219.037 153.726L134.22 154.119L134.226 156.726Z" fill="#E6E6E6"/>
<path d="M134.226 165.3L219.049 164.913L219.037 162.307L134.22 162.694L134.226 165.3Z" fill="#E6E6E6"/>
<path d="M167.77 170.897L134.21 171.061L134.223 173.667L167.783 173.503L167.77 170.897Z" fill="#E6E6E6"/>
<path d="M65.3477 0H120.476C121.122 0 121.762 0.127188 122.358 0.374304C122.955 0.62142 123.497 0.983622 123.953 1.44023C124.41 1.89684 124.772 2.43892 125.019 3.03551C125.266 3.6321 125.394 4.27152 125.394 4.91727V31.9069C125.394 33.2111 124.876 34.4618 123.953 35.3839C123.031 36.3061 121.781 36.8242 120.476 36.8242H73.6947C72.3906 36.8242 71.1399 36.3061 70.2177 35.3839C69.2955 34.4618 68.7775 33.2111 68.7775 31.9069V3.40521L65.3477 0Z" fill="#F5F5F5"/>
<path d="M134.607 49.0866V58.7736C134.607 59.4257 134.866 60.0511 135.328 60.5121C135.789 60.9732 136.414 61.2323 137.066 61.2323H191.193C191.845 61.2323 192.47 60.9732 192.931 60.5121C193.392 60.0511 193.651 59.4257 193.651 58.7736V53.4814L199.866 46.8308L137.072 46.628C136.749 46.6272 136.428 46.6902 136.129 46.8134C135.83 46.9366 135.559 47.1175 135.33 47.3459C135.101 47.5743 134.919 47.8456 134.795 48.1443C134.671 48.443 134.607 48.7632 134.607 49.0866Z" fill="#F0F0F0"/>
<path d="M98.1213 29.8171V47.1074C98.1221 47.8514 97.9763 48.5882 97.6922 49.2757C97.408 49.9632 96.9912 50.588 96.4654 51.1143C95.9397 51.6407 95.3153 52.0582 94.6281 52.3431C93.9409 52.628 93.2042 52.7746 92.4603 52.7746H30.4413C29.6974 52.7746 28.9607 52.628 28.2735 52.3431C27.5863 52.0582 26.9619 51.6407 26.4362 51.1143C25.9104 50.588 25.4936 49.9632 25.2094 49.2757C24.9253 48.5882 24.7795 47.8514 24.7803 47.1074V32.5031L17.0786 24.3897L92.4419 24.1561C93.1868 24.1537 93.9249 24.2983 94.6139 24.5817C95.3029 24.8651 95.9291 25.2817 96.4567 25.8076C96.9843 26.3335 97.403 26.9584 97.6886 27.6464C97.9743 28.3345 98.1213 29.0721 98.1213 29.8171Z" fill="#E0E0E0"/>
<path d="M33.9386 34.6298L90.1922 34.3717L90.186 32.6445L33.9325 32.9027L33.9386 34.6298Z" fill="#F0F0F0"/>
<path d="M33.9386 40.3216L90.1922 40.0573L90.186 38.3301L33.9325 38.5882L33.9386 40.3216Z" fill="#F0F0F0"/>
<path d="M56.1809 44.0315L33.9244 44.1402L33.9329 45.8674L56.1894 45.7586L56.1809 44.0315Z" fill="#F0F0F0"/>
<path d="M6.74622 86.8758V112.95C6.74622 114.071 6.96726 115.182 7.3967 116.218C7.82614 117.254 8.45556 118.196 9.249 118.989C10.0424 119.782 10.9844 120.41 12.0209 120.839C13.0574 121.268 14.1683 121.488 15.29 121.487H108.761C109.883 121.488 110.994 121.268 112.03 120.839C113.067 120.41 114.009 119.782 114.802 118.989C115.595 118.196 116.225 117.254 116.654 116.218C117.084 115.182 117.305 114.071 117.305 112.95V90.9203L128.94 78.6947L15.3146 78.3198C14.1895 78.3165 13.0748 78.5355 12.0346 78.9642C10.9944 79.3929 10.0491 80.0228 9.25296 80.8178C8.45683 81.6128 7.82556 82.5572 7.39539 83.5968C6.96521 84.6364 6.7446 85.7507 6.74622 86.8758Z" fill="#F0F0F0"/>
<path d="M103.524 94.1288L18.7013 93.7416L18.7136 91.1354L103.53 91.5226L103.524 94.1288Z" fill="#E6E6E6"/>
<path d="M103.524 102.709L18.7013 102.316L18.7136 99.7099L103.53 100.103L103.524 102.709Z" fill="#E6E6E6"/>
<path d="M69.9662 108.29L69.9535 110.896L103.513 111.06L103.526 108.454L69.9662 108.29Z" fill="#E6E6E6"/>
<path d="M190.246 25.4424C192.818 19.7244 190.268 13.0038 184.55 10.4316C178.832 7.85944 172.111 10.4096 169.539 16.1277C166.967 21.8457 169.517 28.5663 175.235 31.1385C180.953 33.7107 187.674 31.1605 190.246 25.4424Z" fill="#F5F5F5"/>
<path d="M175.974 17.9234C176.398 17.8866 176.791 18.3598 176.841 18.9806C176.89 19.6015 176.589 20.1362 176.158 20.1731C175.728 20.21 175.335 19.7305 175.285 19.1097C175.236 18.4889 175.544 17.9542 175.974 17.9234Z" fill="#E0E0E0"/>
<path d="M176.97 15.0468C176.286 15.1314 175.61 15.2691 174.947 15.4587C174.32 15.7453 173.716 16.0802 173.14 16.4605C173.558 15.8618 174.149 15.4054 174.833 15.1526C175.518 14.8999 176.263 14.863 176.97 15.0468Z" fill="#E0E0E0"/>
<path d="M183.19 17.7759C182.754 17.7759 182.385 18.2431 182.36 18.87C182.336 19.497 182.661 20.0071 183.098 20.0256C183.534 20.044 183.897 19.5523 183.921 18.9315C183.946 18.3107 183.62 17.7882 183.19 17.7759Z" fill="#E0E0E0"/>
<path d="M182.071 14.9423C182.766 14.7272 183.51 14.7296 184.203 14.9494C184.896 15.1691 185.506 15.5956 185.95 16.1717C185.362 15.8117 184.745 15.5013 184.106 15.2435C183.436 15.0925 182.756 14.9918 182.071 14.9423Z" fill="#E0E0E0"/>
<path d="M185.489 20.6648C185.494 20.8726 185.467 21.0798 185.409 21.2795C185.264 21.8256 185.032 22.3446 184.721 22.8161C184.275 23.5257 183.687 24.1349 182.993 24.6048C182.146 25.2048 181.146 25.5521 180.109 25.6065C179.072 25.6609 178.041 25.4201 177.136 24.9121C176.395 24.5146 175.744 23.9684 175.224 23.3078C174.877 22.867 174.603 22.373 174.413 21.845C174.327 21.6509 174.279 21.4423 174.271 21.2303C174.566 21.9138 174.949 22.5563 175.408 23.1419C175.918 23.7542 176.545 24.258 177.252 24.6232C178.112 25.0888 179.083 25.3081 180.059 25.2572C181.035 25.2062 181.978 24.8869 182.784 24.3343C183.457 23.8977 184.036 23.3314 184.487 22.6686C184.904 22.0457 185.241 21.3724 185.489 20.6648Z" fill="#E0E0E0"/>
<path d="M23.8951 148.391H25.524L29.1136 143.609V140.468C29.1136 140.468 31.6521 140.32 31.3571 144.432C31.0621 148.544 31.3571 147.506 31.3571 147.506C31.3571 147.506 36.7476 147.506 37.1963 147.973C37.5221 148.299 37.6696 153.425 37.725 156.203C37.7519 156.886 37.5466 157.558 37.1425 158.11C36.7384 158.661 36.1594 159.059 35.4999 159.24C35.2984 159.287 35.0922 159.312 34.8852 159.313C33.6067 159.283 26.7533 158.225 26.7533 158.225H23.8951V148.391Z" fill="#F0F0F0"/>
<path d="M19.193 147.512L20.201 158.262H23.0162V147.727L19.193 147.512Z" fill="#F0F0F0"/>
<path d="M249.874 54.9136C249.487 54.4984 248.952 54.2512 248.385 54.2248C247.817 54.1984 247.262 54.3948 246.838 54.7722C246.416 55.1096 246.074 55.5356 245.835 56.0199C245.596 56.5042 245.466 57.0351 245.455 57.575C245.355 57.0345 245.138 56.5223 244.82 56.0742C244.501 55.6262 244.089 55.2532 243.611 54.9812C243.136 54.6611 242.556 54.5385 241.992 54.6395C241.429 54.7405 240.927 55.0571 240.593 55.5221C240.232 56.1601 240.123 56.9097 240.286 57.6242C240.392 58.3452 240.694 59.0232 241.158 59.585C242.861 61.3921 243.74 61.681 245.848 62.9041C247.766 61.4167 248.387 61.0602 249.825 59.0133C250.213 58.3955 250.425 57.6837 250.44 56.9542C250.508 56.2276 250.307 55.5012 249.874 54.9136Z" fill="#F0F0F0"/>
<path d="M148.591 220.755L84.6172 220.453C82.7876 220.446 80.9774 220.078 79.2899 219.371C77.6025 218.664 76.0708 217.632 74.7825 216.333C73.4942 215.034 72.4745 213.493 71.7816 211.8C71.0888 210.107 70.7363 208.293 70.7444 206.464L71.4267 46.0809C71.4478 42.388 72.9334 38.8543 75.5575 36.2556C78.1815 33.6569 81.7294 32.2057 85.4224 32.2204L149.396 32.5154C153.091 32.5333 156.628 34.0175 159.229 36.6419C161.831 39.2663 163.284 42.8161 163.269 46.5112L162.593 206.876C162.575 210.572 161.09 214.111 158.465 216.713C155.839 219.316 152.288 220.769 148.591 220.755Z" fill="#263238"/>
<path d="M149.304 38.0351L136.9 37.9797C136.495 37.9861 136.096 38.0724 135.725 38.2336C135.353 38.3947 135.018 38.6276 134.737 38.9189C134.456 39.2102 134.235 39.5541 134.087 39.9308C133.94 40.3076 133.868 40.7099 133.876 41.1145V43.3642C133.884 43.7688 133.812 44.171 133.664 44.5478C133.517 44.9246 133.296 45.2685 133.015 45.5598C132.734 45.851 132.398 46.0839 132.027 46.2451C131.656 46.4063 131.256 46.4925 130.852 46.4989L106.659 46.3883C106.254 46.3787 105.854 46.2891 105.484 46.1246C105.113 45.9601 104.779 45.7239 104.5 45.4297C104.222 45.1355 104.004 44.789 103.859 44.4103C103.715 44.0315 103.647 43.6279 103.659 43.2228V40.9731C103.672 40.568 103.604 40.1644 103.459 39.7857C103.315 39.4069 103.097 39.0604 102.818 38.7662C102.539 38.472 102.205 38.2358 101.835 38.0713C101.464 37.9068 101.065 37.8172 100.66 37.8076H96.2957L85.4593 37.7523C84.1775 37.7467 82.9071 37.9935 81.7207 38.4788C80.5343 38.9641 79.4551 39.6784 78.5447 40.5807C77.6344 41.4831 76.9107 42.556 76.4149 43.738C75.9192 44.9201 75.6611 46.1883 75.6555 47.4701L74.9916 204.011C74.9818 206.6 75.9998 209.086 77.8219 210.924C79.6439 212.762 82.1212 213.802 84.7094 213.815L148.554 214.11C149.836 214.116 151.106 213.869 152.293 213.384C153.479 212.898 154.558 212.184 155.468 211.282C156.379 210.379 157.103 209.306 157.598 208.124C158.094 206.942 158.352 205.674 158.358 204.392L159.022 47.8512C159.028 46.5685 158.782 45.2972 158.297 44.1098C157.812 42.9223 157.098 41.842 156.196 40.9305C155.293 40.019 154.22 39.2941 153.038 38.7973C151.855 38.3005 150.586 38.0415 149.304 38.0351Z" fill="white"/>
<path d="M114.213 194.343C114.213 194.608 114.134 194.867 113.987 195.087C113.84 195.307 113.631 195.479 113.386 195.581C113.141 195.682 112.872 195.709 112.612 195.657C112.352 195.605 112.113 195.478 111.926 195.29C111.738 195.103 111.611 194.864 111.559 194.604C111.507 194.344 111.534 194.075 111.635 193.83C111.736 193.585 111.908 193.376 112.129 193.229C112.349 193.081 112.608 193.003 112.873 193.003C113.228 193.004 113.568 193.146 113.819 193.397C114.07 193.648 114.211 193.988 114.213 194.343Z" fill="#455A64"/>
<path d="M119.302 194.343C119.302 194.608 119.224 194.867 119.077 195.087C118.929 195.307 118.72 195.479 118.475 195.581C118.23 195.682 117.961 195.709 117.701 195.657C117.441 195.605 117.202 195.478 117.015 195.29C116.828 195.103 116.7 194.864 116.648 194.604C116.597 194.344 116.623 194.075 116.725 193.83C116.826 193.585 116.998 193.376 117.218 193.229C117.438 193.081 117.697 193.003 117.963 193.003C118.317 193.004 118.657 193.146 118.908 193.397C119.159 193.648 119.301 193.988 119.302 194.343Z" fill="#455A64"/>
<path d="M124.392 194.343C124.392 194.608 124.313 194.867 124.166 195.087C124.019 195.307 123.809 195.479 123.565 195.581C123.32 195.682 123.05 195.709 122.79 195.657C122.531 195.605 122.292 195.478 122.104 195.29C121.917 195.103 121.789 194.864 121.738 194.604C121.686 194.344 121.712 194.075 121.814 193.83C121.915 193.585 122.087 193.376 122.307 193.229C122.528 193.081 122.787 193.003 123.052 193.003C123.407 193.004 123.747 193.146 123.998 193.397C124.249 193.648 124.39 193.988 124.392 194.343Z" fill="#455A64"/>
<path d="M87.5491 81.7065C87.5491 81.7065 87.5491 81.5959 87.5491 81.3685C87.5961 80.4767 87.911 79.6198 88.4527 78.9098C88.9013 78.2987 89.4948 77.8086 90.1798 77.4838C91.0536 77.0955 92.012 76.9368 92.9642 77.0228H104.594L153.766 77.1212H154.129L153.877 77.3855L147.577 84.0115L147.62 83.907V94.8787C147.664 95.6099 147.61 96.3437 147.46 97.0607C147.271 97.779 146.915 98.4424 146.421 98.9969C145.937 99.5499 145.331 99.9833 144.651 100.263C143.974 100.529 143.25 100.652 142.524 100.626H122.462L95.595 100.57H92.7675C91.8626 100.64 90.955 100.477 90.1307 100.097C89.381 99.7348 88.7405 99.1806 88.2742 98.4908C87.8078 97.801 87.5322 97.0001 87.4753 96.1694C87.4753 93.0961 87.4753 90.5084 87.4753 88.3633C87.4753 86.2181 87.4753 84.5708 87.5061 83.446C87.5061 82.8867 87.5061 82.4626 87.5061 82.1614C87.5061 81.8602 87.5061 81.725 87.5061 81.725C87.5061 81.725 87.5061 81.8725 87.5061 82.1614C87.5061 82.4503 87.5061 82.8867 87.5061 83.446C87.5061 84.5831 87.5061 86.2427 87.5061 88.3633C87.5061 90.4839 87.5061 93.1269 87.5491 96.1572C87.608 96.9541 87.8768 97.7213 88.328 98.3809C88.7792 99.0405 89.3969 99.569 90.1184 99.9127C90.9144 100.277 91.7909 100.429 92.6631 100.355H95.595L122.492 100.325H138.375H142.543C143.227 100.353 143.909 100.237 144.546 99.9865C145.182 99.7245 145.75 99.3209 146.206 98.8063C146.664 98.2886 146.993 97.6691 147.165 96.9992C147.31 96.3085 147.361 95.6015 147.318 94.8971V83.8517L147.362 83.8087L153.668 77.1826L153.785 77.4469L104.612 77.238L96.351 77.1949H92.9765C92.0456 77.1033 91.1067 77.2492 90.2475 77.6191C89.5732 77.9304 88.9863 78.4033 88.5387 78.9959C88.2073 79.4283 87.9536 79.9149 87.7888 80.4342C87.6698 80.85 87.5895 81.2759 87.5491 81.7065Z" fill="#455A64"/>
<path d="M139.986 85.6404L94.0277 85.4252L94.0339 84.0115L139.986 84.2266V85.6404Z" fill="#455A64"/>
<path d="M139.986 90.2872L94.0277 90.072L94.0339 88.6583L139.986 88.8735V90.2872Z" fill="#455A64"/>
<path d="M121.798 93.3091L121.791 94.7228L139.973 94.8116L139.98 93.3979L121.798 93.3091Z" fill="#455A64"/>
<path d="M150.029 112.833V126.97C150.029 128.196 149.542 129.373 148.676 130.241C147.809 131.108 146.633 131.597 145.407 131.598H94.7591C93.5315 131.598 92.3543 131.111 91.4863 130.243C90.6183 129.375 90.1307 128.198 90.1307 126.97V115.027L83.8304 108.401L145.382 108.211C145.991 108.207 146.595 108.325 147.159 108.555C147.722 108.786 148.235 109.126 148.667 109.556C149.098 109.985 149.441 110.496 149.675 111.058C149.909 111.621 150.029 112.224 150.029 112.833Z" fill="#FF725E"/>
<path d="M97.5988 116.767L143.557 116.552L143.551 115.138L97.5927 115.353L97.5988 116.767Z" fill="white"/>
<path d="M97.5988 121.413L143.557 121.198L143.551 119.791L97.5927 120L97.5988 121.413Z" fill="white"/>
<path d="M115.765 124.444L97.5834 124.533L97.5903 125.946L115.772 125.858L115.765 124.444Z" fill="white"/>
<path d="M122.462 58.7245C122.907 58.5301 123.285 58.2079 123.548 57.7987C123.811 57.3896 123.946 56.9117 123.937 56.4256C123.953 56.1101 123.905 55.7945 123.795 55.4981C123.686 55.2017 123.517 54.9307 123.299 54.7016C123.082 54.4725 122.82 54.2901 122.529 54.1654C122.239 54.0407 121.926 53.9765 121.61 53.9765C121.294 53.9765 120.982 54.0407 120.691 54.1654C120.401 54.2901 120.139 54.4725 119.921 54.7016C119.704 54.9307 119.535 55.2017 119.425 55.4981C119.316 55.7945 119.268 56.1101 119.284 56.4256C119.272 56.9155 119.406 57.3979 119.67 57.8108C119.934 58.2237 120.316 58.5482 120.765 58.7429C117.182 59.2838 117.342 63.1807 117.342 63.1807L125.818 63.2176C125.818 63.2176 126.014 59.2654 122.462 58.7245Z" fill="#FF725E"/>
<path opacity="0.5" d="M122.462 58.7245C122.907 58.5301 123.285 58.2079 123.548 57.7987C123.811 57.3896 123.946 56.9117 123.937 56.4256C123.953 56.1101 123.905 55.7945 123.795 55.4981C123.686 55.2017 123.517 54.9307 123.299 54.7016C123.082 54.4725 122.82 54.2901 122.529 54.1654C122.239 54.0407 121.926 53.9765 121.61 53.9765C121.294 53.9765 120.982 54.0407 120.691 54.1654C120.401 54.2901 120.139 54.4725 119.921 54.7016C119.704 54.9307 119.535 55.2017 119.425 55.4981C119.316 55.7945 119.268 56.1101 119.284 56.4256C119.272 56.9155 119.406 57.3979 119.67 57.8108C119.934 58.2237 120.316 58.5482 120.765 58.7429C117.182 59.2838 117.342 63.1807 117.342 63.1807L125.818 63.2176C125.818 63.2176 126.014 59.2654 122.462 58.7245Z" fill="white"/>
<path d="M117.809 58.7245C118.253 58.5271 118.629 58.2044 118.892 57.796C119.156 57.3877 119.294 56.9114 119.29 56.4256C119.313 56.1055 119.27 55.784 119.164 55.4812C119.057 55.1784 118.89 54.9008 118.671 54.6657C118.452 54.4306 118.188 54.2432 117.893 54.115C117.599 53.9868 117.282 53.9206 116.961 53.9206C116.64 53.9206 116.322 53.9868 116.028 54.115C115.733 54.2432 115.469 54.4306 115.25 54.6657C115.032 54.9008 114.864 55.1784 114.757 55.4812C114.651 55.784 114.608 56.1055 114.631 56.4256C114.619 56.9155 114.753 57.3979 115.017 57.8108C115.281 58.2237 115.663 58.5483 116.112 58.7429C112.529 59.2838 112.689 63.1807 112.689 63.1807L121.165 63.2176C121.165 63.2176 121.362 59.2654 117.809 58.7245Z" fill="#FF725E"/>
<path d="M130.77 64.9392L107.985 64.8358L107.972 67.6632L130.757 67.7666L130.77 64.9392Z" fill="#FF725E"/>
<path opacity="0.3" d="M130.77 64.9392L107.985 64.8358L107.972 67.6632L130.757 67.7666L130.77 64.9392Z" fill="white"/>
<path d="M88.6125 145.022C88.6016 144.912 88.6016 144.801 88.6125 144.691C88.6496 144.359 88.7564 144.038 88.926 143.75C89.2077 143.273 89.6402 142.903 90.1553 142.699C90.8673 142.505 91.6086 142.44 92.3435 142.509H106.438L153.895 142.607H154.258L153.988 142.859L147.78 149.522L147.823 149.411V153.867C147.823 154.199 147.823 154.482 147.823 154.851C147.797 155.369 147.617 155.868 147.306 156.283C146.995 156.698 146.567 157.011 146.077 157.18C145.755 157.29 145.415 157.34 145.075 157.328H138.455H124.127L99.8976 157.279H91.6059C91.2503 157.298 90.8936 157.277 90.5425 157.217C90.0476 157.11 89.596 156.857 89.2456 156.491C88.8952 156.125 88.6619 155.663 88.5756 155.164C88.5393 154.861 88.527 154.554 88.5388 154.249C88.5388 153.075 88.5388 152.005 88.5388 151.04C88.5388 149.116 88.5388 147.623 88.5695 146.59C88.5695 146.092 88.5695 145.711 88.5695 145.434C88.5695 145.158 88.5695 145.041 88.5695 145.041C88.5695 145.041 88.5695 145.176 88.5695 145.434C88.5695 145.692 88.5695 146.092 88.5695 146.59C88.5695 147.623 88.5695 149.116 88.6002 151.04C88.6002 152.005 88.6002 153.075 88.6002 154.249C88.5898 154.544 88.6042 154.84 88.6432 155.134C88.7241 155.6 88.943 156.032 89.2718 156.373C89.6005 156.713 90.0239 156.948 90.4872 157.045C90.8268 157.096 91.1708 157.113 91.5137 157.094H94.9804H99.8976L124.152 157.058H145.093C145.396 157.069 145.698 157.025 145.985 156.928C146.561 156.726 147.034 156.304 147.3 155.754C147.432 155.481 147.507 155.184 147.521 154.882C147.521 154.574 147.521 154.236 147.521 153.917V149.399L147.564 149.356L153.785 142.705L153.895 142.97L106.444 142.767L92.3496 142.675C91.6288 142.595 90.8995 142.649 90.1983 142.834C89.8004 142.992 89.4504 143.25 89.1831 143.585C88.9157 143.919 88.7402 144.317 88.674 144.74C88.6584 144.835 88.6379 144.929 88.6125 145.022Z" fill="#455A64"/>
<path d="M142.045 148.747L96.0868 148.538L96.0929 147.125L142.051 147.34L142.045 148.747Z" fill="#455A64"/>
<path d="M123.404 151.79L123.398 153.203L142.046 153.294L142.053 151.881L123.404 151.79Z" fill="#455A64"/>
<path d="M148.413 170.236V179.917C148.413 180.569 148.154 181.194 147.692 181.655C147.231 182.116 146.606 182.375 145.954 182.375H91.8271C91.1751 182.375 90.5497 182.116 90.0886 181.655C89.6275 181.194 89.3685 180.569 89.3685 179.917V174.624L83.1543 167.974L145.954 167.777C146.606 167.777 147.231 168.036 147.692 168.497C148.154 168.958 148.413 169.584 148.413 170.236Z" fill="#FF725E"/>
<path d="M94.9865 173.961L140.944 173.752L140.938 172.338L94.9803 172.553L94.9865 173.961Z" fill="white"/>
<path d="M94.9865 178.509L140.944 178.294L140.938 176.886L94.9803 177.095L94.9865 178.509Z" fill="white"/>
<path d="M222.491 54.1821C226.473 54.1821 229.701 50.9541 229.701 46.9722C229.701 42.9903 226.473 39.7623 222.491 39.7623C218.509 39.7623 215.281 42.9903 215.281 46.9722C215.281 50.9541 218.509 54.1821 222.491 54.1821Z" fill="#FF725E"/>
<path opacity="0.5" d="M222.491 54.1821C226.473 54.1821 229.701 50.9541 229.701 46.9722C229.701 42.9903 226.473 39.7623 222.491 39.7623C218.509 39.7623 215.281 42.9903 215.281 46.9722C215.281 50.9541 218.509 54.1821 222.491 54.1821Z" fill="white"/>
<path d="M220.1 44.9069C220.371 44.9069 220.616 45.1958 220.641 45.5892C220.666 45.9826 220.463 46.3207 220.186 46.3329C219.91 46.3452 219.67 46.0441 219.645 45.6507C219.621 45.2573 219.824 44.9192 220.1 44.9069Z" fill="#263238"/>
<path d="M220.77 43.0937C220.77 43.1982 220.156 43.1674 219.541 43.401C218.926 43.6346 218.428 44.0157 218.355 43.9419C218.281 43.8682 218.656 43.3273 219.418 43.0568C220.18 42.7864 220.801 43.0015 220.77 43.0937Z" fill="#263238"/>
<path d="M225.995 46.0318C225.915 46.0932 225.528 45.6753 224.907 45.6138C224.286 45.5523 223.819 45.8658 223.757 45.792C223.696 45.7183 223.807 45.6138 224.009 45.4724C224.29 45.2965 224.621 45.2187 224.95 45.2511C225.278 45.2868 225.584 45.4344 225.817 45.6691C225.989 45.8535 226.032 46.001 225.995 46.0318Z" fill="#263238"/>
<path d="M226.616 44.827C226.56 44.9131 226.001 44.6119 225.196 44.5873C224.391 44.5627 223.807 44.8086 223.757 44.7102C223.943 44.5193 224.171 44.3756 224.424 44.2911C224.676 44.2066 224.945 44.1838 225.208 44.2247C226.105 44.2554 226.677 44.7594 226.616 44.827Z" fill="#263238"/>
<path d="M226.105 46.8308C226.109 47.3291 225.949 47.8149 225.651 48.2138C225.336 48.7396 224.895 49.1779 224.367 49.4884C223.839 49.7989 223.242 49.9716 222.629 49.9905C222.017 50.0095 221.41 49.8742 220.864 49.597C220.318 49.3198 219.85 48.9097 219.504 48.4043C219.177 48.0277 218.988 47.5506 218.969 47.0521C219.181 47.4816 219.427 47.8928 219.707 48.2814C220.049 48.7199 220.491 49.0715 220.995 49.3076C221.498 49.5437 222.051 49.6577 222.607 49.6403C223.163 49.6229 223.708 49.4747 224.196 49.2076C224.684 48.9406 225.102 48.5622 225.417 48.1032C225.676 47.6957 225.906 47.2705 226.105 46.8308Z" fill="#263238"/>
<path d="M20.7419 174.508C20.6803 176.512 20.0257 178.453 18.861 180.086C17.6962 181.719 16.0736 182.969 14.1982 183.68C12.3229 184.39 10.2789 184.529 8.32479 184.078C6.37065 183.627 4.59406 182.607 3.21958 181.147C1.8451 179.686 0.934438 177.851 0.602719 175.873C0.271 173.896 0.533113 171.864 1.35592 170.035C2.17873 168.206 3.5253 166.662 5.22541 165.598C6.92551 164.534 8.90283 163.999 10.9074 164.058C12.2395 164.098 13.5506 164.4 14.7659 164.947C15.9812 165.494 17.0768 166.275 17.9902 167.245C18.9035 168.215 19.6167 169.356 20.0888 170.602C20.561 171.849 20.7829 173.176 20.7419 174.508Z" fill="#FF725E"/>
<path opacity="0.5" d="M20.7419 174.508C20.6803 176.512 20.0257 178.453 18.861 180.086C17.6962 181.719 16.0736 182.969 14.1982 183.68C12.3229 184.39 10.2789 184.529 8.32479 184.078C6.37065 183.627 4.59406 182.607 3.21958 181.147C1.8451 179.686 0.934438 177.851 0.602719 175.873C0.271 173.896 0.533113 171.864 1.35592 170.035C2.17873 168.206 3.5253 166.662 5.22541 165.598C6.92551 164.534 8.90283 163.999 10.9074 164.058C12.2395 164.098 13.5506 164.4 14.7659 164.947C15.9812 165.494 17.0768 166.275 17.9902 167.245C18.9035 168.215 19.6167 169.356 20.0888 170.602C20.561 171.849 20.7829 173.176 20.7419 174.508Z" fill="white"/>
<path d="M8.60861 171.41C8.42929 171.176 8.16579 171.021 7.8742 170.979C7.58261 170.936 7.28595 171.009 7.04738 171.182C6.81652 171.338 6.62185 171.542 6.47656 171.779C6.33127 172.017 6.23876 172.283 6.20529 172.559C6.17949 172.277 6.09374 172.004 5.95381 171.758C5.81388 171.513 5.62299 171.299 5.39395 171.133C5.16364 170.949 4.87114 170.86 4.57706 170.885C4.28298 170.91 4.00986 171.047 3.81427 171.268C3.59958 171.579 3.5076 171.958 3.55612 172.332C3.57681 172.707 3.6978 173.07 3.90647 173.383C4.53067 174.164 5.29585 174.82 6.16227 175.319C7.01641 174.867 7.77429 174.254 8.39348 173.512C8.61939 173.212 8.76153 172.858 8.8053 172.485C8.87683 172.115 8.80663 171.731 8.60861 171.41Z" fill="#FF725E"/>
<path d="M17.5334 171.662C17.3542 171.428 17.0901 171.273 16.7981 171.232C16.5061 171.19 16.2095 171.265 15.9722 171.441C15.7396 171.594 15.5437 171.797 15.3982 172.035C15.2527 172.273 15.1612 172.54 15.1301 172.817C15.1043 172.536 15.0186 172.263 14.8786 172.017C14.7387 171.771 14.5478 171.558 14.3188 171.391C14.0891 171.205 13.7962 171.115 13.5017 171.141C13.2072 171.166 12.9338 171.304 12.7391 171.527C12.5233 171.836 12.4312 172.216 12.4809 172.59C12.4986 172.966 12.6198 173.33 12.8313 173.641C13.4555 174.422 14.2207 175.079 15.0871 175.577C15.9386 175.122 16.6958 174.508 17.3183 173.77C17.5445 173.468 17.6866 173.112 17.7301 172.737C17.8004 172.367 17.7303 171.983 17.5334 171.662Z" fill="#FF725E"/>
<path d="M13.8947 176.696C13.7949 177.535 13.381 178.305 12.7365 178.851C12.0919 179.398 11.2644 179.68 10.4203 179.641C9.57626 179.602 8.77823 179.245 8.1867 178.642C7.59517 178.038 7.25401 177.233 7.23181 176.389L13.8947 176.696Z" fill="white"/>
<path d="M200.456 239.311L199.226 232.82L187.579 234.886L189.269 244.616L190 244.536C193.252 244.148 206.449 242.132 208.477 241.069C210.77 239.883 200.456 239.311 200.456 239.311Z" fill="#FF725E"/>
<path d="M208.692 240.424C208.692 240.534 204.39 241.426 199.005 242.415C193.621 243.405 189.269 244.118 189.251 244.007C189.232 243.896 193.553 243.011 198.931 242.022C204.31 241.032 208.655 240.319 208.692 240.424Z" fill="#263238"/>
<path d="M200.904 240.59C200.8 240.553 200.818 240.196 201.009 239.815C201.199 239.434 201.464 239.2 201.556 239.256C201.648 239.311 201.556 239.631 201.365 239.987C201.175 240.344 201.009 240.633 200.904 240.59Z" fill="#263238"/>
<path d="M201.728 240.891C201.617 240.891 201.599 240.479 201.728 240.03C201.857 239.582 202.14 239.287 202.238 239.336C202.337 239.385 202.238 239.747 202.109 240.159C201.98 240.571 201.839 240.909 201.728 240.891Z" fill="#263238"/>
<path d="M192.711 243.319C192.668 243.362 192.465 243.22 192.158 242.981C191.777 242.663 191.365 242.385 190.929 242.151C190.533 241.934 190.089 241.82 189.638 241.819C189.275 241.819 189.054 241.936 189.023 241.88C188.992 241.825 189.183 241.641 189.601 241.536C190.141 241.429 190.702 241.513 191.187 241.776C191.654 242.027 192.071 242.363 192.416 242.765C192.637 243.048 192.766 243.282 192.711 243.319Z" fill="#263238"/>
<path d="M200.702 239.36C200.775 239.44 200.616 239.704 200.308 239.889C200.001 240.073 199.694 240.086 199.657 239.981C199.62 239.877 199.835 239.704 200.105 239.539C200.376 239.373 200.64 239.286 200.702 239.36Z" fill="#263238"/>
<path d="M200.419 238.776C200.419 238.887 200.154 239.034 199.761 239.114C199.368 239.194 199.042 239.164 199.03 239.053C199.017 238.942 199.312 238.795 199.681 238.721C200.05 238.647 200.388 238.672 200.419 238.776Z" fill="#263238"/>
<path d="M214.47 170.684C210.862 163.401 191.525 135.225 191.525 135.225L181.205 136.307V136.245L169.655 137.511L163.287 138.212L186.343 238.912L202.287 238.623L198.452 219.992C201.089 213.385 216.468 174.717 214.47 170.684ZM198.022 175.03L192.324 190.329L185.87 158.981L198.022 175.03Z" fill="#263238"/>
<path d="M185.231 88.7136C185.083 87.6626 185.649 83.2924 185.649 83.2924C185.649 83.2924 189.662 82.9973 190.037 79.0389C190.412 75.0805 190.455 65.916 190.455 65.916L183.282 62.1174L175.064 67.932L172.938 73.464L175.74 80.3358L175.654 82.6101V87.8162L185.231 88.7136Z" fill="#FFBE9D"/>
<path d="M189.92 72.5543C189.918 72.6554 189.885 72.7535 189.827 72.8361C189.769 72.9187 189.687 72.9821 189.593 73.0182C189.498 73.0543 189.395 73.0615 189.296 73.0389C189.198 73.0163 189.108 72.965 189.039 72.8913C188.97 72.8177 188.924 72.7251 188.907 72.6253C188.891 72.5255 188.904 72.4231 188.946 72.3309C188.988 72.2388 189.056 72.1612 189.142 72.108C189.228 72.0547 189.328 72.0282 189.429 72.0318C189.495 72.0334 189.561 72.0482 189.622 72.0754C189.683 72.1026 189.738 72.1417 189.784 72.1903C189.83 72.2389 189.865 72.2961 189.889 72.3586C189.912 72.4211 189.923 72.4876 189.92 72.5543Z" fill="#263238"/>
<path d="M189.957 72.0195C189.89 72.0871 189.521 71.7552 188.98 71.7061C188.439 71.6569 188.015 71.9089 187.96 71.8351C187.904 71.7614 188.003 71.6815 188.187 71.5647C188.434 71.4157 188.724 71.351 189.011 71.3803C189.296 71.4043 189.566 71.5209 189.779 71.7122C189.939 71.8659 189.988 71.9949 189.957 72.0195Z" fill="#263238"/>
<path d="M183.491 71.9335C183.573 71.993 183.635 72.0754 183.669 72.1702C183.704 72.265 183.71 72.3679 183.686 72.4659C183.662 72.5639 183.609 72.6527 183.535 72.7209C183.461 72.7892 183.368 72.8339 183.268 72.8494C183.169 72.8648 183.066 72.8504 182.975 72.8079C182.883 72.7653 182.807 72.6966 182.754 72.6104C182.702 72.5243 182.676 72.4244 182.68 72.3236C182.685 72.2228 182.719 72.1255 182.778 72.0441C182.818 71.99 182.868 71.9442 182.925 71.9094C182.982 71.8746 183.046 71.8514 183.112 71.8411C183.178 71.8308 183.246 71.8337 183.311 71.8495C183.376 71.8654 183.437 71.8939 183.491 71.9335Z" fill="#263238"/>
<path d="M183.891 71.829C183.823 71.8905 183.46 71.5585 182.913 71.5155C182.366 71.4725 181.948 71.7184 181.893 71.6384C181.838 71.5585 181.936 71.4909 182.12 71.3741C182.368 71.2246 182.656 71.1579 182.944 71.1836C183.232 71.2094 183.504 71.328 183.719 71.5217C183.878 71.6692 183.928 71.7983 183.891 71.829Z" fill="#263238"/>
<path d="M185.716 76.5127C186.011 76.447 186.312 76.4181 186.614 76.4266C186.755 76.4266 186.89 76.4266 186.927 76.3098C186.946 76.1569 186.922 76.0018 186.859 75.8611C186.755 75.4985 186.644 75.1174 186.521 74.7179C186.202 73.7438 185.955 72.7474 185.784 71.7368C185.921 72.005 186.028 72.2874 186.103 72.5789C186.276 73.1075 186.503 73.8389 186.718 74.6564C186.829 75.0559 186.939 75.4432 187.038 75.8058C187.115 75.9886 187.128 76.1924 187.075 76.3836C187.053 76.4314 187.019 76.4732 186.977 76.5053C186.936 76.5374 186.887 76.5589 186.835 76.568C186.755 76.5795 186.675 76.5795 186.595 76.568C186.301 76.5844 186.006 76.5658 185.716 76.5127Z" fill="#263238"/>
<path d="M183.897 76.9675C183.35 76.5864 185.39 77.9325 186.509 77.9633C186.3 78.2385 186.003 78.4342 185.668 78.518C185.333 78.6018 184.979 78.5688 184.665 78.4243C183.528 77.8895 183.897 76.9675 183.897 76.9675Z" fill="white"/>
<path d="M185.649 83.2924C183.766 83.1536 181.961 82.4797 180.449 81.35C180.449 81.35 181.543 84.3004 185.532 84.2635L185.649 83.2924Z" fill="#EB996E"/>
<path d="M176.207 74.5704C176.207 74.5704 176.152 74.6134 176.054 74.6687C175.915 74.7337 175.757 74.7446 175.611 74.6994C175.384 74.575 175.195 74.3918 175.063 74.169C174.931 73.9462 174.861 73.6921 174.861 73.4333C174.834 73.1438 174.872 72.8518 174.972 72.5789C174.997 72.4717 175.049 72.3725 175.122 72.2899C175.195 72.2073 175.287 72.144 175.39 72.1056C175.456 72.0823 175.528 72.0831 175.593 72.1079C175.658 72.1326 175.713 72.1797 175.746 72.2408C175.796 72.333 175.777 72.4068 175.796 72.4068C175.814 72.4068 175.869 72.3453 175.833 72.2101C175.809 72.1273 175.756 72.0555 175.685 72.0072C175.637 71.9741 175.583 71.951 175.526 71.9394C175.469 71.9278 175.41 71.9279 175.353 71.9396C175.216 71.9753 175.091 72.0455 174.988 72.1434C174.886 72.2413 174.811 72.3637 174.769 72.499C174.643 72.802 174.593 73.131 174.622 73.4578C174.625 73.76 174.717 74.0544 174.887 74.3046C175.056 74.5549 175.295 74.7499 175.574 74.8654C175.666 74.8867 175.761 74.8867 175.853 74.8654C175.945 74.8441 176.03 74.8021 176.103 74.7425C176.207 74.6318 176.22 74.5765 176.207 74.5704Z" fill="#EB996E"/>
<path d="M191.482 66.5737C191.265 66.6463 191.04 66.6897 190.812 66.7027C191.559 66.3105 192.173 65.7051 192.576 64.9633C192.87 64.4508 193.025 63.8701 193.025 63.2791C193.025 62.6881 192.87 62.1074 192.576 61.5949C192.258 61.0992 191.77 60.7376 191.203 60.5789C190.636 60.4202 190.031 60.4755 189.502 60.7344C189.706 60.3115 189.749 59.8291 189.624 59.3768C189.498 58.9245 189.213 58.5333 188.82 58.2758C188.412 58.034 187.955 57.8869 187.483 57.8454C187.011 57.8039 186.535 57.8691 186.091 58.0361C185.206 58.3772 184.377 58.8496 183.633 59.4375C183.577 59.1195 183.446 58.8195 183.25 58.5628C183.054 58.3061 182.8 58.1002 182.508 57.9623C181.921 57.6898 181.263 57.606 180.627 57.7226C179.702 57.881 178.848 58.3197 178.181 58.9793C177.514 59.6389 177.065 60.4876 176.896 61.4105C176.606 61.113 176.244 60.8951 175.845 60.778C175.446 60.6608 175.024 60.6482 174.619 60.7414C174.214 60.8347 173.84 61.0306 173.532 61.3103C173.225 61.59 172.995 61.9442 172.864 62.3387C172.866 62.3673 172.866 62.3961 172.864 62.4247C172.495 62.5845 172.186 62.8552 171.979 63.1992C171.804 63.4927 171.696 63.8213 171.663 64.1613C171.63 64.5013 171.673 64.8445 171.788 65.1661C172.023 65.798 172.454 66.3384 173.017 66.7089C173.233 66.8607 173.424 67.0452 173.583 67.2559C173.704 67.4398 173.778 67.651 173.798 67.8706C173.743 69.1982 173.067 70.4522 172.735 71.7552C172.28 73.5623 173.282 76.0271 173.859 77.7973C174.437 79.5675 174.64 80.256 175.765 80.3973L175.937 75.6399C174.708 76.6479 173.067 73.1812 174.142 71.7983C175.218 70.4153 176.361 70.8886 176.558 71.7614C176.634 72.0968 176.73 72.4273 176.847 72.751H178.076L177.941 71.7122C177.941 71.7122 177.689 67.0961 179.895 66.7949C180.471 66.6728 181.072 66.7832 181.567 67.1023C182.278 67.3885 183.049 67.4961 183.811 67.4157C184.598 67.4157 185.655 66.5183 185.655 65.7377C186.105 66.263 186.675 66.6718 187.317 66.9297C187.959 67.1876 188.654 67.2868 189.343 67.2191C189.699 67.1818 190.048 67.0971 190.381 66.967C190.797 67.0822 191.238 67.0715 191.648 66.9363C192.07 66.7993 192.439 66.5353 192.705 66.1803C192.902 65.9037 192.938 65.6947 192.902 65.6763C192.497 66.072 192.013 66.3778 191.482 66.5737ZM173.165 66.4261C172.664 66.0779 172.282 65.5845 172.071 65.0124C171.971 64.735 171.932 64.4395 171.957 64.1458C171.981 63.852 172.068 63.567 172.212 63.3098C172.341 63.0631 172.529 62.8521 172.759 62.6952C172.55 64.0904 173.46 65.5042 173.7 66.9609C173.552 66.7628 173.38 66.5832 173.189 66.4261H173.165Z" fill="#FF725E"/>
<path d="M212.614 72.3453V80.2682C212.614 81.1306 212.956 81.9576 213.566 82.5674C214.176 83.1772 215.003 83.5198 215.865 83.5198H229.591V88.0498L232.049 83.7165C232.778 83.6636 233.459 83.3369 233.956 82.8021C234.453 82.2673 234.729 81.564 234.729 80.8337V72.3453C234.728 71.9152 234.642 71.4895 234.476 71.0929C234.309 70.6962 234.066 70.3366 233.759 70.0347C233.453 69.7329 233.09 69.4948 232.691 69.3344C232.292 69.1739 231.865 69.0942 231.435 69.0999H215.865C215.004 69.0999 214.178 69.4416 213.568 70.0501C212.959 70.6585 212.615 71.484 212.614 72.3453Z" fill="#FF725E"/>
<path d="M220.082 76.7278C220.082 76.9928 220.003 77.2519 219.856 77.4722C219.709 77.6926 219.499 77.8643 219.255 77.9658C219.01 78.0672 218.74 78.0937 218.48 78.042C218.22 77.9903 217.982 77.8627 217.794 77.6753C217.607 77.4879 217.479 77.2491 217.428 76.9892C217.376 76.7293 217.402 76.4599 217.504 76.215C217.605 75.9702 217.777 75.7609 217.997 75.6137C218.218 75.4664 218.477 75.3878 218.742 75.3878C219.097 75.3878 219.438 75.529 219.689 75.7803C219.941 76.0316 220.082 76.3724 220.082 76.7278Z" fill="white"/>
<path d="M225.171 76.7278C225.171 76.9928 225.093 77.2519 224.945 77.4722C224.798 77.6926 224.589 77.8643 224.344 77.9658C224.099 78.0672 223.83 78.0937 223.57 78.042C223.31 77.9903 223.071 77.8627 222.884 77.6753C222.696 77.4879 222.569 77.2491 222.517 76.9892C222.465 76.7293 222.492 76.4599 222.593 76.215C222.695 75.9702 222.866 75.7609 223.087 75.6137C223.307 75.4664 223.566 75.3878 223.831 75.3878C224.187 75.3878 224.527 75.529 224.779 75.7803C225.03 76.0316 225.171 76.3724 225.171 76.7278Z" fill="white"/>
<path d="M230.261 76.7278C230.261 76.9928 230.182 77.2519 230.035 77.4722C229.887 77.6926 229.678 77.8643 229.433 77.9658C229.189 78.0672 228.919 78.0937 228.659 78.042C228.399 77.9903 228.16 77.8627 227.973 77.6753C227.786 77.4879 227.658 77.2491 227.606 76.9892C227.555 76.7293 227.581 76.4599 227.683 76.215C227.784 75.9702 227.956 75.7609 228.176 75.6137C228.397 75.4664 228.656 75.3878 228.921 75.3878C229.276 75.3878 229.617 75.529 229.868 75.7803C230.119 76.0316 230.261 76.3724 230.261 76.7278Z" fill="white"/>
<path d="M223.444 95.8929C223.167 95.2782 205.711 110.688 202.232 111.216L192.053 97.952C192.053 97.952 189.939 94.6021 185.397 88.8612C182.471 85.1732 174.388 85.9231 172.261 90.4408C168.653 98.1056 168.53 108.266 165.74 124.591L163.38 138.44C163.38 138.44 166.865 138.028 166.852 138.058L191.635 135.483L192.25 118.887C197.167 123.854 198.667 124.892 201.218 124.499C207.629 123.503 230.058 103.33 230.058 103.33C230.058 103.33 223.714 96.5198 223.444 95.8929Z" fill="#455A64"/>
<path d="M227.034 106.152C226.586 105.879 226.173 105.553 225.804 105.18C223.887 103.478 222.215 101.517 220.838 99.3534C220.527 98.9204 220.273 98.4495 220.082 97.952C220.414 98.3508 220.716 98.7741 220.985 99.2182C221.551 100.011 222.356 101.093 223.321 102.224C224.286 103.355 225.22 104.32 225.915 105.008C226.319 105.358 226.693 105.74 227.034 106.152Z" fill="#263238"/>
<path d="M201.243 116.472C201.348 114.689 201.662 112.926 202.177 111.216C202.079 112.999 201.766 114.764 201.243 116.472Z" fill="#263238"/>
<path d="M203.468 115.925C203.107 115.202 202.845 114.436 202.687 113.644C202.423 112.882 202.264 112.088 202.214 111.284C202.571 112.007 202.833 112.774 202.994 113.564C203.254 114.327 203.414 115.121 203.468 115.925Z" fill="#263238"/>
<path opacity="0.2" d="M179.09 101.474L191.992 125.864L192.281 118.629L179.09 101.474Z" fill="#333333"/>
<path d="M178.254 100.288C178.48 100.516 178.685 100.763 178.869 101.025L180.406 103.084C181.703 104.83 183.516 107.221 185.55 109.846L190.775 116.539L192.342 118.58C192.544 118.822 192.725 119.081 192.883 119.354C192.66 119.14 192.454 118.908 192.268 118.66C191.844 118.144 191.291 117.48 190.621 116.681C189.244 114.996 187.357 112.661 185.323 110.042C183.288 107.424 181.5 105.002 180.246 103.226C179.631 102.334 179.121 101.609 178.789 101.099C178.587 100.845 178.408 100.574 178.254 100.288Z" fill="#263238"/>
<path d="M178.66 107.909C178.555 107.671 178.479 107.422 178.433 107.166C178.31 106.68 178.15 105.986 177.959 105.131L178.15 105.223L175.611 106.594L175.439 106.686L175.384 106.496C175.292 106.164 175.193 105.813 175.089 105.457L174.646 103.865L174.874 103.957L172.372 105.365L172.218 105.451V105.279C172.073 104.52 171.987 103.752 171.96 102.98C172.183 103.72 172.347 104.476 172.452 105.242L172.274 105.156L174.732 103.687L174.904 103.582L174.96 103.779C175.101 104.289 175.255 104.824 175.408 105.371C175.513 105.727 175.611 106.078 175.703 106.41L175.476 106.317L178.039 104.984L178.193 104.898L178.224 105.07C178.383 105.924 178.512 106.631 178.586 107.123C178.644 107.381 178.669 107.645 178.66 107.909Z" fill="#263238"/>
<path d="M181.69 94.1226C181.445 94.0288 181.214 93.9027 181.002 93.7477C180.578 93.4834 179.981 93.0962 179.256 92.6167L179.453 92.5491C179.195 93.3666 178.906 94.3009 178.592 95.3028L178.531 95.4933L178.359 95.395L177.425 94.8479L175.999 94.012L176.226 93.9198L175.408 96.6735L175.359 96.8394L175.224 96.7349C174.593 96.2893 173.997 95.7961 173.442 95.2598C174.113 95.6402 174.757 96.0695 175.365 96.5444L175.181 96.6059C175.396 95.7945 175.648 94.8602 175.925 93.8399L175.98 93.6432L176.152 93.7477L177.584 94.5713L178.519 95.1184L178.291 95.2044L179.189 92.4569L179.25 92.291L179.391 92.3893C180.098 92.8933 180.676 93.3113 181.076 93.6186C181.3 93.7607 181.507 93.9299 181.69 94.1226Z" fill="#263238"/>
<path d="M190.744 98.8617C190.528 98.7131 190.332 98.5376 190.16 98.3392C189.804 97.9889 189.3 97.4787 188.697 96.8517H188.906C188.476 97.5955 187.984 98.4375 187.462 99.3534L187.364 99.5194L187.216 99.3841L186.423 98.6527L185.194 97.5279L185.44 97.4848C184.923 98.413 184.45 99.255 184.038 99.9865L183.952 100.14L183.842 100.011C183.325 99.4327 182.852 98.8163 182.428 98.1671C183.001 98.6843 183.535 99.2431 184.026 99.839H183.829L185.163 97.3004L185.261 97.1222L185.409 97.2574L186.638 98.3822L187.425 99.1198H187.185L188.673 96.6612L188.765 96.5137L188.882 96.6427C189.496 97.2574 189.939 97.8229 190.259 98.204C190.45 98.3996 190.614 98.6209 190.744 98.8617Z" fill="#E0E0E0"/>
<path d="M214.617 114.382C214.617 114.382 214.408 114.185 214.101 113.798C213.794 113.411 213.357 112.839 212.841 112.138H213.05L211.304 114.437L211.182 114.591L211.059 114.443L210.358 113.613L209.307 112.347H209.553L207.85 114.652L207.746 114.794L207.653 114.652C207.214 114.018 206.821 113.352 206.479 112.661C206.983 113.239 207.441 113.856 207.85 114.505H207.653C208.139 113.822 208.692 113.03 209.301 112.157L209.417 111.997L209.547 112.151L210.61 113.417L211.304 114.247H211.059L212.847 111.985L212.958 111.843L213.056 111.985C213.554 112.704 213.954 113.294 214.23 113.712C214.383 113.92 214.513 114.145 214.617 114.382Z" fill="#263238"/>
<path d="M199.835 113.14C199.614 113.014 199.408 112.863 199.22 112.691C198.827 112.384 198.268 111.935 197.598 111.388L197.8 111.339L196.633 113.97L196.559 114.148L196.399 114.031L195.52 113.417L194.186 112.433L194.426 112.366C194.02 113.349 193.652 114.21 193.326 115.015L193.258 115.181L193.135 115.058C192.554 114.552 192.013 114.002 191.519 113.411C192.147 113.857 192.741 114.35 193.295 114.886L193.105 114.929C193.406 114.142 193.756 113.239 194.137 112.255L194.211 112.065L194.371 112.181L195.711 113.152L196.583 113.767L196.344 113.835L197.536 111.204L197.61 111.044L197.739 111.155C198.391 111.733 198.925 112.206 199.294 112.544C199.663 112.882 199.853 113.116 199.835 113.14Z" fill="#E0E0E0"/>
<path d="M220.985 109.667C220.902 109.421 220.848 109.165 220.826 108.905C220.752 108.407 220.653 107.676 220.543 106.84L220.727 106.944L218.072 108.088L217.894 108.161L217.857 107.971C217.795 107.627 217.728 107.27 217.66 106.908C217.556 106.342 217.457 105.801 217.365 105.279L217.58 105.389L214.968 106.594L214.808 106.662V106.49C214.733 105.722 214.718 104.949 214.765 104.178C214.918 104.936 215.01 105.705 215.042 106.477L214.876 106.373L217.463 105.143L217.642 105.051L217.678 105.254C217.777 105.777 217.881 106.317 217.986 106.877C218.053 107.246 218.115 107.602 218.176 107.94L217.961 107.823L220.635 106.735L220.801 106.668V106.84C220.881 107.707 220.942 108.42 220.973 108.917C221.006 109.166 221.01 109.418 220.985 109.667Z" fill="#E0E0E0"/>
<path d="M191.519 103.115C191.317 103.274 191.099 103.411 190.867 103.521C190.437 103.767 189.81 104.135 189.023 104.523L189.06 104.314L191.07 106.385L191.205 106.526L191.039 106.631L190.117 107.19L188.703 108.051V107.805L190.732 109.833L190.855 109.962L190.695 110.03C190.003 110.372 189.286 110.66 188.55 110.891C189.205 110.48 189.889 110.119 190.597 109.809L190.566 110.005L188.488 108.026L188.341 107.891L188.513 107.787L189.927 106.92L190.849 106.36V106.6C190.129 105.838 189.459 105.119 188.876 104.492L188.753 104.363L188.912 104.289C189.693 103.908 190.338 103.595 190.787 103.392C191.018 103.267 191.264 103.174 191.519 103.115Z" fill="#263238"/>
<path d="M202.798 116.472C202.596 116.639 202.375 116.781 202.14 116.896C201.71 117.142 201.083 117.51 200.296 117.891L200.327 117.689L202.343 119.76L202.478 119.895L202.312 120L201.39 120.565L199.97 121.42L200.001 121.18L202.029 123.208L202.152 123.331L201.992 123.399C201.299 123.74 200.582 124.029 199.847 124.265C200.514 123.856 201.21 123.496 201.931 123.19L201.894 123.387L199.823 121.407L199.675 121.266L199.847 121.161L201.255 120.301L202.183 119.735L202.152 119.981L200.179 117.873L200.056 117.744L200.21 117.67C200.99 117.283 201.636 116.976 202.091 116.767C202.313 116.638 202.55 116.539 202.798 116.472Z" fill="#E0E0E0"/>
<path d="M180.418 116.293C180.315 116.053 180.239 115.801 180.19 115.543C180.068 115.058 179.908 114.363 179.717 113.515L179.908 113.601L177.345 114.984L177.173 115.082L177.123 114.892C177.025 114.554 176.927 114.204 176.828 113.847C176.675 113.3 176.521 112.765 176.38 112.255L176.607 112.347L174.112 113.755L173.958 113.841V113.669C173.817 112.912 173.73 112.146 173.7 111.376C173.924 112.114 174.088 112.868 174.191 113.632L174.013 113.546L176.472 112.077L176.644 111.978L176.699 112.169C176.841 112.679 176.994 113.214 177.154 113.761L177.443 114.806L177.216 114.708L179.779 113.374L179.932 113.294L179.969 113.46C180.129 114.314 180.252 115.021 180.332 115.513C180.391 115.769 180.42 116.031 180.418 116.293Z" fill="#E0E0E0"/>
<path d="M190.658 122.096C190.554 121.855 190.477 121.604 190.431 121.346C190.308 120.86 190.148 120.166 189.957 119.317L190.148 119.404L187.616 120.787L187.443 120.885L187.388 120.694C187.29 120.356 187.191 120.006 187.093 119.656C186.939 119.102 186.792 118.568 186.644 118.057L186.872 118.15L184.376 119.557L184.223 119.643V119.477C184.082 118.718 183.995 117.95 183.964 117.178C184.187 117.916 184.352 118.671 184.456 119.434L184.278 119.354L186.737 117.885L186.909 117.781L186.964 117.978C187.112 118.488 187.259 119.016 187.419 119.563L187.708 120.608L187.486 120.51L190.043 119.176L190.203 119.096L190.234 119.262C190.394 120.117 190.517 120.823 190.597 121.315C190.652 121.571 190.672 121.834 190.658 122.096Z" fill="#263238"/>
<path d="M175.63 134.868C175.524 134.63 175.448 134.381 175.402 134.125C175.279 133.639 175.119 132.944 174.929 132.096L175.119 132.182L172.587 133.565L172.415 133.657L172.36 133.467C172.261 133.135 172.163 132.785 172.065 132.428L171.622 130.836L171.843 130.928L169.354 132.361L169.2 132.447V132.274C169.059 131.515 168.972 130.747 168.942 129.976C169.165 130.716 169.329 131.472 169.434 132.238L169.256 132.152L171.714 130.683L171.886 130.578L171.942 130.775C172.089 131.285 172.237 131.82 172.397 132.367L172.685 133.405L172.464 133.313L175.021 131.979L175.181 131.893L175.212 132.066C175.371 132.92 175.494 133.627 175.574 134.118C175.629 134.364 175.647 134.617 175.63 134.868Z" fill="#E0E0E0"/>
<path d="M175.925 121.463C175.692 121.343 175.475 121.195 175.279 121.02C174.88 120.725 174.314 120.283 173.638 119.735L173.841 119.686L172.729 122.354L172.655 122.532L172.495 122.415C172.206 122.219 171.911 122.004 171.61 121.801L170.27 120.836L170.503 120.768L169.434 123.43L169.366 123.589L169.243 123.473C168.659 122.969 168.11 122.425 167.602 121.844C168.24 122.279 168.842 122.764 169.403 123.294L169.213 123.343C169.502 122.557 169.827 121.647 170.215 120.657L170.282 120.467L170.448 120.584L171.813 121.53L172.692 122.145L172.458 122.206L173.62 119.563L173.694 119.404L173.823 119.514C174.48 120.086 175.021 120.553 175.39 120.891C175.59 121.06 175.77 121.252 175.925 121.463Z" fill="#263238"/>
<path d="M181.285 121.825C181.1 122.006 180.893 122.163 180.67 122.292C180.258 122.569 179.656 122.956 178.918 123.417V123.208L181.076 125.132L181.217 125.267L181.057 125.378L180.178 125.993L178.826 126.945V126.706L181.033 128.599L181.162 128.716L181.014 128.796C180.346 129.184 179.65 129.521 178.93 129.804C179.556 129.347 180.213 128.936 180.897 128.574V128.771L178.685 126.927L178.531 126.798L178.697 126.681L180.043 125.722L180.922 125.108V125.353L178.807 123.393L178.678 123.27L178.826 123.184C179.576 122.747 180.197 122.391 180.639 122.151C180.84 122.016 181.057 121.907 181.285 121.825Z" fill="#263238"/>
<path d="M187.179 126.017C187.064 126.252 186.919 126.471 186.749 126.669C186.454 127.074 186.017 127.64 185.483 128.328L185.433 128.126L188.113 129.201L188.292 129.269L188.181 129.435L187.566 130.326L186.62 131.684L186.546 131.445L189.22 132.477L189.386 132.545L189.269 132.668C188.777 133.263 188.238 133.818 187.659 134.327C188.092 133.689 188.57 133.083 189.091 132.514L189.14 132.705L186.441 131.74L186.251 131.672L186.368 131.506C186.663 131.07 186.982 130.615 187.302 130.142C187.517 129.84 187.72 129.527 187.917 129.257L187.984 129.49L185.335 128.365L185.175 128.298L185.286 128.162C185.845 127.492 186.306 126.933 186.638 126.577C186.97 126.22 187.179 125.999 187.179 126.017Z" fill="#E0E0E0"/>
<path d="M183.835 136.036C183.835 136.036 183.835 136.104 183.903 136.239C183.971 136.374 184.008 136.589 184.081 136.854C184.229 137.388 184.45 138.181 184.696 139.208C184.942 140.234 185.255 141.488 185.47 142.982C185.617 143.796 185.507 144.636 185.157 145.385C184.768 146.216 184.235 146.971 183.583 147.616V147.512C185.194 155.158 187.45 165.872 189.951 177.722C192.379 189.401 194.549 199.942 196.098 207.595C196.866 211.418 197.475 214.516 197.874 216.661C198.077 217.73 198.225 218.566 198.317 219.12C198.384 219.406 198.417 219.699 198.415 219.992C198.415 219.992 198.366 219.697 198.255 219.132C198.145 218.566 197.966 217.724 197.751 216.673C197.303 214.516 196.663 211.43 195.877 207.625C194.278 199.973 192.084 189.425 189.656 177.778C187.198 165.915 184.973 155.195 183.387 147.549V147.487L183.43 147.444C184.733 146.135 185.612 144.482 185.274 142.994C185.077 141.513 184.776 140.247 184.548 139.22C184.321 138.194 184.124 137.419 183.989 136.86L183.842 136.245C183.831 136.176 183.829 136.106 183.835 136.036Z" fill="#455A64"/>
<path d="M170.891 137.511C170.891 137.511 170.989 137.647 171.081 137.929C171.213 138.327 171.291 138.74 171.315 139.159C171.416 140.563 170.993 141.955 170.126 143.064C169.26 144.174 168.012 144.922 166.625 145.164C166.22 145.239 165.807 145.264 165.396 145.238C165.242 145.24 165.09 145.213 164.947 145.158C164.947 145.096 165.598 145.158 166.6 144.943C167.907 144.655 169.072 143.921 169.895 142.866C170.717 141.811 171.146 140.502 171.106 139.165C171.067 138.61 170.995 138.058 170.891 137.511Z" fill="#455A64"/>
<path d="M181.186 138.169C181.186 138.169 181.186 138.077 181.334 137.997C181.426 137.944 181.528 137.909 181.633 137.895C181.739 137.882 181.846 137.889 181.948 137.917C182.107 137.956 182.251 138.042 182.361 138.164C182.47 138.285 182.541 138.437 182.563 138.599C182.593 138.803 182.554 139.01 182.452 139.189C182.351 139.368 182.193 139.507 182.003 139.586C181.813 139.664 181.602 139.677 181.404 139.622C181.206 139.566 181.032 139.447 180.91 139.282C180.809 139.154 180.746 139 180.728 138.838C180.709 138.677 180.736 138.513 180.805 138.366C181.057 137.868 181.463 137.856 181.451 137.892C181.438 137.929 181.156 138.04 181.02 138.446C180.98 138.555 180.97 138.673 180.991 138.787C181.011 138.902 181.062 139.009 181.137 139.097C181.229 139.201 181.348 139.275 181.482 139.311C181.615 139.347 181.756 139.343 181.887 139.3C182.01 139.241 182.112 139.146 182.18 139.027C182.249 138.909 182.279 138.772 182.268 138.636C182.26 138.522 182.217 138.413 182.146 138.323C182.075 138.233 181.978 138.166 181.869 138.132C181.643 138.071 181.404 138.084 181.186 138.169Z" fill="#455A64"/>
<path d="M194.18 139.534C193.83 139.781 193.416 139.924 192.988 139.945C191.954 140.101 190.899 139.874 190.021 139.309C189.142 138.743 188.499 137.877 188.212 136.872C188.064 136.48 188.023 136.056 188.095 135.643C188.15 135.643 188.163 136.122 188.421 136.829C188.746 137.752 189.369 138.541 190.191 139.073C191.013 139.605 191.988 139.849 192.963 139.767C193.713 139.669 194.162 139.484 194.18 139.534Z" fill="#455A64"/>
<path d="M200.929 233.509C200.729 233.564 200.522 233.589 200.314 233.582L198.643 233.675L193.111 233.939L187.579 234.228L185.901 234.295C185.697 234.324 185.49 234.324 185.286 234.295C185.484 234.228 185.691 234.191 185.901 234.185C186.288 234.136 186.86 234.074 187.566 234.013C188.974 233.884 190.929 233.742 193.098 233.632C195.268 233.521 197.217 233.472 198.63 233.466C199.337 233.466 199.909 233.466 200.308 233.466C200.516 233.451 200.725 233.466 200.929 233.509Z" fill="#455A64"/>
<path d="M172.87 144.525C172.956 144.525 177.787 164.458 183.682 189.087C189.576 213.717 194.266 233.712 194.18 233.73C194.094 233.748 189.263 213.803 183.368 189.161C177.474 164.519 172.784 144.543 172.87 144.525Z" fill="#455A64"/>
<path d="M188.599 145.318C188.641 145.358 188.678 145.403 188.71 145.453L189.011 145.852L190.154 147.42L194.297 153.204L200.413 161.809L204.008 166.904C205.238 168.675 206.467 170.66 206.793 172.996C207.119 175.331 206.436 177.587 205.729 179.609C205.023 181.632 204.248 183.598 203.535 185.449C202.097 189.137 200.732 192.468 199.546 195.228C198.36 197.988 197.358 200.207 196.657 201.731L195.827 203.483L195.606 203.931C195.551 204.03 195.526 204.085 195.52 204.079C195.53 204.023 195.549 203.969 195.575 203.919C195.624 203.796 195.692 203.642 195.772 203.452L196.54 201.682C197.21 200.139 198.181 197.908 199.337 195.142C200.493 192.376 201.839 189.057 203.259 185.344C203.965 183.5 204.697 181.539 205.428 179.505C206.16 177.47 206.799 175.288 206.479 173.039C206.16 170.789 204.949 168.847 203.75 167.083L200.173 161.981L194.112 153.308L190.05 147.463L188.962 145.865C188.845 145.692 188.753 145.557 188.685 145.447C188.617 145.336 188.593 145.318 188.599 145.318Z" fill="#455A64"/>
<path d="M219.836 96.5198L233.561 86.5009L234.237 87.5765L220.598 97.7184L219.836 96.5198Z" fill="#263238"/>
<path d="M223.229 96.2125C223.229 96.2125 225.073 91.4182 225.485 90.3978C225.896 89.3775 226.597 87.6011 226.861 87.5642C227.126 87.5274 228.091 87.6749 226.831 90.7236C225.571 93.7723 228.312 91.9099 228.312 91.9099L230.955 90.0167C230.955 90.0167 233.045 96.2617 231.859 98.1425C230.925 99.5502 229.876 100.878 228.724 102.113L223.229 96.2125Z" fill="#FFBE9D"/>
<path d="M49.0347 175.682C49.213 174.643 48.8196 170.844 48.8196 170.844C48.8196 170.844 44.8366 170.42 44.5969 166.474C44.3572 162.528 44.5969 153.419 44.5969 153.419L51.8499 149.872L59.8404 155.914L58.6111 175.663L49.0347 175.682Z" fill="#B78876"/>
<path d="M45.6971 160.02C45.6971 160.154 45.7502 160.282 45.8448 160.377C45.9393 160.471 46.0675 160.524 46.2012 160.524C46.3348 160.524 46.463 160.471 46.5576 160.377C46.6521 160.282 46.7052 160.154 46.7052 160.02C46.7052 159.954 46.6921 159.888 46.6668 159.827C46.6415 159.766 46.6044 159.711 46.5576 159.664C46.5108 159.617 46.4552 159.58 46.394 159.555C46.3329 159.529 46.2673 159.516 46.2012 159.516C46.135 159.516 46.0694 159.529 46.0083 159.555C45.9471 159.58 45.8916 159.617 45.8448 159.664C45.798 159.711 45.7608 159.766 45.7355 159.827C45.7102 159.888 45.6971 159.954 45.6971 160.02Z" fill="#263238"/>
<path d="M44.9596 159.658C45.021 159.719 45.396 159.406 45.9369 159.375C46.4778 159.344 46.8896 159.608 46.9511 159.535C47.0125 159.461 46.908 159.381 46.7298 159.258C46.4897 159.1 46.205 159.025 45.9184 159.043C45.6317 159.063 45.3585 159.172 45.1378 159.356C44.978 159.498 44.9227 159.627 44.9596 159.658Z" fill="#263238"/>
<path d="M52.0834 160.432C52.3617 160.432 52.5874 160.206 52.5874 159.928C52.5874 159.65 52.3617 159.424 52.0834 159.424C51.805 159.424 51.5793 159.65 51.5793 159.928C51.5793 160.206 51.805 160.432 52.0834 160.432Z" fill="#263238"/>
<path d="M50.8356 159.559C50.9033 159.627 51.2721 159.307 51.8191 159.283C52.3661 159.258 52.7718 159.516 52.8271 159.442C52.8825 159.369 52.7903 159.289 52.612 159.166C52.3716 159.009 52.0872 158.934 51.8007 158.951C51.5134 158.968 51.2394 159.078 51.02 159.264C50.8541 159.406 50.8049 159.535 50.8356 159.559Z" fill="#263238"/>
<path d="M48.9671 164.102C48.6761 164.026 48.3765 163.989 48.0758 163.991C47.9406 163.991 47.8054 163.96 47.7747 163.862C47.7577 163.71 47.7854 163.556 47.8546 163.419L48.2234 162.294C48.5755 161.338 48.853 160.356 49.0531 159.356C48.64 160.288 48.2929 161.247 48.0144 162.227C47.8853 162.62 47.7685 163.001 47.6579 163.358C47.5735 163.536 47.554 163.738 47.6026 163.929C47.6233 163.978 47.6553 164.021 47.6959 164.056C47.7364 164.09 47.7845 164.114 47.8361 164.126C47.9136 164.138 47.9923 164.138 48.0697 164.126C48.3687 164.154 48.67 164.146 48.9671 164.102Z" fill="#263238"/>
<path d="M50.768 164.618C49.9721 165.122 49.0688 165.431 48.1311 165.521C48.3307 165.798 48.6178 165.998 48.9459 166.091C49.2739 166.184 49.6236 166.163 49.9382 166.032C51.0999 165.546 50.768 164.618 50.768 164.618Z" fill="white"/>
<path d="M48.8196 170.844C50.6964 170.766 52.5116 170.152 54.0503 169.074C54.0503 169.074 52.864 171.975 48.9056 171.815L48.8196 170.844Z" fill="#A36957"/>
<path d="M65.0712 158.84C65.0712 158.84 66.6816 167.943 58.9922 169.584L59.2196 158.619L65.0712 158.84Z" fill="#263238"/>
<path d="M64.8191 156.824C64.3392 154.876 63.4416 153.055 62.1884 151.489C63.2947 151.95 64.0323 152.411 64.186 152.263C64.3397 152.116 64.0569 151.839 63.5713 151.427C62.9408 150.911 62.2195 150.517 61.4446 150.266L61.082 150.167C61.5893 149.965 62.0527 149.667 62.4465 149.288C62.918 148.847 63.244 148.272 63.3812 147.641C63.5185 147.01 63.4604 146.351 63.2148 145.754C62.9373 145.246 62.5152 144.832 62.002 144.564C61.4888 144.295 60.9077 144.186 60.3321 144.248C59.7603 144.329 59.2154 144.543 58.7414 144.873C58.2673 145.203 57.8774 145.639 57.603 146.147C57.4706 146.391 57.3615 146.646 57.2772 146.91C57.2959 146.473 57.3411 146.038 57.4125 145.606C57.6583 144.088 58.2238 142.951 58.1316 142.902C57.5486 143.674 57.1854 144.589 57.0805 145.551C57.0805 145.699 57.0437 145.84 57.0252 145.981C56.9046 145.588 56.7567 145.204 56.5827 144.832C56.2077 144.039 55.8512 143.603 55.7467 143.67C55.5316 143.775 56.2323 145.44 56.5212 147.69C55.8298 147.46 55.1101 147.326 54.3822 147.291C53.0422 147.291 50.8172 146.676 47.6701 149.202C46.6046 149.882 45.6835 150.766 44.9595 151.802C43.9195 153.324 43.3333 155.111 43.2692 156.953C43.2502 157.506 43.2852 158.06 43.3737 158.606C43.3925 158.808 43.4444 159.006 43.5273 159.19C43.5888 159.19 43.4106 158.336 43.5273 156.965C43.5965 155.949 43.8225 154.95 44.1973 154.003C43.7291 155.642 43.8331 157.391 44.4923 158.963L51.5302 157.863C51.0753 156.32 51.4073 153.874 51.6224 152.675C52.8517 158.422 57.7997 161.182 57.7997 161.182L65.2063 160.02C65.1018 159.35 64.9789 157.426 64.8191 156.824Z" fill="#263238"/>
<path d="M81.8574 244.855C82.0848 244.966 100.242 248.543 99.5719 246.085C98.9019 243.626 82.0172 239.766 82.0172 239.766L81.8574 244.855Z" fill="#FF725E"/>
<path d="M90.1123 243.251C90.1984 243.251 90.3275 243.669 90.3213 244.216C90.3152 244.763 90.1861 245.193 90.1 245.181C90.014 245.169 89.9955 244.739 90.0017 244.216C90.0078 243.694 90.0263 243.257 90.1123 243.251Z" fill="#263238"/>
<path d="M89.1473 242.919C89.2272 242.919 89.387 243.405 89.3256 244.044C89.2641 244.683 89.0367 245.15 88.9568 245.12C88.8769 245.089 88.9568 244.609 89.0059 244.013C89.0551 243.417 89.0551 242.931 89.1473 242.919Z" fill="#263238"/>
<path d="M87.9733 242.821C88.0593 242.821 88.1822 243.3 88.1945 243.915C88.2068 244.53 88.1023 245.021 88.0163 245.015C87.9302 245.009 87.8872 244.523 87.8749 243.921C87.8626 243.319 87.8872 242.827 87.9733 242.821Z" fill="#263238"/>
<path d="M85.7605 241.044C85.8558 241.04 85.9512 241.05 86.0433 241.075C86.2276 241.075 86.4981 241.161 86.8423 241.241C87.5369 241.389 88.5388 241.628 89.7619 241.966C90.9851 242.305 92.4357 242.729 94.0215 243.27C94.8144 243.54 95.6565 243.817 96.4801 244.179C97.373 244.539 98.1934 245.058 98.9019 245.71C99.0124 245.798 99.1026 245.909 99.1662 246.035C99.2052 246.125 99.2111 246.225 99.183 246.319C99.1548 246.412 99.0944 246.493 99.0125 246.546C98.7758 246.669 98.5105 246.726 98.2442 246.712C97.7709 246.748 97.3038 246.767 96.8489 246.779C95.9331 246.779 95.048 246.779 94.2059 246.712C92.5279 246.607 91.0281 246.398 89.7742 246.201C88.5203 246.005 87.5123 245.808 86.8177 245.667L86.0187 245.501C85.923 245.488 85.8298 245.461 85.7421 245.421C86.1094 245.433 86.4753 245.474 86.8362 245.544L89.805 245.974C91.0343 246.146 92.5586 246.331 94.2244 246.423C95.0603 246.466 95.9331 246.49 96.8428 246.466C97.2915 246.466 97.7586 246.435 98.2196 246.398C98.431 246.41 98.6421 246.37 98.8343 246.281C98.8896 246.238 98.8958 246.214 98.8773 246.158C98.826 246.075 98.7617 246 98.6868 245.937C98.004 245.313 97.2151 244.815 96.3572 244.468C95.5336 244.112 94.6976 243.853 93.8986 243.546C92.3189 242.999 90.8806 242.544 89.6697 242.182C88.4589 241.819 87.4631 241.567 86.7808 241.358C86.4342 241.276 86.0934 241.171 85.7605 241.044Z" fill="#263238"/>
<path d="M95.4045 243.743C95.4905 243.774 95.3123 244.462 95.4045 245.31C95.4967 246.158 95.7302 246.816 95.6442 246.859C95.3169 246.413 95.1229 245.884 95.0848 245.332C95.0467 244.78 95.1661 244.229 95.4291 243.743H95.4045Z" fill="#263238"/>
<path d="M21.8361 241.26C21.5841 241.26 3.26112 243.786 4.68098 245.845C6.10084 247.904 23.3359 246.097 23.3359 246.097L21.8361 241.26Z" fill="#FF725E"/>
<path d="M14.5216 245.47C14.4478 245.507 14.1835 245.138 14.0114 244.622C13.8393 244.105 13.8455 243.663 13.9069 243.663C13.9684 243.663 14.1467 244.05 14.3126 244.548C14.4786 245.046 14.6015 245.427 14.5216 245.47Z" fill="#263238"/>
<path d="M15.5482 245.464C15.4744 245.507 15.1609 245.083 15.0073 244.462C14.8536 243.841 14.9212 243.319 15.0073 243.319C15.0933 243.319 15.1732 243.804 15.3207 244.382C15.4683 244.96 15.6281 245.421 15.5482 245.464Z" fill="#263238"/>
<path d="M16.6853 245.175C16.6053 245.212 16.3349 244.788 16.1198 244.21C15.9046 243.632 15.8432 243.134 15.9292 243.11C16.0153 243.085 16.212 243.54 16.4209 244.099C16.6299 244.659 16.7652 245.138 16.6853 245.175Z" fill="#263238"/>
<path d="M19.3774 246.122C19.2889 246.156 19.1956 246.177 19.1008 246.183L18.2895 246.287C17.5826 246.374 16.5623 246.472 15.2961 246.552C14.0299 246.632 12.5178 246.699 10.8398 246.712C9.99774 246.712 9.11878 246.712 8.19679 246.656C7.23618 246.614 6.29185 246.393 5.41239 246.005C5.2774 245.957 5.15387 245.882 5.04974 245.783C4.98883 245.709 4.95557 245.615 4.95557 245.519C4.95557 245.423 4.98883 245.329 5.04974 245.255C5.23068 245.058 5.4626 244.916 5.71972 244.843C6.15613 244.653 6.58639 244.487 7.01665 244.321C7.87717 244.007 8.7254 243.749 9.53675 243.522C11.1594 243.073 12.6469 242.784 13.8947 242.563C15.1424 242.341 16.1628 242.194 16.8635 242.102L17.6748 241.997C17.7685 241.982 17.8639 241.982 17.9576 241.997C17.6059 242.105 17.2462 242.185 16.8819 242.237L13.9377 242.796C12.7084 243.048 11.2209 243.362 9.6351 243.817C8.82989 244.05 7.99396 244.308 7.17646 244.628C6.75235 244.794 6.32208 244.96 5.89182 245.144C5.69136 245.202 5.50787 245.307 5.35707 245.452C5.32019 245.513 5.32019 245.531 5.35707 245.581C5.43398 245.644 5.52132 245.694 5.61523 245.728C6.46167 246.094 7.36777 246.302 8.28899 246.343C9.18639 246.417 10.0715 246.41 10.9074 246.417C12.5793 246.417 14.0852 246.38 15.3514 246.331C16.6176 246.281 17.6379 246.208 18.3448 246.165C18.6877 246.127 19.0326 246.113 19.3774 246.122Z" fill="#263238"/>
<path d="M9.36468 246.736C9.26633 246.736 9.21716 246.029 8.87296 245.249C8.52875 244.468 8.0739 243.927 8.14151 243.866C8.20912 243.804 8.81149 244.265 9.16799 245.095C9.44184 245.597 9.51227 246.184 9.36468 246.736Z" fill="#263238"/>
<path d="M78.6489 219.015H69.3246L34.9037 219.906L25.0692 218.634C23.5387 218.296 22.5306 218.155 22.2048 218.259C20.8838 218.81 19.7262 219.69 18.8427 220.816C15.0933 225.291 17.4535 232.187 23.0961 233.724L28.3945 235.162L16.802 238.887L20.7174 250C20.7174 250 38.0262 246.257 54.8125 242.304L81.673 249.57L85.5454 237.098L80.9908 235.617C83.8489 234.744 85.656 234.056 85.908 233.638C87.5984 231.019 90.5917 218.843 78.6059 219.027" fill="#455A64"/>
<path opacity="0.2" d="M80.8433 235.66L60.8792 243.927L54.8433 242.292L80.8433 235.66Z" fill="#333333"/>
<path opacity="0.2" d="M28.4805 219.949L54.038 227.27L73.5042 220.632L28.4805 219.949Z" fill="#333333"/>
<path d="M24.8417 249.195C24.5153 248.689 24.2414 248.152 24.0242 247.591C23.5694 246.576 22.9793 245.132 22.4015 243.558C21.8237 241.985 21.3505 240.485 21.0493 239.428C20.8547 238.859 20.7168 238.272 20.6375 237.676C20.8878 238.22 21.0934 238.783 21.2521 239.36C21.6086 240.411 22.1065 241.862 22.6843 243.448C23.262 245.034 23.8214 246.466 24.2209 247.498C24.4707 248.047 24.6783 248.614 24.8417 249.195Z" fill="#263238"/>
<path d="M86.4551 223.158C86.4053 223.188 86.3515 223.211 86.2953 223.225L85.8159 223.404L83.9719 224.055L77.1554 226.373C71.3714 228.303 63.3686 230.915 54.4991 233.699C45.6295 236.484 37.5652 238.912 31.7198 240.633L24.7865 242.636L22.8995 243.159L22.4016 243.288C22.3458 243.306 22.2879 243.316 22.2295 243.319L22.3955 243.257L22.881 243.097L24.725 242.513L31.6276 240.411C37.4607 238.641 45.5066 236.176 54.37 233.392C63.2333 230.608 71.2485 228.032 77.0447 226.157L83.9166 223.938L85.7913 223.324L86.2769 223.176C86.3351 223.162 86.3951 223.155 86.4551 223.158Z" fill="#263238"/>
<path d="M67.8432 222.709C67.7192 222.78 67.5871 222.836 67.4498 222.875L66.3066 223.293C65.3108 223.65 63.8479 224.154 62.0654 224.762C58.4758 225.991 53.5032 227.614 48.0021 229.378C42.5009 231.142 37.4975 232.697 33.8649 233.791C32.0209 234.339 30.5765 234.769 29.5623 235.058L28.3883 235.383C28.2513 235.424 28.1116 235.455 27.9703 235.476C28.0971 235.409 28.2312 235.358 28.3699 235.322L29.5254 234.941L33.828 233.576L47.9283 229.077L62.0163 224.547L66.2881 223.176L67.456 222.814C67.581 222.765 67.7108 222.73 67.8432 222.709Z" fill="#263238"/>
<path d="M53.909 227.227C53.909 227.313 48.1742 225.752 41.1487 223.742C34.1231 221.732 28.456 220.054 28.4805 219.949C28.5051 219.845 34.2153 221.425 41.2347 223.434C48.2541 225.444 53.9335 227.141 53.909 227.227Z" fill="#263238"/>
<path d="M81.8206 236.25C81.1907 238.325 80.4563 240.366 79.6201 242.366C78.3232 245.71 77.2045 248.39 77.1246 248.359C77.753 246.286 78.4874 244.247 79.3251 242.249C80.622 238.905 81.7407 236.219 81.8206 236.25Z" fill="#263238"/>
<path d="M79.4234 241.401C77.7279 241.108 76.0511 240.716 74.4016 240.227C72.7335 239.833 71.0913 239.336 69.4844 238.739C71.1801 239.031 72.857 239.423 74.5061 239.913C76.1743 240.308 77.8165 240.804 79.4234 241.401Z" fill="#263238"/>
<path d="M41.1916 231.21C40.8696 231.171 40.5511 231.107 40.2389 231.019L37.6696 230.405C35.506 229.852 32.5126 229.102 29.2488 228.118C26.4511 227.296 23.71 226.292 21.0431 225.113C20.0289 224.645 19.1991 224.24 18.6705 223.939C18.3764 223.8 18.0964 223.633 17.8346 223.441C18.1413 223.546 18.4393 223.676 18.7259 223.828C19.2913 224.092 20.1088 224.443 21.1353 224.904C23.817 226.018 26.5561 226.988 29.341 227.811C32.5987 228.794 35.5798 229.575 37.7311 230.183L40.2696 230.915C40.5861 230.982 40.8949 231.081 41.1916 231.21Z" fill="#263238"/>
<path d="M60.0862 175.135H59.3302L59.2195 172.516L48.8379 173.131C48.8379 173.131 48.9424 174.36 48.9363 175.215C42.5438 175.829 32.2975 179.111 32.0516 193.501L40.2512 193.691C39.5566 200.293 39.6365 204.233 38.9665 206.71C37.8233 210.803 34.2029 219.445 34.9282 219.882C35.6535 220.318 69.2999 220.939 70.9042 220.066C72.5084 219.193 69.5888 207.914 68.8574 204.853C68.3964 202.899 68.298 198.424 68.2857 194.964L77.7023 194.539C77.7023 194.539 78.3846 175.079 60.0862 175.135Z" fill="#FF725E"/>
<path d="M59.2749 175.03C58.7789 175.177 58.2672 175.263 57.7506 175.288C56.7979 175.399 55.4825 175.503 54.0258 175.534C52.569 175.565 51.2536 175.534 50.3009 175.448C49.783 175.44 49.2676 175.374 48.7643 175.251C49.2763 175.191 49.7931 175.18 50.3071 175.221C51.2598 175.221 52.569 175.221 53.995 175.221C55.421 175.221 56.7548 175.122 57.683 175.073C58.211 175.008 58.7441 174.993 59.2749 175.03Z" fill="#263238"/>
<path d="M50.725 173.045C50.8172 173.045 50.8848 173.549 50.8848 174.17C50.8848 174.79 50.8172 175.301 50.725 175.301C50.6328 175.301 50.5652 174.797 50.5652 174.17C50.5652 173.543 50.6082 173.045 50.725 173.045Z" fill="#263238"/>
<path d="M53.4725 172.848C53.5586 172.848 53.6446 173.401 53.6631 174.077C53.7193 174.491 53.6772 174.912 53.5401 175.307C53.4479 175.307 53.3619 174.754 53.3434 174.077C53.2853 173.663 53.3296 173.241 53.4725 172.848Z" fill="#263238"/>
<path d="M56.3369 172.75C56.4229 172.75 56.5459 173.291 56.5582 173.979C56.5705 174.667 56.4783 175.208 56.3861 175.208C56.2519 174.813 56.2017 174.395 56.2385 173.979C56.257 173.315 56.257 172.756 56.3369 172.75Z" fill="#263238"/>
<path d="M58.4143 172.651C58.5065 172.651 58.568 173.192 58.654 173.85C58.7401 174.508 58.8077 175.049 58.7217 175.079C58.6356 175.11 58.4205 174.581 58.3406 173.893C58.2607 173.205 58.3283 172.645 58.4143 172.651Z" fill="#263238"/>
<path d="M41.5482 193.538C41.3828 192.522 41.321 191.492 41.3638 190.464C41.2986 189.438 41.344 188.408 41.499 187.391C41.6614 188.407 41.7232 189.436 41.6834 190.464C41.7407 191.491 41.6954 192.52 41.5482 193.538Z" fill="#263238"/>
<path d="M67.9354 194.564C67.6865 193.473 67.5383 192.362 67.4929 191.245C67.3447 190.135 67.3055 189.013 67.3761 187.895C67.7707 190.096 67.9579 192.328 67.9354 194.564Z" fill="#263238"/>
<path d="M41.5481 193.538C41.0795 193.6 40.6059 193.614 40.1344 193.581H36.7476H33.3547C32.8853 193.614 32.4136 193.6 31.9471 193.538C32.405 193.42 32.8758 193.36 33.3486 193.359C34.2152 193.292 35.42 193.242 36.7476 193.249C38.0753 193.255 39.28 193.298 40.1467 193.365C40.619 193.367 41.0894 193.425 41.5481 193.538Z" fill="#263238"/>
<path d="M77.6839 194.564C76.0193 194.726 74.3459 194.779 72.6744 194.724C71.0009 194.779 69.3254 194.726 67.6588 194.564C69.3257 194.406 71.0009 194.352 72.6744 194.404C74.3459 194.352 76.0191 194.406 77.6839 194.564Z" fill="#263238"/>
<path d="M77.2721 194.644C77.2721 194.644 79.7307 217.589 72.699 219.845C65.6674 222.101 51.8007 211.418 51.8007 211.418L55.7959 203.329C55.7959 203.329 65.0158 209.734 67.0073 208.289C68.9988 206.845 67.96 194.644 67.96 194.644H77.2721Z" fill="#B78876"/>
<path d="M32.1685 193.538C32.1685 193.538 29.6669 216.249 36.6924 218.511C43.718 220.773 57.5908 210.078 57.5908 210.078L53.5894 201.989C53.5894 201.989 44.3142 207.921 42.3903 206.421C41.2778 205.548 41.247 193.654 41.247 193.654C37.977 193.513 34.9468 193.372 32.1685 193.538Z" fill="#B78876"/>
<path d="M72.8957 198.27L68.2304 221.136C68.2304 221.136 39.5628 220.914 39.2677 220.828C38.9727 220.742 36.1945 198.27 36.1945 198.27H72.8957Z" fill="#263238"/>
<path d="M52.3046 209.857C52.2812 210.201 52.3619 210.545 52.5362 210.843C52.7105 211.14 52.9704 211.379 53.2821 211.527C53.5938 211.676 53.9429 211.727 54.2841 211.674C54.6252 211.622 54.9427 211.468 55.1952 211.232C55.4477 210.997 55.6236 210.691 55.7 210.355C55.7765 210.018 55.7499 209.666 55.6238 209.345C55.4977 209.023 55.2778 208.747 54.9928 208.553C54.7078 208.358 54.3709 208.253 54.0257 208.252C53.5853 208.239 53.1575 208.4 52.8352 208.701C52.5129 209.001 52.3222 209.416 52.3046 209.857Z" fill="white"/>
<path d="M58.3283 159.688C58.5879 159.528 58.8833 159.434 59.188 159.416C59.4927 159.398 59.7971 159.455 60.074 159.584C60.4276 159.869 60.6603 160.277 60.7255 160.727C60.808 161.091 60.8037 161.469 60.7129 161.831C60.6221 162.193 60.4475 162.529 60.2031 162.811C59.9482 163.083 59.6074 163.259 59.238 163.309C58.8686 163.36 58.4931 163.281 58.1747 163.087" fill="#B78876"/>
<path d="M59.0659 162.46C59.0659 162.411 59.2626 162.38 59.49 162.208C59.6401 162.111 59.7614 161.975 59.8414 161.816C59.9214 161.656 59.9571 161.477 59.9448 161.299C59.9273 161.123 59.8643 160.954 59.7619 160.81C59.6595 160.665 59.5213 160.55 59.3609 160.475C59.1028 160.352 58.9061 160.358 58.8999 160.309C58.8938 160.26 59.0966 160.168 59.4408 160.254C59.6656 160.32 59.8652 160.453 60.0141 160.634C60.1629 160.815 60.2541 161.037 60.276 161.27C60.2978 161.503 60.2492 161.738 60.1365 161.944C60.0238 162.149 59.8522 162.316 59.6436 162.423C59.2871 162.559 59.0659 162.528 59.0659 162.46Z" fill="#A36957"/>
</svg>
