<svg width="271" height="250" viewBox="0 0 271 250" fill="none" xmlns="http://www.w3.org/2000/svg">
<path d="M40.3266 231.21C92.8905 256.26 178.11 256.267 230.673 231.21C283.237 206.152 283.23 165.541 230.673 140.491C178.117 115.441 92.8905 115.441 40.3266 140.491C-12.2373 165.541 -12.2297 206.16 40.3266 231.21Z" fill="#F5F5F5"/>
<path d="M230.49 212.697C240.171 212.697 248.019 208.957 248.019 204.344C248.019 199.731 240.171 195.992 230.49 195.992C220.81 195.992 212.962 199.731 212.962 204.344C212.962 208.957 220.81 212.697 230.49 212.697Z" fill="#EBEBEB"/>
<path d="M36.3372 205.542L42.5387 201.964C46.0011 199.139 48.6365 195.431 50.1666 191.232C52.0812 185.953 51.8142 181.941 50.4412 179.927C48.7554 177.448 44.3846 177.883 44.2092 183.1C43.843 193.383 40.8453 200.515 36.3372 205.542Z" fill="#BA68C8"/>
<path opacity="0.2" d="M36.3372 205.542L42.5387 201.964C46.0011 199.139 48.6365 195.431 50.1666 191.232C52.0812 185.953 51.8142 181.941 50.4412 179.927C48.7554 177.448 44.3846 177.883 44.2092 183.1C43.843 193.383 40.8453 200.515 36.3372 205.542Z" fill="#333333"/>
<path d="M36.3373 205.923C36.2565 205.922 36.1782 205.896 36.1135 205.847C36.0488 205.799 36.0012 205.731 35.9774 205.654C35.9537 205.577 35.9551 205.494 35.9813 205.418C36.0076 205.341 36.0575 205.275 36.1237 205.229C50.4642 195.313 47.6876 181.483 47.6571 181.346C47.6466 181.296 47.646 181.244 47.6555 181.194C47.6649 181.144 47.6842 181.096 47.7122 181.053C47.7402 181.01 47.7763 180.973 47.8186 180.944C47.8608 180.915 47.9083 180.895 47.9584 180.885C48.0085 180.874 48.0602 180.873 48.1105 180.883C48.1608 180.892 48.2087 180.912 48.2516 180.94C48.2944 180.968 48.3313 181.004 48.3602 181.046C48.3891 181.088 48.4094 181.136 48.4199 181.186C48.4199 181.331 51.349 195.633 36.5814 205.854C36.5097 205.903 36.424 205.928 36.3373 205.923Z" fill="white"/>
<path d="M23.9113 212.72C23.9113 212.72 21.7526 210.965 22.2713 208.585C22.79 206.205 24.186 204.497 21.7984 201.43C19.4109 198.364 18.7473 194.275 21.6001 192.063C23.774 190.347 27.1685 192.773 28.3889 188.249C29.289 184.939 28.9839 177.608 33.2021 175.167C37.4204 172.726 40.0673 176.403 39.4036 181.377C38.8239 185.824 38.0001 190.103 38.6408 191.293C39.8766 193.581 41.9895 193.268 41.8903 197.449C41.8064 201.339 38.1221 204.558 38.1221 204.558L23.9113 212.72Z" fill="#BA68C8"/>
<path d="M30.9977 208.99C30.9044 208.989 30.8146 208.954 30.7446 208.893C30.6746 208.831 30.6291 208.746 30.6163 208.654C29.5255 199.615 32.1419 184.008 34.2777 179.37C34.2957 179.319 34.3245 179.272 34.3621 179.233C34.3998 179.193 34.4455 179.162 34.4961 179.142C34.5467 179.122 34.601 179.113 34.6554 179.115C34.7099 179.118 34.7631 179.132 34.8116 179.157C34.8572 179.177 34.8981 179.207 34.9321 179.243C34.9661 179.28 34.9924 179.323 35.0094 179.37C35.0265 179.417 35.034 179.467 35.0315 179.517C35.0289 179.566 35.0164 179.615 34.9947 179.66C32.8818 184.237 30.3569 199.889 31.402 208.532C31.4127 208.632 31.3834 208.732 31.3206 208.811C31.2577 208.889 31.1663 208.94 31.0663 208.951L30.9977 208.99Z" fill="white"/>
<path d="M30.7918 201.949C30.7334 201.952 30.6754 201.939 30.624 201.911C27.9771 200.622 26.2989 196.022 26.2303 195.808C26.2116 195.761 26.2026 195.71 26.2038 195.659C26.2051 195.608 26.2166 195.558 26.2375 195.512C26.2585 195.465 26.2886 195.423 26.326 195.389C26.3635 195.354 26.4074 195.327 26.4554 195.31C26.5034 195.293 26.5543 195.285 26.6052 195.288C26.6561 195.29 26.706 195.303 26.7519 195.326C26.7977 195.348 26.8387 195.379 26.8722 195.418C26.9058 195.456 26.9313 195.501 26.9473 195.549C26.9473 195.595 28.5873 200.05 30.9596 201.201C31.0374 201.239 31.1001 201.302 31.1374 201.38C31.1747 201.458 31.1844 201.546 31.1649 201.631C31.1454 201.715 31.0979 201.79 31.0301 201.844C30.9623 201.897 30.8782 201.926 30.7918 201.926V201.949Z" fill="white"/>
<path d="M30.746 205C30.6696 205 30.595 204.977 30.5323 204.933C30.4695 204.889 30.4217 204.828 30.3952 204.756C30.3572 204.663 30.3576 204.559 30.3961 204.466C30.4347 204.373 30.5084 204.299 30.6011 204.26C35.0558 202.475 37.8324 197.174 37.8629 197.113C37.9094 197.023 37.9898 196.955 38.0864 196.924C38.1829 196.893 38.2877 196.902 38.3778 196.949C38.4678 196.995 38.5356 197.076 38.5664 197.172C38.5972 197.269 38.5883 197.374 38.5418 197.464C38.4197 197.693 35.605 203.078 30.9139 204.97C30.8616 204.994 30.8037 205.005 30.746 205Z" fill="white"/>
<path d="M186.454 163.962C186.454 163.962 183.121 158.561 182.793 152.696C182.465 146.83 183.754 144.389 185.524 143.687C187.293 142.985 187.431 145.144 188.338 146.418C189.246 147.692 191.1 146.967 191.786 142.993C192.473 139.019 194.975 132.314 200.177 131.009C205.898 129.591 202.831 136.303 201.39 138.92C199.948 141.536 198.834 145.106 199.78 146.075C200.726 147.043 202.198 145.251 203.594 146.914C205.295 148.92 200.009 156.143 196.973 157.89L186.454 163.962Z" fill="#BA68C8"/>
<path d="M191.024 161.697C190.974 161.695 190.924 161.683 190.879 161.662C190.833 161.641 190.792 161.611 190.758 161.574C190.724 161.537 190.698 161.494 190.681 161.447C190.663 161.4 190.655 161.35 190.658 161.3C191.174 151.864 194.117 142.721 199.201 134.755C199.23 134.713 199.267 134.678 199.309 134.651C199.352 134.624 199.4 134.606 199.45 134.599C199.5 134.591 199.551 134.593 199.6 134.606C199.649 134.618 199.695 134.64 199.735 134.671C199.815 134.73 199.868 134.819 199.884 134.917C199.9 135.015 199.876 135.116 199.819 135.197C194.825 143.047 191.936 152.049 191.428 161.338C191.425 161.388 191.412 161.437 191.39 161.482C191.368 161.528 191.338 161.568 191.3 161.601C191.263 161.635 191.219 161.66 191.171 161.676C191.124 161.693 191.074 161.7 191.024 161.697Z" fill="white"/>
<path d="M191.458 157.188C191.395 157.188 191.332 157.172 191.275 157.143C189.139 155.96 187.957 152.451 187.911 152.306C187.895 152.259 187.887 152.209 187.89 152.158C187.893 152.108 187.906 152.058 187.928 152.013C187.95 151.968 187.98 151.927 188.018 151.894C188.056 151.86 188.1 151.835 188.148 151.818C188.244 151.787 188.349 151.795 188.439 151.841C188.529 151.887 188.597 151.966 188.628 152.062C188.628 152.062 189.773 155.442 191.68 156.471C191.766 156.522 191.829 156.605 191.856 156.702C191.883 156.798 191.872 156.902 191.824 156.99C191.79 157.056 191.737 157.11 191.672 157.145C191.606 157.18 191.532 157.195 191.458 157.188Z" fill="white"/>
<path d="M191.832 154.877C191.748 154.876 191.666 154.847 191.6 154.795C191.533 154.742 191.486 154.669 191.466 154.587C191.454 154.539 191.451 154.489 191.458 154.44C191.465 154.391 191.482 154.343 191.507 154.301C191.533 154.258 191.567 154.221 191.607 154.192C191.647 154.162 191.692 154.141 191.741 154.13C197.248 152.734 199.155 149.85 199.17 149.82C199.197 149.777 199.232 149.74 199.274 149.711C199.315 149.682 199.362 149.662 199.411 149.651C199.46 149.64 199.511 149.639 199.561 149.647C199.61 149.656 199.658 149.675 199.7 149.702C199.743 149.729 199.78 149.764 199.809 149.805C199.838 149.846 199.858 149.893 199.869 149.942C199.88 149.991 199.881 150.042 199.873 150.092C199.864 150.142 199.846 150.189 199.819 150.232C199.735 150.361 197.751 153.39 191.931 154.869L191.832 154.877Z" fill="white"/>
<path d="M103.463 152.108C103.463 152.108 96.1478 150.323 95.7664 136.624C95.3622 121.841 97.559 104.586 88.9013 103.19C80.2436 101.795 75.438 112.344 75.5448 124.663C75.644 135.449 79.9919 158.867 103.432 163.459L103.463 152.108Z" fill="#BA68C8"/>
<path opacity="0.2" d="M103.463 152.108C103.463 152.108 96.1478 150.323 95.7664 136.624C95.3622 121.841 97.559 104.586 88.9013 103.19C80.2436 101.795 75.438 112.344 75.5448 124.663C75.644 135.449 79.9919 158.867 103.432 163.459L103.463 152.108Z" fill="#333333"/>
<path d="M103.463 162.055H103.394C98.1234 161.094 93.8289 158.188 90.6328 153.428C81.1589 139.293 84.1414 112.901 85.1254 108.293C85.1474 108.195 85.2066 108.109 85.2905 108.054C85.3744 107.999 85.4766 107.978 85.5755 107.996C85.6742 108.02 85.7601 108.08 85.8155 108.165C85.8708 108.251 85.8914 108.354 85.873 108.454C84.9042 113.03 81.937 139.087 91.2659 153.001C92.6238 155.158 94.4154 157.01 96.5268 158.439C98.6383 159.868 101.024 160.842 103.532 161.3C103.581 161.309 103.629 161.328 103.671 161.356C103.714 161.383 103.75 161.419 103.778 161.461C103.807 161.503 103.827 161.55 103.837 161.6C103.847 161.649 103.847 161.7 103.837 161.75C103.82 161.837 103.774 161.915 103.706 161.971C103.637 162.027 103.551 162.056 103.463 162.055Z" fill="white"/>
<path d="M103.463 197.212C95.9036 198.234 83.6303 198.219 76.5439 192.635C69.4576 187.052 70.9374 182.246 73.6606 180.24C76.3837 178.234 78.7484 175.945 74.0649 171.491C69.3813 167.036 61.8602 159.881 59.4193 149.149C56.9783 138.416 58.1836 131.704 62.9739 129.469C67.6193 127.302 68.8474 130.75 71.6926 137.859C74.5378 144.968 80.9376 138.874 86.4144 141.094C91.8913 143.313 91.6701 147.707 92.0133 151.483C92.3566 155.259 94.1644 156.304 97.269 156.304C100.374 156.304 103.463 158.089 103.463 161.643V197.212Z" fill="#BA68C8"/>
<path d="M103.463 184.748C103.43 184.755 103.396 184.755 103.364 184.748C103.036 184.656 95.217 182.383 83.8285 171.926C71.7002 160.789 65.9792 144.084 65.9182 143.916C65.889 143.82 65.898 143.716 65.9435 143.626C65.989 143.537 66.0674 143.468 66.1623 143.435C66.2574 143.404 66.3611 143.411 66.4511 143.455C66.541 143.499 66.6099 143.577 66.6429 143.672C66.6963 143.84 72.3638 160.362 84.3472 171.361C95.5755 181.682 103.486 183.993 103.57 184.016C103.618 184.03 103.663 184.053 103.702 184.085C103.741 184.116 103.773 184.155 103.797 184.199C103.821 184.242 103.836 184.291 103.842 184.34C103.847 184.39 103.843 184.441 103.829 184.489C103.804 184.566 103.755 184.633 103.689 184.679C103.623 184.726 103.544 184.75 103.463 184.748Z" fill="white"/>
<path d="M87.0094 174.58C86.9327 174.581 86.8576 174.558 86.7947 174.514C86.7317 174.471 86.6841 174.408 86.6586 174.336C84.21 168.05 83.6532 154.602 83.6074 154.03C83.6052 153.93 83.6422 153.832 83.7105 153.758C83.7787 153.684 83.873 153.64 83.9735 153.634C84.0731 153.635 84.1687 153.673 84.2419 153.741C84.3151 153.809 84.3608 153.901 84.3702 154C84.3702 154.137 84.9423 167.89 87.3451 174.061C87.3634 174.108 87.3723 174.159 87.3711 174.209C87.3699 174.26 87.3587 174.309 87.3381 174.355C87.3175 174.402 87.288 174.443 87.2512 174.478C87.2144 174.512 87.1711 174.539 87.1239 174.557C87.0871 174.57 87.0485 174.578 87.0094 174.58Z" fill="white"/>
<path d="M86.9486 183.619C86.2453 183.625 85.5423 183.589 84.8432 183.512C84.7932 183.506 84.7448 183.49 84.7008 183.466C84.6568 183.441 84.6181 183.408 84.587 183.368C84.5558 183.329 84.5328 183.283 84.5191 183.235C84.5055 183.186 84.5016 183.135 84.5076 183.085C84.5136 183.035 84.5294 182.987 84.5542 182.943C84.5789 182.899 84.612 182.86 84.6517 182.829C84.6914 182.798 84.7368 182.775 84.7853 182.761C84.8339 182.747 84.8847 182.743 84.9348 182.749C85.0034 182.749 92.105 183.558 95.3621 180.24C95.3961 180.2 95.4379 180.167 95.485 180.144C95.5322 180.121 95.5836 180.107 95.6361 180.105C95.6886 180.103 95.7411 180.111 95.7901 180.13C95.8392 180.149 95.8838 180.178 95.9213 180.214C95.9587 180.251 95.9881 180.296 96.0076 180.344C96.0271 180.393 96.0364 180.445 96.0347 180.498C96.0331 180.551 96.0206 180.602 95.998 180.65C95.9755 180.697 95.9434 180.739 95.9037 180.774C93.5467 183.207 89.4353 183.619 86.9486 183.619Z" fill="white"/>
<path d="M81.4564 39.1769L80.6326 34.4247L76.3914 37.2166C76.0039 36.4538 75.4547 35.7848 74.782 35.2562L76.811 29.7641L72.997 28.9174L70.2052 34.2569C69.1952 34.4273 68.2158 34.7461 67.299 35.2028L66.0861 31.1752L61.5552 34.7375L61.8527 39.4668C60.93 40.5004 60.0932 41.6075 59.3507 42.7773L55.613 42.5866L52.989 48.4677L56.2004 49.8407C55.8651 51.0572 55.653 52.3043 55.5673 53.5632L51.4863 57.3161L52.3025 62.0759L56.5513 59.2841C56.9366 60.0462 57.4863 60.7131 58.1607 61.2368L56.1699 66.7366L59.9838 67.5756L63.9808 63.6854C64.9038 63.5405 64.675 61.8013 65.6819 61.3055L66.8947 65.3178L71.4181 61.7632L71.3036 59.902C72.219 58.8798 75.6821 56.6296 76.4296 55.4549L77.3678 53.9293L79.9918 48.0482L78.7714 45.8361L77.4136 42.9527L81.4564 39.1769ZM67.6117 54.8218C64.1334 57.5526 63.035 58.1552 62.4476 54.5014C61.8603 50.8476 63.8512 45.2945 67.3295 42.5561C70.8078 39.8177 72.1351 39.627 72.7606 43.2731C73.3861 46.9193 71.0977 52.1215 67.6117 54.8218Z" fill="#E0E0E0"/>
<path d="M73.0275 28.9174L77.978 31.7702L75.1862 37.0945L70.2357 34.2417L73.0275 28.9174Z" fill="#F5F5F5"/>
<path d="M85.5831 37.2776L81.342 40.0694L76.3915 37.2166L80.6326 34.4247L85.5831 37.2776Z" fill="#F5F5F5"/>
<path d="M84.9039 50.8782L81.6926 49.5128L76.7421 46.6599L79.9534 48.0253L84.9039 50.8782Z" fill="#E0E0E0"/>
<path d="M56.1622 66.7366L61.1127 69.5818L63.1418 64.0897L58.1912 61.2369L56.1622 66.7366Z" fill="#E0E0E0"/>
<path d="M71.7995 68.1707L66.8566 65.3178L65.6438 61.3055L70.5943 64.1584L71.7995 68.1707Z" fill="#E0E0E0"/>
<path d="M86.3991 42.0298L85.5829 37.2776L81.3418 40.0694C80.9514 39.3063 80.3996 38.6374 79.7247 38.109L81.7537 32.6169L77.9779 31.7702L75.1784 37.1098C74.1684 37.2802 73.1891 37.5989 72.2722 38.0557L71.067 34.0434L66.536 37.6056L66.8335 42.3349C65.9098 43.3758 65.073 44.4906 64.3315 45.6683L60.5862 45.4776L57.9622 51.3587L61.1736 52.7317C60.8414 53.9515 60.6293 55.2008 60.5405 56.4618L56.4672 60.1613L57.2834 64.9212L61.5245 62.1293C61.9149 62.8902 62.4668 63.5567 63.1416 64.0821L61.1126 69.5742L64.9265 70.4209L67.7183 65.0813C68.7323 64.9128 69.7148 64.5913 70.6322 64.1278L71.8374 68.1401L76.3684 64.5855L76.0709 59.8562C76.9936 58.8226 77.8303 57.7155 78.5728 56.5457L82.3181 56.7288L84.9422 50.8476L81.685 49.4823C82.0227 48.2634 82.2374 47.0138 82.3258 45.7522L86.3991 42.0298ZM72.5697 57.7051C69.099 60.4359 65.7732 59.696 65.1401 56.0499C64.507 52.4037 66.8182 47.2244 70.2966 44.4936C73.7749 41.7628 77.093 42.5103 77.7261 46.1565C78.3593 49.8026 76.048 54.9744 72.5697 57.7051Z" fill="#EBEBEB"/>
<path d="M71.0671 34.0281L66.1165 31.1752L61.5856 34.7375L66.5361 37.5903L71.0671 34.0281Z" fill="#F5F5F5"/>
<path d="M61.5856 34.7375L61.8831 39.4668L66.8336 42.3196L66.5361 37.5903L61.5856 34.7375Z" fill="#E0E0E0"/>
<path d="M64.3316 45.6301L59.3811 42.7773L55.6434 42.5942L60.5863 45.4471L64.3316 45.6301Z" fill="#F5F5F5"/>
<path d="M55.6435 42.5942L53.0195 48.4677L57.9624 51.3206L60.5864 45.4471L55.6435 42.5942Z" fill="#E0E0E0"/>
<path d="M60.5407 56.4161L55.5978 53.5632L51.5168 57.3162L56.4597 60.169L60.5407 56.4161Z" fill="#F5F5F5"/>
<path d="M57.2836 64.9288L52.333 62.0759L51.5168 57.3161L56.4597 60.169L57.2836 64.9288Z" fill="#E0E0E0"/>
<path d="M77.978 31.7702L73.0275 28.9174L76.8109 29.7641L81.7538 32.6169L77.978 31.7702Z" fill="#F5F5F5"/>
<path d="M59.2895 17.6052V10.5036L53.6373 13.0514C53.3379 11.8465 52.8209 10.7065 52.1117 9.68745L55.6739 2.50958L51.326 0L46.8866 6.67442C45.6494 6.56634 44.4029 6.68789 43.2099 7.03293L42.5844 0.861958L36.4363 4.41656L35.8185 11.2817C34.4804 12.4673 33.2501 13.7691 32.1418 15.1719L27.7024 13.6463L23.3545 21.1827L26.9091 24.2339C26.2523 25.8948 25.7418 27.61 25.3835 29.3598L19.7312 33.334V40.4432L25.3835 37.8955C25.6829 39.1003 26.1999 40.2404 26.9091 41.2594L23.3697 48.4449L27.7176 50.9544L32.1571 44.28C33.3942 44.3877 34.6407 44.2662 35.8337 43.9215L36.4516 50.0925L42.5997 46.5379L43.2252 39.6728C45.1441 38.9726 46.844 37.778 48.1528 36.2097L51.3413 37.331L55.6892 29.8022L53.0194 27.5139C53.599 25.6056 53.8137 23.6053 53.6525 21.6175L59.2895 17.6052ZM39.5104 35.3477C34.7963 38.0709 31.8825 36.1105 31.8825 30.6871C31.8825 25.2636 35.7803 18.5587 40.502 15.8355C45.2237 13.1124 48.0765 15.0728 48.0765 20.542C48.0765 26.0112 44.232 32.6169 39.5104 35.3477Z" fill="#E0E0E0"/>
<path d="M56.2688 2.84521L51.3259 0L46.8865 6.67442L51.8294 9.52726L56.2688 2.84521Z" fill="#F5F5F5"/>
<path d="M64.24 13.3565L59.2895 10.5036L53.6372 13.0513L58.5877 15.9042L64.24 13.3565Z" fill="#F5F5F5"/>
<path d="M41.3794 52.9453L36.4365 50.0925L35.8186 43.9215L40.7615 46.7743L41.3794 52.9453Z" fill="#E0E0E0"/>
<path d="M23.347 48.4449L28.2976 51.2977L31.8598 44.1199L26.9093 41.267L23.347 48.4449Z" fill="#E0E0E0"/>
<path d="M64.2402 20.4962V13.3946L58.5879 15.9195C58.2917 14.7135 57.7744 13.5729 57.0624 12.5556L60.6246 5.3777L56.2767 2.86049L51.8372 9.54254C50.6001 9.4307 49.3529 9.55231 48.1606 9.90105L47.5351 3.71482L41.387 7.26943L40.7615 14.1345C39.4254 15.3221 38.1952 16.6238 37.0849 18.0248L32.6454 16.4992L28.2975 24.0356L31.8597 27.0867C31.1995 28.7465 30.6889 30.462 30.3342 32.2127L24.6819 36.1868V43.296L30.3342 40.7483C30.6302 41.9543 31.1475 43.095 31.8597 44.1122L28.2975 51.2901L32.6454 53.7997L37.0849 47.1253C38.322 47.2333 39.5685 47.1118 40.7615 46.7667L41.387 52.9377L47.5351 49.3831L48.153 42.518C49.491 41.3324 50.7214 40.0305 51.8296 38.6278L56.2691 40.1534L60.617 32.6246L57.0547 29.5734C57.7148 27.9136 58.2254 26.1981 58.5803 24.4475L64.2402 20.4962ZM44.4611 38.2387C39.7394 40.9619 35.9102 38.7498 35.9102 33.3035C35.9102 27.8572 39.7241 21.2285 44.4611 18.4977C49.198 15.7669 53.0043 17.9866 53.0043 23.433C53.0043 28.8793 49.1751 35.4698 44.4611 38.2006V38.2387Z" fill="#EBEBEB"/>
<path d="M32.142 15.1872L37.0848 18.04L32.6454 16.4915L27.7025 13.6311L32.142 15.1872Z" fill="#F0F0F0"/>
<path d="M27.7019 13.6388L23.3528 21.1777L28.3016 24.0327L32.6507 16.4938L27.7019 13.6388Z" fill="#F5F5F5"/>
<path d="M23.347 21.1674L28.2976 24.0203L31.8598 27.0867L26.9093 24.2415L23.347 21.1674Z" fill="#E0E0E0"/>
<path d="M25.3836 29.3674L30.3341 32.2203L24.6818 36.1944L19.7313 33.3416L25.3836 29.3674Z" fill="#F5F5F5"/>
<path d="M19.7313 33.3416L24.6818 36.1944V43.3036L19.7313 40.4508V33.3416Z" fill="#E0E0E0"/>
<path d="M47.5349 3.71481L42.5844 0.861969L36.4363 4.41657L41.3792 7.26942L47.5349 3.71481Z" fill="#F5F5F5"/>
<path d="M110.999 207.418L182.702 166.014C182.86 165.958 182.996 165.855 183.093 165.718C183.19 165.582 183.242 165.418 183.242 165.251C183.242 165.084 183.19 164.92 183.093 164.784C182.996 164.647 182.86 164.544 182.702 164.488L176.073 160.674C175.662 160.468 175.209 160.36 174.749 160.36C174.29 160.36 173.837 160.468 173.426 160.674L101.701 202.04C101.543 202.096 101.406 202.199 101.309 202.336C101.212 202.472 101.16 202.636 101.16 202.803C101.16 202.971 101.212 203.134 101.309 203.271C101.406 203.407 101.543 203.511 101.701 203.566L108.352 207.38C108.76 207.593 109.212 207.707 109.671 207.713C110.131 207.72 110.586 207.619 110.999 207.418Z" fill="#E0E0E0"/>
<path d="M180.734 6.15571L116.079 43.4867C115.118 44.1139 114.319 44.9587 113.745 45.9526C113.171 46.9466 112.839 48.0617 112.777 49.2076V202.582C112.777 204.687 114.256 205.542 116.079 204.489L180.734 167.158C181.696 166.532 182.497 165.688 183.071 164.693C183.645 163.699 183.976 162.583 184.037 161.437V8.06269C184.037 5.95738 182.564 5.10306 180.734 6.15571Z" fill="#455A64"/>
<path d="M116.079 43.4867L180.734 6.15573C182.366 5.20987 183.716 5.79722 183.991 7.43722C183.838 6.40611 183.469 5.41898 182.908 4.54075C182.346 3.66252 181.605 2.91309 180.734 2.34177L178.049 0.816191C177.025 0.296883 175.893 0.0262451 174.746 0.0262451C173.598 0.0262451 172.466 0.296883 171.443 0.816191L106.781 38.1167C105.807 38.7273 105.004 39.575 104.447 40.5805L113.745 45.92C114.302 44.9225 115.106 44.0847 116.079 43.4867Z" fill="#37474F"/>
<path d="M103.463 197.212C103.525 198.358 103.857 199.473 104.431 200.467C105.005 201.461 105.804 202.306 106.766 202.933L109.458 204.458C110.39 204.925 111.41 205.189 112.451 205.233C113.492 205.278 114.531 205.102 115.499 204.718C113.974 205.313 112.761 204.436 112.761 202.552V49.2076C112.799 48.0568 113.133 46.9351 113.73 45.9505L104.431 40.611C103.843 41.5882 103.51 42.6978 103.463 43.8376V197.212Z" fill="#263238"/>
<path d="M117.857 63.9218L178.979 28.6428C180.078 28.0173 180.963 28.5283 180.963 29.787V143.306C180.926 143.993 180.727 144.663 180.382 145.26C180.038 145.856 179.557 146.363 178.979 146.738L117.88 182.017C116.781 182.65 115.896 182.139 115.896 180.873V67.3544C115.931 66.6686 116.127 66.0006 116.467 65.4043C116.808 64.808 117.284 64.3002 117.857 63.9218Z" fill="white"/>
<path d="M148.407 30.6337C148.069 30.8552 147.789 31.1528 147.587 31.5026C147.386 31.8523 147.269 32.2445 147.247 32.6475C147.247 33.4103 147.766 33.6925 148.407 33.3187C148.745 33.0986 149.027 32.8013 149.228 32.4513C149.43 32.1012 149.546 31.7084 149.566 31.305C149.566 30.5651 149.047 30.2676 148.407 30.6337Z" fill="#37474F"/>
<path d="M148.407 169.805C147.073 170.677 145.964 171.851 145.169 173.232C144.374 174.613 143.915 176.162 143.83 177.753C143.83 180.675 145.882 181.865 148.407 180.4C149.74 179.527 150.849 178.353 151.644 176.972C152.439 175.591 152.898 174.043 152.983 172.452C152.999 169.53 150.939 168.34 148.407 169.805Z" fill="#37474F"/>
<path d="M137.43 42.4417C136.759 42.8867 136.203 43.483 135.806 44.1827C135.408 44.8823 135.181 45.6655 135.141 46.4692C135.141 47.949 136.179 48.5516 137.43 47.8117C138.107 47.3709 138.671 46.7764 139.075 46.0765C139.48 45.3767 139.713 44.5913 139.756 43.7842C139.756 42.3044 138.719 41.7018 137.43 42.4417Z" fill="#37474F"/>
<path d="M143.128 41.9383C143.128 42.9299 143.891 43.3037 144.783 42.7774L160.039 33.9519C160.512 33.6567 160.908 33.2542 161.195 32.777C161.483 32.2998 161.654 31.7615 161.694 31.2058C161.694 30.2218 160.931 29.848 160.039 30.3744L144.783 39.1999C144.312 39.4942 143.916 39.8956 143.628 40.3713C143.341 40.8471 143.169 41.3839 143.128 41.9383Z" fill="#37474F"/>
<path d="M108.619 68.8342C109.161 69.1868 109.611 69.662 109.934 70.2213C110.258 70.7806 110.445 71.4082 110.48 72.0532C110.48 73.2432 109.649 73.7237 108.619 73.1288C108.08 72.7749 107.631 72.2992 107.309 71.7401C106.987 71.1809 106.801 70.554 106.766 69.9098C106.766 68.7275 107.597 68.2469 108.619 68.8342Z" fill="#37474F"/>
<path d="M108.619 83.1595C109.161 83.5121 109.611 83.9873 109.934 84.5465C110.258 85.1058 110.445 85.7334 110.48 86.3785C110.48 87.5608 109.649 88.0414 108.619 87.454C108.08 87.1001 107.631 86.6244 107.309 86.0653C106.987 85.5062 106.801 84.8793 106.766 84.235C106.766 83.0451 107.597 82.5645 108.619 83.1595Z" fill="#37474F"/>
<path d="M108.04 69.1241C108.581 69.4767 109.032 69.9519 109.355 70.5112C109.678 71.0704 109.865 71.698 109.901 72.3431C109.901 73.5254 109.069 74.006 108.04 73.4186C107.498 73.066 107.048 72.5908 106.724 72.0316C106.401 71.4723 106.214 70.8447 106.178 70.1996C106.186 69.0097 107.018 68.552 108.04 69.1241Z" fill="#455A64"/>
<path d="M108.04 83.4417C108.582 83.7951 109.033 84.2715 109.357 84.8321C109.68 85.3928 109.867 86.022 109.901 86.6683C109.901 87.8506 109.069 88.3312 108.04 87.7362C107.497 87.385 107.046 86.9101 106.722 86.3506C106.398 85.791 106.212 85.1627 106.178 84.5172C106.186 83.3349 107.018 82.8544 108.04 83.4417Z" fill="#455A64"/>
<path d="M193.335 33.3798C193.335 32.1135 192.45 31.6025 191.352 32.2356L184.037 36.4538L130.252 67.5147C129.674 67.89 129.194 68.3966 128.849 68.9932C128.504 69.5897 128.306 70.2593 128.269 70.9472V184.435C128.269 185.702 129.154 186.213 130.252 185.579L184.059 154.511L191.352 150.3C191.929 149.925 192.41 149.418 192.755 148.822C193.1 148.225 193.298 147.556 193.335 146.868V33.3798Z" fill="white"/>
<path d="M194.098 33.3797C194.146 32.9972 194.08 32.609 193.908 32.2637C193.737 31.9184 193.467 31.6313 193.134 31.4384C192.8 31.2454 192.417 31.1552 192.032 31.179C191.647 31.2027 191.278 31.3394 190.97 31.5719L183.991 35.6071L129.871 66.8815C129.174 67.3213 128.595 67.924 128.183 68.6376C127.771 69.3512 127.538 70.1543 127.506 70.9777V184.435C127.475 184.816 127.549 185.198 127.718 185.541C127.887 185.883 128.146 186.173 128.467 186.38C128.74 186.539 129.051 186.621 129.367 186.617C129.814 186.603 130.25 186.474 130.634 186.243L184.792 154.969L191.756 150.949C192.449 150.505 193.025 149.901 193.436 149.188C193.848 148.475 194.082 147.675 194.121 146.853L194.098 33.3797ZM184.006 153.664L183.38 154.03L129.901 184.908C129.811 184.977 129.707 185.025 129.596 185.049C129.486 185.073 129.371 185.072 129.26 185.045C129.161 184.984 129.062 184.771 129.062 184.42V70.9472C129.102 70.3933 129.266 69.8557 129.544 69.3747C129.821 68.8938 130.204 68.4821 130.664 68.1706L184.09 37.2776L191.718 32.861C191.808 32.792 191.912 32.7438 192.023 32.7201C192.134 32.6963 192.248 32.6976 192.359 32.7237C192.458 32.7847 192.557 32.9983 192.557 33.3492V146.868C192.517 147.422 192.353 147.959 192.075 148.44C191.798 148.921 191.415 149.333 190.955 149.644L183.991 153.664H184.006Z" fill="#BA68C8"/>
<path d="M160.802 59.7494C167.667 55.7982 173.197 58.9867 173.197 66.912C173.197 74.8374 167.644 84.4562 160.802 88.377C153.96 92.2977 148.406 89.1398 148.406 81.222C148.406 73.3042 153.96 63.7083 160.802 59.7494Z" fill="#BA68C8"/>
<path d="M160.802 65.9738C163.022 64.6923 164.822 65.7297 164.822 68.2622C164.747 69.6573 164.343 71.015 163.645 72.2251C162.946 73.4351 161.972 74.4634 160.802 75.2265C158.582 76.508 156.782 75.4706 156.782 72.9381C156.858 71.543 157.261 70.1853 157.959 68.9753C158.658 67.7652 159.632 66.7369 160.802 65.9738Z" fill="#BA68C8"/>
<path d="M168.636 79.643C168.636 75.4324 165.684 73.7237 162.03 75.829L159.742 77.1487C156.095 79.254 153.136 84.3799 153.136 88.5905V89.7271C155.249 90.4212 157.903 90.0475 160.764 88.3769C163.933 86.4224 166.612 83.7688 168.598 80.6194L168.636 79.643Z" fill="#BA68C8"/>
<path opacity="0.7" d="M160.802 65.9738C163.022 64.6923 164.822 65.7297 164.822 68.2622C164.747 69.6573 164.343 71.015 163.645 72.2251C162.946 73.4351 161.972 74.4634 160.802 75.2265C158.582 76.508 156.782 75.4706 156.782 72.9381C156.858 71.543 157.261 70.1853 157.959 68.9753C158.658 67.7652 159.632 66.7369 160.802 65.9738Z" fill="white"/>
<path opacity="0.7" d="M168.636 79.643C168.636 75.4324 165.684 73.7237 162.03 75.829L159.742 77.1487C156.095 79.254 153.136 84.3799 153.136 88.5905V89.7271C155.249 90.4212 157.903 90.0475 160.764 88.3769C163.933 86.4224 166.612 83.7688 168.598 80.6194L168.636 79.643Z" fill="white"/>
<path d="M136.82 105.807L152.77 96.5999C153.532 96.1803 154.089 96.516 154.089 97.3627V97.889C154.065 98.3474 153.933 98.7936 153.704 99.1913C153.474 99.589 153.154 99.9268 152.77 100.177L136.82 109.384C136.095 109.804 135.5 109.461 135.5 108.621V108.095C135.525 107.637 135.657 107.191 135.886 106.793C136.116 106.396 136.435 106.058 136.82 105.807Z" fill="#BA68C8"/>
<path opacity="0.1" d="M136.82 105.807L152.77 96.5999C153.532 96.1803 154.089 96.516 154.089 97.3627V97.889C154.065 98.3474 153.933 98.7936 153.704 99.1913C153.474 99.589 153.154 99.9268 152.77 100.177L136.82 109.384C136.095 109.804 135.5 109.461 135.5 108.621V108.095C135.525 107.637 135.657 107.191 135.886 106.793C136.116 106.396 136.435 106.058 136.82 105.807Z" fill="#333333"/>
<path d="M136.164 116.921L184.418 89.0635C184.776 88.8499 185.074 89.0177 185.074 89.4448V95.0743C185.06 95.3027 184.994 95.5249 184.88 95.7235C184.766 95.922 184.608 96.0914 184.418 96.2184L136.164 124.076C135.797 124.289 135.5 124.114 135.5 123.694V118.065C135.513 117.835 135.58 117.612 135.695 117.413C135.811 117.215 135.971 117.046 136.164 116.921Z" fill="#BA68C8"/>
<path opacity="0.2" d="M136.164 116.921L184.418 89.0635C184.776 88.8499 185.074 89.0177 185.074 89.4448V95.0743C185.06 95.3027 184.994 95.5249 184.88 95.7235C184.766 95.922 184.608 96.0914 184.418 96.2184L136.164 124.076C135.797 124.289 135.5 124.114 135.5 123.694V118.065C135.513 117.835 135.58 117.612 135.695 117.413C135.811 117.215 135.971 117.046 136.164 116.921Z" fill="white"/>
<path d="M136.82 130.849L152.77 121.642C153.532 121.223 154.089 121.566 154.089 122.405V122.931C154.066 123.39 153.934 123.836 153.704 124.234C153.475 124.632 153.155 124.97 152.77 125.22L136.82 134.427C136.095 134.854 135.5 134.511 135.5 133.664V133.138C135.526 132.68 135.659 132.234 135.888 131.837C136.117 131.439 136.436 131.101 136.82 130.849Z" fill="#BA68C8"/>
<path opacity="0.1" d="M136.82 130.849L152.77 121.642C153.532 121.223 154.089 121.566 154.089 122.405V122.931C154.066 123.39 153.934 123.836 153.704 124.234C153.475 124.632 153.155 124.97 152.77 125.22L136.82 134.427C136.095 134.854 135.5 134.511 135.5 133.664V133.138C135.526 132.68 135.659 132.234 135.888 131.837C136.117 131.439 136.436 131.101 136.82 130.849Z" fill="#333333"/>
<path d="M136.164 141.963L184.418 114.106C184.776 113.892 185.074 114.068 185.074 114.487V120.117C185.06 120.345 184.994 120.567 184.88 120.766C184.766 120.964 184.608 121.134 184.418 121.261L136.164 149.118C135.797 149.332 135.5 149.164 135.5 148.737V143.107C135.513 142.878 135.58 142.655 135.695 142.456C135.811 142.257 135.971 142.088 136.164 141.963Z" fill="#BA68C8"/>
<path opacity="0.2" d="M136.164 141.963L184.418 114.106C184.776 113.892 185.074 114.068 185.074 114.487V120.117C185.06 120.345 184.994 120.567 184.88 120.766C184.766 120.964 184.608 121.134 184.418 121.261L136.164 149.118C135.797 149.332 135.5 149.164 135.5 148.737V143.107C135.513 142.878 135.58 142.655 135.695 142.456C135.811 142.257 135.971 142.088 136.164 141.963Z" fill="white"/>
<path d="M155.409 145.159L174.479 134.167C175.241 133.74 175.806 134.083 175.806 134.93V140.819C175.781 141.278 175.648 141.725 175.417 142.122C175.186 142.52 174.865 142.858 174.479 143.107L155.409 154.107C154.646 154.526 154.089 154.183 154.089 153.344V147.448C154.116 146.99 154.249 146.544 154.478 146.147C154.707 145.75 155.026 145.411 155.409 145.159Z" fill="#BA68C8"/>
<path opacity="0.1" d="M155.409 145.159L174.479 134.167C175.241 133.74 175.806 134.083 175.806 134.93V140.819C175.781 141.278 175.648 141.725 175.417 142.122C175.186 142.52 174.865 142.858 174.479 143.107L155.409 154.107C154.646 154.526 154.089 154.183 154.089 153.344V147.448C154.116 146.99 154.249 146.544 154.478 146.147C154.707 145.75 155.026 145.411 155.409 145.159Z" fill="#333333"/>
<path d="M200.566 120.307C200.566 120.307 191.199 107.386 190.65 105.814C190.215 104.655 190.65 102.931 190.787 102.13C190.924 101.329 191.046 99.5443 191.184 99.079C191.412 98.2094 190.291 98.3848 189.658 99.1781C189.025 99.9714 188.811 101.558 188.483 101.817C188.155 102.077 185.661 98.4382 184.357 96.7601C183.052 95.0819 182.236 94.0598 181.435 94.6853C180.863 95.1353 181.29 96.1117 182.236 97.5458C182.789 98.318 183.298 99.1201 183.762 99.9486C183.907 100.261 183.129 100.284 182.709 100.933C182.381 101.436 182.709 102.252 182.251 102.641C181.97 102.856 181.777 103.166 181.709 103.513C181.642 103.861 181.704 104.221 181.885 104.525C182.734 105.859 183.829 107.018 185.112 107.943C186.515 108.911 187.08 109.255 187.911 110.574C188.743 111.894 196.203 125.372 196.706 126.181C197.21 126.989 198.178 128.637 199.651 128.683C201.123 128.729 213.175 118.355 213.793 117.836C215.776 116.181 216.409 115.944 216.745 117.432C216.861 117.96 216.947 118.495 217.004 119.034C217.241 120.925 218.53 127.684 218.53 127.684C218.53 127.684 224.632 130.636 229.644 129.209C234.655 127.783 236.348 125.655 236.348 125.655L233.839 121.566C234.518 119.88 237.653 113.046 238.667 108.263L222.954 105.723C222.633 105.654 222.115 105.525 221.428 105.349C220.566 105.12 218.377 104.365 216.722 105.814C211.321 110.521 200.581 120.307 200.581 120.307" fill="#FFA8A7"/>
<path d="M231.719 199.592L228.904 203.505C230.183 204.102 231.581 204.402 232.992 204.382C235.517 204.474 236.211 203.619 236.303 203.452C236.73 202.536 236.067 200.889 235.883 199.47L231.719 199.592Z" fill="#37474F"/>
<path d="M229.064 201.629C229.064 201.629 225.647 201.407 223.29 201.117C220.933 200.828 219.064 201.972 219.613 202.941C220.162 203.909 221.467 204.718 223.496 205.397C225.227 205.984 227.31 206.404 229.11 206.922C230.91 207.441 232.161 208.12 233.206 207.754C234.373 207.349 234.877 206.884 234.777 206.03C234.523 204.815 234.207 203.613 233.832 202.429L229.064 201.629Z" fill="#37474F"/>
<path d="M236.303 195.664C236.303 195.664 235.876 199.218 235.845 199.981C235.815 200.744 232.375 200.988 231.719 199.592L231.612 195.244L236.303 195.664Z" fill="#F28F8F"/>
<path d="M232.84 197.845L234.068 203.246C234.068 203.246 234.182 203.902 231.375 204.321C228.568 204.741 224.159 202.849 223.404 202.468C222.649 202.086 222.565 201.316 225.326 201.468C228.088 201.621 229.064 201.629 229.064 201.629L228.164 199.241L232.84 197.845Z" fill="#FFA8A7"/>
<path d="M238.622 108.217L240.567 107.676C240.567 107.676 244.633 120.544 245.083 121.787C245.533 123.031 246.044 124.343 245.167 125.876C244.122 127.699 238.622 135.029 238.622 135.029L235.128 131.612L239.095 124.35L235.586 117.256L238.622 108.217Z" fill="#F28F8F"/>
<path d="M218.644 91.5044C218.188 90.6484 217.957 89.6907 217.971 88.7209C217.986 87.7511 218.246 86.8008 218.728 85.959C220.666 82.3662 224.983 80.6194 230.124 81.283C232.504 81.5958 235.311 83.5714 236.844 86.5234C238.538 89.7958 238.698 96.3863 239.133 98.8806L218.644 91.5044Z" fill="#37474F"/>
<path d="M218.507 92.9156C218.507 92.9156 217.287 95.2421 217.5 95.4557C217.817 95.6405 218.162 95.7695 218.522 95.8371L218.507 92.9156Z" fill="#FFA8A7"/>
<path d="M222.214 85.5623C220.887 86.4243 218.598 88.0109 218.499 93.236C218.393 98.5755 219.155 100.338 219.949 100.955C220.483 101.375 223.618 101.161 224.96 100.849C226.303 100.536 230.17 98.6213 231.566 95.715C233.206 92.2977 232.87 87.3243 230.437 85.7988C229.198 85.0664 227.794 84.6605 226.356 84.6192C224.918 84.5778 223.493 84.9023 222.214 85.5623Z" fill="#FFA8A7"/>
<path d="M236.303 125.624C238.652 129.285 240.88 132.489 241.368 136.624C242.375 145.312 239.08 155.243 238.37 161.674C239.704 163.503 240.473 165.682 240.582 167.944C240.582 170.606 236.303 195.664 236.303 195.664C236.303 195.664 233.191 196.609 231.612 195.244L228.675 149.149L230.201 143.534L236.303 125.624Z" fill="#BA68C8"/>
<path opacity="0.2" d="M236.303 125.624C238.652 129.285 240.88 132.489 241.368 136.624C242.375 145.312 239.08 155.243 238.37 161.674C239.704 163.503 240.473 165.682 240.582 167.944C240.582 170.606 236.303 195.664 236.303 195.664C236.303 195.664 233.191 196.609 231.612 195.244L228.675 149.149L230.201 143.534L236.303 125.624Z" fill="#333333"/>
<path d="M228.675 149.149L230.201 143.534C233.122 142.766 235.939 141.646 238.591 140.201C238.591 140.201 237.005 143.092 232.443 144.679L230.086 151.887L229.888 168.401L228.675 149.149Z" fill="#BA68C8"/>
<path opacity="0.3" d="M228.675 149.149L230.201 143.534C233.122 142.766 235.939 141.646 238.591 140.201C238.591 140.201 237.005 143.092 232.443 144.679L230.086 151.887L229.888 168.401L228.675 149.149Z" fill="#333333"/>
<path d="M236.303 125.624C237.562 127.684 240.567 131.192 239.926 134.572C239.163 138.66 236.951 141.536 230.223 143.534L223.908 166.418C223.908 166.418 227.195 169.469 228.202 172.421C229.209 175.373 232.84 197.86 232.84 197.86C232.84 197.86 231.711 199.699 228.164 199.256C228.164 199.256 215.799 171.033 214.93 169.195C213.874 167.333 213.504 165.16 213.885 163.054C214.274 160.095 218.461 127.699 218.461 127.699L236.303 125.624Z" fill="#BA68C8"/>
<path opacity="0.2" d="M236.303 125.624C237.562 127.684 240.567 131.192 239.926 134.572C239.163 138.66 236.951 141.536 230.223 143.534L223.908 166.418C223.908 166.418 227.195 169.469 228.202 172.421C229.209 175.373 232.84 197.86 232.84 197.86C232.84 197.86 231.711 199.699 228.164 199.256C228.164 199.256 215.799 171.033 214.93 169.195C213.874 167.333 213.504 165.16 213.885 163.054C214.274 160.095 218.461 127.699 218.461 127.699L236.303 125.624Z" fill="#333333"/>
<path d="M238.622 108.217L222.908 105.677C222.588 105.608 222.069 105.479 221.383 105.303C221.383 105.303 220.711 115.159 216.676 117.416C216.775 117.889 216.859 118.416 216.935 119.018C217.172 120.91 218.461 127.668 218.461 127.668C218.461 127.668 224.563 130.62 229.575 129.194C234.586 127.767 236.28 125.639 236.28 125.639L233.77 121.551C234.472 119.85 237.63 113.015 238.622 108.217Z" fill="#BA68C8"/>
<path opacity="0.7" d="M238.622 108.217L222.908 105.677C222.588 105.608 222.069 105.479 221.383 105.303C221.383 105.303 220.711 115.159 216.676 117.416C216.775 117.889 216.859 118.416 216.935 119.018C217.172 120.91 218.461 127.668 218.461 127.668C218.461 127.668 224.563 130.62 229.575 129.194C234.586 127.767 236.28 125.639 236.28 125.639L233.77 121.551C234.472 119.85 237.63 113.015 238.622 108.217Z" fill="white"/>
<path d="M234.48 119.926C232.393 121.179 230.207 122.258 227.943 123.153C229.997 123.112 232.009 122.556 233.793 121.535L234.48 119.926Z" fill="#BA68C8"/>
<path d="M221.825 85.8216C221.825 85.8216 221.062 90.7798 222.862 93.6936C222.862 93.6936 223.534 91.718 225.204 92.0918C226.875 92.4655 226.966 94.67 225.792 95.9057C225.493 96.2523 225.103 96.5078 224.666 96.6427C224.228 96.7776 223.762 96.7865 223.32 96.6685C223.32 96.6685 223.053 100.254 222.908 103.259C222.763 106.264 221.97 112.817 225.349 115.464C228.728 118.111 237.211 119.041 241.185 113.488C243.397 110.399 240.46 104.937 239.095 98.8119C237.836 93.1825 237.127 84.8376 231.154 83.4951C225.181 82.1526 221.825 85.8216 221.825 85.8216Z" fill="#37474F"/>
<path d="M243.74 18.0781L242.482 18.8409C242.587 18.3931 242.646 17.9355 242.657 17.4755C242.657 14.9202 240.865 13.8904 238.652 15.1872C237.979 15.5932 237.379 16.1088 236.875 16.7127C236.875 13.2802 234.465 11.8843 231.49 13.6006C229.922 14.6229 228.618 16.0004 227.682 17.6212C226.746 19.2421 226.206 21.0607 226.104 22.9295C226.104 23.1049 226.104 23.2727 226.104 23.4406C225.338 23.3441 224.563 23.5225 223.915 23.944C222.75 24.7035 221.78 25.7272 221.084 26.932C220.388 28.1367 219.986 29.4886 219.911 30.8778C219.91 31.2007 219.943 31.5228 220.01 31.8389L219.339 32.2279C217.515 33.2806 216.036 35.3325 216.036 36.8047C216.036 38.2768 217.515 38.6277 219.339 37.5675L243.748 23.494C245.571 22.4413 247.051 20.3894 247.051 18.9172C247.051 17.445 245.563 17.0179 243.74 18.0781Z" fill="#EBEBEB"/>
</svg>
