<svg width="248" height="249" viewBox="0 0 248 249" fill="none" xmlns="http://www.w3.org/2000/svg">
<path d="M71.5335 5.41675H7.41553V111.549H71.5335V5.41675Z" fill="#E0E0E0"/>
<path d="M69.4012 5.41675H5.2832V111.549H69.4012V5.41675Z" fill="#EBEBEB"/>
<path d="M66.6696 7.56616H8.01465V109.394H66.6696V7.56616Z" fill="white"/>
<path d="M55.2507 20.7983H19.1812V96.1615H55.2507V20.7983Z" fill="#EBEBEB"/>
<path d="M19.1815 69.4787C19.0975 62.4372 25.4282 55.5636 32.3969 54.5785C35.7218 54.1139 39.2537 54.7744 42.3602 53.4982C47.9017 51.2256 49.6704 43.8595 55.2342 41.6709L55.4917 96.1446H19.1815V69.4787Z" fill="#E0E0E0"/>
<path d="M239.209 0.597412V59.0005H155.326L152.304 1.00602L239.209 0.597412Z" fill="#E0E0E0"/>
<path d="M152.31 1.0061V58.8774L236.192 58.8774V1.0061L152.31 1.0061Z" fill="white"/>
<path d="M236.583 59.2749H151.906V0.631104H236.583V59.2749ZM152.707 58.48H235.789V1.38675H152.707V58.48Z" fill="#E0E0E0"/>
<path d="M227.102 8.19873H161.389V51.6904H227.102V8.19873Z" fill="white"/>
<path d="M227.102 8.19862H226.777H225.842H222.238L208.692 8.249L161.388 8.34416L161.579 8.15384C161.579 21.442 161.579 36.1408 161.579 51.6399L161.372 51.4328L227.085 51.472L226.923 51.6399C226.956 38.4021 226.984 27.5712 227.007 19.9923C227.007 16.2197 227.04 13.2754 227.051 11.2436C227.051 10.2473 227.051 9.48042 227.051 8.94308C227.051 8.42252 227.051 8.14825 227.051 8.14825C227.051 8.14825 227.051 8.40013 227.051 8.90949C227.051 9.41885 227.051 10.1913 227.051 11.1484C227.051 13.1635 227.051 16.1021 227.091 19.8636C227.091 27.4424 227.141 38.3349 227.18 51.6119V51.7742H227.012L161.299 51.819H161.092V51.6119C161.092 36.1352 161.092 21.414 161.092 8.12586V7.93555H161.277L208.709 8.0307L222.204 8.08108H225.775H226.688C226.828 8.11006 226.967 8.14935 227.102 8.19862Z" fill="#E0E0E0"/>
<path d="M152.304 0.84375C152.823 1.09306 153.308 1.40715 153.748 1.77851C154.604 2.39982 155.774 3.27861 157.039 4.28614C158.304 5.29367 159.407 6.25082 160.19 6.96729C160.641 7.32419 161.044 7.73813 161.388 8.19871C161.315 8.28827 159.295 6.62025 156.776 4.61079C154.257 2.60133 152.231 0.938905 152.304 0.84375Z" fill="#E0E0E0"/>
<path d="M236.186 1.00593C236.259 1.09549 234.283 2.7803 231.775 4.76737C229.268 6.75444 227.174 8.28812 227.102 8.19856C227.029 8.109 229.005 6.42419 231.518 4.43712C234.031 2.45005 236.113 0.91637 236.186 1.00593Z" fill="#E0E0E0"/>
<path d="M236.119 58.8887L226.766 51.3042L236.119 58.8887Z" fill="white"/>
<path d="M226.766 51.3041C226.839 51.2202 229.005 52.8434 231.574 54.9368C234.143 57.0303 236.192 58.799 236.119 58.8886C236.046 58.9782 233.88 57.3493 231.316 55.2559C228.753 53.1625 226.699 51.3937 226.766 51.3041Z" fill="#E0E0E0"/>
<path d="M152.304 58.8773C152.237 58.7878 154.19 57.1254 156.675 55.1607C159.161 53.196 161.226 51.6791 161.299 51.7687C161.372 51.8582 159.413 53.5206 156.933 55.4853C154.453 57.45 152.377 58.9669 152.304 58.8773Z" fill="#E0E0E0"/>
<path d="M174.732 21.7442V36.3086H216.08V21.7442H174.732Z" fill="#E0E0E0"/>
<path d="M111.986 194.625C111.986 192.089 113.928 190.253 116.542 190.253C117.172 190.231 117.799 190.346 118.379 190.592C118.959 190.837 119.479 191.207 119.901 191.675L118.887 192.621C118.602 192.302 118.252 192.047 117.86 191.876C117.468 191.704 117.043 191.618 116.615 191.625C116.211 191.607 115.808 191.672 115.43 191.814C115.052 191.957 114.706 192.174 114.414 192.454C114.122 192.733 113.89 193.069 113.731 193.441C113.573 193.812 113.491 194.212 113.491 194.617C113.491 195.021 113.573 195.421 113.731 195.792C113.89 196.164 114.122 196.5 114.414 196.779C114.706 197.059 115.052 197.277 115.43 197.419C115.808 197.561 116.211 197.626 116.615 197.608C117.045 197.616 117.471 197.529 117.863 197.354C118.256 197.179 118.606 196.92 118.887 196.595L119.912 197.569C119.489 198.037 118.97 198.406 118.39 198.652C117.81 198.897 117.183 199.013 116.553 198.991C113.911 199.002 111.986 197.166 111.986 194.625Z" fill="#EBEBEB"/>
<path d="M103.349 201.292H92.8037V190.746H103.349V201.292ZM93.3634 200.732H102.789V191.306H93.3634V200.732Z" fill="#EBEBEB"/>
<path d="M90.7943 203.486C90.4809 203.251 92.9997 199.467 96.8787 195.453C100.758 191.44 104.441 188.776 104.715 189.078C104.989 189.38 101.765 192.504 97.9534 196.467C94.1416 200.429 91.119 203.743 90.7943 203.486Z" fill="#E0E0E0"/>
<path d="M104.861 203.256C104.519 203.503 101.642 200.004 97.8416 195.946C94.041 191.888 90.7497 188.776 91.0128 188.451C91.2759 188.127 95.0373 190.802 98.9051 194.95C102.773 199.097 105.18 203.055 104.861 203.256Z" fill="#E0E0E0"/>
<path d="M32.7495 160.229L27.5719 159.86L26.3796 162.188L24.3926 162.048L29.7941 152.012L31.686 152.147L35.6041 162.843L33.5891 162.703L32.7495 160.229ZM32.2233 158.673L30.5945 153.999L28.3555 158.393L32.2233 158.673Z" fill="#EBEBEB"/>
<path d="M15.8398 162.614L3.11133 161.713L4.0181 148.962L16.741 149.868L15.8398 162.614ZM3.71025 161.192L15.3192 162.02L16.142 150.406L4.53306 149.583L3.71025 161.192Z" fill="#EBEBEB"/>
<path d="M0.407771 164.265C0.116707 164.013 3.5591 159.675 8.62473 155.13C13.6904 150.585 18.3586 147.601 18.5825 147.915C18.8064 148.228 14.5915 151.71 9.62666 156.21C4.66178 160.71 0.715627 164.545 0.407771 164.265Z" fill="#E0E0E0"/>
<path d="M17.5637 165.228C17.2055 165.451 14.0597 160.89 9.76655 155.611C5.47336 150.333 1.68393 146.297 1.9638 145.989C2.24367 145.682 6.54246 149.314 10.9196 154.693C15.2968 160.072 17.8939 165.032 17.5637 165.228Z" fill="#E0E0E0"/>
<path d="M247.493 104.86C247.98 106.573 246.933 107.955 244.347 108.683L239.377 110.088L236.578 100.091L241.263 98.7644C243.659 98.0871 245.232 98.7644 245.679 100.32C245.823 100.767 245.837 101.244 245.72 101.698C245.603 102.151 245.36 102.563 245.019 102.884C245.594 102.887 246.15 103.083 246.599 103.442C247.048 103.801 247.363 104.3 247.493 104.86ZM238.817 101.02L239.601 103.78L242.226 103.035C243.513 102.671 244.112 102.005 243.855 101.093C243.597 100.181 242.735 99.9119 241.448 100.276L238.817 101.02ZM245.573 105.201C245.288 104.205 244.403 103.976 243.004 104.373L240.009 105.224L240.821 108.106L243.821 107.256C245.22 106.858 245.853 106.203 245.573 105.201Z" fill="#EBEBEB"/>
<path d="M217.832 117.409L214.356 105.134L226.631 101.658L230.107 113.933L217.832 117.409ZM215.034 105.52L218.202 116.715L229.397 113.541L226.223 102.347L215.034 105.52Z" fill="#EBEBEB"/>
<path d="M216.159 120.734C215.795 120.589 217.558 115.344 220.777 109.343C223.995 103.343 227.376 98.9547 227.69 99.1786C228.003 99.4025 225.227 104.099 222.092 110.032C218.958 115.965 216.54 120.891 216.159 120.734Z" fill="#E0E0E0"/>
<path d="M232.621 115.803C232.358 116.133 227.852 112.914 222.019 109.411C216.187 105.907 211.25 103.393 211.418 103.007C211.586 102.621 216.858 104.58 222.769 108.162C228.68 111.745 232.867 115.506 232.621 115.803Z" fill="#E0E0E0"/>
<path d="M246.15 226.205C246.15 226.284 191.211 226.351 123.466 226.351C55.7212 226.351 0.766113 226.256 0.766113 226.205C0.766113 226.155 55.6932 226.06 123.466 226.06C191.239 226.06 246.15 226.094 246.15 226.205Z" fill="black"/>
<path d="M174.027 28.1868H30.2808V174.01H174.027V28.1868Z" fill="white"/>
<path d="M174.027 174.01C174.027 174.01 174.027 173.943 174.027 173.831C174.027 173.719 174.027 173.54 174.027 173.316C174.027 172.862 174.027 172.196 174.027 171.301C174.027 169.521 174.027 166.896 173.999 163.464C173.999 156.613 173.96 146.571 173.932 133.798C173.904 108.291 173.859 71.8632 173.803 28.1869L174.055 28.4387L30.3257 28.4779L30.6168 28.1869C30.6168 81.6251 30.6168 131.682 30.5776 174.004L30.3257 173.758L134.471 173.881L163.695 173.948L171.408 173.976H173.395H173.899H174.072H173.423H171.464L163.795 174.004L134.633 174.071L30.3257 174.195H30.0738V173.943C30.0738 131.621 30.0738 81.5859 30.0347 28.1253V27.8342H30.3425L174.072 27.8734H174.33V28.1253C174.274 71.8688 174.229 108.347 174.201 133.916C174.167 146.667 174.145 156.686 174.134 163.526C174.134 166.929 174.134 169.543 174.1 171.312C174.1 172.185 174.1 172.851 174.1 173.299V173.797C174.084 173.871 174.06 173.942 174.027 174.01Z" fill="#263238"/>
<path d="M41.5652 51.9702V55.838H40.8431V52.5747H40.0259V51.9702H41.5652Z" fill="black"/>
<path d="M42.3096 55.4182C42.3096 55.3587 42.3213 55.2997 42.3441 55.2447C42.3669 55.1897 42.4003 55.1397 42.4424 55.0976C42.4845 55.0555 42.5344 55.0221 42.5895 54.9994C42.6445 54.9766 42.7034 54.9648 42.763 54.9648C42.8225 54.9648 42.8815 54.9766 42.9365 54.9994C42.9915 55.0221 43.0414 55.0555 43.0835 55.0976C43.1256 55.1397 43.159 55.1897 43.1818 55.2447C43.2046 55.2997 43.2163 55.3587 43.2163 55.4182C43.2163 55.4778 43.2046 55.5367 43.1818 55.5917C43.159 55.6467 43.1256 55.6967 43.0835 55.7388C43.0414 55.7809 42.9915 55.8143 42.9365 55.8371C42.8815 55.8599 42.8225 55.8716 42.763 55.8716C42.7034 55.8716 42.6445 55.8599 42.5895 55.8371C42.5344 55.8143 42.4845 55.7809 42.4424 55.7388C42.4003 55.6967 42.3669 55.6467 42.3441 55.5917C42.3213 55.5367 42.3096 55.4778 42.3096 55.4182Z" fill="black"/>
<path d="M68.3478 34.3884V34.8781H67.0907V39H66.4887V34.8781H65.225V34.3884H68.3478ZM69.6911 34.8781V36.4196H71.3716V36.9159H69.6911V38.5038H71.5701V39H69.089V34.3818H71.5701V34.8781H69.6911ZM73.9433 39.0463C73.639 39.0463 73.3655 38.9934 73.1229 38.8875C72.8847 38.7773 72.6972 38.6273 72.5605 38.4376C72.4238 38.2435 72.3532 38.0208 72.3488 37.7694H72.9906C73.0126 37.9855 73.1008 38.1686 73.2552 38.3185C73.414 38.4641 73.6434 38.5369 73.9433 38.5369C74.23 38.5369 74.455 38.4663 74.6182 38.3251C74.7858 38.1796 74.8696 37.9943 74.8696 37.7694C74.8696 37.5929 74.8211 37.4496 74.724 37.3393C74.627 37.229 74.5057 37.1452 74.3601 37.0879C74.2146 37.0306 74.0183 36.9688 73.7713 36.9026C73.4669 36.8232 73.2221 36.7438 73.0369 36.6644C72.856 36.5851 72.6995 36.4615 72.5671 36.2939C72.4392 36.1219 72.3753 35.8925 72.3753 35.6058C72.3753 35.3544 72.4392 35.1317 72.5671 34.9376C72.695 34.7435 72.8737 34.5935 73.103 34.4877C73.3368 34.3818 73.6037 34.3289 73.9036 34.3289C74.3359 34.3289 74.6887 34.437 74.9622 34.6531C75.2401 34.8692 75.3967 35.1559 75.432 35.5132H74.7704C74.7483 35.3368 74.6557 35.1824 74.4925 35.0501C74.3293 34.9133 74.1131 34.845 73.8441 34.845C73.5927 34.845 73.3875 34.9111 73.2288 35.0435C73.07 35.1714 72.9906 35.3522 72.9906 35.586C72.9906 35.7536 73.0369 35.8903 73.1295 35.9962C73.2265 36.1021 73.3434 36.1837 73.4802 36.241C73.6213 36.2939 73.8176 36.3557 74.069 36.4263C74.3734 36.5101 74.6182 36.5939 74.8034 36.6777C74.9887 36.7571 75.1475 36.8828 75.2798 37.0548C75.4121 37.2224 75.4783 37.4518 75.4783 37.7429C75.4783 37.9679 75.4187 38.1796 75.2997 38.3781C75.1806 38.5766 75.0041 38.7376 74.7704 38.8611C74.5366 38.9846 74.2609 39.0463 73.9433 39.0463ZM82.8059 34.4215V39H82.2039V35.586L80.6821 39H80.2587L78.7303 35.5794V39H78.1282V34.4215H78.7766L80.4704 38.206L82.1642 34.4215H82.8059ZM84.4291 34.3884V39H83.827V34.3884H84.4291ZM89.081 39H88.4789L86.0573 35.328V39H85.4552V34.3818H86.0573L88.4789 38.0473V34.3818H89.081V39ZM92.8332 37.9745H90.8219L90.4514 39H89.8162L91.4835 34.4149H92.1782L93.8389 39H93.2038L92.8332 37.9745ZM92.6612 37.4849L91.8276 35.1559L90.9939 37.4849H92.6612ZM97.404 34.3884V34.8781H96.1469V39H95.5448V34.8781H94.2811V34.3884H97.404ZM102.218 36.6248C102.386 36.6512 102.538 36.7196 102.675 36.8299C102.816 36.9401 102.926 37.0769 103.005 37.2401C103.089 37.4033 103.131 37.5775 103.131 37.7628C103.131 37.9965 103.072 38.2083 102.952 38.3979C102.833 38.5832 102.659 38.7309 102.43 38.8412C102.205 38.9471 101.938 39 101.629 39H99.909V34.3884H101.563C101.876 34.3884 102.143 34.4414 102.364 34.5472C102.584 34.6487 102.75 34.7876 102.86 34.9641C102.97 35.1405 103.025 35.339 103.025 35.5595C103.025 35.833 102.95 36.0602 102.8 36.241C102.655 36.4174 102.461 36.5454 102.218 36.6248ZM100.511 36.3799H101.523C101.806 36.3799 102.024 36.3138 102.178 36.1815C102.333 36.0491 102.41 35.8661 102.41 35.6323C102.41 35.3985 102.333 35.2155 102.178 35.0832C102.024 34.9508 101.801 34.8847 101.51 34.8847H100.511V36.3799ZM101.576 38.5038C101.876 38.5038 102.11 38.4332 102.278 38.2921C102.445 38.1509 102.529 37.9546 102.529 37.7032C102.529 37.4474 102.441 37.2467 102.264 37.1011C102.088 36.9512 101.852 36.8762 101.556 36.8762H100.511V38.5038H101.576ZM106.693 37.9745H104.681L104.311 39H103.676L105.343 34.4149H106.038L107.698 39H107.063L106.693 37.9745ZM106.521 37.4849L105.687 35.1559L104.853 37.4849H106.521ZM110.926 39L109.027 36.896V39H108.425V34.3884H109.027V36.5255L110.932 34.3884H111.693L109.603 36.6975L111.713 39H110.926ZM115.112 37.9745H113.1L112.73 39H112.095L113.762 34.4149H114.457L116.117 39H115.482L115.112 37.9745ZM114.94 37.4849L114.106 35.1559L113.272 37.4849H114.94ZM119.682 34.3884V34.8781H118.425V39H117.823V34.8781H116.559V34.3884H119.682ZM125.727 39L125.125 38.3913C124.9 38.6251 124.66 38.7993 124.404 38.914C124.148 39.0243 123.859 39.0794 123.537 39.0794C123.219 39.0794 122.937 39.0221 122.69 38.9074C122.448 38.7927 122.258 38.6295 122.121 38.4178C121.989 38.206 121.923 37.959 121.923 37.6767C121.923 37.3547 122.013 37.0725 122.194 36.8299C122.379 36.5828 122.65 36.3888 123.008 36.2476C122.867 36.08 122.765 35.9256 122.703 35.7845C122.642 35.6433 122.611 35.489 122.611 35.3213C122.611 35.1273 122.659 34.953 122.756 34.7987C122.858 34.6399 123.001 34.5164 123.186 34.4281C123.372 34.3399 123.586 34.2958 123.828 34.2958C124.066 34.2958 124.274 34.3421 124.45 34.4348C124.627 34.5274 124.759 34.6575 124.847 34.8251C124.935 34.9883 124.975 35.1714 124.966 35.3743H124.364C124.368 35.1934 124.318 35.0523 124.212 34.9508C124.106 34.845 123.969 34.792 123.802 34.792C123.625 34.792 123.482 34.8428 123.372 34.9442C123.266 35.0413 123.213 35.167 123.213 35.3213C123.213 35.4537 123.248 35.5816 123.319 35.7051C123.394 35.8286 123.517 35.9808 123.689 36.1616L125.065 37.5444L125.184 37.3592L125.634 36.6049H126.283L125.74 37.5444C125.665 37.6767 125.577 37.8157 125.476 37.9612L126.514 39H125.727ZM123.537 38.5633C123.775 38.5633 123.989 38.517 124.179 38.4244C124.373 38.3318 124.556 38.1884 124.728 37.9943L123.372 36.6314C122.807 36.8475 122.525 37.1893 122.525 37.6569C122.525 37.9171 122.617 38.1333 122.803 38.3053C122.992 38.4773 123.237 38.5633 123.537 38.5633ZM131.343 39L129.444 36.896V39H128.842V34.3884H129.444V36.5255L131.35 34.3884H132.111L130.02 36.6975L132.131 39H131.343ZM135.529 37.9745H133.518L133.147 39H132.512L134.179 34.4149H134.874L136.535 39H135.9L135.529 37.9745ZM135.357 37.4849L134.523 35.1559L133.69 37.4849H135.357ZM139.69 39L138.591 37.1144H137.863V39H137.261V34.3884H138.75C139.098 34.3884 139.392 34.448 139.63 34.5671C139.873 34.6862 140.053 34.8472 140.172 35.0501C140.292 35.253 140.351 35.4845 140.351 35.7448C140.351 36.0624 140.259 36.3425 140.073 36.5851C139.892 36.8277 139.619 36.9886 139.253 37.068L140.411 39H139.69ZM137.863 36.6314H138.75C139.076 36.6314 139.321 36.552 139.484 36.3932C139.648 36.23 139.729 36.0138 139.729 35.7448C139.729 35.4713 139.648 35.2596 139.484 35.1096C139.326 34.9597 139.081 34.8847 138.75 34.8847H137.863V36.6314ZM141.889 34.3884V39H141.287V34.3884H141.889ZM145.343 39L144.245 37.1144H143.517V39H142.915V34.3884H144.404C144.752 34.3884 145.045 34.448 145.284 34.5671C145.526 34.6862 145.707 34.8472 145.826 35.0501C145.945 35.253 146.005 35.4845 146.005 35.7448C146.005 36.0624 145.912 36.3425 145.727 36.5851C145.546 36.8277 145.273 36.9886 144.906 37.068L146.064 39H145.343ZM143.517 36.6314H144.404C144.73 36.6314 144.975 36.552 145.138 36.3932C145.301 36.23 145.383 36.0138 145.383 35.7448C145.383 35.4713 145.301 35.2596 145.138 35.1096C144.979 34.9597 144.734 34.8847 144.404 34.8847H143.517V36.6314Z" fill="black"/>
<path d="M59.4771 68.9639H57.5404L57.1598 69.8595H56.4209L58.1617 65.9917H58.867L60.6133 69.8595H59.8633L59.4771 68.9639ZM59.2364 68.4042L58.5087 66.725L57.7867 68.4042H59.2364Z" fill="black"/>
<path d="M39.9811 38.2678C40.8497 38.2678 41.5539 37.5636 41.5539 36.6949C41.5539 35.8263 40.8497 35.1221 39.9811 35.1221C39.1124 35.1221 38.4082 35.8263 38.4082 36.6949C38.4082 37.5636 39.1124 38.2678 39.9811 38.2678Z" fill="black"/>
<path d="M44.7447 38.2678C45.6134 38.2678 46.3176 37.5636 46.3176 36.6949C46.3176 35.8263 45.6134 35.1221 44.7447 35.1221C43.8761 35.1221 43.1719 35.8263 43.1719 36.6949C43.1719 37.5636 43.8761 38.2678 44.7447 38.2678Z" fill="black"/>
<path d="M49.5079 38.2678C50.3766 38.2678 51.0808 37.5636 51.0808 36.6949C51.0808 35.8263 50.3766 35.1221 49.5079 35.1221C48.6393 35.1221 47.9351 35.8263 47.9351 36.6949C47.9351 37.5636 48.6393 38.2678 49.5079 38.2678Z" fill="black"/>
<path d="M174.027 44.4751C174.027 44.5535 142.01 44.6207 102.521 44.6207C63.0314 44.6207 31.0088 44.5535 31.0088 44.4751C31.0088 44.3968 63.0202 44.3296 102.521 44.3296C142.022 44.3296 174.027 44.3968 174.027 44.4751Z" fill="black"/>
<path d="M158.31 55.2893C158.31 55.3677 133.385 55.4349 102.644 55.4349C71.9031 55.4349 46.9668 55.3677 46.9668 55.2893C46.9668 55.211 71.8919 55.1438 102.644 55.1438C133.396 55.1438 158.31 55.2054 158.31 55.2893Z" fill="black"/>
<path d="M89.9321 59.0733C89.9321 59.1516 80.4165 59.2188 68.662 59.2188C56.9075 59.2188 47.3584 59.1516 47.3584 59.0733C47.3584 58.9949 56.8739 58.9277 68.662 58.9277C80.4501 58.9277 89.9321 58.9893 89.9321 59.0733Z" fill="black"/>
<path d="M53.4596 70.4696H48.3604V65.3704H53.4596V70.4696ZM48.9201 69.9098H52.8998V65.9301H48.9201V69.9098Z" fill="black"/>
<path d="M60.3782 78.4905C60.3782 79.151 59.8576 79.5372 58.8613 79.5372H56.9414V75.6694H58.7494C59.6785 75.6694 60.1767 76.0613 60.1767 76.677C60.1825 76.8514 60.1388 77.0238 60.0506 77.1744C59.9625 77.325 59.8335 77.4475 59.6785 77.5278C59.8867 77.5857 60.0692 77.7124 60.1962 77.8872C60.3232 78.062 60.3874 78.2746 60.3782 78.4905ZM57.6579 76.2516V77.3151H58.6766C59.1692 77.3151 59.4546 77.1415 59.4546 76.7889C59.4546 76.4363 59.1692 76.2292 58.6766 76.2292L57.6579 76.2516ZM59.6505 78.4345C59.6505 78.0483 59.3595 77.8748 58.8165 77.8748H57.6579V78.9943H58.8165C59.3595 78.9943 59.6505 78.804 59.6505 78.4345Z" fill="black"/>
<path d="M53.4596 80.153H48.3604V75.0762H53.4596V80.153ZM48.9201 79.5933H52.8998V75.6359H48.9201V79.5933Z" fill="black"/>
<path d="M56.6616 87.284C56.6817 86.8752 56.8212 86.4811 57.0629 86.1507C57.3046 85.8203 57.6379 85.568 58.0215 85.425C58.4051 85.282 58.8222 85.2547 59.2212 85.3464C59.6202 85.438 59.9836 85.6446 60.2663 85.9407L59.8018 86.3773C59.6715 86.2322 59.5117 86.1166 59.3331 86.0384C59.1545 85.9602 58.9612 85.9212 58.7662 85.9239C58.4055 85.9239 58.0595 86.0672 57.8045 86.3223C57.5494 86.5774 57.4061 86.9233 57.4061 87.284C57.4061 87.6448 57.5494 87.9908 57.8045 88.2458C58.0595 88.5009 58.4055 88.6442 58.7662 88.6442C58.9617 88.647 59.1555 88.6074 59.3343 88.5282C59.513 88.4489 59.6725 88.3319 59.8018 88.1852L60.2663 88.6274C59.9836 88.9235 59.6202 89.1301 59.2212 89.2217C58.8222 89.3134 58.4051 89.2861 58.0215 89.1431C57.6379 89.0001 57.3046 88.7478 57.0629 88.4174C56.8212 88.087 56.6817 87.6929 56.6616 87.284Z" fill="black"/>
<path d="M53.4596 89.8309H48.3604V84.7317H53.4596V89.8309ZM48.9201 89.2712H52.8998V85.2914H48.9201V89.2712Z" fill="black"/>
<path d="M56.9414 95.0308H58.6206C59.8744 95.0308 60.7308 95.8032 60.7308 96.9619C60.7308 98.1205 59.8744 98.8986 58.6206 98.8986H56.9414V95.0308ZM58.6206 98.2884C58.8017 98.3002 58.9833 98.2747 59.1541 98.2135C59.3249 98.1523 59.4814 98.0567 59.6138 97.9327C59.7462 97.8086 59.8518 97.6587 59.9239 97.4922C59.9961 97.3257 60.0333 97.1461 60.0333 96.9647C60.0333 96.7832 59.9961 96.6037 59.9239 96.4372C59.8518 96.2707 59.7462 96.1207 59.6138 95.9967C59.4814 95.8726 59.3249 95.777 59.1541 95.7158C58.9833 95.6546 58.8017 95.6291 58.6206 95.6409H57.6579V98.2884H58.6206Z" fill="black"/>
<path d="M53.4596 99.5143H48.3604V94.415H53.4596V99.5143ZM48.9201 98.9545H52.8998V94.9748H48.9201V98.9545Z" fill="black"/>
<path d="M102.638 67.9226C102.638 68.001 94.2421 68.0682 83.8534 68.0682C73.4647 68.0682 65.063 68.001 65.063 67.9226C65.063 67.8443 73.4591 67.7771 83.8534 67.7771C94.2477 67.7771 102.638 67.8387 102.638 67.9226Z" fill="black"/>
<path d="M154.358 77.6006C154.358 77.6846 134.364 77.7461 109.713 77.7461C85.0624 77.7461 65.063 77.6846 65.063 77.6006C65.063 77.5166 85.0512 77.4551 109.713 77.4551C134.375 77.4551 154.358 77.5222 154.358 77.6006Z" fill="black"/>
<path d="M77.3494 96.9619C77.3494 97.0403 74.6011 97.1075 71.1923 97.1075C67.7835 97.1075 65.0352 97.0403 65.0352 96.9619C65.0352 96.8836 67.7835 96.8164 71.1923 96.8164C74.6011 96.8164 77.3494 96.906 77.3494 96.9619Z" fill="black"/>
<path d="M109.708 87.284C109.708 87.3623 99.7164 87.4295 87.3853 87.4295C75.0543 87.4295 65.063 87.3623 65.063 87.284C65.063 87.2056 75.0543 87.1384 87.3853 87.1384C99.7164 87.1384 109.708 87.2 109.708 87.284Z" fill="black"/>
<path d="M41.7053 110.743V111.347H38.8506V110.866L40.3899 109.41C40.7649 109.052 40.8321 108.823 40.8321 108.61C40.8321 108.252 40.5858 108.05 40.11 108.05C39.9387 108.041 39.7676 108.073 39.611 108.143C39.4543 108.213 39.3165 108.32 39.2088 108.453L38.7051 108.067C38.8825 107.853 39.1075 107.683 39.3621 107.571C39.6167 107.46 39.8939 107.409 40.1716 107.423C41.0112 107.423 41.5541 107.849 41.5541 108.543C41.5481 108.781 41.4875 109.015 41.3768 109.227C41.2662 109.439 41.1086 109.622 40.916 109.763L39.8805 110.748L41.7053 110.743Z" fill="black"/>
<path d="M42.125 110.927C42.125 110.807 42.1728 110.692 42.2578 110.607C42.3428 110.522 42.4581 110.474 42.5784 110.474C42.6986 110.474 42.814 110.522 42.899 110.607C42.984 110.692 43.0318 110.807 43.0318 110.927C43.0318 111.048 42.984 111.163 42.899 111.248C42.814 111.333 42.6986 111.381 42.5784 111.381C42.4581 111.381 42.3428 111.333 42.2578 111.248C42.1728 111.163 42.125 111.048 42.125 110.927Z" fill="black"/>
<path d="M58.1221 124.473H56.191L55.8104 125.369H55.0659L56.8067 121.501H57.5176L59.2639 125.369H58.4971L58.1221 124.473ZM57.887 123.913L57.1593 122.234L56.4317 123.913H57.887Z" fill="black"/>
<path d="M156.955 110.799C156.955 110.877 132.03 110.944 101.289 110.944C70.5487 110.944 45.6235 110.899 45.6235 110.799C45.6235 110.698 70.5431 110.653 101.295 110.653C132.047 110.653 156.955 110.72 156.955 110.799Z" fill="black"/>
<path d="M88.5833 114.583C88.5833 114.661 79.0678 114.728 67.2797 114.728C55.4916 114.728 45.9761 114.661 45.9761 114.583C45.9761 114.504 55.4916 114.437 67.2797 114.437C79.0678 114.437 88.5833 114.499 88.5833 114.583Z" fill="black"/>
<path d="M52.0826 126.012H46.9834V120.913H52.0826V126.012ZM47.5431 125.453H51.5229V121.473H47.5431V125.453Z" fill="black"/>
<path d="M59.0237 134C59.0237 134.66 58.5032 135.047 57.5124 135.047H55.5869V131.179H57.3781C58.3072 131.179 58.8054 131.571 58.8054 132.186C58.8099 132.36 58.7656 132.532 58.6776 132.683C58.5896 132.833 58.4613 132.956 58.3072 133.037C58.5191 133.091 58.7059 133.216 58.8364 133.391C58.9669 133.567 59.033 133.781 59.0237 134ZM56.309 131.761V132.83H57.3221C57.8203 132.83 58.1001 132.651 58.1001 132.298C58.1001 131.946 57.8203 131.738 57.3221 131.738L56.309 131.761ZM58.3016 133.944C58.3016 133.558 58.0106 133.384 57.4676 133.384H56.309V134.504H57.4676C58.0106 134.487 58.3016 134.313 58.3016 133.927V133.944Z" fill="black"/>
<path d="M52.0826 135.662H46.9834V130.563H52.0826V135.662ZM47.5431 135.102H51.5229V131.123H47.5431V135.102Z" fill="black"/>
<path d="M55.3126 142.804C55.31 142.535 55.3624 142.269 55.4666 142.021C55.5708 141.773 55.7247 141.549 55.9187 141.363C56.1127 141.177 56.3428 141.033 56.5947 140.939C56.8466 140.845 57.1151 140.804 57.3836 140.817C57.67 140.806 57.9554 140.857 58.2196 140.968C58.4837 141.08 58.7201 141.248 58.9117 141.461L58.4527 141.898C58.322 141.753 58.1621 141.638 57.9836 141.56C57.8051 141.482 57.6121 141.442 57.4172 141.444C57.0565 141.444 56.7105 141.587 56.4554 141.843C56.2004 142.098 56.057 142.444 56.057 142.804C56.057 143.165 56.2004 143.511 56.4554 143.766C56.7105 144.021 57.0565 144.165 57.4172 144.165C57.6127 144.167 57.8063 144.127 57.985 144.048C58.1637 143.969 58.3232 143.852 58.4527 143.706L58.9117 144.148C58.6297 144.444 58.2667 144.652 57.8678 144.744C57.4689 144.836 57.0517 144.809 56.6682 144.666C56.2846 144.522 55.9517 144.27 55.7106 143.939C55.4696 143.608 55.3312 143.213 55.3126 142.804Z" fill="black"/>
<path d="M52.0826 145.34H46.9834V140.241H52.0826V145.34ZM47.5431 144.78H51.5229V140.8H47.5431V144.78Z" fill="black"/>
<path d="M55.5869 150.54H57.2661C58.5199 150.54 59.3763 151.312 59.3763 152.477C59.3763 153.641 58.5199 154.408 57.2661 154.408H55.5869V150.54ZM57.2661 153.803C57.4506 153.82 57.6365 153.799 57.8121 153.74C57.9877 153.681 58.1491 153.586 58.2859 153.461C58.4228 153.336 58.5321 153.184 58.6069 153.015C58.6817 152.845 58.7203 152.662 58.7203 152.477C58.7203 152.291 58.6817 152.108 58.6069 151.939C58.5321 151.769 58.4228 151.617 58.2859 151.493C58.1491 151.368 57.9877 151.273 57.8121 151.214C57.6365 151.155 57.4506 151.133 57.2661 151.15H56.3314V153.803H57.2661Z" fill="black"/>
<path d="M52.0826 155.024H46.9834V149.924H52.0826V155.024ZM47.5431 154.464H51.5229V150.484H47.5431V154.464Z" fill="black"/>
<path d="M101.289 123.432C101.289 123.51 92.8932 123.577 82.4989 123.577C72.1046 123.577 63.7085 123.51 63.7085 123.432C63.7085 123.354 72.1046 123.286 82.4989 123.286C92.8932 123.286 101.289 123.354 101.289 123.432Z" fill="black"/>
<path d="M153.004 133.11C153.004 133.194 133.015 133.255 108.359 133.255C83.7023 133.255 63.7085 133.194 63.7085 133.11C63.7085 133.026 83.6967 132.964 108.359 132.964C133.021 132.964 153.004 133.032 153.004 133.11Z" fill="black"/>
<path d="M76.0003 152.471C76.0003 152.555 73.2464 152.617 69.8432 152.617C66.4399 152.617 63.686 152.555 63.686 152.471C63.686 152.387 66.4399 152.326 69.8432 152.326C73.2464 152.326 76.0003 152.393 76.0003 152.471Z" fill="black"/>
<path d="M108.359 142.804C108.359 142.883 98.3619 142.95 86.0364 142.95C73.711 142.95 63.7085 142.883 63.7085 142.804C63.7085 142.726 73.7054 142.659 86.0364 142.659C98.3675 142.659 108.359 142.709 108.359 142.804Z" fill="black"/>
<path d="M144.506 165.754H121.462C120.533 165.754 119.613 165.571 118.755 165.215C117.897 164.859 117.118 164.338 116.461 163.681C115.805 163.024 115.284 162.244 114.929 161.386C114.574 160.527 114.392 159.607 114.393 158.679C114.393 156.804 115.137 155.006 116.463 153.68C117.789 152.354 119.587 151.609 121.462 151.609H144.506C146.381 151.609 148.18 152.354 149.505 153.68C150.831 155.006 151.576 156.804 151.576 158.679C151.577 159.607 151.394 160.527 151.039 161.386C150.685 162.244 150.164 163.024 149.507 163.681C148.851 164.338 148.071 164.859 147.213 165.215C146.355 165.571 145.435 165.754 144.506 165.754Z" fill="#5EAFFF"/>
<path d="M127.216 156.999V160.845H126.483L124.546 158.511V160.845H123.667V156.999H124.401L126.309 159.334V156.999H127.216Z" fill="white"/>
<path d="M131.101 160.156V160.873H128.123V157.027H131.028V157.744H129.024V158.578H130.81V159.266H129.024V160.156H131.101Z" fill="white"/>
<path d="M134.191 160.845L133.262 159.513L132.349 160.845H131.331L132.752 158.891L131.403 156.999H132.411L133.295 158.248L134.163 156.999H135.126L133.782 158.858L135.221 160.845H134.191Z" fill="white"/>
<path d="M136.301 157.727H135.069V156.999H138.428V157.727H137.196V160.845H136.301V157.727Z" fill="white"/>
<path d="M143.292 160.554C143.245 160.553 143.2 160.541 143.159 160.519C143.118 160.496 143.083 160.464 143.057 160.425C143.017 160.363 143.002 160.288 143.017 160.216C143.031 160.143 143.074 160.08 143.136 160.039L144.921 158.847C144.949 158.829 144.973 158.804 144.988 158.775C145.004 158.745 145.012 158.712 145.011 158.679C145.011 158.645 145.002 158.612 144.985 158.582C144.968 158.553 144.944 158.528 144.915 158.511L143.147 157.464C143.084 157.425 143.039 157.364 143.022 157.293C143.004 157.221 143.015 157.146 143.053 157.083C143.09 157.02 143.151 156.974 143.222 156.955C143.293 156.936 143.368 156.946 143.432 156.983L145.201 158.024C145.311 158.09 145.403 158.183 145.468 158.295C145.533 158.406 145.569 158.532 145.572 158.661C145.576 158.79 145.547 158.918 145.487 159.032C145.428 159.147 145.341 159.245 145.235 159.317L143.449 160.503C143.403 160.535 143.348 160.553 143.292 160.554Z" fill="white"/>
<path d="M47.7281 80.0633C47.5602 79.8954 48.6405 78.5353 50.1462 77.024C51.6519 75.5127 53.0121 74.438 53.1856 74.6059C53.3591 74.7738 52.2732 76.1396 50.7675 77.6453C49.2618 79.151 47.9017 80.2369 47.7281 80.0633Z" fill="#5EAFFF"/>
<path d="M54.1145 80.5952C53.9466 80.7688 52.4969 79.5933 50.8792 77.9757C49.2616 76.358 48.0805 74.9139 48.2597 74.7404C48.4388 74.5669 49.8829 75.7423 51.4949 77.36C53.107 78.9776 54.288 80.4273 54.1145 80.5952Z" fill="#5EAFFF"/>
<path d="M46.5021 126.259C46.3286 126.085 47.4145 124.725 48.9202 123.219C50.4259 121.714 51.786 120.633 51.9595 120.801C52.1331 120.969 51.0472 122.329 49.5359 123.841C48.0246 125.352 46.67 126.427 46.5021 126.259Z" fill="#5EAFFF"/>
<path d="M52.9002 126.79C52.7266 126.958 51.2825 125.788 49.6649 124.171C48.0472 122.553 46.8662 121.103 47.0453 120.935C47.2244 120.768 48.6629 121.937 50.2806 123.555C51.8982 125.173 53.0569 126.617 52.9002 126.79Z" fill="#5EAFFF"/>
<path d="M155.064 239.942L115.764 227.325C115.659 227.292 115.549 227.279 115.44 227.286L85.2139 229.525C79.902 216.651 73.2467 200.558 70.2186 193.209C69.714 192.004 68.901 190.953 67.8614 190.162C66.8219 189.371 65.5923 188.868 64.2965 188.703L31.563 184.427C31.1738 184.379 30.7791 184.435 30.4182 184.588C30.0573 184.742 29.743 184.987 29.5067 185.3C29.2703 185.613 29.1203 185.982 29.0716 186.371C29.0228 186.76 29.0771 187.155 29.2289 187.516L47.6611 230.499C47.9051 231.069 48.2649 231.583 48.7178 232.007C49.1707 232.43 49.7067 232.756 50.2919 232.962L87.7328 247.901C88.5885 248.242 89.5156 248.365 90.4307 248.259L92.8264 247.996C101.122 247.129 142.083 242.959 154.896 241.615C155.099 241.605 155.291 241.522 155.439 241.381C155.586 241.241 155.678 241.053 155.698 240.85C155.718 240.648 155.666 240.445 155.549 240.278C155.433 240.112 155.261 239.992 155.064 239.942Z" fill="#E0E0E0"/>
<path d="M155.064 239.941C155.195 239.984 155.314 240.056 155.411 240.154C155.508 240.251 155.581 240.37 155.623 240.501C155.674 240.667 155.675 240.844 155.626 241.01C155.578 241.176 155.481 241.324 155.349 241.436C155.173 241.572 154.956 241.647 154.733 241.649L153.994 241.727L144.798 242.701L110.967 246.222L99.7726 247.386L93.8114 248.002L90.7497 248.332C89.6893 248.497 88.604 248.371 87.6095 247.968L62.5669 237.994L55.878 235.324L52.4692 233.969L50.7508 233.286C50.4653 233.163 50.191 233.062 49.8832 232.934C49.5903 232.804 49.3125 232.642 49.0548 232.452C48.5364 232.069 48.1021 231.583 47.7786 231.025C47.4651 230.465 47.2636 229.877 47.0061 229.301L45.5116 225.825C44.5078 223.496 43.4984 221.144 42.4835 218.767C38.4142 209.251 34.1937 199.444 29.8782 189.38L29.2848 187.998C29.034 187.538 28.9049 187.022 28.9098 186.498C28.942 185.964 29.1518 185.456 29.5058 185.056C29.8598 184.655 30.3377 184.384 30.8633 184.287C30.992 184.259 31.1264 184.287 31.2607 184.248L31.6469 184.276L32.3858 184.376L33.8579 184.567L36.7909 184.947L48.3663 186.464L59.673 187.942L62.4717 188.306C63.3953 188.446 64.3188 188.507 65.2704 188.725C67.109 189.199 68.7053 190.341 69.7483 191.927C70.2148 192.717 70.6064 193.549 70.9181 194.412C71.2615 195.248 71.6048 196.08 71.9481 196.909L73.9799 201.84L77.9429 211.445C80.5289 217.725 83.0197 223.759 85.3874 229.502L85.2642 229.424L114.718 227.247L115.535 227.185C115.682 227.184 115.828 227.21 115.966 227.263L116.352 227.392L117.83 227.885L120.808 228.842L126.422 230.683L136.329 233.88L150.183 238.357L153.821 239.55C154.644 239.818 155.064 239.964 155.064 239.964C155.064 239.964 154.638 239.841 153.81 239.583L150.16 238.43L136.301 233.986L126.388 230.818L120.735 229.004L117.757 228.053L116.229 227.566C115.989 227.467 115.737 227.401 115.479 227.37L114.662 227.431L85.2139 229.67H85.1299L85.0907 229.586C82.7174 223.849 80.2266 217.832 77.6294 211.54L73.6609 201.935C72.9892 200.308 72.31 198.665 71.6234 197.004C71.282 196.176 70.9349 195.325 70.5935 194.508C70.2863 193.663 69.9022 192.847 69.446 192.073C68.4464 190.549 66.9162 189.452 65.1528 188.994C64.2797 188.781 63.3393 188.714 62.4213 188.58L59.6226 188.216L48.3103 186.744L36.7349 185.233L33.7963 184.852L32.3242 184.656C31.8529 184.561 31.3708 184.531 30.8913 184.567C30.4306 184.654 30.0121 184.892 29.7019 185.244C29.3917 185.596 29.2076 186.041 29.1785 186.509C29.175 186.989 29.2965 187.461 29.5311 187.88L30.1412 189.263L42.7409 218.655C43.7597 221.028 44.7672 223.381 45.7635 225.713C46.2673 226.877 46.7598 228.036 47.258 229.189C47.5099 229.749 47.7282 230.364 48.0193 230.868C48.321 231.393 48.729 231.848 49.2171 232.206C49.4592 232.385 49.7201 232.537 49.9951 232.659C50.2638 232.777 50.5549 232.883 50.8459 233.001L52.5643 233.689L55.9675 235.049L62.6844 237.719L87.7159 247.722C88.6722 248.114 89.7177 248.236 90.7385 248.074L93.8058 247.744L99.767 247.14L110.962 246.02L144.804 242.589L154.006 241.665L154.745 241.598C154.958 241.598 155.166 241.529 155.338 241.402C155.465 241.297 155.559 241.156 155.608 240.998C155.656 240.84 155.658 240.671 155.612 240.512C155.559 240.315 155.43 240.146 155.254 240.042C155.131 239.969 155.064 239.947 155.064 239.941Z" fill="#263238"/>
<path d="M104.486 232.161L119.224 238.33L137.589 236.415L122.146 230.04L104.486 232.161Z" fill="#F5F5F5"/>
<path d="M93.3749 243.821L122.145 241.223L94.6735 230.331L85.8408 230.997L90.509 242.259L93.3749 243.821Z" fill="#F5F5F5"/>
<path d="M152.215 239.925L152.019 239.958L151.431 240.031L149.192 240.261L140.874 241.072L113.447 243.63L91.886 245.578H91.7965L91.7629 245.494L86.9883 233.846L85.6785 230.588C85.533 230.215 85.421 229.93 85.3427 229.732C85.3017 229.633 85.2662 229.532 85.2363 229.43C85.2363 229.43 85.2867 229.525 85.3763 229.715L85.7457 230.56L87.117 233.79C88.2925 236.589 89.9717 240.591 91.9868 245.405L91.8636 245.326L113.419 243.328L140.874 240.854L149.175 240.149L151.414 239.97L152.002 239.93L152.215 239.925Z" fill="black"/>
<path d="M30.1802 185.983H30.4265L31.1541 186.067L33.9528 186.431L44.2184 187.83C48.5508 188.434 53.7339 189.162 59.4377 190.007L63.826 190.685L64.9455 190.875C65.1302 190.903 65.3261 190.948 65.5052 190.992C65.6004 190.992 65.7011 191.032 65.7963 191.06C66.2684 191.249 66.6969 191.533 67.0557 191.894C67.2011 192.048 67.3168 192.229 67.3972 192.425L67.6155 192.985C68.7853 195.907 69.9943 198.935 71.237 202.03C76.185 214.429 80.6573 225.657 83.9038 233.796C85.5103 237.854 86.8089 241.145 87.7156 243.429C88.1522 244.548 88.4937 245.444 88.7344 246.059C88.8463 246.351 88.9303 246.574 88.9918 246.742C89.0236 246.819 89.0498 246.897 89.0702 246.977C89.0307 246.905 88.9952 246.83 88.9639 246.754L88.6784 246.076L87.6093 243.473C86.6857 241.19 85.3703 237.915 83.6911 233.868L70.9963 202.137C69.7537 199.041 68.5446 196.013 67.3748 193.091L67.1565 192.532C67.089 192.366 66.9923 192.215 66.871 192.084C66.6207 191.812 66.318 191.593 65.981 191.44C65.8972 191.4 65.8113 191.365 65.7235 191.334L65.4549 191.267C65.2757 191.228 65.0966 191.188 64.8951 191.16L63.7756 190.964L59.3873 190.276L44.1848 188.037L33.9304 186.543L31.1317 186.128L30.4097 186.011L30.1802 185.983Z" fill="black"/>
<path d="M59.1135 211.714C60.5128 213.589 60.7927 215.744 59.746 216.528C58.6993 217.311 56.7066 216.432 55.3073 214.557C53.9079 212.682 53.628 210.533 54.6747 209.744C55.7215 208.954 57.7141 209.844 59.1135 211.714Z" fill="white"/>
<path d="M236.203 179.747C234.328 169.112 222.568 162.703 218.684 159.166L224.522 166.974C227.51 179.298 228.642 191.998 227.88 204.656C227.802 206.038 227.953 207.902 228.938 208.098C229.294 208.128 229.647 208.017 229.923 207.79C233.371 205.579 235.61 200.514 236.108 195.297C236.606 190.08 237.054 184.667 236.203 179.747Z" fill="#5EAFFF"/>
<path d="M227.594 167.836C227.035 166.767 227.264 163.358 224.236 166.918L224.04 165.586L205.328 151.201L163.622 153.367C159.62 153.619 153.608 160.548 152.108 163.442C150.877 174.206 150.631 183.761 150.631 183.761C150.631 183.761 149.198 195.728 150.631 201.387C152.063 207.046 153.759 209.089 155.976 213.488C157.598 216.494 159.62 219.266 161.988 221.728L163.935 236.841L207.505 240.759L227.449 239.639C227.449 239.639 225.663 209.833 225.663 209.307C225.663 209.061 228.154 203.307 230.83 197.2C235.375 186.75 232.811 177.923 227.594 167.836Z" fill="#455A64"/>
<path d="M118.177 222.047C118.395 222.047 120.572 207.331 122 203.99C123.343 200.838 152.108 163.437 152.108 163.437L158.881 185.266L155.976 196.942L140.303 215.8L135.876 229.469L118.177 222.047Z" fill="#455A64"/>
<path d="M233.393 179.02C231.328 165.927 221.13 166.498 221.13 166.498L210.993 184.136V220.608L162.088 224.84L161.182 237.12C161.182 237.12 209.907 248.259 221.163 244.526C228.613 242.057 234.905 235.827 235.593 225.646C236.282 215.464 235.464 192.118 233.393 179.02Z" fill="#455A64"/>
<path d="M140.354 215.778C140.211 214.944 140.025 214.118 139.794 213.304C139.18 211.348 138.073 209.583 136.579 208.18C135.085 206.777 133.254 205.783 131.263 205.294C130.436 205.108 129.599 204.966 128.756 204.868C128.986 204.841 129.219 204.841 129.45 204.868C130.077 204.894 130.701 204.976 131.314 205.115C133.356 205.567 135.238 206.563 136.761 207.998C138.283 209.433 139.389 211.252 139.962 213.264C140.138 213.868 140.258 214.486 140.32 215.112C140.359 215.331 140.37 215.555 140.354 215.778Z" fill="black"/>
<path d="M163.762 224.336C163.831 224.317 163.903 224.304 163.974 224.297L164.596 224.207L166.991 223.888L175.818 222.769L204.925 219.231L211.395 218.459L211.267 218.599C211.642 208.68 211.826 199.937 211.759 193.674C211.759 190.545 211.692 188.031 211.653 186.302C211.653 185.451 211.614 184.785 211.603 184.32V183.805C211.603 183.688 211.603 183.632 211.603 183.626C211.608 183.686 211.608 183.746 211.603 183.805C211.603 183.934 211.603 184.102 211.636 184.315C211.636 184.785 211.692 185.434 211.731 186.302C211.804 188.026 211.882 190.539 211.927 193.674C212.028 199.937 211.894 208.691 211.53 218.604V218.727H211.407L204.936 219.505L175.802 222.959L166.969 223.972L164.562 224.23L163.935 224.291L163.762 224.336Z" fill="black"/>
<path d="M236.259 224.336C236.267 224.411 236.267 224.486 236.259 224.56C236.259 224.717 236.259 224.935 236.226 225.209C236.175 226.044 236.08 226.875 235.94 227.7C235.72 229.008 235.4 230.298 234.983 231.557C234.412 233.22 233.645 234.809 232.699 236.292C231.549 238.097 230.097 239.692 228.406 241.005C226.464 242.513 224.218 243.584 221.824 244.145C220.535 244.455 219.225 244.674 217.906 244.8C216.532 244.923 215.153 244.976 213.775 244.957C210.884 244.898 208.001 244.629 205.149 244.151L188.631 241.436L181.427 240.238L175.153 239.08C171.33 238.363 168.229 237.82 166.079 237.496L163.6 237.132L162.956 237.042C162.882 237.035 162.809 237.02 162.738 236.997H162.956L163.605 237.064C164.165 237.126 165.016 237.221 166.096 237.372C168.251 237.663 171.358 238.178 175.192 238.867L181.455 239.986L188.665 241.156L205.183 243.854C208.025 244.338 210.898 244.613 213.78 244.677C215.18 244.677 216.545 244.638 217.883 244.531C219.188 244.411 220.482 244.198 221.757 243.893C224.121 243.346 226.339 242.296 228.261 240.815C229.935 239.525 231.378 237.96 232.526 236.186C233.473 234.721 234.245 233.151 234.826 231.506C235.254 230.26 235.589 228.984 235.828 227.689C236.013 226.62 236.125 225.78 236.164 225.209L236.231 224.56C236.236 224.485 236.245 224.41 236.259 224.336Z" fill="black"/>
<path d="M162.441 225.237C162.418 225.162 162.403 225.086 162.396 225.008C162.368 224.834 162.329 224.605 162.29 224.325C162.2 223.698 162.071 222.825 161.915 221.716V221.756L158.209 217.653C157.487 216.623 156.834 215.546 156.256 214.429C155.609 213.157 155.037 211.849 154.543 210.51C153.451 207.486 152.7 204.349 152.304 201.157C151.913 197.703 151.833 194.22 152.063 190.752C152.237 187.561 152.567 184.695 152.881 182.3C153.194 179.904 153.491 177.973 153.703 176.635L153.955 175.101C153.983 174.939 154.006 174.81 154.028 174.704C154.032 174.658 154.044 174.612 154.062 174.57C154.067 174.614 154.067 174.659 154.062 174.704C154.062 174.816 154.062 174.945 154.017 175.107C153.966 175.488 153.905 176.003 153.821 176.652C153.642 177.99 153.379 179.926 153.088 182.328C152.797 184.729 152.533 187.584 152.36 190.774C152.146 194.225 152.232 197.688 152.617 201.124C153.007 204.295 153.743 207.415 154.812 210.427C155.295 211.751 155.856 213.046 156.491 214.306C157.057 215.416 157.695 216.49 158.4 217.518L162.055 221.672L162.357 224.286C162.385 224.571 162.407 224.801 162.43 224.974C162.449 225.06 162.453 225.15 162.441 225.237Z" fill="black"/>
<path d="M218.443 226.597C218.074 226.188 217.735 225.752 217.43 225.293C216.82 224.47 215.963 223.351 214.961 222.159C213.959 220.966 213.013 219.92 212.314 219.181C211.912 218.797 211.538 218.386 211.194 217.949C211.65 218.266 212.07 218.63 212.448 219.035C213.41 219.964 214.32 220.945 215.174 221.974C216.034 222.996 216.839 224.063 217.587 225.17C217.919 225.616 218.206 226.094 218.443 226.597Z" fill="black"/>
<path d="M130.144 223.844C129.73 221.453 127.552 219.59 127.552 219.59C127.552 219.59 126.511 216.679 124.955 215.912C123.399 215.145 122.157 216.679 120.802 216.265C119.447 215.85 116.542 215.744 115.608 216.265C114.673 216.785 113.531 219.69 113.531 219.69C112.589 219.728 111.667 219.977 110.833 220.418C110.126 220.783 109.515 221.308 109.048 221.952C108.642 221.794 108.198 221.762 107.774 221.862C107.35 221.962 106.967 222.189 106.674 222.511C106.106 223.175 105.681 223.949 105.426 224.784L104.687 226.765C104.545 227.068 104.48 227.4 104.497 227.734C104.554 228.008 104.702 228.255 104.918 228.434C105.133 228.613 105.403 228.713 105.684 228.719C105.968 228.72 106.25 228.662 106.51 228.547C106.771 228.432 107.004 228.264 107.195 228.053C107.576 227.677 107.912 227.258 108.197 226.805L108.381 228.103C108.381 228.103 108.689 230.157 110.352 230.281C111.499 230.37 112.742 229.038 112.742 229.038L115.647 228.724L116.061 231.629C116.252 232.189 116.618 232.673 117.105 233.01C117.592 233.346 118.173 233.518 118.765 233.499C119.806 233.499 121.149 231.736 121.149 231.736L123.853 232.771C123.853 232.771 126.965 234.954 128.42 234.227C128.827 234.021 129.152 233.682 129.341 233.267C129.53 232.852 129.573 232.385 129.461 231.943C130.083 231.239 130.574 230.429 130.911 229.553C131.303 228.31 130.581 226.234 130.144 223.844Z" fill="#FFBE9D"/>
<path d="M108.314 227.605C108.196 226.577 108.232 225.538 108.421 224.521C108.518 223.492 108.77 222.484 109.171 221.532C109.249 221.532 108.941 222.892 108.706 224.566C108.471 226.239 108.421 227.605 108.314 227.605Z" fill="#6EADEB"/>
<path d="M112.854 224.873C113.03 225.58 113.113 226.306 113.1 227.034C113.159 227.56 113.106 228.092 112.943 228.596C112.781 228.987 112.551 229.155 112.535 229.111C112.518 229.066 112.652 228.892 112.747 228.551C112.843 228.062 112.864 227.562 112.809 227.068C112.724 226.338 112.739 225.599 112.854 224.873Z" fill="#6EADEB"/>
<path d="M114.791 223.636C114.847 223.692 114.466 224.196 113.934 224.711C113.402 225.226 112.932 225.64 112.871 225.584C112.809 225.528 113.195 225.025 113.727 224.51C114.259 223.995 114.735 223.58 114.791 223.636Z" fill="#6EADEB"/>
<path d="M115.177 218.05C115.239 218.574 115.262 219.102 115.244 219.629C115.244 220.608 115.283 221.952 115.361 223.435C115.44 224.918 115.557 226.262 115.641 227.235C115.721 227.758 115.754 228.286 115.742 228.814C115.587 228.307 115.486 227.786 115.44 227.258C115.3 226.29 115.154 224.946 115.07 223.452C114.986 221.957 114.997 220.608 115.037 219.629C115.028 219.099 115.075 218.57 115.177 218.05Z" fill="#6EADEB"/>
<path d="M126.069 219.164C126.069 219.164 125.946 219.444 125.75 219.948C125.477 220.661 125.26 221.395 125.101 222.142C125 222.623 124.894 223.144 124.776 223.698C124.665 224.305 124.5 224.9 124.284 225.478C124.042 226.13 123.635 226.709 123.103 227.157C122.812 227.409 122.465 227.589 122.092 227.681C121.718 227.774 121.328 227.776 120.953 227.689C120.564 227.601 120.211 227.394 119.946 227.096C119.7 226.8 119.543 226.441 119.492 226.06C119.413 225.38 119.4 224.694 119.453 224.011C119.517 222.866 119.693 221.73 119.979 220.619C120.171 219.871 120.418 219.138 120.718 218.425C120.824 218.173 120.908 217.983 120.976 217.865C121.004 217.797 121.042 217.733 121.088 217.675C121.018 217.948 120.93 218.215 120.824 218.476C120.567 219.196 120.352 219.93 120.181 220.675C119.926 221.779 119.773 222.903 119.722 224.034C119.677 224.694 119.694 225.358 119.772 226.015C119.818 226.344 119.953 226.654 120.164 226.911C120.392 227.161 120.691 227.337 121.02 227.415C121.353 227.491 121.698 227.488 122.029 227.405C122.36 227.322 122.666 227.163 122.923 226.939C123.423 226.519 123.808 225.98 124.043 225.372C124.395 224.294 124.684 223.197 124.911 222.086C125.086 221.334 125.334 220.602 125.649 219.897C125.737 219.705 125.836 219.518 125.946 219.338C126.013 219.22 126.058 219.158 126.069 219.164Z" fill="#6EADEB"/>
<path d="M127.166 220.423C127.088 221.044 126.814 221.624 126.384 222.079C125.955 222.533 125.392 222.84 124.776 222.953C125.267 222.63 125.732 222.271 126.17 221.879C126.538 221.419 126.871 220.933 127.166 220.423Z" fill="#6EADEB"/>
<path d="M121.155 227.661C121.338 228.438 121.386 229.241 121.294 230.034C121.265 230.74 121.165 231.441 120.998 232.128V232.167C120.977 232.178 120.954 232.184 120.93 232.184C120.907 232.185 120.883 232.18 120.862 232.17C120.84 232.161 120.821 232.146 120.806 232.128C120.791 232.11 120.78 232.089 120.774 232.066C120.774 232.01 120.774 231.988 120.774 231.988C120.774 231.988 120.774 232.016 120.813 232.038C120.852 232.06 120.891 232.083 120.908 232.038L120.875 232.083C120.875 231.702 120.959 230.907 121.009 229.989C121.003 229.211 121.051 228.433 121.155 227.661Z" fill="#6EADEB"/>
<path d="M127.743 225.344C127.527 225.7 127.271 226.03 126.981 226.329C126.34 227.075 125.777 227.885 125.302 228.747C124.83 229.607 124.561 230.565 124.518 231.545C124.518 232.301 124.647 232.76 124.597 232.771C124.401 232.393 124.302 231.971 124.311 231.545C124.295 230.519 124.547 229.505 125.045 228.607C125.538 227.723 126.148 226.91 126.858 226.189C127.116 225.871 127.413 225.586 127.743 225.344Z" fill="#6EADEB"/>
<path d="M126.595 230.504C126.42 229.875 126.449 229.206 126.679 228.595C126.908 227.983 127.326 227.46 127.871 227.101C129.825 225.713 135.674 222.063 135.797 222.063C135.92 222.063 142.665 219.824 145.503 219.533C148.341 219.242 160.762 225.411 160.762 225.411C160.762 225.411 163.644 229.564 163.18 233.549C162.715 237.535 160.118 237.764 160.118 237.764L156.513 236.885L152.797 236.174C152.797 236.174 144.574 238.464 143.281 238.044C141.988 237.624 141.54 236.219 142.94 235.458C144.339 234.697 148.363 233.504 148.363 233.504L151.459 232.195L141.383 233.633C141.383 233.633 132.864 235.312 131.868 235.077C130.872 234.842 130.72 234.098 130.637 233.398C130.637 233.398 127.205 235.077 126.187 234.159C125.168 233.241 124.72 231.243 126.595 230.504Z" fill="#FFBE9D"/>
<path d="M148.341 228.053C148.092 228.093 147.838 228.106 147.586 228.092C147.104 228.092 146.405 228.092 145.543 228.148C144.537 228.193 143.538 228.334 142.559 228.568C141.982 228.715 141.42 228.915 140.88 229.167C140.32 229.424 139.76 229.726 139.201 230.062C138.63 230.389 138.035 230.671 137.421 230.907C136.847 231.119 136.246 231.249 135.635 231.294C134.629 231.294 133.627 231.407 132.646 231.629C132.006 231.833 131.441 232.223 131.023 232.749C130.881 232.953 130.756 233.169 130.648 233.393C130.648 233.393 130.648 233.32 130.682 233.197C130.739 233.016 130.822 232.845 130.928 232.687C131.331 232.106 131.91 231.669 132.579 231.439C133.57 231.18 134.589 231.043 135.613 231.03C136.831 230.888 138.002 230.473 139.038 229.816C139.598 229.497 140.158 229.172 140.751 228.909C141.304 228.657 141.879 228.458 142.47 228.316C143.466 228.083 144.486 227.961 145.509 227.952C146.382 227.952 147.082 227.952 147.569 227.985C147.828 227.984 148.086 228.006 148.341 228.053Z" fill="#6EADEB"/>
<path d="M145.296 223.804C145.238 223.843 145.176 223.874 145.112 223.899C144.994 223.955 144.809 224.028 144.552 224.112C143.865 224.324 143.163 224.485 142.453 224.593C141.563 224.75 140.488 224.868 139.346 225.153C138.116 225.525 136.934 226.042 135.825 226.692C133.76 227.842 131.603 228.819 129.377 229.614C128.527 229.917 127.827 230.14 127.34 230.286C127.093 230.375 126.838 230.441 126.579 230.482C126.811 230.357 127.054 230.256 127.306 230.18L129.305 229.418C131.498 228.573 133.63 227.576 135.686 226.435C136.815 225.773 138.022 225.254 139.279 224.89C140.317 224.656 141.367 224.48 142.425 224.364C143.129 224.275 143.828 224.146 144.518 223.978C144.774 223.905 145.034 223.848 145.296 223.804Z" fill="#6EADEB"/>
<path d="M153.474 226.205C153.4 225.987 153.346 225.762 153.312 225.534C153.178 225.01 152.92 224.527 152.559 224.124C152.199 223.722 151.746 223.412 151.241 223.222C151.018 223.162 150.801 223.083 150.591 222.987C150.591 222.953 150.871 222.92 151.308 223.026C151.875 223.179 152.386 223.492 152.78 223.927C153.171 224.366 153.426 224.908 153.513 225.489C153.572 225.726 153.558 225.976 153.474 226.205Z" fill="#6EADEB"/>
<path d="M158.131 232.491C158.121 232.177 158.093 231.863 158.047 231.551C157.856 230.823 157.427 230.181 156.827 229.726C156.21 229.278 155.528 228.925 154.806 228.68C154.492 228.596 154.191 228.47 153.911 228.305C154.238 228.309 154.561 228.37 154.868 228.484C155.64 228.682 156.368 229.026 157.012 229.497C157.665 229.99 158.107 230.712 158.249 231.517C158.33 231.846 158.288 232.192 158.131 232.491Z" fill="#6EADEB"/>
<path d="M130.67 233.387C130.528 233.514 130.363 233.613 130.183 233.678C129.716 233.898 129.233 234.085 128.739 234.238C128.399 234.357 128.051 234.452 127.698 234.523C127.272 234.579 126.839 234.535 126.433 234.395C126.204 234.311 125.995 234.18 125.819 234.01C125.644 233.84 125.506 233.636 125.414 233.409C125.183 232.949 125.09 232.432 125.146 231.92C125.204 231.534 125.403 231.183 125.706 230.935C125.963 230.709 126.251 230.521 126.562 230.376L126.489 230.544C126.261 229.85 126.314 229.095 126.635 228.439C126.901 227.947 127.26 227.512 127.693 227.157C127.97 226.926 128.266 226.718 128.577 226.536C128.684 226.459 128.803 226.4 128.93 226.362C128.958 226.401 128.476 226.681 127.81 227.286C127.417 227.645 127.091 228.072 126.847 228.545C126.571 229.15 126.539 229.838 126.758 230.465L126.791 230.572L126.685 230.628C126.159 230.902 125.526 231.305 125.465 231.965C125.418 232.421 125.5 232.88 125.7 233.292C125.774 233.485 125.888 233.661 126.035 233.808C126.181 233.954 126.357 234.068 126.551 234.143C126.908 234.274 127.291 234.323 127.67 234.288C128.014 234.226 128.354 234.146 128.689 234.048C129.31 233.874 129.808 233.7 130.144 233.577C130.312 233.495 130.489 233.432 130.67 233.387Z" fill="#6EADEB"/>
<path d="M174.039 120.158C172.824 108.034 170.255 95.9658 170.787 83.7747L160.818 89.999C161.316 94.8239 156.978 98.5629 154.465 102.705C152.961 105.235 152.079 108.087 151.891 111.024C151.703 113.962 152.215 116.902 153.385 119.604C154.28 121.619 155.551 123.522 155.881 125.705C156.441 129.388 154.163 133.132 155.002 136.765C155.965 140.946 161.081 143.241 165.206 142.066C169.332 140.89 172.287 137.028 173.502 132.936C174.716 128.845 174.464 124.428 174.039 120.158Z" fill="#263238"/>
<path d="M161.355 87.9502C161.906 84.992 163.234 82.2336 165.203 79.9577C167.172 77.6818 169.71 75.9703 172.558 74.9986C175.406 74.0268 178.461 73.8298 181.411 74.4277C184.36 75.0256 187.097 76.3969 189.342 78.4011C191.161 80.0299 192.65 82.0618 194.754 83.2988C197.133 84.6926 197.441 84.2224 200.061 85.0676C202.68 85.9128 207.813 92.7528 207.897 95.5067L209.934 107.485C210.002 110.312 206.475 112.131 203.744 111.403C201.012 110.676 199.087 108.263 197.519 105.901C195.952 103.539 194.463 100.981 192.051 99.4976C188.049 97.0404 182.91 98.2942 178.376 99.4976C173.843 100.701 168.575 101.737 164.803 98.9379C161.579 96.503 160.616 91.9132 161.355 87.9502Z" fill="#263238"/>
<path d="M159.911 105.302C159.911 97.421 164.551 87.4744 172.421 87.8326L197.217 92.5345C198.372 92.5855 199.465 93.0684 200.279 93.8875C201.094 94.7065 201.572 95.8019 201.617 96.9564L202.552 156.009H202.72C202.72 156.009 194.105 177.671 177.649 173.607C174.386 172.801 176.798 164.679 175.936 161.119L175.774 161.153C175.74 160.722 175.712 160.324 175.679 159.916C175.197 157.252 174.996 154.545 175.08 151.839C174.738 147.087 174.621 145.122 174.621 145.183C174.621 145.245 164.489 144.12 161.624 131.162C160.202 124.747 159.883 114.062 159.911 105.302Z" fill="#FFBE9D"/>
<path d="M164.288 115.613C164.31 116.05 164.502 116.462 164.823 116.76C165.144 117.058 165.569 117.219 166.007 117.208C166.221 117.212 166.435 117.174 166.634 117.094C166.834 117.015 167.015 116.896 167.168 116.745C167.321 116.595 167.442 116.415 167.524 116.216C167.607 116.018 167.648 115.805 167.647 115.59C167.625 115.153 167.433 114.741 167.112 114.443C166.791 114.145 166.366 113.984 165.928 113.995C165.713 113.99 165.5 114.029 165.3 114.108C165.101 114.188 164.919 114.306 164.766 114.457C164.614 114.608 164.492 114.788 164.41 114.986C164.328 115.185 164.287 115.398 164.288 115.613Z" fill="#263238"/>
<path d="M162.559 110.715C162.777 110.922 163.992 109.903 165.8 109.802C167.608 109.702 168.984 110.519 169.158 110.289C169.253 110.183 169.012 109.802 168.414 109.416C167.599 108.92 166.65 108.69 165.699 108.756C164.769 108.822 163.883 109.181 163.169 109.78C162.609 110.217 162.447 110.625 162.559 110.715Z" fill="#263238"/>
<path d="M180.576 114.7C180.598 115.138 180.79 115.549 181.111 115.847C181.432 116.145 181.857 116.306 182.295 116.295C182.509 116.3 182.723 116.261 182.922 116.182C183.122 116.103 183.303 115.984 183.456 115.833C183.609 115.682 183.73 115.502 183.812 115.304C183.895 115.105 183.936 114.893 183.935 114.678C183.913 114.237 183.719 113.823 183.394 113.525C183.069 113.226 182.64 113.067 182.199 113.083C181.986 113.08 181.775 113.121 181.577 113.201C181.379 113.281 181.2 113.4 181.049 113.551C180.898 113.702 180.778 113.881 180.697 114.078C180.616 114.275 180.575 114.487 180.576 114.7Z" fill="#263238"/>
<path d="M180.33 109.987C180.549 110.189 181.763 109.176 183.571 109.069C185.379 108.963 186.756 109.791 186.93 109.556C187.019 109.45 186.79 109.069 186.185 108.683C185.37 108.19 184.422 107.959 183.471 108.023C182.532 108.079 181.635 108.43 180.907 109.024C180.386 109.483 180.218 109.892 180.33 109.987Z" fill="#263238"/>
<path d="M174.582 123.774C174.582 123.667 173.462 123.544 171.615 123.421C171.151 123.421 170.708 123.331 170.613 123.024C170.546 122.549 170.624 122.065 170.837 121.635C171.207 120.516 171.587 119.301 171.99 118.047C173.585 112.931 174.705 108.739 174.498 108.677C174.291 108.616 172.819 112.708 171.24 117.818L170.149 121.434C169.89 122.006 169.845 122.651 170.02 123.253C170.096 123.413 170.208 123.553 170.346 123.663C170.485 123.772 170.647 123.849 170.82 123.886C171.08 123.94 171.345 123.96 171.61 123.947C173.446 123.936 174.582 123.874 174.582 123.774Z" fill="#263238"/>
<path d="M174.621 145.217C180.787 144.938 186.755 142.954 191.861 139.485C191.861 139.485 187.987 148.861 174.822 148.441L174.621 145.217Z" fill="#6EADEB"/>
<path d="M175.606 128.078C175.923 127.624 176.35 127.259 176.848 127.017C177.346 126.775 177.897 126.664 178.449 126.695C178.85 126.705 179.244 126.797 179.608 126.964C179.972 127.132 180.297 127.372 180.565 127.669C180.825 127.955 180.991 128.315 181.04 128.698C181.089 129.081 181.019 129.471 180.84 129.813C180.569 130.155 180.204 130.408 179.789 130.541C179.374 130.673 178.929 130.679 178.511 130.557C177.639 130.307 176.827 129.885 176.121 129.315C175.904 129.184 175.714 129.013 175.561 128.811C175.489 128.716 175.446 128.601 175.44 128.481C175.433 128.362 175.461 128.243 175.522 128.139" fill="#6EADEB"/>
<path d="M179.961 124.703C179.664 124.703 179.776 126.662 178.186 128.151C176.597 129.64 174.492 129.556 174.492 129.83C174.492 129.953 174.979 130.182 175.864 130.155C177.013 130.102 178.107 129.647 178.953 128.867C179.765 128.118 180.253 127.082 180.313 125.979C180.353 125.156 180.101 124.68 179.961 124.703Z" fill="#263238"/>
<path d="M179.463 103.142C179.67 103.623 181.461 103.281 183.593 103.41C185.726 103.539 187.478 104.009 187.73 103.55C187.842 103.332 187.517 102.89 186.801 102.431C185.843 101.903 184.778 101.601 183.686 101.546C182.594 101.492 181.503 101.687 180.498 102.117C179.742 102.503 179.401 102.912 179.463 103.142Z" fill="#263238"/>
<path d="M162.905 105.448C163.247 105.839 164.467 105.341 165.962 105.229C167.456 105.117 168.76 105.341 169.007 104.894C169.124 104.675 168.9 104.278 168.318 103.925C167.547 103.502 166.668 103.319 165.792 103.399C164.917 103.478 164.085 103.818 163.404 104.373C162.9 104.826 162.754 105.257 162.905 105.448Z" fill="#263238"/>
<path d="M172.645 84.463L173.664 82.9741C181.275 83.3686 188.798 84.7959 196.025 87.2169C198.913 88.1853 201.846 89.3775 203.918 91.6109C206.772 94.6782 207.472 99.1114 208.032 103.265C210.17 119.066 212.14 135.36 208.088 150.786C206.767 148.928 204.36 148.206 202.098 147.909C199.837 147.613 197.481 147.624 195.382 146.712C194.242 146.189 193.223 145.435 192.392 144.496C191.562 143.557 190.936 142.455 190.557 141.26C189.809 138.848 189.934 136.25 190.909 133.921C191.967 131.33 193.977 128.766 193.277 126.085C192.544 123.247 189.146 121.809 188.194 119.038C186.554 114.247 193.12 109.444 191.435 104.67C190.808 102.906 189.163 101.697 187.439 100.97C185.715 100.242 183.857 99.8894 182.116 99.2121C179.221 98.0131 176.763 95.9575 175.07 93.3212C173.377 90.6849 172.531 87.594 172.645 84.463Z" fill="#263238"/>
<path d="M211.368 92.2713C203.229 80.8639 197.716 79.4813 190.059 79.0559L200.694 102.901C202.289 106.741 204.483 111.398 204.825 115.534C205.228 120.443 203.526 124.551 201.248 128.912C198.516 134.151 195.516 139.144 190.82 142.726C186.124 146.308 175.668 150.814 170.238 148.491L177.812 152.729L195.902 152.796L216.976 152.88C216.976 152.88 219.439 150.719 221.605 145.144C227.04 131.179 220.447 104.994 211.368 92.2713Z" fill="#5EAFFF"/>
<path d="M226.374 166.571C226.374 166.571 221.841 157.268 215.924 152.152C210.008 147.036 206.375 147.087 197.934 147.803C189.493 148.52 177.683 149.852 174.884 149.141L174.621 145.223C173.233 145.083 167.54 142.312 166.432 140.638C164.316 142.805 163.393 145.116 163.874 147.574L162.492 148.094C160.452 148.84 158.759 150.311 157.734 152.226C156.71 154.142 156.427 156.367 156.939 158.477C157.465 160.492 158.736 161.729 161.288 162.172C171.419 163.924 198.505 156.602 206.66 156.574C214.816 156.546 226.374 166.571 226.374 166.571Z" fill="#5EAFFF"/>
<path d="M160.37 162.065C160.608 162.058 160.846 162.071 161.081 162.104C161.54 162.149 162.2 162.222 163.09 162.283C165.56 162.476 168.038 162.517 170.513 162.407C174.178 162.218 177.822 161.724 181.405 160.929C183.431 160.487 185.542 159.949 187.708 159.322L194.391 157.257C198.975 155.863 203.571 154.912 207.774 155.326C211.478 155.665 215.062 156.811 218.275 158.684C220.432 159.948 222.382 161.536 224.057 163.392C224.512 163.893 224.938 164.42 225.333 164.97C225.48 165.146 225.613 165.334 225.731 165.53C225.554 165.373 225.396 165.197 225.261 165.004C224.975 164.64 224.522 164.131 223.923 163.492C219.651 159.018 213.897 156.253 207.735 155.712C203.615 155.331 199.093 156.272 194.525 157.66C192.236 158.348 190.014 159.082 187.836 159.714C185.659 160.347 183.538 160.873 181.495 161.304C177.885 162.087 174.214 162.552 170.524 162.692C168.037 162.775 165.548 162.684 163.074 162.418C162.2 162.328 161.523 162.227 161.07 162.155C160.834 162.145 160.6 162.115 160.37 162.065Z" fill="#263238"/>
<path d="M226.861 163.515C216.641 150.227 197.044 145.15 181.651 151.8L165.419 155.242C161.137 155.981 154.269 157.375 153.944 161.343C153.648 165.546 154.563 169.746 156.581 173.445C160.353 180.016 158.305 188.821 162.077 195.392C163.857 198.499 165.676 201.65 168.274 204.118C170.871 206.587 174.397 208.316 177.957 207.93C181.92 207.505 185.166 204.611 187.685 201.521C193.109 194.866 196.496 186.783 201.572 179.865C206.649 172.946 212.638 167.853 223.307 167.198C225.244 167.075 230.768 169.655 230.768 169.655C230.925 168.872 227.348 164.136 226.861 163.515Z" fill="#5EAFFF"/>
<g opacity="0.3">
<path d="M205.014 155.611C197.956 155.611 191.021 159.003 184.181 160.515C156.664 166.571 156.664 156.194 156.664 156.194C155.802 161.069 160.381 163.308 165.2 164.427C174.402 166.554 184.231 167.696 190.87 165.575C196.221 163.896 201.807 162.647 207.209 161.097C212.61 159.546 220.39 160.14 224.482 163.979C220.821 157.962 212.073 155.595 205.014 155.611Z" fill="black"/>
</g>
<g opacity="0.3">
<path d="M169.253 154.867C169.582 155.588 170.062 156.229 170.661 156.748C171.26 157.266 171.963 157.65 172.723 157.873C174.248 158.312 175.843 158.449 177.42 158.276C183.174 157.884 188.704 155.964 194.15 154.061C189.795 153.91 185.581 155.427 181.31 156.3C177.039 157.173 172.225 157.229 168.755 154.621" fill="black"/>
</g>
<path d="M228.244 167.775C228.244 167.775 228.193 167.735 228.115 167.651L227.774 167.26C227.477 166.907 227.023 166.414 226.425 165.787C224.738 164.014 222.7 162.613 220.441 161.673C218.864 161.078 217.208 160.72 215.526 160.61C213.598 160.454 211.659 160.516 209.744 160.795C205.681 161.354 201.387 162.782 196.831 164.08C192.275 165.379 187.926 166.733 183.789 166.952C180.143 167.109 176.49 166.848 172.902 166.174C169.846 165.614 167.411 164.965 165.727 164.545L163.79 164.052L163.292 163.918L163.118 163.862C163.178 163.853 163.238 163.853 163.297 163.862L163.807 163.968L165.755 164.411C167.434 164.797 169.885 165.407 172.942 165.944C176.513 166.589 180.147 166.83 183.772 166.661C187.864 166.431 192.219 165.138 196.753 163.778C201.287 162.418 205.608 161.046 209.705 160.504C211.641 160.23 213.601 160.178 215.549 160.347C217.637 160.467 219.681 161.001 221.562 161.917C223.442 162.834 225.122 164.115 226.503 165.687C227.096 166.33 227.538 166.834 227.818 167.198L228.137 167.607L228.244 167.775Z" fill="black"/>
<path d="M217.967 154.083C217.924 154.056 217.885 154.024 217.849 153.988L217.525 153.692C217.25 153.423 216.819 153.048 216.26 152.572C214.647 151.269 212.88 150.171 210.998 149.303C208.205 148.023 205.235 147.17 202.188 146.773C198.453 146.309 194.675 146.319 190.943 146.801C187.207 147.295 183.5 147.986 179.837 148.872C178.219 149.252 176.553 149.384 174.895 149.264C173.437 149.155 172.037 148.648 170.848 147.797C169.894 147.073 169.078 146.182 168.441 145.167C167.96 144.409 167.543 143.614 167.193 142.788C166.907 142.111 166.717 141.568 166.594 141.198L166.465 140.778C166.447 140.732 166.435 140.683 166.432 140.633C166.432 140.633 166.46 140.678 166.493 140.767C166.527 140.857 166.588 141.013 166.65 141.181C166.79 141.54 166.997 142.071 167.299 142.743C167.665 143.553 168.093 144.334 168.581 145.077C169.219 146.064 170.028 146.928 170.971 147.63C172.137 148.444 173.504 148.926 174.923 149.023C176.554 149.129 178.192 148.99 179.781 148.609C183.449 147.705 187.164 147.006 190.909 146.516C194.666 146.031 198.47 146.031 202.227 146.516C205.296 146.932 208.284 147.813 211.088 149.13C212.975 150.014 214.739 151.144 216.332 152.488C216.764 152.855 217.177 153.243 217.569 153.652L217.872 153.966C217.939 154.044 217.972 154.078 217.967 154.083Z" fill="black"/>
<path d="M214.664 153.809H214.524L214.11 153.742L212.515 153.479C210.56 153.178 208.591 152.978 206.615 152.88C203.683 152.736 200.744 152.829 197.827 153.16C194.259 153.639 190.722 154.332 187.237 155.236C183.521 156.132 179.905 156.916 176.552 156.865C174.969 156.875 173.392 156.687 171.856 156.305C170.516 155.927 169.277 155.256 168.228 154.341C166.723 153.025 165.501 151.418 164.635 149.617C164.306 148.964 164.045 148.28 163.857 147.573C163.884 147.613 163.904 147.657 163.918 147.702L164.07 148.094C164.21 148.441 164.422 148.939 164.736 149.561C165.631 151.324 166.863 152.895 168.363 154.184C169.396 155.064 170.609 155.708 171.917 156.07C173.434 156.439 174.991 156.618 176.552 156.602C179.865 156.602 183.453 155.858 187.187 154.956C190.685 154.045 194.237 153.354 197.822 152.885C200.753 152.57 203.706 152.497 206.649 152.667C208.631 152.782 210.604 153.012 212.56 153.356C213.254 153.484 213.786 153.591 214.149 153.675L214.558 153.77C214.625 153.787 214.664 153.803 214.664 153.809Z" fill="black"/>
<path d="M215.18 128.688C215.13 129.006 215.059 129.32 214.967 129.628C214.88 129.996 214.771 130.359 214.642 130.714C214.497 131.134 214.357 131.615 214.133 132.125C213.909 132.634 213.691 133.205 213.394 133.804C213.097 134.403 212.767 135.002 212.403 135.646C210.769 138.397 208.642 140.824 206.129 142.805C205.541 143.252 205.009 143.683 204.449 144.03C203.89 144.377 203.386 144.708 202.899 144.982C202.412 145.256 201.964 145.48 201.572 145.676C201.237 145.852 200.891 146.007 200.537 146.141C200.245 146.275 199.944 146.387 199.636 146.476C199.909 146.308 200.195 146.162 200.492 146.04C200.772 145.911 201.113 145.749 201.5 145.531C201.886 145.312 202.334 145.105 202.798 144.803C203.263 144.501 203.789 144.21 204.315 143.829C204.841 143.448 205.395 143.04 205.994 142.597C208.46 140.608 210.562 138.207 212.207 135.5C212.571 134.868 212.93 134.274 213.209 133.692C213.489 133.11 213.769 132.573 213.976 132.058C214.183 131.543 214.362 131.084 214.536 130.675C214.709 130.266 214.81 129.903 214.9 129.612C214.967 129.296 215.06 128.987 215.18 128.688Z" fill="black"/>
<path d="M214.334 162.054C214.182 162.054 214.03 162.041 213.881 162.015L213.321 161.942C213.108 161.914 212.856 161.942 212.582 161.903C210.999 161.865 209.422 162.109 207.925 162.625C206.893 162.979 205.888 163.41 204.919 163.912C203.81 164.497 202.732 165.14 201.69 165.838C199.484 167.31 197.178 169.112 194.704 170.931L182.076 180.307L178.22 183.106L177.162 183.833C177.044 183.929 176.917 184.011 176.781 184.08C176.888 183.975 177.002 183.877 177.123 183.789L178.147 182.994L181.948 180.111L194.542 170.696C197.016 168.883 199.322 167.08 201.555 165.614C202.608 164.916 203.697 164.275 204.819 163.694C205.805 163.197 206.826 162.775 207.875 162.429C209.396 161.925 210.998 161.709 212.599 161.791C212.879 161.791 213.131 161.819 213.343 161.852L213.903 161.953C214.049 161.974 214.194 162.008 214.334 162.054Z" fill="black"/>
<path d="M232.397 179.216C232.288 178.961 232.206 178.697 232.151 178.426C232.016 177.917 231.826 177.173 231.557 176.266C231.255 175.202 230.872 174.164 230.41 173.159C229.849 171.937 229.082 170.82 228.143 169.857C227.209 168.89 226.04 168.183 224.751 167.803C223.69 167.518 222.588 167.422 221.493 167.517C220.48 167.631 219.475 167.803 218.482 168.032C218.542 167.992 218.608 167.962 218.678 167.942C218.812 167.892 219.008 167.825 219.238 167.752C219.968 167.535 220.718 167.389 221.477 167.316C222.601 167.184 223.739 167.262 224.835 167.545C226.175 167.924 227.391 168.65 228.361 169.65C229.325 170.637 230.106 171.787 230.667 173.047C231.126 174.069 231.501 175.127 231.787 176.21C232.028 177.128 232.19 177.889 232.291 178.404C232.349 178.671 232.385 178.942 232.397 179.216Z" fill="black"/>
<path d="M222.467 74.7474C233.472 74.2361 241.98 64.8997 241.468 53.8941C240.957 42.8884 231.621 34.381 220.615 34.8923C209.609 35.4036 201.102 44.74 201.613 55.7457C202.125 66.7514 211.461 75.2588 222.467 74.7474Z" fill="white"/>
<path d="M210.444 77.8751C210.628 77.8232 210.815 77.7802 211.004 77.7464C211.542 77.6796 212.088 77.7833 212.565 78.043C212.893 78.2137 213.18 78.4545 213.405 78.7483C213.654 79.0898 213.8 79.4959 213.825 79.9181C213.877 80.4037 213.78 80.8936 213.545 81.3221C213.311 81.7505 212.951 82.0969 212.514 82.3146C212.076 82.5322 211.583 82.6107 211.1 82.5396C210.617 82.4684 210.167 82.2509 209.811 81.9164C209.491 81.6424 209.254 81.2835 209.128 80.8809C209.025 80.5169 209.004 80.1345 209.067 79.7614C209.149 79.2243 209.396 78.7258 209.772 78.3341C210.041 78.0598 210.237 77.9647 210.225 77.9479C210.176 77.963 210.129 77.9857 210.086 78.015C210.029 78.0442 209.975 78.0779 209.923 78.1158C209.853 78.1678 209.786 78.2239 209.722 78.2837C209.376 78.6138 209.126 79.0303 208.996 79.4899C208.866 79.9496 208.861 80.4357 208.983 80.8977C209.107 81.3329 209.356 81.7222 209.699 82.0171C210.073 82.3495 210.533 82.5705 211.026 82.6552C211.557 82.7672 212.11 82.6966 212.596 82.4548C213.081 82.213 213.471 81.8142 213.701 81.3231C213.929 80.8775 214.03 80.3779 213.993 79.879C213.962 79.4266 213.801 78.9929 213.528 78.6307C213.289 78.319 212.981 78.0678 212.627 77.8975C212.124 77.6377 211.55 77.5492 210.992 77.6456C210.907 77.6582 210.822 77.6788 210.74 77.7072C210.677 77.7234 210.615 77.7459 210.556 77.7743C210.489 77.8359 210.438 77.8751 210.444 77.8751Z" fill="#263238"/>
<path d="M204.93 66.1707L204.768 65.8853L204.275 65.0681C204.169 64.8833 204.046 64.6818 203.911 64.4635C203.777 64.2452 203.676 63.9766 203.542 63.6967C203.408 63.4168 203.268 63.137 203.117 62.8011C203.034 62.639 202.965 62.4706 202.909 62.2974C202.848 62.1182 202.781 61.9391 202.713 61.7376C202.036 59.922 201.637 58.0139 201.532 56.0787C201.378 53.5156 201.716 50.9466 202.529 48.511L202.881 47.4923C203.021 47.1508 203.184 46.8206 203.335 46.4792C203.408 46.3112 203.486 46.1433 203.564 45.9698C203.635 45.7948 203.722 45.6262 203.822 45.466L204.382 44.4641C204.477 44.2962 204.572 44.1283 204.673 43.9603L205.02 43.479L205.719 42.505C205.96 42.186 206.245 41.8893 206.514 41.5759L206.923 41.1113C206.99 41.0385 207.057 40.9545 207.13 40.8818L207.359 40.6691C207.96 40.0658 208.601 39.5047 209.279 38.9899C209.626 38.738 209.962 38.4301 210.332 38.2118L211.451 37.5233C211.641 37.4114 211.826 37.2827 212.011 37.1819L212.621 36.8908C213.029 36.7005 213.432 36.4878 213.852 36.3311C214.716 35.9877 215.6 35.6998 216.5 35.4691L217.183 35.2956L217.53 35.2116L217.882 35.1613L219.299 34.9485C219.78 34.8982 220.261 34.887 220.748 34.859C220.989 34.859 221.235 34.8198 221.482 34.859L222.215 34.8926C223.208 34.9289 224.197 35.0318 225.176 35.2004L226.648 35.5531L227.017 35.6426C227.14 35.6762 227.258 35.721 227.381 35.7602L228.103 36.0121L228.831 36.2583L229.536 36.5718L230.241 36.8964L230.594 37.0532C230.712 37.1147 230.818 37.1819 230.935 37.2491L232.29 38.0271L233.577 38.9451C237.032 41.534 239.548 45.1796 240.742 49.3282C240.876 49.8376 241.005 50.3525 241.134 50.8563L241.369 52.4068L241.425 52.793V53.1792L241.464 53.9517L241.503 54.7241L241.47 55.4909L241.436 56.2578V56.6384L241.386 57.0134C241.313 57.5172 241.246 58.0154 241.179 58.5135C240.98 59.4891 240.717 60.4503 240.389 61.3906L240.154 62.0847C240.076 62.3197 239.958 62.5324 239.863 62.7563C239.656 63.1985 239.477 63.6463 239.253 64.0717C239.029 64.4971 238.777 64.9057 238.542 65.3199L238.363 65.6278C238.296 65.7285 238.223 65.8237 238.156 65.9189L237.748 66.4786C237.207 67.2327 236.618 67.9506 235.984 68.628C235.665 68.9582 235.324 69.2549 234.999 69.5684L234.501 70.0273C234.339 70.1785 234.148 70.3072 233.975 70.4415L232.923 71.2476C232.564 71.4995 232.178 71.7122 231.803 71.9416C231.085 72.389 230.337 72.7855 229.564 73.1283L229.284 73.2626L228.993 73.3746L228.433 73.5817C228.042 73.716 227.667 73.8783 227.28 73.9903L226.116 74.2869L225.556 74.4325L224.997 74.522L223.877 74.6956C223.692 74.728 223.505 74.7467 223.317 74.7515H222.758C222.388 74.7515 222.019 74.8019 221.638 74.8075L220.558 74.7627C217.993 74.6366 215.477 74.017 213.147 72.938C212.89 72.8204 212.632 72.7141 212.386 72.5965L211.692 72.1935L211.02 71.8129C210.908 71.7457 210.796 71.6898 210.695 71.6226L210.399 71.4099L209.279 70.6039C208.927 70.3352 208.624 70.0441 208.316 69.7867L207.88 69.406C207.74 69.2896 207.607 69.1644 207.482 69.031L206.727 68.3593C206.52 68.1354 206.318 67.9339 206.167 67.738L205.736 67.1783L205.176 66.4226C205.048 66.2547 204.975 66.1707 204.975 66.1707L205.165 66.4338C205.294 66.6129 205.484 66.8648 205.725 67.2007L206.145 67.7604C206.313 67.9619 206.514 68.1634 206.704 68.3873L207.376 69.1206C207.499 69.2572 207.632 69.3844 207.774 69.5012L208.21 69.8874C208.512 70.1449 208.815 70.4471 209.167 70.7102L210.287 71.5274L210.583 71.7401C210.69 71.8129 210.802 71.8689 210.908 71.936L211.58 72.3223L212.279 72.7309L213.041 73.0779C215.381 74.1731 217.911 74.8042 220.491 74.9362L221.577 74.9866C221.941 74.9866 222.316 74.953 222.696 74.9362L223.256 74.9027C223.444 74.9019 223.631 74.8851 223.816 74.8523L224.963 74.6788L225.523 74.5892L226.083 74.4437L227.258 74.147C227.644 74.0351 228.025 73.8783 228.417 73.744L229.004 73.5313C229.1 73.4921 229.2 73.4641 229.295 73.4193L229.581 73.285C230.367 72.94 231.128 72.5416 231.859 72.0928C232.228 71.8633 232.615 71.6506 232.979 71.3987L234.042 70.5871C234.221 70.4471 234.406 70.324 234.602 70.1729L235.1 69.7083C235.425 69.3948 235.777 69.0926 236.096 68.7623C236.736 68.0794 237.33 67.3559 237.876 66.5961C238.011 66.4002 238.151 66.2099 238.29 66.0364C238.358 65.9413 238.43 65.8461 238.498 65.7453L238.677 65.4319L239.399 64.1781C239.623 63.7471 239.807 63.2937 240.014 62.8515C240.11 62.622 240.233 62.4037 240.311 62.1742L240.546 61.4689C240.878 60.522 241.143 59.5532 241.341 58.5695C241.414 58.0713 241.487 57.562 241.554 57.0582L241.61 56.6776V56.2914L241.643 55.5245L241.677 54.7465L241.638 53.9685L241.593 53.1904V52.793L241.531 52.4068L241.296 50.8451C241.167 50.3302 241.039 49.8152 240.904 49.3002C239.723 45.1028 237.199 41.4084 233.717 38.7828L232.419 37.8536L231.047 37.07C230.935 37.0028 230.824 36.9356 230.706 36.874L230.348 36.7117L229.637 36.3871L228.926 36.0736L228.193 35.8217L227.46 35.5699L227.096 35.4467L226.721 35.3628C226.228 35.2396 225.73 35.1221 225.237 35.0101C224.249 34.8368 223.251 34.7321 222.248 34.6967L221.51 34.6631C221.263 34.6631 221.017 34.6631 220.771 34.6631C220.278 34.6967 219.791 34.7023 219.31 34.7526L217.877 34.9709L217.524 35.0269C217.407 35.0269 217.289 35.0829 217.177 35.1109L216.483 35.29C215.577 35.5192 214.686 35.809 213.819 36.1576C213.393 36.3367 212.985 36.555 212.57 36.7453L211.96 37.042C211.759 37.1427 211.574 37.2715 211.401 37.389L210.281 38.0831C209.912 38.3294 209.57 38.6148 209.223 38.8723C208.54 39.3872 207.893 39.9482 207.287 40.5515L207.057 40.7698C206.984 40.8426 206.917 40.9266 206.85 41.0049C206.783 41.0833 206.576 41.3184 206.436 41.4695C206.167 41.7886 205.876 42.0852 205.641 42.4043L204.936 43.3894L204.589 43.8764C204.488 44.0443 204.393 44.2178 204.298 44.3857L203.738 45.3933C203.641 45.5561 203.556 45.7264 203.486 45.9026L203.251 46.4176C203.1 46.759 202.937 47.0949 202.803 47.4363C202.669 47.7778 202.568 48.1248 202.45 48.4662C201.638 50.9173 201.308 53.5021 201.476 56.0787C201.588 58.0234 201.998 59.9396 202.691 61.76L202.893 62.3197C202.948 62.493 203.017 62.6614 203.1 62.8235L203.536 63.7191C203.676 63.9934 203.788 64.2508 203.917 64.4803L204.286 65.0793L204.796 65.8909C204.863 66.0756 204.93 66.1707 204.93 66.1707Z" fill="#263238"/>
<path d="M211.468 55.3232L214.423 52.3678L220.121 57.4334L231.305 46.6697L234.048 49.6251L219.702 63.1316L211.468 55.3232Z" fill="#5EAFFF"/>
</svg>
