<svg width="186" height="217" viewBox="0 0 186 217" fill="none" xmlns="http://www.w3.org/2000/svg">
<g filter="url(#filter0_d_237_2306)">
<rect x="12.5873" y="12" width="152.825" height="184.921" rx="16.0952" fill="white" shape-rendering="crispEdges"/>
<path d="M81.7727 35.6854C81.7045 35.1097 81.428 34.6627 80.9432 34.3445C80.4583 34.0263 79.8636 33.8672 79.1591 33.8672C78.6439 33.8672 78.1932 33.9506 77.8068 34.1172C77.4242 34.2839 77.125 34.5131 76.9091 34.8047C76.697 35.0964 76.5909 35.4278 76.5909 35.7991C76.5909 36.1097 76.6648 36.3767 76.8125 36.6002C76.964 36.8199 77.1572 37.0036 77.392 37.1513C77.6269 37.2953 77.8731 37.4146 78.1307 37.5093C78.3883 37.6002 78.625 37.6741 78.8409 37.7309L80.0227 38.0491C80.3258 38.1286 80.6629 38.2384 81.0341 38.3786C81.4091 38.5187 81.767 38.71 82.108 38.9525C82.4527 39.1911 82.7367 39.4979 82.9602 39.8729C83.1837 40.2479 83.2955 40.7081 83.2955 41.2536C83.2955 41.8824 83.1307 42.4506 82.8011 42.9581C82.4754 43.4657 81.9981 43.8691 81.3693 44.1684C80.7443 44.4676 79.9848 44.6172 79.0909 44.6172C78.2576 44.6172 77.536 44.4828 76.9261 44.2138C76.3201 43.9449 75.8428 43.5699 75.4943 43.0888C75.1496 42.6078 74.9545 42.0491 74.9091 41.4127H76.3636C76.4015 41.8521 76.5492 42.2157 76.8068 42.5036C77.0682 42.7877 77.3977 42.9998 77.7955 43.14C78.197 43.2763 78.6288 43.3445 79.0909 43.3445C79.6288 43.3445 80.1117 43.2574 80.5398 43.0831C80.9678 42.9051 81.3068 42.6589 81.5568 42.3445C81.8068 42.0263 81.9318 41.6551 81.9318 41.2309C81.9318 40.8445 81.8239 40.5301 81.608 40.2877C81.392 40.0453 81.108 39.8483 80.7557 39.6968C80.4034 39.5453 80.0227 39.4127 79.6136 39.2991L78.1818 38.89C77.2727 38.6286 76.553 38.2555 76.0227 37.7706C75.4924 37.2858 75.2273 36.6513 75.2273 35.8672C75.2273 35.2157 75.4034 34.6475 75.7557 34.1627C76.1117 33.6741 76.589 33.2953 77.1875 33.0263C77.7898 32.7536 78.4621 32.6172 79.2045 32.6172C79.9545 32.6172 80.6212 32.7517 81.2045 33.0206C81.7879 33.2858 82.25 33.6494 82.5909 34.1116C82.9356 34.5737 83.1174 35.0983 83.1364 35.6854H81.7727ZM85.9322 44.4127V32.7763H92.9549V34.0263H87.3413V37.9581H92.5913V39.2081H87.3413V43.1627H93.0459V44.4127H85.9322ZM95.8147 44.4127V32.7763H97.2238V43.1627H102.633V44.4127H95.8147Z" fill="#333333"/>
<path d="M42.9148 79.4127V76.7536L49.1278 71.0008C49.6563 70.4894 50.0994 70.0292 50.4574 69.6201C50.821 69.211 51.0966 68.8104 51.2841 68.4184C51.4716 68.0206 51.5653 67.5917 51.5653 67.1314C51.5653 66.6201 51.4489 66.1797 51.2159 65.8104C50.983 65.4354 50.6648 65.1485 50.2614 64.9496C49.858 64.7451 49.4006 64.6428 48.8892 64.6428C48.3551 64.6428 47.8892 64.7508 47.4915 64.9667C47.0938 65.1826 46.7869 65.4922 46.571 65.8956C46.3551 66.2991 46.2472 66.7792 46.2472 67.336H42.7443C42.7443 66.1939 43.0028 65.2025 43.5199 64.3616C44.0369 63.5206 44.7614 62.8701 45.6932 62.4098C46.625 61.9496 47.6989 61.7195 48.9148 61.7195C50.1648 61.7195 51.2528 61.9411 52.179 62.3843C53.1108 62.8218 53.8352 63.4297 54.3523 64.2081C54.8693 64.9866 55.1278 65.8786 55.1278 66.8843C55.1278 67.5434 54.9972 68.1939 54.7358 68.836C54.4801 69.478 54.0227 70.1911 53.3636 70.9752C52.7045 71.7536 51.7756 72.6883 50.5767 73.7792L48.0284 76.2763V76.3956H55.358V79.4127H42.9148ZM65.2108 79.6513C64.3131 79.6456 63.4466 79.4951 62.6114 79.1996C61.7818 78.9042 61.0375 78.4241 60.3784 77.7593C59.7193 77.0945 59.1966 76.2138 58.8103 75.1172C58.4296 74.0206 58.2392 72.6741 58.2392 71.0775C58.2449 69.6116 58.4125 68.3019 58.7421 67.1485C59.0773 65.9894 59.5546 65.0064 60.1739 64.1996C60.7989 63.3928 61.5461 62.7792 62.4154 62.3587C63.2847 61.9326 64.2591 61.7195 65.3387 61.7195C66.5034 61.7195 67.5318 61.9468 68.4239 62.4013C69.3159 62.8502 70.0318 63.461 70.5716 64.2337C71.1171 65.0064 71.4466 65.8729 71.5603 66.8331H67.9211C67.779 66.2252 67.4807 65.7479 67.0262 65.4013C66.5716 65.0547 66.0091 64.8814 65.3387 64.8814C64.2023 64.8814 63.3387 65.3758 62.7478 66.3644C62.1625 67.353 61.8642 68.6968 61.8529 70.3956H61.9722C62.2336 69.8786 62.5858 69.4383 63.029 69.0746C63.4779 68.7053 63.9864 68.4241 64.5546 68.2309C65.1284 68.032 65.7336 67.9326 66.3699 67.9326C67.404 67.9326 68.3245 68.1769 69.1313 68.6655C69.9381 69.1485 70.5745 69.8133 71.0404 70.6598C71.5063 71.5064 71.7392 72.4752 71.7392 73.5661C71.7392 74.7479 71.4637 75.7991 70.9125 76.7195C70.3671 77.64 69.6029 78.3616 68.6199 78.8843C67.6426 79.4013 66.5063 79.657 65.2108 79.6513ZM65.1938 76.7536C65.762 76.7536 66.2705 76.6172 66.7193 76.3445C67.1682 76.0718 67.5205 75.7025 67.7762 75.2366C68.0318 74.7706 68.1597 74.2479 68.1597 73.6684C68.1597 73.0888 68.0318 72.5689 67.7762 72.1087C67.5262 71.6485 67.1796 71.282 66.7364 71.0093C66.2932 70.7366 65.7875 70.6002 65.2193 70.6002C64.7932 70.6002 64.3983 70.6797 64.0347 70.8388C63.6767 70.9979 63.3614 71.2195 63.0887 71.5036C62.8216 71.7877 62.6114 72.1172 62.458 72.4922C62.3046 72.8616 62.2279 73.2564 62.2279 73.6769C62.2279 74.2394 62.3557 74.7536 62.6114 75.2195C62.8728 75.6854 63.225 76.0576 63.6682 76.336C64.1171 76.6144 64.6256 76.7536 65.1938 76.7536ZM80.9727 61.9581H85.5238L90.3306 73.6854H90.5352L95.342 61.9581H99.8931V79.4127H96.3136V68.0519H96.1687L91.6516 79.3275H89.2141L84.6971 68.0093H84.5522V79.4127H80.9727V61.9581ZM106.422 79.4127H102.468L108.493 61.9581H113.249L119.266 79.4127H115.311L110.939 65.9468H110.803L106.422 79.4127ZM106.175 72.5519H115.516V75.4326H106.175V72.5519ZM121.847 79.4127V61.9581H128.733C130.051 61.9581 131.176 62.1939 132.108 62.6655C133.046 63.1314 133.759 63.7934 134.247 64.6513C134.742 65.5036 134.989 66.5064 134.989 67.6598C134.989 68.8189 134.739 69.8161 134.239 70.6513C133.739 71.4809 133.014 72.1172 132.065 72.5604C131.122 73.0036 129.98 73.2252 128.639 73.2252H124.029V70.2593H128.043C128.747 70.2593 129.333 70.1627 129.798 69.9695C130.264 69.7763 130.611 69.4866 130.838 69.1002C131.071 68.7138 131.188 68.2337 131.188 67.6598C131.188 67.0803 131.071 66.5917 130.838 66.1939C130.611 65.7962 130.262 65.4951 129.79 65.2905C129.324 65.0803 128.736 64.9752 128.026 64.9752H125.537V79.4127H121.847ZM131.273 71.4695L135.611 79.4127H131.537L127.293 71.4695H131.273Z" fill="#333333"/>
<path d="M139 147.46C139 134.2 133.732 121.482 124.355 112.105C114.979 102.728 102.261 97.4603 89 97.4603C75.7392 97.4603 63.0215 102.728 53.6447 112.105C44.2678 121.482 39 134.199 39 147.46H49.1934C49.1934 136.903 53.3873 126.778 60.8525 119.313C68.3177 111.848 78.4426 107.654 89 107.654C99.5574 107.654 109.682 111.848 117.148 119.313C124.613 126.778 128.807 136.903 128.807 147.46H139Z" fill="#FFAA29"/>
<path d="M139 147.46C139 136.454 135.368 125.754 128.668 117.022C121.967 108.29 112.573 102.013 101.941 99.164L99.3027 109.01C107.767 111.278 115.246 116.276 120.581 123.228C125.915 130.18 128.807 138.698 128.807 147.46H139Z" fill="#D9D9D9"/>
<path d="M72.0994 147.669C71.3139 147.664 70.5558 147.532 69.8249 147.274C69.0991 147.015 68.4478 146.595 67.8711 146.014C67.2944 145.432 66.837 144.661 66.4989 143.702C66.1658 142.742 65.9993 141.564 65.9993 140.167C66.0043 138.884 66.1509 137.738 66.4393 136.729C66.7326 135.715 67.1502 134.855 67.6921 134.149C68.239 133.443 68.8928 132.906 69.6534 132.538C70.4141 132.165 71.2667 131.979 72.2113 131.979C73.2305 131.979 74.1303 132.178 74.9109 132.575C75.6914 132.968 76.3178 133.503 76.7901 134.179C77.2674 134.855 77.5558 135.613 77.6552 136.453H74.4709C74.3466 135.921 74.0856 135.504 73.6879 135.2C73.2901 134.897 72.7979 134.745 72.2113 134.745C71.217 134.745 70.4613 135.178 69.9442 136.043C69.4322 136.908 69.1712 138.084 69.1612 139.57H69.2656C69.4943 139.118 69.8026 138.733 70.1903 138.415C70.5831 138.091 71.0281 137.845 71.5252 137.676C72.0273 137.502 72.5568 137.415 73.1136 137.415C74.0185 137.415 74.8239 137.629 75.5298 138.057C76.2358 138.479 76.7926 139.061 77.2003 139.802C77.608 140.542 77.8118 141.39 77.8118 142.345C77.8118 143.379 77.5707 144.298 77.0884 145.104C76.6112 145.909 75.9425 146.541 75.0824 146.998C74.2273 147.45 73.233 147.674 72.0994 147.669ZM72.0845 145.134C72.5817 145.134 73.0266 145.014 73.4194 144.776C73.8121 144.537 74.1204 144.214 74.3441 143.806C74.5678 143.399 74.6797 142.941 74.6797 142.434C74.6797 141.927 74.5678 141.472 74.3441 141.069C74.1254 140.667 73.8221 140.346 73.4343 140.107C73.0465 139.869 72.604 139.749 72.1069 139.749C71.734 139.749 71.3885 139.819 71.0703 139.958C70.7571 140.097 70.4812 140.291 70.2425 140.54C70.0089 140.788 69.8249 141.077 69.6907 141.405C69.5565 141.728 69.4893 142.074 69.4893 142.442C69.4893 142.934 69.6012 143.384 69.8249 143.791C70.0536 144.199 70.3619 144.525 70.7496 144.768C71.1424 145.012 71.5874 145.134 72.0845 145.134ZM86.5095 147.796C85.2268 147.791 84.1231 147.475 83.1984 146.849C82.2787 146.222 81.5702 145.315 81.0731 144.127C80.5809 142.939 80.3373 141.509 80.3422 139.839C80.3422 138.173 80.5883 136.754 81.0805 135.581C81.5777 134.407 82.2861 133.515 83.2059 132.904C84.1306 132.287 85.2318 131.979 86.5095 131.979C87.7872 131.979 88.8859 132.287 89.8057 132.904C90.7304 133.52 91.4413 134.415 91.9385 135.588C92.4356 136.756 92.6817 138.173 92.6767 139.839C92.6767 141.514 92.4282 142.946 91.931 144.134C91.4388 145.323 90.7329 146.23 89.8131 146.856C88.8934 147.483 87.7922 147.796 86.5095 147.796ZM86.5095 145.119C87.3845 145.119 88.083 144.679 88.605 143.799C89.127 142.919 89.3856 141.599 89.3806 139.839C89.3806 138.68 89.2613 137.716 89.0226 136.945C88.789 136.175 88.4559 135.596 88.0233 135.208C87.5958 134.82 87.0912 134.626 86.5095 134.626C85.6395 134.626 84.9434 135.061 84.4214 135.931C83.8994 136.801 83.6359 138.104 83.6309 139.839C83.6309 141.012 83.7478 141.992 83.9814 142.777C84.2201 143.558 84.5557 144.144 84.9882 144.537C85.4207 144.925 85.9278 145.119 86.5095 145.119ZM103.759 144.597V143.791C103.759 143.18 103.888 142.618 104.147 142.106C104.41 141.589 104.791 141.176 105.288 140.868C105.79 140.555 106.401 140.398 107.122 140.398C107.853 140.398 108.467 140.552 108.964 140.861C109.466 141.169 109.844 141.581 110.098 142.098C110.356 142.611 110.486 143.175 110.486 143.791V144.597C110.486 145.208 110.356 145.772 110.098 146.29C109.839 146.802 109.459 147.212 108.957 147.52C108.455 147.833 107.843 147.99 107.122 147.99C106.391 147.99 105.777 147.833 105.28 147.52C104.783 147.212 104.405 146.802 104.147 146.29C103.888 145.772 103.759 145.208 103.759 144.597ZM105.929 143.791V144.597C105.929 144.95 106.014 145.283 106.183 145.596C106.357 145.909 106.67 146.066 107.122 146.066C107.575 146.066 107.883 145.912 108.047 145.603C108.216 145.295 108.3 144.96 108.3 144.597V143.791C108.3 143.428 108.221 143.09 108.062 142.777C107.903 142.464 107.59 142.307 107.122 142.307C106.675 142.307 106.364 142.464 106.19 142.777C106.016 143.09 105.929 143.428 105.929 143.791ZM95.9212 135.857V135.051C95.9212 134.435 96.053 133.87 96.3165 133.358C96.58 132.841 96.9603 132.429 97.4575 132.12C97.9596 131.812 98.5661 131.658 99.2771 131.658C100.013 131.658 100.629 131.812 101.126 132.12C101.624 132.429 102.001 132.841 102.26 133.358C102.519 133.87 102.648 134.435 102.648 135.051V135.857C102.648 136.473 102.516 137.037 102.253 137.549C101.994 138.062 101.614 138.472 101.112 138.78C100.614 139.083 100.003 139.235 99.2771 139.235C98.5512 139.235 97.9372 139.081 97.4351 138.772C96.9379 138.459 96.5601 138.049 96.3016 137.542C96.048 137.03 95.9212 136.468 95.9212 135.857ZM98.1062 135.051V135.857C98.1062 136.22 98.1908 136.555 98.3598 136.863C98.5338 137.172 98.8396 137.326 99.2771 137.326C99.7344 137.326 100.045 137.172 100.209 136.863C100.378 136.555 100.463 136.22 100.463 135.857V135.051C100.463 134.688 100.383 134.35 100.224 134.037C100.065 133.724 99.7494 133.567 99.2771 133.567C98.8346 133.567 98.5288 133.726 98.3598 134.044C98.1908 134.363 98.1062 134.698 98.1062 135.051ZM96.9056 147.46L107.406 132.188H109.359L98.8594 147.46H96.9056Z" fill="#FFAA29"/>
<path opacity="0.6" d="M36.4716 169.781V178.508H35.4148V170.889H35.3636L33.233 172.303V171.23L35.4148 169.781H36.4716ZM42.0681 178.627C41.4261 178.627 40.8792 178.453 40.4275 178.103C39.9758 177.751 39.6306 177.241 39.392 176.573C39.1534 175.903 39.034 175.093 39.034 174.144C39.034 173.201 39.1534 172.396 39.392 171.728C39.6335 171.058 39.9801 170.546 40.4318 170.194C40.8863 169.839 41.4318 169.661 42.0681 169.661C42.7045 169.661 43.2485 169.839 43.7002 170.194C44.1548 170.546 44.5014 171.058 44.74 171.728C44.9815 172.396 45.1022 173.201 45.1022 174.144C45.1022 175.093 44.9829 175.903 44.7443 176.573C44.5056 177.241 44.1605 177.751 43.7087 178.103C43.257 178.453 42.7102 178.627 42.0681 178.627ZM42.0681 177.69C42.7045 177.69 43.1988 177.383 43.5511 176.769C43.9034 176.156 44.0795 175.281 44.0795 174.144C44.0795 173.389 43.9985 172.745 43.8366 172.214C43.6775 171.683 43.4474 171.278 43.1462 170.999C42.848 170.721 42.4886 170.582 42.0681 170.582C41.4374 170.582 40.9445 170.893 40.5894 171.515C40.2343 172.134 40.0568 173.011 40.0568 174.144C40.0568 174.9 40.1363 175.542 40.2954 176.07C40.4545 176.599 40.6832 177.001 40.9815 177.276C41.2826 177.552 41.6448 177.69 42.0681 177.69ZM54.0709 169.781H55.1277V176.019C55.1277 176.576 55.0254 177.049 54.8209 177.438C54.6163 177.828 54.328 178.123 53.9558 178.325C53.5836 178.526 53.1447 178.627 52.639 178.627C52.1618 178.627 51.737 178.541 51.3649 178.367C50.9927 178.191 50.7001 177.941 50.487 177.617C50.274 177.293 50.1674 176.909 50.1674 176.462H51.2072C51.2072 176.71 51.2683 176.926 51.3905 177.11C51.5155 177.292 51.6859 177.434 51.9018 177.536C52.1177 177.639 52.3635 177.69 52.639 177.69C52.943 177.69 53.2015 177.626 53.4146 177.498C53.6277 177.37 53.7896 177.183 53.9004 176.935C54.014 176.685 54.0709 176.38 54.0709 176.019V169.781ZM59.2753 178.661C58.8606 178.661 58.4841 178.583 58.1461 178.427C57.808 178.268 57.5395 178.039 57.3407 177.741C57.1418 177.44 57.0424 177.076 57.0424 176.65C57.0424 176.275 57.1162 175.971 57.264 175.738C57.4117 175.502 57.6091 175.318 57.8563 175.184C58.1035 175.051 58.3762 174.951 58.6745 174.886C58.9756 174.818 59.2782 174.764 59.5822 174.724C59.9799 174.673 60.3023 174.634 60.5495 174.609C60.7995 174.58 60.9813 174.534 61.0949 174.468C61.2114 174.403 61.2697 174.289 61.2697 174.127V174.093C61.2697 173.673 61.1546 173.346 60.9245 173.113C60.6972 172.88 60.352 172.764 59.889 172.764C59.4089 172.764 59.0324 172.869 58.7597 173.079C58.487 173.289 58.2952 173.514 58.1844 173.752L57.2299 173.411C57.4003 173.014 57.6276 172.704 57.9117 172.482C58.1986 172.258 58.5111 172.102 58.8492 172.014C59.1901 171.923 59.5253 171.877 59.8549 171.877C60.0651 171.877 60.3066 171.903 60.5793 171.954C60.8549 172.002 61.1205 172.103 61.3762 172.257C61.6347 172.41 61.8492 172.641 62.0197 172.951C62.1901 173.261 62.2753 173.676 62.2753 174.195V178.508H61.2697V177.622H61.2185C61.1503 177.764 61.0367 177.916 60.8776 178.078C60.7185 178.239 60.5069 178.377 60.2427 178.491C59.9785 178.605 59.656 178.661 59.2753 178.661ZM59.4287 177.758C59.8265 177.758 60.1617 177.68 60.4344 177.524C60.71 177.367 60.9174 177.166 61.0566 176.918C61.1986 176.671 61.2697 176.411 61.2697 176.139V175.218C61.227 175.269 61.1333 175.316 60.9884 175.359C60.8464 175.399 60.6816 175.434 60.4941 175.465C60.3094 175.494 60.129 175.519 59.9529 175.542C59.7796 175.562 59.639 175.579 59.531 175.593C59.2697 175.627 59.0253 175.683 58.7981 175.759C58.5736 175.833 58.3918 175.945 58.2526 176.096C58.1162 176.244 58.0481 176.445 58.0481 176.701C58.0481 177.051 58.1773 177.315 58.4359 177.494C58.6972 177.67 59.0282 177.758 59.4287 177.758ZM66.8225 178.644C66.2771 178.644 65.7955 178.507 65.3779 178.231C64.9603 177.953 64.6336 177.56 64.3978 177.055C64.162 176.546 64.0441 175.945 64.0441 175.252C64.0441 174.565 64.162 173.968 64.3978 173.462C64.6336 172.957 64.9617 172.566 65.3822 172.291C65.8026 172.015 66.2884 171.877 66.8396 171.877C67.2657 171.877 67.6023 171.948 67.8495 172.09C68.0995 172.23 68.2898 172.389 68.4205 172.568C68.554 172.744 68.6577 172.889 68.7316 173.002H68.8168V169.781H69.8225V178.508H68.8509V177.502H68.7316C68.6577 177.622 68.5526 177.772 68.4163 177.954C68.2799 178.133 68.0853 178.293 67.8325 178.435C67.5796 178.575 67.243 178.644 66.8225 178.644ZM66.9589 177.741C67.3623 177.741 67.7032 177.636 67.9816 177.426C68.26 177.212 68.4717 176.918 68.6165 176.543C68.7614 176.166 68.8339 175.73 68.8339 175.235C68.8339 174.747 68.7629 174.319 68.6208 173.953C68.4788 173.583 68.2685 173.296 67.9901 173.092C67.7117 172.884 67.368 172.781 66.9589 172.781C66.5327 172.781 66.1776 172.89 65.8935 173.109C65.6123 173.325 65.4006 173.619 65.2586 173.991C65.1194 174.36 65.0498 174.775 65.0498 175.235C65.0498 175.701 65.1208 176.124 65.2629 176.505C65.4077 176.883 65.6208 177.184 65.9021 177.409C66.1862 177.63 66.5384 177.741 66.9589 177.741ZM73.527 178.508L71.5327 171.962H72.5895L74.0043 176.974H74.0725L75.4702 171.962H76.544L77.9247 176.957H77.9929L79.4077 171.962H80.4645L78.4702 178.508H77.4815L76.0497 173.48H75.9475L74.5156 178.508H73.527ZM83.9602 178.661C83.5454 178.661 83.169 178.583 82.8309 178.427C82.4929 178.268 82.2244 178.039 82.0255 177.741C81.8267 177.44 81.7272 177.076 81.7272 176.65C81.7272 176.275 81.8011 175.971 81.9488 175.738C82.0965 175.502 82.294 175.318 82.5412 175.184C82.7883 175.051 83.061 174.951 83.3593 174.886C83.6605 174.818 83.963 174.764 84.267 174.724C84.6647 174.673 84.9872 174.634 85.2343 174.609C85.4843 174.58 85.6662 174.534 85.7798 174.468C85.8963 174.403 85.9545 174.289 85.9545 174.127V174.093C85.9545 173.673 85.8394 173.346 85.6093 173.113C85.3821 172.88 85.0369 172.764 84.5738 172.764C84.0937 172.764 83.7173 172.869 83.4446 173.079C83.1718 173.289 82.9801 173.514 82.8693 173.752L81.9147 173.411C82.0852 173.014 82.3125 172.704 82.5965 172.482C82.8835 172.258 83.196 172.102 83.534 172.014C83.875 171.923 84.2102 171.877 84.5397 171.877C84.75 171.877 84.9914 171.903 85.2642 171.954C85.5397 172.002 85.8054 172.103 86.061 172.257C86.3196 172.41 86.534 172.641 86.7045 172.951C86.875 173.261 86.9602 173.676 86.9602 174.195V178.508H85.9545V177.622H85.9034C85.8352 177.764 85.7215 177.916 85.5625 178.078C85.4034 178.239 85.1917 178.377 84.9275 178.491C84.6633 178.605 84.3409 178.661 83.9602 178.661ZM84.1136 177.758C84.5113 177.758 84.8465 177.68 85.1193 177.524C85.3948 177.367 85.6022 177.166 85.7414 176.918C85.8835 176.671 85.9545 176.411 85.9545 176.139V175.218C85.9119 175.269 85.8181 175.316 85.6733 175.359C85.5312 175.399 85.3664 175.434 85.1789 175.465C84.9943 175.494 84.8139 175.519 84.6377 175.542C84.4644 175.562 84.3238 175.579 84.2159 175.593C83.9545 175.627 83.7102 175.683 83.4829 175.759C83.2585 175.833 83.0767 175.945 82.9375 176.096C82.8011 176.244 82.7329 176.445 82.7329 176.701C82.7329 177.051 82.8622 177.315 83.1207 177.494C83.3821 177.67 83.713 177.758 84.1136 177.758ZM90.0414 169.781V178.508H89.0358V169.781H90.0414ZM95.3975 170.718V169.781H101.943V170.718H99.1987V178.508H98.1418V170.718H95.3975ZM105.473 178.644C104.842 178.644 104.298 178.505 103.841 178.227C103.386 177.945 103.035 177.553 102.788 177.051C102.544 176.545 102.422 175.957 102.422 175.286C102.422 174.616 102.544 174.025 102.788 173.514C103.035 172.999 103.379 172.599 103.819 172.312C104.263 172.022 104.78 171.877 105.37 171.877C105.711 171.877 106.048 171.934 106.38 172.048C106.713 172.161 107.015 172.346 107.288 172.602C107.561 172.855 107.778 173.19 107.94 173.607C108.102 174.025 108.183 174.539 108.183 175.15V175.576H103.138V174.707H107.16C107.16 174.337 107.086 174.008 106.939 173.718C106.794 173.428 106.586 173.2 106.316 173.032C106.049 172.864 105.734 172.781 105.37 172.781C104.97 172.781 104.623 172.88 104.331 173.079C104.041 173.275 103.818 173.531 103.662 173.846C103.505 174.161 103.427 174.499 103.427 174.86V175.44C103.427 175.934 103.513 176.353 103.683 176.697C103.856 177.038 104.096 177.298 104.403 177.477C104.71 177.653 105.066 177.741 105.473 177.741C105.737 177.741 105.976 177.704 106.189 177.63C106.405 177.553 106.591 177.44 106.747 177.289C106.903 177.136 107.024 176.945 107.109 176.718L108.081 176.991C107.978 177.32 107.807 177.61 107.565 177.86C107.324 178.107 107.025 178.301 106.67 178.44C106.315 178.576 105.916 178.644 105.473 178.644ZM109.953 178.508V171.962H110.924V172.951H110.993C111.112 172.627 111.328 172.364 111.64 172.163C111.953 171.961 112.305 171.86 112.697 171.86C112.771 171.86 112.863 171.862 112.974 171.864C113.085 171.867 113.169 171.872 113.226 171.877V172.9C113.191 172.891 113.113 172.879 112.991 172.862C112.872 172.842 112.745 172.832 112.612 172.832C112.294 172.832 112.01 172.899 111.76 173.032C111.512 173.163 111.316 173.345 111.172 173.578C111.03 173.808 110.958 174.07 110.958 174.366V178.508H109.953ZM119.294 173.428L118.391 173.684C118.334 173.534 118.25 173.387 118.139 173.245C118.031 173.1 117.883 172.981 117.696 172.887C117.508 172.793 117.268 172.747 116.976 172.747C116.575 172.747 116.241 172.839 115.974 173.024C115.71 173.205 115.578 173.437 115.578 173.718C115.578 173.968 115.669 174.166 115.851 174.31C116.033 174.455 116.317 174.576 116.703 174.673L117.675 174.911C118.26 175.053 118.696 175.271 118.983 175.563C119.27 175.853 119.413 176.227 119.413 176.684C119.413 177.059 119.305 177.394 119.089 177.69C118.876 177.985 118.578 178.218 118.195 178.389C117.811 178.559 117.365 178.644 116.857 178.644C116.189 178.644 115.636 178.499 115.199 178.21C114.761 177.92 114.484 177.497 114.368 176.94L115.322 176.701C115.413 177.053 115.585 177.318 115.838 177.494C116.094 177.67 116.428 177.758 116.839 177.758C117.308 177.758 117.68 177.659 117.956 177.46C118.234 177.258 118.374 177.016 118.374 176.735C118.374 176.508 118.294 176.318 118.135 176.164C117.976 176.008 117.732 175.891 117.402 175.815L116.311 175.559C115.712 175.417 115.271 175.197 114.99 174.899C114.712 174.597 114.572 174.221 114.572 173.769C114.572 173.4 114.676 173.073 114.883 172.789C115.094 172.505 115.379 172.282 115.74 172.12C116.104 171.958 116.516 171.877 116.976 171.877C117.624 171.877 118.132 172.019 118.501 172.303C118.874 172.587 119.138 172.962 119.294 173.428ZM123.911 178.644C123.281 178.644 122.737 178.505 122.279 178.227C121.825 177.945 121.474 177.553 121.227 177.051C120.983 176.545 120.86 175.957 120.86 175.286C120.86 174.616 120.983 174.025 121.227 173.514C121.474 172.999 121.818 172.599 122.258 172.312C122.701 172.022 123.218 171.877 123.809 171.877C124.15 171.877 124.487 171.934 124.819 172.048C125.152 172.161 125.454 172.346 125.727 172.602C126 172.855 126.217 173.19 126.379 173.607C126.541 174.025 126.622 174.539 126.622 175.15V175.576H121.576V174.707H125.599C125.599 174.337 125.525 174.008 125.377 173.718C125.233 173.428 125.025 173.2 124.755 173.032C124.488 172.864 124.173 172.781 123.809 172.781C123.409 172.781 123.062 172.88 122.769 173.079C122.48 173.275 122.257 173.531 122.1 173.846C121.944 174.161 121.866 174.499 121.866 174.86V175.44C121.866 175.934 121.951 176.353 122.122 176.697C122.295 177.038 122.535 177.298 122.842 177.477C123.149 177.653 123.505 177.741 123.911 177.741C124.176 177.741 124.414 177.704 124.627 177.63C124.843 177.553 125.029 177.44 125.186 177.289C125.342 177.136 125.463 176.945 125.548 176.718L126.519 176.991C126.417 177.32 126.245 177.61 126.004 177.86C125.762 178.107 125.464 178.301 125.109 178.44C124.754 178.576 124.355 178.644 123.911 178.644ZM130.863 178.644C130.318 178.644 129.836 178.507 129.419 178.231C129.001 177.953 128.674 177.56 128.438 177.055C128.203 176.546 128.085 175.945 128.085 175.252C128.085 174.565 128.203 173.968 128.438 173.462C128.674 172.957 129.002 172.566 129.423 172.291C129.843 172.015 130.329 171.877 130.88 171.877C131.306 171.877 131.643 171.948 131.89 172.09C132.14 172.23 132.33 172.389 132.461 172.568C132.595 172.744 132.698 172.889 132.772 173.002H132.857V169.781H133.863V178.508H132.892V177.502H132.772C132.698 177.622 132.593 177.772 132.457 177.954C132.321 178.133 132.126 178.293 131.873 178.435C131.62 178.575 131.284 178.644 130.863 178.644ZM131 177.741C131.403 177.741 131.744 177.636 132.022 177.426C132.301 177.212 132.512 176.918 132.657 176.543C132.802 176.166 132.875 175.73 132.875 175.235C132.875 174.747 132.803 174.319 132.661 173.953C132.519 173.583 132.309 173.296 132.031 173.092C131.752 172.884 131.409 172.781 131 172.781C130.573 172.781 130.218 172.89 129.934 173.109C129.653 173.325 129.441 173.619 129.299 173.991C129.16 174.36 129.09 174.775 129.09 175.235C129.09 175.701 129.161 176.124 129.303 176.505C129.448 176.883 129.661 177.184 129.943 177.409C130.227 177.63 130.579 177.741 131 177.741ZM136.085 178.508V171.962H137.09V178.508H136.085ZM136.596 170.872C136.4 170.872 136.231 170.805 136.089 170.671C135.95 170.538 135.88 170.377 135.88 170.19C135.88 170.002 135.95 169.842 136.089 169.708C136.231 169.575 136.4 169.508 136.596 169.508C136.792 169.508 136.96 169.575 137.099 169.708C137.241 169.842 137.312 170.002 137.312 170.19C137.312 170.377 137.241 170.538 137.099 170.671C136.96 170.805 136.792 170.872 136.596 170.872ZM141.098 178.661C140.684 178.661 140.307 178.583 139.969 178.427C139.631 178.268 139.363 178.039 139.164 177.741C138.965 177.44 138.866 177.076 138.866 176.65C138.866 176.275 138.939 175.971 139.087 175.738C139.235 175.502 139.432 175.318 139.679 175.184C139.927 175.051 140.199 174.951 140.498 174.886C140.799 174.818 141.101 174.764 141.405 174.724C141.803 174.673 142.125 174.634 142.373 174.609C142.623 174.58 142.804 174.534 142.918 174.468C143.035 174.403 143.093 174.289 143.093 174.127V174.093C143.093 173.673 142.978 173.346 142.748 173.113C142.52 172.88 142.175 172.764 141.712 172.764C141.232 172.764 140.856 172.869 140.583 173.079C140.31 173.289 140.118 173.514 140.008 173.752L139.053 173.411C139.223 173.014 139.451 172.704 139.735 172.482C140.022 172.258 140.334 172.102 140.672 172.014C141.013 171.923 141.348 171.877 141.678 171.877C141.888 171.877 142.13 171.903 142.402 171.954C142.678 172.002 142.944 172.103 143.199 172.257C143.458 172.41 143.672 172.641 143.843 172.951C144.013 173.261 144.098 173.676 144.098 174.195V178.508H143.093V177.622H143.042C142.973 177.764 142.86 177.916 142.701 178.078C142.542 178.239 142.33 178.377 142.066 178.491C141.802 178.605 141.479 178.661 141.098 178.661ZM141.252 177.758C141.65 177.758 141.985 177.68 142.258 177.524C142.533 177.367 142.741 177.166 142.88 176.918C143.022 176.671 143.093 176.411 143.093 176.139V175.218C143.05 175.269 142.956 175.316 142.812 175.359C142.669 175.399 142.505 175.434 142.317 175.465C142.133 175.494 141.952 175.519 141.776 175.542C141.603 175.562 141.462 175.579 141.354 175.593C141.093 175.627 140.848 175.683 140.621 175.759C140.397 175.833 140.215 175.945 140.076 176.096C139.939 176.244 139.871 176.445 139.871 176.701C139.871 177.051 140 177.315 140.259 177.494C140.52 177.67 140.851 177.758 141.252 177.758Z" fill="#333333"/>
</g>
<defs>
<filter id="filter0_d_237_2306" x="0.58728" y="0" width="184.825" height="216.921" filterUnits="userSpaceOnUse" color-interpolation-filters="sRGB">
<feFlood flood-opacity="0" result="BackgroundImageFix"/>
<feColorMatrix in="SourceAlpha" type="matrix" values="0 0 0 0 0 0 0 0 0 0 0 0 0 0 0 0 0 0 127 0" result="hardAlpha"/>
<feOffset dx="4" dy="4"/>
<feGaussianBlur stdDeviation="8"/>
<feComposite in2="hardAlpha" operator="out"/>
<feColorMatrix type="matrix" values="0 0 0 0 0 0 0 0 0 0 0 0 0 0 0 0 0 0 0.08 0"/>
<feBlend mode="normal" in2="BackgroundImageFix" result="effect1_dropShadow_237_2306"/>
<feBlend mode="normal" in="SourceGraphic" in2="effect1_dropShadow_237_2306" result="shape"/>
</filter>
</defs>
</svg>
