<svg width="185" height="215" viewBox="0 0 185 215" fill="none" xmlns="http://www.w3.org/2000/svg">
<g filter="url(#filter0_d_237_2333)">
<rect x="12.1746" y="12" width="152.825" height="182.921" rx="16.0952" fill="white" shape-rendering="crispEdges"/>
<path d="M76.451 32.7763H77.8601V41.0945C77.8601 41.8369 77.7237 42.4676 77.451 42.9866C77.1783 43.5055 76.7938 43.8994 76.2976 44.1684C75.8014 44.4373 75.2161 44.5718 74.5419 44.5718C73.9055 44.5718 73.3392 44.4562 72.843 44.2252C72.3468 43.9903 71.9567 43.657 71.6726 43.2252C71.3885 42.7934 71.2464 42.2801 71.2464 41.6854H72.6328C72.6328 42.015 72.7142 42.3028 72.8771 42.5491C73.0438 42.7915 73.2711 42.9809 73.5589 43.1172C73.8468 43.2536 74.1745 43.3218 74.5419 43.3218C74.9472 43.3218 75.2919 43.2366 75.576 43.0661C75.8601 42.8956 76.076 42.6456 76.2237 42.3161C76.3752 41.9828 76.451 41.5756 76.451 41.0945V32.7763ZM88.6403 32.7763H90.0494V40.4809C90.0494 41.2763 89.8619 41.9866 89.4869 42.6116C89.1157 43.2328 88.5911 43.7233 87.913 44.0831C87.235 44.4392 86.4395 44.6172 85.5267 44.6172C84.6138 44.6172 83.8183 44.4392 83.1403 44.0831C82.4623 43.7233 81.9358 43.2328 81.5608 42.6116C81.1895 41.9866 81.0039 41.2763 81.0039 40.4809V32.7763H82.413V40.3672C82.413 40.9354 82.538 41.4411 82.788 41.8843C83.038 42.3237 83.3941 42.6703 83.8562 42.9241C84.3221 43.1741 84.8789 43.2991 85.5267 43.2991C86.1744 43.2991 86.7312 43.1741 87.1971 42.9241C87.663 42.6703 88.0191 42.3237 88.2653 41.8843C88.5153 41.4411 88.6403 40.9354 88.6403 40.3672V32.7763ZM93.1833 32.7763H94.8651L98.8197 42.4354H98.956L102.911 32.7763H104.592V44.4127H103.274V35.5718H103.161L99.5242 44.4127H98.2515L94.6151 35.5718H94.5015V44.4127H93.1833V32.7763Z" fill="#333333"/>
<path d="M42.5021 79.4127V76.7536L48.7152 71.0008C49.2436 70.4894 49.6868 70.0292 50.0447 69.6201C50.4084 69.211 50.6839 68.8104 50.8714 68.4184C51.0589 68.0206 51.1527 67.5917 51.1527 67.1314C51.1527 66.6201 51.0362 66.1797 50.8033 65.8104C50.5703 65.4354 50.2521 65.1485 49.8487 64.9496C49.4453 64.7451 48.9879 64.6428 48.4765 64.6428C47.9425 64.6428 47.4765 64.7508 47.0788 64.9667C46.6811 65.1826 46.3743 65.4922 46.1584 65.8956C45.9425 66.2991 45.8345 66.7792 45.8345 67.336H42.3317C42.3317 66.1939 42.5902 65.2025 43.1072 64.3616C43.6243 63.5206 44.3487 62.8701 45.2805 62.4098C46.2123 61.9496 47.2862 61.7195 48.5021 61.7195C49.7521 61.7195 50.8402 61.9411 51.7663 62.3843C52.6981 62.8218 53.4226 63.4297 53.9396 64.2081C54.4567 64.9866 54.7152 65.8786 54.7152 66.8843C54.7152 67.5434 54.5845 68.1939 54.3231 68.836C54.0675 69.478 53.6101 70.1911 52.951 70.9752C52.2919 71.7536 51.3629 72.6883 50.164 73.7792L47.6158 76.2763V76.3956H54.9453V79.4127H42.5021ZM64.4146 61.7195C65.3124 61.7195 66.176 61.8701 67.0056 62.1712C67.8408 62.4723 68.5851 62.9525 69.2385 63.6116C69.8976 64.2706 70.4175 65.1456 70.7982 66.2366C71.1845 67.3218 71.3806 68.6542 71.3862 70.2337C71.3862 71.7167 71.2186 73.0405 70.8834 74.2053C70.5538 75.3644 70.0794 76.3502 69.4601 77.1627C68.8408 77.9752 68.0936 78.5945 67.2186 79.0206C66.3436 79.4411 65.3663 79.6513 64.2868 79.6513C63.122 79.6513 62.0936 79.4269 61.2016 78.978C60.3095 78.5235 59.5908 77.907 59.0453 77.1286C58.5056 76.3445 58.1788 75.4638 58.0652 74.4866H61.7044C61.8465 75.1229 62.1448 75.6172 62.5993 75.9695C63.0538 76.3161 63.6163 76.4894 64.2868 76.4894C65.4232 76.4894 66.2868 75.9951 66.8777 75.0064C67.4686 74.0121 67.7669 72.6513 67.7726 70.9241H67.6533C67.3919 71.4354 67.0396 71.8758 66.5965 72.2451C66.1533 72.6087 65.6448 72.89 65.0709 73.0888C64.5027 73.2877 63.8976 73.3871 63.2556 73.3871C62.2271 73.3871 61.3095 73.1456 60.5027 72.6627C59.6959 72.1797 59.0595 71.515 58.5936 70.6684C58.1277 69.8218 57.8948 68.8559 57.8948 67.7706C57.8891 66.6002 58.159 65.5576 58.7044 64.6428C59.2499 63.728 60.0112 63.0121 60.9885 62.4951C61.9715 61.9723 63.1135 61.7138 64.4146 61.7195ZM64.4402 64.6172C63.8663 64.6172 63.355 64.7536 62.9061 65.0263C62.4629 65.2991 62.1107 65.6655 61.8493 66.1258C61.5936 66.586 61.4686 67.1002 61.4743 67.6684C61.4743 68.2422 61.5993 68.7593 61.8493 69.2195C62.105 69.6741 62.4516 70.0377 62.8891 70.3104C63.3323 70.5775 63.8379 70.711 64.4061 70.711C64.8323 70.711 65.2271 70.6314 65.5908 70.4723C65.9544 70.3133 66.2698 70.0945 66.5368 69.8161C66.8095 69.532 67.0226 69.2053 67.176 68.836C67.3294 68.4667 67.4061 68.0746 67.4061 67.6598C67.4004 67.1087 67.2698 66.603 67.0141 66.1428C66.7584 65.6826 66.4061 65.3133 65.9573 65.0348C65.5084 64.7564 65.0027 64.6172 64.4402 64.6172ZM80.56 61.9581H85.1111L89.918 73.6854H90.1225L94.9293 61.9581H99.4805V79.4127H95.9009V68.0519H95.756L91.239 79.3275H88.8015L84.2844 68.0093H84.1396V79.4127H80.56V61.9581ZM106.009 79.4127H102.055L108.08 61.9581H112.836L118.853 79.4127H114.899L110.527 65.9468H110.39L106.009 79.4127ZM105.762 72.5519H115.103V75.4326H105.762V72.5519ZM121.434 79.4127V61.9581H128.32C129.639 61.9581 130.764 62.1939 131.695 62.6655C132.633 63.1314 133.346 63.7934 133.835 64.6513C134.329 65.5036 134.576 66.5064 134.576 67.6598C134.576 68.8189 134.326 69.8161 133.826 70.6513C133.326 71.4809 132.602 72.1172 131.653 72.5604C130.71 73.0036 129.568 73.2252 128.227 73.2252H123.616V70.2593H127.63C128.335 70.2593 128.92 70.1627 129.386 69.9695C129.852 69.7763 130.198 69.4866 130.426 69.1002C130.659 68.7138 130.775 68.2337 130.775 67.6598C130.775 67.0803 130.659 66.5917 130.426 66.1939C130.198 65.7962 129.849 65.4951 129.377 65.2905C128.911 65.0803 128.323 64.9752 127.613 64.9752H125.124V79.4127H121.434ZM130.86 71.4695L135.198 79.4127H131.124L126.88 71.4695H130.86Z" fill="#333333"/>
<path d="M66.5941 142.776V140.233L72.9702 130.188H75.1626V133.707H73.865L69.8455 140.069V140.188H78.9062V142.776H66.5941ZM73.9247 145.46V142L73.9844 140.874V130.188H77.0121V145.46H73.9247ZM87.0558 145.669C86.0018 145.669 85.0622 145.475 84.2369 145.087C83.4166 144.7 82.7653 144.165 82.2831 143.484C81.8008 142.803 81.5498 142.022 81.5299 141.143H84.662C84.6968 141.734 84.9454 142.214 85.4077 142.582C85.8701 142.95 86.4195 143.134 87.0558 143.134C87.5629 143.134 88.0104 143.022 88.3981 142.798C88.7909 142.569 89.0967 142.254 89.3154 141.851C89.5391 141.443 89.651 140.976 89.651 140.449C89.651 139.912 89.5366 139.44 89.3079 139.032C89.0842 138.624 88.7735 138.306 88.3758 138.078C87.978 137.849 87.5231 137.732 87.0111 137.727C86.5636 137.727 86.1286 137.819 85.706 138.003C85.2884 138.187 84.9628 138.438 84.7291 138.756L81.858 138.242L82.5814 130.188H91.918V132.828H85.2437L84.8484 136.653H84.9379C85.2064 136.275 85.6116 135.962 86.1535 135.714C86.6954 135.465 87.3019 135.341 87.9731 135.341C88.8928 135.341 89.7131 135.557 90.434 135.989C91.1549 136.422 91.7241 137.016 92.1418 137.772C92.5594 138.522 92.7657 139.388 92.7607 140.367C92.7657 141.396 92.5271 142.311 92.0448 143.111C91.5675 143.907 90.8989 144.533 90.0388 144.991C89.1837 145.443 88.1893 145.669 87.0558 145.669ZM103.793 142.597V141.791C103.793 141.18 103.922 140.618 104.18 140.106C104.444 139.589 104.824 139.176 105.321 138.868C105.823 138.555 106.435 138.398 107.156 138.398C107.887 138.398 108.501 138.552 108.998 138.861C109.5 139.169 109.878 139.581 110.131 140.098C110.39 140.611 110.519 141.175 110.519 141.791V142.597C110.519 143.208 110.39 143.772 110.131 144.29C109.873 144.802 109.493 145.212 108.99 145.52C108.488 145.833 107.877 145.99 107.156 145.99C106.425 145.99 105.811 145.833 105.314 145.52C104.817 145.212 104.439 144.802 104.18 144.29C103.922 143.772 103.793 143.208 103.793 142.597ZM105.963 141.791V142.597C105.963 142.95 106.047 143.283 106.216 143.596C106.39 143.909 106.703 144.066 107.156 144.066C107.608 144.066 107.917 143.912 108.081 143.603C108.25 143.295 108.334 142.96 108.334 142.597V141.791C108.334 141.428 108.255 141.09 108.095 140.777C107.936 140.464 107.623 140.307 107.156 140.307C106.708 140.307 106.398 140.464 106.224 140.777C106.05 141.09 105.963 141.428 105.963 141.791ZM95.9549 133.857V133.051C95.9549 132.435 96.0866 131.87 96.3501 131.358C96.6136 130.841 96.9939 130.429 97.4911 130.12C97.9932 129.812 98.5997 129.658 99.3107 129.658C100.046 129.658 100.663 129.812 101.16 130.12C101.657 130.429 102.035 130.841 102.294 131.358C102.552 131.87 102.681 132.435 102.681 133.051V133.857C102.681 134.473 102.55 135.037 102.286 135.549C102.028 136.062 101.647 136.472 101.145 136.78C100.648 137.083 100.037 137.235 99.3107 137.235C98.5848 137.235 97.9708 137.081 97.4687 136.772C96.9716 136.459 96.5937 136.049 96.3352 135.542C96.0816 135.03 95.9549 134.468 95.9549 133.857ZM98.1399 133.051V133.857C98.1399 134.22 98.2244 134.555 98.3934 134.863C98.5674 135.172 98.8732 135.326 99.3107 135.326C99.7681 135.326 100.079 135.172 100.243 134.863C100.412 134.555 100.496 134.22 100.496 133.857V133.051C100.496 132.688 100.417 132.35 100.258 132.037C100.099 131.724 99.783 131.567 99.3107 131.567C98.8682 131.567 98.5625 131.726 98.3934 132.044C98.2244 132.363 98.1399 132.698 98.1399 133.051ZM96.9392 145.46L107.439 130.188H109.393L98.8931 145.46H96.9392Z" fill="#4DB53C"/>
<path d="M138.587 147.46C138.587 134.2 133.319 121.482 123.943 112.105C114.566 102.728 101.848 97.4603 88.5873 97.4603C75.3265 97.4603 62.6088 102.728 53.232 112.105C43.8552 121.482 38.5873 134.2 38.5873 147.46L48.7807 147.46C48.7807 136.903 52.9746 126.778 60.4398 119.313C67.905 111.848 78.03 107.654 88.5873 107.654C99.1447 107.654 109.27 111.848 116.735 119.313C124.2 126.778 128.394 136.903 128.394 147.46H138.587Z" fill="#4DB53C"/>
<path d="M138.587 147.46C138.587 140.459 137.117 133.536 134.271 127.139C131.426 120.742 127.269 115.014 122.069 110.326C116.869 105.637 110.743 102.093 104.086 99.9232C97.4299 97.7529 90.3919 97.0048 83.428 97.7272L84.4799 107.866C90.024 107.291 95.6272 107.887 100.927 109.614C106.226 111.342 111.103 114.164 115.243 117.896C119.383 121.629 122.693 126.189 124.958 131.282C127.223 136.375 128.394 141.886 128.394 147.46H138.587Z" fill="#D9D9D9"/>
<path opacity="0.6" d="M38.8885 176.627C38.5305 176.622 38.1726 176.553 37.8146 176.423C37.4567 176.292 37.13 176.072 36.8345 175.762C36.539 175.45 36.3018 175.028 36.1229 174.497C35.9439 173.962 35.8544 173.292 35.8544 172.485C35.8544 171.712 35.9268 171.028 36.0717 170.431C36.2166 169.832 36.4268 169.328 36.7024 168.918C36.978 168.507 37.3104 168.194 37.6996 167.981C38.0916 167.768 38.5334 167.661 39.0248 167.661C39.5135 167.661 39.9481 167.759 40.3288 167.955C40.7123 168.149 41.0248 168.418 41.2663 168.765C41.5078 169.112 41.664 169.511 41.7351 169.962H40.6953C40.5987 169.57 40.4112 169.245 40.1328 168.987C39.8544 168.728 39.4851 168.599 39.0248 168.599C38.3487 168.599 37.816 168.893 37.4268 169.481C37.0405 170.069 36.8459 170.894 36.843 171.957H36.9112C37.0703 171.715 37.2592 171.509 37.478 171.339C37.6996 171.166 37.9439 171.032 38.2109 170.938C38.478 170.845 38.7606 170.798 39.0589 170.798C39.5589 170.798 40.0163 170.923 40.4311 171.173C40.8459 171.42 41.1783 171.762 41.4283 172.2C41.6783 172.634 41.8033 173.133 41.8033 173.695C41.8033 174.235 41.6825 174.73 41.441 175.178C41.1996 175.624 40.8601 175.98 40.4226 176.244C39.9879 176.505 39.4765 176.633 38.8885 176.627ZM38.8885 175.69C39.2464 175.69 39.5675 175.6 39.8515 175.421C40.1385 175.242 40.3643 175.002 40.5291 174.701C40.6967 174.4 40.7805 174.065 40.7805 173.695C40.7805 173.335 40.6996 173.007 40.5376 172.711C40.3785 172.413 40.1584 172.176 39.8771 171.999C39.5987 171.823 39.2805 171.735 38.9226 171.735C38.6527 171.735 38.4013 171.789 38.1683 171.897C37.9354 172.002 37.7308 172.147 37.5547 172.332C37.3814 172.516 37.245 172.728 37.1456 172.967C37.0461 173.203 36.9964 173.451 36.9964 173.712C36.9964 174.059 37.0774 174.383 37.2393 174.684C37.4041 174.985 37.6285 175.228 37.9126 175.413C38.1996 175.597 38.5248 175.69 38.8885 175.69ZM50.8283 167.781H51.8852V174.019C51.8852 174.576 51.7829 175.049 51.5783 175.438C51.3738 175.828 51.0855 176.123 50.7133 176.325C50.3411 176.526 49.9022 176.627 49.3965 176.627C48.9193 176.627 48.4945 176.541 48.1224 176.367C47.7502 176.191 47.4576 175.941 47.2445 175.617C47.0315 175.293 46.9249 174.909 46.9249 174.462H47.9647C47.9647 174.71 48.0258 174.926 48.148 175.11C48.273 175.292 48.4434 175.434 48.6593 175.536C48.8752 175.639 49.121 175.69 49.3965 175.69C49.7005 175.69 49.959 175.626 50.1721 175.498C50.3852 175.37 50.5471 175.183 50.6579 174.935C50.7715 174.685 50.8283 174.38 50.8283 174.019V167.781ZM56.0328 176.661C55.6181 176.661 55.2416 176.583 54.9036 176.427C54.5655 176.268 54.297 176.039 54.0982 175.741C53.8993 175.44 53.7999 175.076 53.7999 174.65C53.7999 174.275 53.8737 173.971 54.0215 173.738C54.1692 173.502 54.3666 173.318 54.6138 173.184C54.861 173.051 55.1337 172.951 55.432 172.886C55.7331 172.818 56.0357 172.764 56.3397 172.724C56.7374 172.673 57.0598 172.634 57.307 172.609C57.557 172.58 57.7388 172.534 57.8524 172.468C57.9689 172.403 58.0272 172.289 58.0272 172.127V172.093C58.0272 171.673 57.9121 171.346 57.682 171.113C57.4547 170.88 57.1095 170.764 56.6465 170.764C56.1664 170.764 55.7899 170.869 55.5172 171.079C55.2445 171.289 55.0527 171.514 54.9419 171.752L53.9874 171.411C54.1578 171.014 54.3851 170.704 54.6692 170.482C54.9561 170.258 55.2686 170.102 55.6067 170.014C55.9476 169.923 56.2828 169.877 56.6124 169.877C56.8226 169.877 57.0641 169.903 57.3368 169.954C57.6124 170.002 57.878 170.103 58.1337 170.257C58.3922 170.41 58.6067 170.641 58.7772 170.951C58.9476 171.261 59.0328 171.676 59.0328 172.195V176.508H58.0272V175.622H57.976C57.9078 175.764 57.7942 175.916 57.6351 176.078C57.476 176.239 57.2644 176.377 57.0002 176.491C56.736 176.605 56.4135 176.661 56.0328 176.661ZM56.1862 175.758C56.584 175.758 56.9192 175.68 57.1919 175.524C57.4675 175.367 57.6749 175.166 57.8141 174.918C57.9561 174.671 58.0272 174.411 58.0272 174.139V173.218C57.9845 173.269 57.8908 173.316 57.7459 173.359C57.6039 173.399 57.4391 173.434 57.2516 173.465C57.0669 173.494 56.8865 173.519 56.7104 173.542C56.5371 173.562 56.3965 173.579 56.2885 173.593C56.0272 173.627 55.7828 173.683 55.5556 173.759C55.3311 173.833 55.1493 173.945 55.0101 174.096C54.8737 174.244 54.8056 174.445 54.8056 174.701C54.8056 175.051 54.9348 175.315 55.1933 175.494C55.4547 175.67 55.7857 175.758 56.1862 175.758ZM63.58 176.644C63.0346 176.644 62.553 176.507 62.1354 176.231C61.7178 175.953 61.3911 175.56 61.1553 175.055C60.9195 174.546 60.8016 173.945 60.8016 173.252C60.8016 172.565 60.9195 171.968 61.1553 171.462C61.3911 170.957 61.7192 170.566 62.1397 170.291C62.5601 170.015 63.0459 169.877 63.5971 169.877C64.0232 169.877 64.3598 169.948 64.607 170.09C64.857 170.23 65.0473 170.389 65.178 170.568C65.3115 170.744 65.4152 170.889 65.4891 171.002H65.5743V167.781H66.58V176.508H65.6084V175.502H65.4891C65.4152 175.622 65.3101 175.772 65.1738 175.954C65.0374 176.133 64.8428 176.293 64.59 176.435C64.3371 176.575 64.0005 176.644 63.58 176.644ZM63.7164 175.741C64.1198 175.741 64.4607 175.636 64.7391 175.426C65.0175 175.212 65.2292 174.918 65.374 174.543C65.5189 174.166 65.5914 173.73 65.5914 173.235C65.5914 172.747 65.5204 172.319 65.3783 171.953C65.2363 171.583 65.026 171.296 64.7476 171.092C64.4692 170.884 64.1255 170.781 63.7164 170.781C63.2902 170.781 62.9351 170.89 62.651 171.109C62.3698 171.325 62.1581 171.619 62.0161 171.991C61.8769 172.36 61.8073 172.775 61.8073 173.235C61.8073 173.701 61.8783 174.124 62.0204 174.505C62.1652 174.883 62.3783 175.184 62.6596 175.409C62.9436 175.63 63.2959 175.741 63.7164 175.741ZM70.2845 176.508L68.2902 169.962H69.347L70.7618 174.974H70.83L72.2277 169.962H73.3015L74.6822 174.957H74.7504L76.1652 169.962H77.222L75.2277 176.508H74.239L72.8072 171.48H72.705L71.2731 176.508H70.2845ZM80.7177 176.661C80.3029 176.661 79.9265 176.583 79.5884 176.427C79.2504 176.268 78.9819 176.039 78.783 175.741C78.5842 175.44 78.4847 175.076 78.4847 174.65C78.4847 174.275 78.5586 173.971 78.7063 173.738C78.854 173.502 79.0515 173.318 79.2986 173.184C79.5458 173.051 79.8185 172.951 80.1168 172.886C80.418 172.818 80.7205 172.764 81.0245 172.724C81.4222 172.673 81.7447 172.634 81.9918 172.609C82.2418 172.58 82.4236 172.534 82.5373 172.468C82.6538 172.403 82.712 172.289 82.712 172.127V172.093C82.712 171.673 82.5969 171.346 82.3668 171.113C82.1396 170.88 81.7944 170.764 81.3313 170.764C80.8512 170.764 80.4748 170.869 80.2021 171.079C79.9293 171.289 79.7376 171.514 79.6268 171.752L78.6722 171.411C78.8427 171.014 79.07 170.704 79.354 170.482C79.641 170.258 79.9535 170.102 80.2915 170.014C80.6325 169.923 80.9677 169.877 81.2972 169.877C81.5075 169.877 81.7489 169.903 82.0217 169.954C82.2972 170.002 82.5629 170.103 82.8185 170.257C83.0771 170.41 83.2915 170.641 83.462 170.951C83.6325 171.261 83.7177 171.676 83.7177 172.195V176.508H82.712V175.622H82.6609C82.5927 175.764 82.479 175.916 82.32 176.078C82.1609 176.239 81.9492 176.377 81.685 176.491C81.4208 176.605 81.0984 176.661 80.7177 176.661ZM80.8711 175.758C81.2688 175.758 81.604 175.68 81.8768 175.524C82.1523 175.367 82.3597 175.166 82.4989 174.918C82.641 174.671 82.712 174.411 82.712 174.139V173.218C82.6694 173.269 82.5756 173.316 82.4307 173.359C82.2887 173.399 82.1239 173.434 81.9364 173.465C81.7518 173.494 81.5714 173.519 81.3952 173.542C81.2219 173.562 81.0813 173.579 80.9734 173.593C80.712 173.627 80.4677 173.683 80.2404 173.759C80.016 173.833 79.8342 173.945 79.695 174.096C79.5586 174.244 79.4904 174.445 79.4904 174.701C79.4904 175.051 79.6197 175.315 79.8782 175.494C80.1396 175.67 80.4705 175.758 80.8711 175.758ZM86.7989 167.781V176.508H85.7933V167.781H86.7989ZM92.155 168.718V167.781H98.7005V168.718H95.9561V176.508H94.8993V168.718H92.155ZM102.23 176.644C101.6 176.644 101.056 176.505 100.598 176.227C100.144 175.945 99.7927 175.553 99.5456 175.051C99.3013 174.545 99.1791 173.957 99.1791 173.286C99.1791 172.616 99.3013 172.025 99.5456 171.514C99.7927 170.999 100.136 170.599 100.577 170.312C101.02 170.022 101.537 169.877 102.128 169.877C102.469 169.877 102.806 169.934 103.138 170.048C103.47 170.161 103.773 170.346 104.046 170.602C104.318 170.855 104.536 171.19 104.698 171.607C104.86 172.025 104.94 172.539 104.94 173.15V173.576H99.895V172.707H103.918C103.918 172.337 103.844 172.008 103.696 171.718C103.551 171.428 103.344 171.2 103.074 171.032C102.807 170.864 102.492 170.781 102.128 170.781C101.727 170.781 101.381 170.88 101.088 171.079C100.798 171.275 100.575 171.531 100.419 171.846C100.263 172.161 100.185 172.499 100.185 172.86V173.44C100.185 173.934 100.27 174.353 100.44 174.697C100.614 175.038 100.854 175.298 101.161 175.477C101.467 175.653 101.824 175.741 102.23 175.741C102.494 175.741 102.733 175.704 102.946 175.63C103.162 175.553 103.348 175.44 103.504 175.289C103.661 175.136 103.781 174.945 103.867 174.718L104.838 174.991C104.736 175.32 104.564 175.61 104.323 175.86C104.081 176.107 103.783 176.301 103.428 176.44C103.073 176.576 102.673 176.644 102.23 176.644ZM106.71 176.508V169.962H107.682V170.951H107.75C107.869 170.627 108.085 170.364 108.398 170.163C108.71 169.961 109.063 169.86 109.455 169.86C109.528 169.86 109.621 169.862 109.732 169.864C109.842 169.867 109.926 169.872 109.983 169.877V170.9C109.949 170.891 109.871 170.879 109.749 170.862C109.629 170.842 109.503 170.832 109.369 170.832C109.051 170.832 108.767 170.899 108.517 171.032C108.27 171.163 108.074 171.345 107.929 171.578C107.787 171.808 107.716 172.07 107.716 172.366V176.508H106.71ZM116.052 171.428L115.148 171.684C115.091 171.534 115.007 171.387 114.897 171.245C114.789 171.1 114.641 170.981 114.453 170.887C114.266 170.793 114.026 170.747 113.733 170.747C113.333 170.747 112.999 170.839 112.732 171.024C112.468 171.205 112.336 171.437 112.336 171.718C112.336 171.968 112.427 172.166 112.608 172.31C112.79 172.455 113.074 172.576 113.461 172.673L114.432 172.911C115.017 173.053 115.453 173.271 115.74 173.563C116.027 173.853 116.171 174.227 116.171 174.684C116.171 175.059 116.063 175.394 115.847 175.69C115.634 175.985 115.336 176.218 114.952 176.389C114.569 176.559 114.123 176.644 113.614 176.644C112.946 176.644 112.394 176.499 111.956 176.21C111.519 175.92 111.242 175.497 111.125 174.94L112.08 174.701C112.171 175.053 112.343 175.318 112.596 175.494C112.851 175.67 113.185 175.758 113.597 175.758C114.066 175.758 114.438 175.659 114.713 175.46C114.992 175.258 115.131 175.016 115.131 174.735C115.131 174.508 115.052 174.318 114.892 174.164C114.733 174.008 114.489 173.891 114.159 173.815L113.069 173.559C112.469 173.417 112.029 173.197 111.748 172.899C111.469 172.597 111.33 172.221 111.33 171.769C111.33 171.4 111.434 171.073 111.641 170.789C111.851 170.505 112.137 170.282 112.498 170.12C112.861 169.958 113.273 169.877 113.733 169.877C114.381 169.877 114.89 170.019 115.259 170.303C115.631 170.587 115.895 170.962 116.052 171.428ZM120.669 176.644C120.038 176.644 119.494 176.505 119.037 176.227C118.582 175.945 118.231 175.553 117.984 175.051C117.74 174.545 117.618 173.957 117.618 173.286C117.618 172.616 117.74 172.025 117.984 171.514C118.231 170.999 118.575 170.599 119.016 170.312C119.459 170.022 119.976 169.877 120.567 169.877C120.908 169.877 121.244 169.934 121.577 170.048C121.909 170.161 122.212 170.346 122.484 170.602C122.757 170.855 122.974 171.19 123.136 171.607C123.298 172.025 123.379 172.539 123.379 173.15V173.576H118.334V172.707H122.356C122.356 172.337 122.283 172.008 122.135 171.718C121.99 171.428 121.783 171.2 121.513 171.032C121.246 170.864 120.93 170.781 120.567 170.781C120.166 170.781 119.82 170.88 119.527 171.079C119.237 171.275 119.014 171.531 118.858 171.846C118.702 172.161 118.624 172.499 118.624 172.86V173.44C118.624 173.934 118.709 174.353 118.879 174.697C119.053 175.038 119.293 175.298 119.599 175.477C119.906 175.653 120.263 175.741 120.669 175.741C120.933 175.741 121.172 175.704 121.385 175.63C121.601 175.553 121.787 175.44 121.943 175.289C122.099 175.136 122.22 174.945 122.305 174.718L123.277 174.991C123.175 175.32 123.003 175.61 122.761 175.86C122.52 176.107 122.222 176.301 121.866 176.44C121.511 176.576 121.112 176.644 120.669 176.644ZM127.621 176.644C127.075 176.644 126.594 176.507 126.176 176.231C125.758 175.953 125.432 175.56 125.196 175.055C124.96 174.546 124.842 173.945 124.842 173.252C124.842 172.565 124.96 171.968 125.196 171.462C125.432 170.957 125.76 170.566 126.18 170.291C126.601 170.015 127.087 169.877 127.638 169.877C128.064 169.877 128.4 169.948 128.648 170.09C128.898 170.23 129.088 170.389 129.219 170.568C129.352 170.744 129.456 170.889 129.53 171.002H129.615V167.781H130.621V176.508H129.649V175.502H129.53C129.456 175.622 129.351 175.772 129.214 175.954C129.078 176.133 128.883 176.293 128.631 176.435C128.378 176.575 128.041 176.644 127.621 176.644ZM127.757 175.741C128.16 175.741 128.501 175.636 128.78 175.426C129.058 175.212 129.27 174.918 129.415 174.543C129.56 174.166 129.632 173.73 129.632 173.235C129.632 172.747 129.561 172.319 129.419 171.953C129.277 171.583 129.067 171.296 128.788 171.092C128.51 170.884 128.166 170.781 127.757 170.781C127.331 170.781 126.976 170.89 126.692 171.109C126.41 171.325 126.199 171.619 126.057 171.991C125.918 172.36 125.848 172.775 125.848 173.235C125.848 173.701 125.919 174.124 126.061 174.505C126.206 174.883 126.419 175.184 126.7 175.409C126.984 175.63 127.337 175.741 127.757 175.741ZM132.842 176.508V169.962H133.848V176.508H132.842ZM133.354 168.872C133.158 168.872 132.988 168.805 132.846 168.671C132.707 168.538 132.638 168.377 132.638 168.19C132.638 168.002 132.707 167.842 132.846 167.708C132.988 167.575 133.158 167.508 133.354 167.508C133.55 167.508 133.717 167.575 133.856 167.708C133.998 167.842 134.069 168.002 134.069 168.19C134.069 168.377 133.998 168.538 133.856 168.671C133.717 168.805 133.55 168.872 133.354 168.872ZM137.856 176.661C137.441 176.661 137.065 176.583 136.727 176.427C136.389 176.268 136.12 176.039 135.921 175.741C135.722 175.44 135.623 175.076 135.623 174.65C135.623 174.275 135.697 173.971 135.845 173.738C135.992 173.502 136.19 173.318 136.437 173.184C136.684 173.051 136.957 172.951 137.255 172.886C137.556 172.818 137.859 172.764 138.163 172.724C138.561 172.673 138.883 172.634 139.13 172.609C139.38 172.58 139.562 172.534 139.676 172.468C139.792 172.403 139.85 172.289 139.85 172.127V172.093C139.85 171.673 139.735 171.346 139.505 171.113C139.278 170.88 138.933 170.764 138.47 170.764C137.989 170.764 137.613 170.869 137.34 171.079C137.068 171.289 136.876 171.514 136.765 171.752L135.811 171.411C135.981 171.014 136.208 170.704 136.492 170.482C136.779 170.258 137.092 170.102 137.43 170.014C137.771 169.923 138.106 169.877 138.436 169.877C138.646 169.877 138.887 169.903 139.16 169.954C139.436 170.002 139.701 170.103 139.957 170.257C140.215 170.41 140.43 170.641 140.6 170.951C140.771 171.261 140.856 171.676 140.856 172.195V176.508H139.85V175.622H139.799C139.731 175.764 139.617 175.916 139.458 176.078C139.299 176.239 139.087 176.377 138.823 176.491C138.559 176.605 138.237 176.661 137.856 176.661ZM138.009 175.758C138.407 175.758 138.742 175.68 139.015 175.524C139.291 175.367 139.498 175.166 139.637 174.918C139.779 174.671 139.85 174.411 139.85 174.139V173.218C139.808 173.269 139.714 173.316 139.569 173.359C139.427 173.399 139.262 173.434 139.075 173.465C138.89 173.494 138.71 173.519 138.534 173.542C138.36 173.562 138.22 173.579 138.112 173.593C137.85 173.627 137.606 173.683 137.379 173.759C137.154 173.833 136.972 173.945 136.833 174.096C136.697 174.244 136.629 174.445 136.629 174.701C136.629 175.051 136.758 175.315 137.016 175.494C137.278 175.67 137.609 175.758 138.009 175.758Z" fill="#333333"/>
</g>
<defs>
<filter id="filter0_d_237_2333" x="0.174622" y="0" width="184.825" height="214.921" filterUnits="userSpaceOnUse" color-interpolation-filters="sRGB">
<feFlood flood-opacity="0" result="BackgroundImageFix"/>
<feColorMatrix in="SourceAlpha" type="matrix" values="0 0 0 0 0 0 0 0 0 0 0 0 0 0 0 0 0 0 127 0" result="hardAlpha"/>
<feOffset dx="4" dy="4"/>
<feGaussianBlur stdDeviation="8"/>
<feComposite in2="hardAlpha" operator="out"/>
<feColorMatrix type="matrix" values="0 0 0 0 0 0 0 0 0 0 0 0 0 0 0 0 0 0 0.08 0"/>
<feBlend mode="normal" in2="BackgroundImageFix" result="effect1_dropShadow_237_2333"/>
<feBlend mode="normal" in="SourceGraphic" in2="effect1_dropShadow_237_2333" result="shape"/>
</filter>
</defs>
</svg>
