<svg width="186" height="217" viewBox="0 0 186 217" fill="none" xmlns="http://www.w3.org/2000/svg">
<g filter="url(#filter0_d_237_2288)">
<rect x="12.5291" y="12" width="152.825" height="184.921" rx="16.0952" fill="white" shape-rendering="crispEdges"/>
<path d="M74.3509 32.7763H76.0327L79.9872 42.4354H80.1236L84.0781 32.7763H85.76V44.4127H84.4418V35.5718H84.3281L80.6918 44.4127H79.419L75.7827 35.5718H75.669V44.4127H74.3509V32.7763ZM90.3143 32.7763V44.4127H88.9052V32.7763H90.3143ZM102.687 32.7763V44.4127H101.323L94.9823 35.2763H94.8687V44.4127H93.4596V32.7763H94.8232L101.187 41.9354H101.301V32.7763H102.687Z" fill="#333333"/>
<path d="M42.8565 79.4127V76.7536L49.0696 71.0008C49.598 70.4894 50.0412 70.0292 50.3992 69.6201C50.7628 69.211 51.0384 68.8104 51.2259 68.4184C51.4134 68.0206 51.5071 67.5917 51.5071 67.1314C51.5071 66.6201 51.3906 66.1797 51.1577 65.8104C50.9247 65.4354 50.6065 65.1485 50.2031 64.9496C49.7997 64.7451 49.3423 64.6428 48.831 64.6428C48.2969 64.6428 47.831 64.7508 47.4332 64.9667C47.0355 65.1826 46.7287 65.4922 46.5128 65.8956C46.2969 66.2991 46.1889 66.7792 46.1889 67.336H42.6861C42.6861 66.1939 42.9446 65.2025 43.4617 64.3616C43.9787 63.5206 44.7031 62.8701 45.635 62.4098C46.5668 61.9496 47.6406 61.7195 48.8565 61.7195C50.1065 61.7195 51.1946 61.9411 52.1208 62.3843C53.0526 62.8218 53.777 63.4297 54.294 64.2081C54.8111 64.9866 55.0696 65.8786 55.0696 66.8843C55.0696 67.5434 54.9389 68.1939 54.6776 68.836C54.4219 69.478 53.9645 70.1911 53.3054 70.9752C52.6463 71.7536 51.7173 72.6883 50.5185 73.7792L47.9702 76.2763V76.3956H55.2997V79.4127H42.8565ZM57.8145 76.3445V73.4383L65.1015 61.9581H67.6071V65.9809H66.1242L61.5304 73.2508V73.3871H71.8856V76.3445H57.8145ZM66.1924 79.4127V75.4581L66.2606 74.1712V61.9581H69.7208V79.4127H66.1924ZM80.9613 61.9581H85.5125L90.3193 73.6854H90.5238L95.3306 61.9581H99.8818V79.4127H96.3022V68.0519H96.1573L91.6403 79.3275H89.2028L84.6857 68.0093H84.5409V79.4127H80.9613V61.9581ZM106.411 79.4127H102.456L108.482 61.9581H113.237L119.255 79.4127H115.3L110.928 65.9468H110.791L106.411 79.4127ZM106.164 72.5519H115.505V75.4326H106.164V72.5519ZM121.835 79.4127V61.9581H128.722C130.04 61.9581 131.165 62.1939 132.097 62.6655C133.034 63.1314 133.747 63.7934 134.236 64.6513C134.73 65.5036 134.977 66.5064 134.977 67.6598C134.977 68.8189 134.727 69.8161 134.227 70.6513C133.727 71.4809 133.003 72.1172 132.054 72.5604C131.111 73.0036 129.969 73.2252 128.628 73.2252H124.017V70.2593H128.031C128.736 70.2593 129.321 70.1627 129.787 69.9695C130.253 69.7763 130.6 69.4866 130.827 69.1002C131.06 68.7138 131.176 68.2337 131.176 67.6598C131.176 67.0803 131.06 66.5917 130.827 66.1939C130.6 65.7962 130.25 65.4951 129.779 65.2905C129.313 65.0803 128.725 64.9752 128.014 64.9752H125.526V79.4127H121.835ZM131.262 71.4695L135.6 79.4127H131.526L127.281 71.4695H131.262Z" fill="#333333"/>
<path d="M74.8242 132.188V147.46H71.5952V135.253H71.5057L68.0082 137.445V134.581L71.7891 132.188H74.8242ZM84.8624 147.796C83.5797 147.791 82.476 147.475 81.5513 146.849C80.6316 146.222 79.9231 145.315 79.426 144.127C78.9338 142.939 78.6902 141.509 78.6951 139.839C78.6951 138.173 78.9412 136.754 79.4334 135.581C79.9306 134.407 80.639 133.515 81.5588 132.904C82.4835 132.287 83.5847 131.979 84.8624 131.979C86.1401 131.979 87.2388 132.287 88.1586 132.904C89.0833 133.52 89.7942 134.415 90.2914 135.588C90.7885 136.756 91.0346 138.173 91.0297 139.839C91.0297 141.514 90.7811 142.946 90.2839 144.134C89.7917 145.323 89.0858 146.23 88.166 146.856C87.2463 147.483 86.1451 147.796 84.8624 147.796ZM84.8624 145.119C85.7374 145.119 86.4359 144.679 86.9579 143.799C87.4799 142.919 87.7385 141.599 87.7335 139.839C87.7335 138.68 87.6142 137.716 87.3755 136.945C87.1419 136.175 86.8088 135.596 86.3762 135.208C85.9487 134.82 85.4441 134.626 84.8624 134.626C83.9924 134.626 83.2963 135.061 82.7743 135.931C82.2523 136.801 81.9888 138.104 81.9838 139.839C81.9838 141.012 82.1007 141.992 82.3343 142.777C82.573 143.558 82.9086 144.144 83.3411 144.537C83.7736 144.925 84.2807 145.119 84.8624 145.119ZM102.112 144.597V143.791C102.112 143.18 102.241 142.618 102.5 142.106C102.763 141.589 103.143 141.176 103.641 140.868C104.143 140.555 104.754 140.398 105.475 140.398C106.206 140.398 106.82 140.552 107.317 140.861C107.819 141.169 108.197 141.581 108.451 142.098C108.709 142.611 108.838 143.175 108.838 143.791V144.597C108.838 145.208 108.709 145.772 108.451 146.29C108.192 146.802 107.812 147.212 107.31 147.52C106.808 147.833 106.196 147.99 105.475 147.99C104.744 147.99 104.13 147.833 103.633 147.52C103.136 147.212 102.758 146.802 102.5 146.29C102.241 145.772 102.112 145.208 102.112 144.597ZM104.282 143.791V144.597C104.282 144.95 104.366 145.283 104.536 145.596C104.71 145.909 105.023 146.066 105.475 146.066C105.928 146.066 106.236 145.912 106.4 145.603C106.569 145.295 106.653 144.96 106.653 144.597V143.791C106.653 143.428 106.574 143.09 106.415 142.777C106.256 142.464 105.942 142.307 105.475 142.307C105.028 142.307 104.717 142.464 104.543 142.777C104.369 143.09 104.282 143.428 104.282 143.791ZM94.2741 135.857V135.051C94.2741 134.435 94.4059 133.87 94.6694 133.358C94.9329 132.841 95.3132 132.429 95.8104 132.12C96.3125 131.812 96.919 131.658 97.63 131.658C98.3658 131.658 98.9822 131.812 99.4794 132.12C99.9766 132.429 100.354 132.841 100.613 133.358C100.871 133.87 101.001 134.435 101.001 135.051V135.857C101.001 136.473 100.869 137.037 100.605 137.549C100.347 138.062 99.9666 138.472 99.4645 138.78C98.9673 139.083 98.3558 139.235 97.63 139.235C96.9041 139.235 96.2901 139.081 95.788 138.772C95.2908 138.459 94.913 138.049 94.6545 137.542C94.4009 137.03 94.2741 136.468 94.2741 135.857ZM96.4592 135.051V135.857C96.4592 136.22 96.5437 136.555 96.7127 136.863C96.8867 137.172 97.1925 137.326 97.63 137.326C98.0873 137.326 98.3981 137.172 98.5621 136.863C98.7312 136.555 98.8157 136.22 98.8157 135.857V135.051C98.8157 134.688 98.7361 134.35 98.5771 134.037C98.418 133.724 98.1023 133.567 97.63 133.567C97.1875 133.567 96.8817 133.726 96.7127 134.044C96.5437 134.363 96.4592 134.698 96.4592 135.051ZM95.2585 147.46L105.759 132.188H107.712L97.2123 147.46H95.2585Z" fill="#4DB53C"/>
<path d="M138.942 147.46C138.942 134.2 133.674 121.482 124.297 112.105C114.92 102.728 102.203 97.4604 88.9418 97.4604C75.681 97.4604 62.9633 102.728 53.5864 112.105C44.2096 121.482 38.9418 134.2 38.9418 147.46L49.1352 147.46C49.1352 136.903 53.3291 126.778 60.7942 119.313C68.2594 111.848 78.3844 107.654 88.9418 107.654C99.4991 107.654 109.624 111.848 117.089 119.313C124.554 126.778 128.748 136.903 128.748 147.46H138.942Z" fill="#4DB53C"/>
<path d="M138.942 147.46C138.942 135.555 134.694 124.041 126.962 114.988C119.23 105.935 108.522 99.9384 96.7635 98.076C85.0049 96.2136 72.9677 98.608 62.8168 104.828C52.666 111.049 45.0678 120.687 41.3889 132.01L51.0834 135.16C54.0123 126.145 60.0615 118.472 68.1429 113.52C76.2243 108.567 85.8075 106.661 95.1689 108.144C104.53 109.627 113.055 114.401 119.211 121.608C125.366 128.815 128.748 137.982 128.748 147.46H138.942Z" fill="#D9D9D9"/>
<path opacity="0.6" d="M32.4134 169.781V178.508H31.3565V170.889H31.3054L29.1747 172.303V171.23L31.3565 169.781H32.4134ZM37.8906 178.627C37.3906 178.627 36.9403 178.528 36.5397 178.329C36.1392 178.13 35.8181 177.857 35.5767 177.511C35.3352 177.164 35.2031 176.769 35.1804 176.326H36.2031C36.2429 176.721 36.4218 177.048 36.74 177.306C37.061 177.562 37.4446 177.69 37.8906 177.69C38.2485 177.69 38.5667 177.606 38.8451 177.438C39.1264 177.271 39.3465 177.041 39.5056 176.748C39.6676 176.453 39.7485 176.119 39.7485 175.747C39.7485 175.366 39.6647 175.026 39.4971 174.728C39.3323 174.427 39.1051 174.19 38.8153 174.016C38.5255 173.843 38.1946 173.755 37.8224 173.752C37.5554 173.749 37.2812 173.791 37 173.876C36.7187 173.958 36.4872 174.065 36.3054 174.195L35.3167 174.076L35.8451 169.781H40.3792V170.718H36.7315L36.4247 173.292H36.4758C36.6548 173.15 36.8792 173.032 37.1491 172.938C37.419 172.845 37.7002 172.798 37.9929 172.798C38.5269 172.798 39.0028 172.926 39.4204 173.181C39.8409 173.434 40.1704 173.781 40.409 174.221C40.6505 174.661 40.7713 175.164 40.7713 175.73C40.7713 176.286 40.6463 176.784 40.3963 177.221C40.1491 177.656 39.8082 177.999 39.3735 178.252C38.9389 178.502 38.4446 178.627 37.8906 178.627ZM45.278 176.974V171.349H46.2325V176.974H45.278ZM42.9427 174.639V173.684H48.5677V174.639H42.9427ZM57.9636 169.781H59.0204V176.019C59.0204 176.576 58.9181 177.049 58.7136 177.438C58.509 177.828 58.2207 178.123 57.8485 178.325C57.4763 178.526 57.0374 178.627 56.5317 178.627C56.0545 178.627 55.6298 178.541 55.2576 178.367C54.8854 178.191 54.5928 177.941 54.3798 177.617C54.1667 177.293 54.0602 176.909 54.0602 176.462H55.0999C55.0999 176.71 55.161 176.926 55.2832 177.11C55.4082 177.292 55.5786 177.434 55.7945 177.536C56.0104 177.639 56.2562 177.69 56.5317 177.69C56.8357 177.69 57.0942 177.626 57.3073 177.498C57.5204 177.37 57.6823 177.183 57.7931 176.935C57.9067 176.685 57.9636 176.38 57.9636 176.019V169.781ZM63.1681 178.661C62.7533 178.661 62.3769 178.583 62.0388 178.427C61.7007 178.268 61.4323 178.039 61.2334 177.741C61.0345 177.44 60.9351 177.076 60.9351 176.65C60.9351 176.275 61.009 175.971 61.1567 175.738C61.3044 175.502 61.5019 175.318 61.749 175.184C61.9962 175.051 62.2689 174.951 62.5672 174.886C62.8683 174.818 63.1709 174.764 63.4749 174.724C63.8726 174.673 64.195 174.634 64.4422 174.609C64.6922 174.58 64.874 174.534 64.9877 174.468C65.1041 174.403 65.1624 174.289 65.1624 174.127V174.093C65.1624 173.673 65.0473 173.346 64.8172 173.113C64.5899 172.88 64.2448 172.764 63.7817 172.764C63.3016 172.764 62.9252 172.869 62.6524 173.079C62.3797 173.289 62.1879 173.514 62.0771 173.752L61.1226 173.411C61.2931 173.014 61.5203 172.704 61.8044 172.482C62.0913 172.258 62.4038 172.102 62.7419 172.014C63.0828 171.923 63.4181 171.877 63.7476 171.877C63.9578 171.877 64.1993 171.903 64.472 171.954C64.7476 172.002 65.0132 172.103 65.2689 172.257C65.5274 172.41 65.7419 172.641 65.9124 172.951C66.0828 173.261 66.1681 173.676 66.1681 174.195V178.508H65.1624V177.622H65.1112C65.0431 177.764 64.9294 177.916 64.7703 178.078C64.6112 178.239 64.3996 178.377 64.1354 178.491C63.8712 178.605 63.5487 178.661 63.1681 178.661ZM63.3215 177.758C63.7192 177.758 64.0544 177.68 64.3271 177.524C64.6027 177.367 64.8101 177.166 64.9493 176.918C65.0913 176.671 65.1624 176.411 65.1624 176.139V175.218C65.1198 175.269 65.026 175.316 64.8811 175.359C64.7391 175.399 64.5743 175.434 64.3868 175.465C64.2021 175.494 64.0217 175.519 63.8456 175.542C63.6723 175.562 63.5317 175.579 63.4237 175.593C63.1624 175.627 62.9181 175.683 62.6908 175.759C62.4663 175.833 62.2845 175.945 62.1453 176.096C62.009 176.244 61.9408 176.445 61.9408 176.701C61.9408 177.051 62.07 177.315 62.3286 177.494C62.5899 177.67 62.9209 177.758 63.3215 177.758ZM70.7152 178.644C70.1698 178.644 69.6882 178.507 69.2706 178.231C68.853 177.953 68.5263 177.56 68.2905 177.055C68.0547 176.546 67.9368 175.945 67.9368 175.252C67.9368 174.565 68.0547 173.968 68.2905 173.462C68.5263 172.957 68.8544 172.566 69.2749 172.291C69.6953 172.015 70.1811 171.877 70.7323 171.877C71.1584 171.877 71.4951 171.948 71.7422 172.09C71.9922 172.23 72.1826 172.389 72.3132 172.568C72.4468 172.744 72.5505 172.889 72.6243 173.002H72.7095V169.781H73.7152V178.508H72.7436V177.502H72.6243C72.5505 177.622 72.4453 177.772 72.309 177.954C72.1726 178.133 71.978 178.293 71.7252 178.435C71.4723 178.575 71.1357 178.644 70.7152 178.644ZM70.8516 177.741C71.255 177.741 71.5959 177.636 71.8743 177.426C72.1527 177.212 72.3644 176.918 72.5093 176.543C72.6541 176.166 72.7266 175.73 72.7266 175.235C72.7266 174.747 72.6556 174.319 72.5135 173.953C72.3715 173.583 72.1612 173.296 71.8828 173.092C71.6044 172.884 71.2607 172.781 70.8516 172.781C70.4255 172.781 70.0703 172.89 69.7862 173.109C69.505 173.325 69.2933 173.619 69.1513 173.991C69.0121 174.36 68.9425 174.775 68.9425 175.235C68.9425 175.701 69.0135 176.124 69.1556 176.505C69.3005 176.883 69.5135 177.184 69.7948 177.409C70.0789 177.63 70.4311 177.741 70.8516 177.741ZM77.4197 178.508L75.4254 171.962H76.4822L77.897 176.974H77.9652L79.3629 171.962H80.4368L81.8174 176.957H81.8856L83.3004 171.962H84.3572L82.3629 178.508H81.3743L79.9424 173.48H79.8402L78.4083 178.508H77.4197ZM87.8529 178.661C87.4381 178.661 87.0617 178.583 86.7236 178.427C86.3856 178.268 86.1171 178.039 85.9182 177.741C85.7194 177.44 85.6199 177.076 85.6199 176.65C85.6199 176.275 85.6938 175.971 85.8415 175.738C85.9893 175.502 86.1867 175.318 86.4339 175.184C86.681 175.051 86.9537 174.951 87.252 174.886C87.5532 174.818 87.8557 174.764 88.1597 174.724C88.5574 174.673 88.8799 174.634 89.127 174.609C89.377 174.58 89.5589 174.534 89.6725 174.468C89.789 174.403 89.8472 174.289 89.8472 174.127V174.093C89.8472 173.673 89.7322 173.346 89.502 173.113C89.2748 172.88 88.9296 172.764 88.4665 172.764C87.9864 172.764 87.61 172.869 87.3373 173.079C87.0645 173.289 86.8728 173.514 86.762 173.752L85.8074 173.411C85.9779 173.014 86.2052 172.704 86.4893 172.482C86.7762 172.258 87.0887 172.102 87.4268 172.014C87.7677 171.923 88.1029 171.877 88.4324 171.877C88.6427 171.877 88.8841 171.903 89.1569 171.954C89.4324 172.002 89.6981 172.103 89.9537 172.257C90.2123 172.41 90.4268 172.641 90.5972 172.951C90.7677 173.261 90.8529 173.676 90.8529 174.195V178.508H89.8472V177.622H89.7961C89.7279 177.764 89.6143 177.916 89.4552 178.078C89.2961 178.239 89.0844 178.377 88.8202 178.491C88.556 178.605 88.2336 178.661 87.8529 178.661ZM88.0063 177.758C88.404 177.758 88.7393 177.68 89.012 177.524C89.2876 177.367 89.4949 177.166 89.6341 176.918C89.7762 176.671 89.8472 176.411 89.8472 176.139V175.218C89.8046 175.269 89.7108 175.316 89.566 175.359C89.4239 175.399 89.2591 175.434 89.0716 175.465C88.887 175.494 88.7066 175.519 88.5304 175.542C88.3572 175.562 88.2165 175.579 88.1086 175.593C87.8472 175.627 87.6029 175.683 87.3756 175.759C87.1512 175.833 86.9694 175.945 86.8302 176.096C86.6938 176.244 86.6256 176.445 86.6256 176.701C86.6256 177.051 86.7549 177.315 87.0134 177.494C87.2748 177.67 87.6057 177.758 88.0063 177.758ZM93.9342 169.781V178.508H92.9285V169.781H93.9342ZM99.2902 170.718V169.781H105.836V170.718H103.091V178.508H102.035V170.718H99.2902ZM109.365 178.644C108.735 178.644 108.191 178.505 107.733 178.227C107.279 177.945 106.928 177.553 106.681 177.051C106.436 176.545 106.314 175.957 106.314 175.286C106.314 174.616 106.436 174.025 106.681 173.514C106.928 172.999 107.272 172.599 107.712 172.312C108.155 172.022 108.672 171.877 109.263 171.877C109.604 171.877 109.941 171.934 110.273 172.048C110.606 172.161 110.908 172.346 111.181 172.602C111.454 172.855 111.671 173.19 111.833 173.607C111.995 174.025 112.076 174.539 112.076 175.15V175.576H107.03V174.707H111.053C111.053 174.337 110.979 174.008 110.831 173.718C110.686 173.428 110.479 173.2 110.209 173.032C109.942 172.864 109.627 172.781 109.263 172.781C108.863 172.781 108.516 172.88 108.223 173.079C107.934 173.275 107.711 173.531 107.554 173.846C107.398 174.161 107.32 174.499 107.32 174.86V175.44C107.32 175.934 107.405 176.353 107.576 176.697C107.749 177.038 107.989 177.298 108.296 177.477C108.603 177.653 108.959 177.741 109.365 177.741C109.63 177.741 109.868 177.704 110.081 177.63C110.297 177.553 110.483 177.44 110.64 177.289C110.796 177.136 110.917 176.945 111.002 176.718L111.973 176.991C111.871 177.32 111.699 177.61 111.458 177.86C111.216 178.107 110.918 178.301 110.563 178.44C110.208 178.576 109.809 178.644 109.365 178.644ZM113.846 178.508V171.962H114.817V172.951H114.885C115.005 172.627 115.221 172.364 115.533 172.163C115.846 171.961 116.198 171.86 116.59 171.86C116.664 171.86 116.756 171.862 116.867 171.864C116.978 171.867 117.061 171.872 117.118 171.877V172.9C117.084 172.891 117.006 172.879 116.884 172.862C116.765 172.842 116.638 172.832 116.505 172.832C116.186 172.832 115.902 172.899 115.652 173.032C115.405 173.163 115.209 173.345 115.064 173.578C114.922 173.808 114.851 174.07 114.851 174.366V178.508H113.846ZM123.187 173.428L122.283 173.684C122.226 173.534 122.143 173.387 122.032 173.245C121.924 173.1 121.776 172.981 121.589 172.887C121.401 172.793 121.161 172.747 120.869 172.747C120.468 172.747 120.134 172.839 119.867 173.024C119.603 173.205 119.471 173.437 119.471 173.718C119.471 173.968 119.562 174.166 119.744 174.31C119.925 174.455 120.209 174.576 120.596 174.673L121.567 174.911C122.153 175.053 122.589 175.271 122.876 175.563C123.163 175.853 123.306 176.227 123.306 176.684C123.306 177.059 123.198 177.394 122.982 177.69C122.769 177.985 122.471 178.218 122.087 178.389C121.704 178.559 121.258 178.644 120.749 178.644C120.082 178.644 119.529 178.499 119.092 178.21C118.654 177.92 118.377 177.497 118.261 176.94L119.215 176.701C119.306 177.053 119.478 177.318 119.731 177.494C119.986 177.67 120.32 177.758 120.732 177.758C121.201 177.758 121.573 177.659 121.849 177.46C122.127 177.258 122.266 177.016 122.266 176.735C122.266 176.508 122.187 176.318 122.028 176.164C121.869 176.008 121.624 175.891 121.295 175.815L120.204 175.559C119.604 175.417 119.164 175.197 118.883 174.899C118.604 174.597 118.465 174.221 118.465 173.769C118.465 173.4 118.569 173.073 118.776 172.789C118.986 172.505 119.272 172.282 119.633 172.12C119.996 171.958 120.408 171.877 120.869 171.877C121.516 171.877 122.025 172.019 122.394 172.303C122.766 172.587 123.03 172.962 123.187 173.428ZM127.804 178.644C127.174 178.644 126.629 178.505 126.172 178.227C125.718 177.945 125.367 177.553 125.12 177.051C124.875 176.545 124.753 175.957 124.753 175.286C124.753 174.616 124.875 174.025 125.12 173.514C125.367 172.999 125.71 172.599 126.151 172.312C126.594 172.022 127.111 171.877 127.702 171.877C128.043 171.877 128.379 171.934 128.712 172.048C129.044 172.161 129.347 172.346 129.62 172.602C129.892 172.855 130.11 173.19 130.272 173.607C130.433 174.025 130.514 174.539 130.514 175.15V175.576H125.469V174.707H129.492C129.492 174.337 129.418 174.008 129.27 173.718C129.125 173.428 128.918 173.2 128.648 173.032C128.381 172.864 128.066 172.781 127.702 172.781C127.301 172.781 126.955 172.88 126.662 173.079C126.372 173.275 126.149 173.531 125.993 173.846C125.837 174.161 125.759 174.499 125.759 174.86V175.44C125.759 175.934 125.844 176.353 126.014 176.697C126.188 177.038 126.428 177.298 126.735 177.477C127.041 177.653 127.398 177.741 127.804 177.741C128.068 177.741 128.307 177.704 128.52 177.63C128.736 177.553 128.922 177.44 129.078 177.289C129.235 177.136 129.355 176.945 129.441 176.718L130.412 176.991C130.31 177.32 130.138 177.61 129.897 177.86C129.655 178.107 129.357 178.301 129.002 178.44C128.647 178.576 128.247 178.644 127.804 178.644ZM134.756 178.644C134.21 178.644 133.729 178.507 133.311 178.231C132.894 177.953 132.567 177.56 132.331 177.055C132.095 176.546 131.977 175.945 131.977 175.252C131.977 174.565 132.095 173.968 132.331 173.462C132.567 172.957 132.895 172.566 133.316 172.291C133.736 172.015 134.222 171.877 134.773 171.877C135.199 171.877 135.536 171.948 135.783 172.09C136.033 172.23 136.223 172.389 136.354 172.568C136.487 172.744 136.591 172.889 136.665 173.002H136.75V169.781H137.756V178.508H136.784V177.502H136.665C136.591 177.622 136.486 177.772 136.35 177.954C136.213 178.133 136.019 178.293 135.766 178.435C135.513 178.575 135.176 178.644 134.756 178.644ZM134.892 177.741C135.296 177.741 135.637 177.636 135.915 177.426C136.193 177.212 136.405 176.918 136.55 176.543C136.695 176.166 136.767 175.73 136.767 175.235C136.767 174.747 136.696 174.319 136.554 173.953C136.412 173.583 136.202 173.296 135.923 173.092C135.645 172.884 135.301 172.781 134.892 172.781C134.466 172.781 134.111 172.89 133.827 173.109C133.546 173.325 133.334 173.619 133.192 173.991C133.053 174.36 132.983 174.775 132.983 175.235C132.983 175.701 133.054 176.124 133.196 176.505C133.341 176.883 133.554 177.184 133.835 177.409C134.119 177.63 134.472 177.741 134.892 177.741ZM139.977 178.508V171.962H140.983V178.508H139.977ZM140.489 170.872C140.293 170.872 140.124 170.805 139.982 170.671C139.842 170.538 139.773 170.377 139.773 170.19C139.773 170.002 139.842 169.842 139.982 169.708C140.124 169.575 140.293 169.508 140.489 169.508C140.685 169.508 140.852 169.575 140.992 169.708C141.134 169.842 141.205 170.002 141.205 170.19C141.205 170.377 141.134 170.538 140.992 170.671C140.852 170.805 140.685 170.872 140.489 170.872ZM144.991 178.661C144.576 178.661 144.2 178.583 143.862 178.427C143.524 178.268 143.255 178.039 143.057 177.741C142.858 177.44 142.758 177.076 142.758 176.65C142.758 176.275 142.832 175.971 142.98 175.738C143.128 175.502 143.325 175.318 143.572 175.184C143.819 175.051 144.092 174.951 144.39 174.886C144.691 174.818 144.994 174.764 145.298 174.724C145.696 174.673 146.018 174.634 146.265 174.609C146.515 174.58 146.697 174.534 146.811 174.468C146.927 174.403 146.985 174.289 146.985 174.127V174.093C146.985 173.673 146.87 173.346 146.64 173.113C146.413 172.88 146.068 172.764 145.605 172.764C145.125 172.764 144.748 172.869 144.476 173.079C144.203 173.289 144.011 173.514 143.9 173.752L142.946 173.411C143.116 173.014 143.343 172.704 143.628 172.482C143.914 172.258 144.227 172.102 144.565 172.014C144.906 171.923 145.241 171.877 145.571 171.877C145.781 171.877 146.022 171.903 146.295 171.954C146.571 172.002 146.836 172.103 147.092 172.257C147.351 172.41 147.565 172.641 147.735 172.951C147.906 173.261 147.991 173.676 147.991 174.195V178.508H146.985V177.622H146.934C146.866 177.764 146.753 177.916 146.593 178.078C146.434 178.239 146.223 178.377 145.959 178.491C145.694 178.605 145.372 178.661 144.991 178.661ZM145.145 177.758C145.542 177.758 145.878 177.68 146.15 177.524C146.426 177.367 146.633 177.166 146.772 176.918C146.914 176.671 146.985 176.411 146.985 176.139V175.218C146.943 175.269 146.849 175.316 146.704 175.359C146.562 175.399 146.397 175.434 146.21 175.465C146.025 175.494 145.845 175.519 145.669 175.542C145.495 175.562 145.355 175.579 145.247 175.593C144.985 175.627 144.741 175.683 144.514 175.759C144.289 175.833 144.108 175.945 143.968 176.096C143.832 176.244 143.764 176.445 143.764 176.701C143.764 177.051 143.893 177.315 144.152 177.494C144.413 177.67 144.744 177.758 145.145 177.758Z" fill="#333333"/>
</g>
<defs>
<filter id="filter0_d_237_2288" x="0.529053" y="0" width="184.825" height="216.921" filterUnits="userSpaceOnUse" color-interpolation-filters="sRGB">
<feFlood flood-opacity="0" result="BackgroundImageFix"/>
<feColorMatrix in="SourceAlpha" type="matrix" values="0 0 0 0 0 0 0 0 0 0 0 0 0 0 0 0 0 0 127 0" result="hardAlpha"/>
<feOffset dx="4" dy="4"/>
<feGaussianBlur stdDeviation="8"/>
<feComposite in2="hardAlpha" operator="out"/>
<feColorMatrix type="matrix" values="0 0 0 0 0 0 0 0 0 0 0 0 0 0 0 0 0 0 0.08 0"/>
<feBlend mode="normal" in2="BackgroundImageFix" result="effect1_dropShadow_237_2288"/>
<feBlend mode="normal" in="SourceGraphic" in2="effect1_dropShadow_237_2288" result="shape"/>
</filter>
</defs>
</svg>
