<svg width="186" height="217" viewBox="0 0 186 217" fill="none" xmlns="http://www.w3.org/2000/svg">
<g filter="url(#filter0_d_237_2324)">
<rect x="12.6455" y="12" width="152.825" height="184.921" rx="16.0952" fill="white" shape-rendering="crispEdges"/>
<path d="M71.9673 44.4127V32.7763H73.3764V38.5491H73.5128L78.74 32.7763H80.581L75.6946 38.0263L80.581 44.4127H78.8764L74.831 39.0036L73.3764 40.64V44.4127H71.9673ZM83.2021 44.4127H81.7248L85.9975 32.7763H87.4521L91.7248 44.4127H90.2475L86.7703 34.6172H86.6794L83.2021 44.4127ZM83.7475 39.8672H89.7021V41.1172H83.7475V39.8672ZM93.8573 32.7763H95.5391L99.4937 42.4354H99.63L103.585 32.7763H105.266V44.4127H103.948V35.5718H103.835L100.198 44.4127H98.9255L95.2891 35.5718H95.1755V44.4127H93.8573V32.7763Z" fill="#333333"/>
<path d="M42.973 79.4127V76.7536L49.1861 71.0008C49.7145 70.4894 50.1577 70.0292 50.5156 69.6201C50.8793 69.211 51.1548 68.8104 51.3423 68.4184C51.5298 68.0206 51.6236 67.5917 51.6236 67.1314C51.6236 66.6201 51.5071 66.1797 51.2741 65.8104C51.0412 65.4354 50.723 65.1485 50.3196 64.9496C49.9162 64.7451 49.4588 64.6428 48.9474 64.6428C48.4133 64.6428 47.9474 64.7508 47.5497 64.9667C47.152 65.1826 46.8452 65.4922 46.6293 65.8956C46.4133 66.2991 46.3054 66.7792 46.3054 67.336H42.8025C42.8025 66.1939 43.0611 65.2025 43.5781 64.3616C44.0952 63.5206 44.8196 62.8701 45.7514 62.4098C46.6832 61.9496 47.7571 61.7195 48.973 61.7195C50.223 61.7195 51.3111 61.9411 52.2372 62.3843C53.169 62.8218 53.8935 63.4297 54.4105 64.2081C54.9275 64.9866 55.1861 65.8786 55.1861 66.8843C55.1861 67.5434 55.0554 68.1939 54.794 68.836C54.5383 69.478 54.081 70.1911 53.4219 70.9752C52.7628 71.7536 51.8338 72.6883 50.6349 73.7792L48.0866 76.2763V76.3956H55.4162V79.4127H42.973ZM65.0816 79.6513C63.7691 79.6513 62.6014 79.4383 61.5787 79.0121C60.5617 78.5803 59.7634 77.9922 59.1838 77.2479C58.6043 76.5036 58.3145 75.6598 58.3145 74.7167C58.3145 73.9894 58.4793 73.3218 58.8088 72.7138C59.1441 72.1002 59.5986 71.5917 60.1725 71.1883C60.7463 70.7792 61.3884 70.5178 62.0986 70.4042V70.2848C61.1668 70.0973 60.4111 69.6456 59.8316 68.9297C59.252 68.2081 58.9622 67.3701 58.9622 66.4155C58.9622 65.5121 59.2264 64.7081 59.7548 64.0036C60.2833 63.2934 61.0077 62.7366 61.9281 62.3331C62.8543 61.9241 63.9054 61.7195 65.0816 61.7195C66.2577 61.7195 67.306 61.9241 68.2264 62.3331C69.1526 62.7422 69.8798 63.3019 70.4083 64.0121C70.9367 64.7167 71.2037 65.5178 71.2094 66.4155C71.2037 67.3758 70.9083 68.2138 70.323 68.9297C69.7378 69.6456 68.9878 70.0973 68.073 70.2848V70.4042C68.7719 70.5178 69.4054 70.7792 69.9736 71.1883C70.5475 71.5917 71.002 72.1002 71.3372 72.7138C71.6781 73.3218 71.8514 73.9894 71.8571 74.7167C71.8514 75.6598 71.5588 76.5036 70.9793 77.2479C70.3997 77.9922 69.5986 78.5803 68.5759 79.0121C67.5588 79.4383 66.3941 79.6513 65.0816 79.6513ZM65.0816 76.9411C65.6668 76.9411 66.1781 76.836 66.6156 76.6258C67.0531 76.4098 67.3941 76.1144 67.6384 75.7394C67.8884 75.3587 68.0134 74.9212 68.0134 74.4269C68.0134 73.9212 67.8855 73.4752 67.6298 73.0888C67.3742 72.6968 67.0276 72.39 66.5901 72.1684C66.1526 71.9411 65.6497 71.8275 65.0816 71.8275C64.5191 71.8275 64.0162 71.9411 63.573 72.1684C63.1298 72.39 62.7804 72.6968 62.5247 73.0888C62.2747 73.4752 62.1497 73.9212 62.1497 74.4269C62.1497 74.9212 62.2719 75.3587 62.5162 75.7394C62.7605 76.1144 63.1043 76.4098 63.5475 76.6258C63.9906 76.836 64.502 76.9411 65.0816 76.9411ZM65.0816 69.1428C65.5702 69.1428 66.0048 69.0434 66.3855 68.8445C66.7662 68.6456 67.0645 68.3701 67.2804 68.0178C67.4963 67.6655 67.6043 67.2593 67.6043 66.7991C67.6043 66.3445 67.4963 65.9468 67.2804 65.6059C67.0645 65.2593 66.7691 64.9894 66.3941 64.7962C66.0191 64.5973 65.5816 64.4979 65.0816 64.4979C64.5872 64.4979 64.1497 64.5973 63.7691 64.7962C63.3884 64.9894 63.0901 65.2593 62.8742 65.6059C62.6639 65.9468 62.5588 66.3445 62.5588 66.7991C62.5588 67.2593 62.6668 67.6655 62.8827 68.0178C63.0986 68.3701 63.3969 68.6456 63.7776 68.8445C64.1583 69.0434 64.5929 69.1428 65.0816 69.1428ZM81.0543 61.9581H85.6055L90.4123 73.6854H90.6168L95.4237 61.9581H99.9748V79.4127H96.3952V68.0519H96.2504L91.7333 79.3275H89.2958L84.7788 68.0093H84.6339V79.4127H81.0543V61.9581ZM106.504 79.4127H102.549L108.575 61.9581H113.33L119.348 79.4127H115.393L111.021 65.9468H110.884L106.504 79.4127ZM106.257 72.5519H115.598V75.4326H106.257V72.5519ZM121.928 79.4127V61.9581H128.815C130.133 61.9581 131.258 62.1939 132.19 62.6655C133.127 63.1314 133.84 63.7934 134.329 64.6513C134.823 65.5036 135.07 66.5064 135.07 67.6598C135.07 68.8189 134.82 69.8161 134.32 70.6513C133.82 71.4809 133.096 72.1172 132.147 72.5604C131.204 73.0036 130.062 73.2252 128.721 73.2252H124.11V70.2593H128.124C128.829 70.2593 129.414 70.1627 129.88 69.9695C130.346 69.7763 130.693 69.4866 130.92 69.1002C131.153 68.7138 131.269 68.2337 131.269 67.6598C131.269 67.0803 131.153 66.5917 130.92 66.1939C130.693 65.7962 130.343 65.4951 129.872 65.2905C129.406 65.0803 128.818 64.9752 128.107 64.9752H125.619V79.4127H121.928ZM131.355 71.4695L135.693 79.4127H131.619L127.374 71.4695H131.355Z" fill="#333333"/>
<path d="M139.058 147.46C139.058 134.2 133.79 121.482 124.414 112.105C115.037 102.728 102.319 97.4603 89.0582 97.4603C75.7974 97.4603 63.0797 102.728 53.7029 112.105C44.3261 121.482 39.0582 134.199 39.0582 147.46H49.2516C49.2516 136.903 53.4455 126.778 60.9107 119.313C68.3759 111.848 78.5009 107.654 89.0582 107.654C99.6156 107.654 109.741 111.848 117.206 119.313C124.671 126.778 128.865 136.903 128.865 147.46H139.058Z" fill="#B53C3C"/>
<path d="M66.9407 132.188V147.46H63.7116V135.253H63.6221L60.1246 137.445V134.581L63.9055 132.188H66.9407ZM76.9788 147.796C75.6962 147.791 74.5925 147.475 73.6678 146.849C72.748 146.222 72.0396 145.315 71.5424 144.127C71.0502 142.939 70.8066 141.509 70.8116 139.839C70.8116 138.173 71.0577 136.754 71.5499 135.581C72.047 134.407 72.7555 133.515 73.6752 132.904C74.5999 132.287 75.7012 131.979 76.9788 131.979C78.2565 131.979 79.3553 132.287 80.275 132.904C81.1997 133.52 81.9107 134.415 82.4078 135.588C82.905 136.756 83.1511 138.173 83.1461 139.839C83.1461 141.514 82.8975 142.946 82.4004 144.134C81.9082 145.323 81.2022 146.23 80.2825 146.856C79.3627 147.483 78.2615 147.796 76.9788 147.796ZM76.9788 145.119C77.8538 145.119 78.5524 144.679 79.0744 143.799C79.5964 142.919 79.8549 141.599 79.8499 139.839C79.8499 138.68 79.7306 137.716 79.492 136.945C79.2583 136.175 78.9252 135.596 78.4927 135.208C78.0651 134.82 77.5605 134.626 76.9788 134.626C76.1088 134.626 75.4128 135.061 74.8908 135.931C74.3688 136.801 74.1053 138.104 74.1003 139.839C74.1003 141.012 74.2171 141.992 74.4508 142.777C74.6894 143.558 75.025 144.144 75.4575 144.537C75.8901 144.925 76.3972 145.119 76.9788 145.119ZM91.8569 147.796C90.5742 147.791 89.4705 147.475 88.5458 146.849C87.626 146.222 86.9176 145.315 86.4204 144.127C85.9282 142.939 85.6846 141.509 85.6896 139.839C85.6896 138.173 85.9357 136.754 86.4279 135.581C86.925 134.407 87.6335 133.515 88.5532 132.904C89.478 132.287 90.5792 131.979 91.8569 131.979C93.1346 131.979 94.2333 132.287 95.153 132.904C96.0777 133.52 96.7887 134.415 97.2858 135.588C97.783 136.756 98.0291 138.173 98.0241 139.839C98.0241 141.514 97.7755 142.946 97.2784 144.134C96.7862 145.323 96.0802 146.23 95.1605 146.856C94.2407 147.483 93.1395 147.796 91.8569 147.796ZM91.8569 145.119C92.7319 145.119 93.4304 144.679 93.9524 143.799C94.4744 142.919 94.7329 141.599 94.728 139.839C94.728 138.68 94.6086 137.716 94.37 136.945C94.1363 136.175 93.8032 135.596 93.3707 135.208C92.9431 134.82 92.4385 134.626 91.8569 134.626C90.9868 134.626 90.2908 135.061 89.7688 135.931C89.2468 136.801 88.9833 138.104 88.9783 139.839C88.9783 141.012 89.0951 141.992 89.3288 142.777C89.5674 143.558 89.903 144.144 90.3356 144.537C90.7681 144.925 91.2752 145.119 91.8569 145.119ZM109.106 144.597V143.791C109.106 143.18 109.236 142.618 109.494 142.106C109.758 141.589 110.138 141.176 110.635 140.868C111.137 140.555 111.749 140.398 112.47 140.398C113.2 140.398 113.814 140.552 114.312 140.861C114.814 141.169 115.192 141.581 115.445 142.098C115.704 142.611 115.833 143.175 115.833 143.791V144.597C115.833 145.208 115.704 145.772 115.445 146.29C115.187 146.802 114.806 147.212 114.304 147.52C113.802 147.833 113.19 147.99 112.47 147.99C111.739 147.99 111.125 147.833 110.628 147.52C110.13 147.212 109.753 146.802 109.494 146.29C109.236 145.772 109.106 145.208 109.106 144.597ZM111.276 143.791V144.597C111.276 144.95 111.361 145.283 111.53 145.596C111.704 145.909 112.017 146.066 112.47 146.066C112.922 146.066 113.23 145.912 113.394 145.603C113.563 145.295 113.648 144.96 113.648 144.597V143.791C113.648 143.428 113.568 143.09 113.409 142.777C113.25 142.464 112.937 142.307 112.47 142.307C112.022 142.307 111.711 142.464 111.537 142.777C111.363 143.09 111.276 143.428 111.276 143.791ZM101.269 135.857V135.051C101.269 134.435 101.4 133.87 101.664 133.358C101.927 132.841 102.308 132.429 102.805 132.12C103.307 131.812 103.913 131.658 104.624 131.658C105.36 131.658 105.977 131.812 106.474 132.12C106.971 132.429 107.349 132.841 107.607 133.358C107.866 133.87 107.995 134.435 107.995 135.051V135.857C107.995 136.473 107.863 137.037 107.6 137.549C107.341 138.062 106.961 138.472 106.459 138.78C105.962 139.083 105.35 139.235 104.624 139.235C103.899 139.235 103.285 139.081 102.782 138.772C102.285 138.459 101.907 138.049 101.649 137.542C101.395 137.03 101.269 136.468 101.269 135.857ZM103.454 135.051V135.857C103.454 136.22 103.538 136.555 103.707 136.863C103.881 137.172 104.187 137.326 104.624 137.326C105.082 137.326 105.393 137.172 105.557 136.863C105.726 136.555 105.81 136.22 105.81 135.857V135.051C105.81 134.688 105.731 134.35 105.572 134.037C105.412 133.724 105.097 133.567 104.624 133.567C104.182 133.567 103.876 133.726 103.707 134.044C103.538 134.363 103.454 134.698 103.454 135.051ZM102.253 147.46L112.753 132.188H114.707L104.207 147.46H102.253Z" fill="#B53C3C"/>
<path opacity="0.6" d="M71.615 178.508V169.781H74.5639C75.2486 169.781 75.8082 169.904 76.2429 170.151C76.6804 170.396 77.0043 170.727 77.2145 171.144C77.4247 171.562 77.5298 172.028 77.5298 172.542C77.5298 173.056 77.4247 173.524 77.2145 173.944C77.0071 174.364 76.6861 174.7 76.2514 174.95C75.8168 175.197 75.2599 175.32 74.581 175.32H72.4673V174.383H74.5469C75.0156 174.383 75.392 174.302 75.6761 174.14C75.9602 173.978 76.1662 173.759 76.294 173.484C76.4247 173.205 76.49 172.891 76.49 172.542C76.49 172.193 76.4247 171.88 76.294 171.605C76.1662 171.329 75.9588 171.113 75.6719 170.957C75.3849 170.798 75.0043 170.718 74.5298 170.718H72.6719V178.508H71.615ZM82.0099 178.644C81.3792 178.644 80.8352 178.505 80.3778 178.227C79.9232 177.945 79.5724 177.553 79.3252 177.051C79.0809 176.545 78.9587 175.957 78.9587 175.286C78.9587 174.616 79.0809 174.025 79.3252 173.514C79.5724 172.999 79.9161 172.599 80.3565 172.312C80.7996 172.022 81.3167 171.877 81.9076 171.877C82.2485 171.877 82.5852 171.934 82.9175 172.048C83.2499 172.161 83.5525 172.346 83.8252 172.602C84.0979 172.855 84.3153 173.19 84.4772 173.607C84.6391 174.025 84.7201 174.539 84.7201 175.15V175.576H79.6746V174.707H83.6974C83.6974 174.337 83.6235 174.008 83.4758 173.718C83.3309 173.428 83.1235 173.2 82.8536 173.032C82.5866 172.864 82.2712 172.781 81.9076 172.781C81.507 172.781 81.1604 172.88 80.8678 173.079C80.5781 173.275 80.355 173.531 80.1988 173.846C80.0425 174.161 79.9644 174.499 79.9644 174.86V175.44C79.9644 175.934 80.0496 176.353 80.2201 176.697C80.3934 177.038 80.6335 177.298 80.9403 177.477C81.2471 177.653 81.6036 177.741 82.0099 177.741C82.2741 177.741 82.5127 177.704 82.7258 177.63C82.9417 177.553 83.1278 177.44 83.284 177.289C83.4403 177.136 83.561 176.945 83.6462 176.718L84.6178 176.991C84.5156 177.32 84.3437 177.61 84.1022 177.86C83.8607 178.107 83.5624 178.301 83.2073 178.44C82.8522 178.576 82.4531 178.644 82.0099 178.644ZM87.4956 174.57V178.508H86.4899V171.962H87.4615V172.985H87.5467C87.7002 172.653 87.9331 172.386 88.2456 172.184C88.5581 171.98 88.9615 171.877 89.4558 171.877C89.899 171.877 90.2868 171.968 90.6192 172.15C90.9516 172.329 91.2101 172.602 91.3948 172.968C91.5794 173.332 91.6718 173.792 91.6718 174.349V178.508H90.6661V174.417C90.6661 173.903 90.5325 173.502 90.2655 173.215C89.9985 172.926 89.632 172.781 89.1661 172.781C88.845 172.781 88.5581 172.85 88.3053 172.989C88.0553 173.129 87.8578 173.332 87.7129 173.599C87.5681 173.866 87.4956 174.19 87.4956 174.57ZM97.8745 175.832V171.962H98.8801V178.508H97.8745V177.4H97.8063C97.6529 177.732 97.4142 178.015 97.0904 178.248C96.7665 178.478 96.3574 178.593 95.8631 178.593C95.454 178.593 95.0904 178.504 94.7722 178.325C94.454 178.143 94.204 177.87 94.0222 177.507C93.8404 177.14 93.7495 176.678 93.7495 176.122V171.962H94.7551V176.053C94.7551 176.531 94.8887 176.911 95.1557 177.195C95.4256 177.48 95.7693 177.622 96.187 177.622C96.437 177.622 96.6912 177.558 96.9497 177.43C97.2111 177.302 97.4299 177.106 97.606 176.842C97.785 176.578 97.8745 176.241 97.8745 175.832ZM101.968 174.57V178.508H100.962V169.781H101.968V172.985H102.053C102.206 172.647 102.437 172.379 102.743 172.18C103.053 171.978 103.465 171.877 103.979 171.877C104.425 171.877 104.816 171.967 105.151 172.146C105.486 172.322 105.746 172.593 105.931 172.96C106.118 173.323 106.212 173.786 106.212 174.349V178.508H105.206V174.417C105.206 173.897 105.071 173.495 104.802 173.211C104.535 172.924 104.164 172.781 103.689 172.781C103.36 172.781 103.064 172.85 102.803 172.989C102.545 173.129 102.34 173.332 102.189 173.599C102.042 173.866 101.968 174.19 101.968 174.57Z" fill="#333333"/>
</g>
<defs>
<filter id="filter0_d_237_2324" x="0.645508" y="0" width="184.825" height="216.921" filterUnits="userSpaceOnUse" color-interpolation-filters="sRGB">
<feFlood flood-opacity="0" result="BackgroundImageFix"/>
<feColorMatrix in="SourceAlpha" type="matrix" values="0 0 0 0 0 0 0 0 0 0 0 0 0 0 0 0 0 0 127 0" result="hardAlpha"/>
<feOffset dx="4" dy="4"/>
<feGaussianBlur stdDeviation="8"/>
<feComposite in2="hardAlpha" operator="out"/>
<feColorMatrix type="matrix" values="0 0 0 0 0 0 0 0 0 0 0 0 0 0 0 0 0 0 0.08 0"/>
<feBlend mode="normal" in2="BackgroundImageFix" result="effect1_dropShadow_237_2324"/>
<feBlend mode="normal" in="SourceGraphic" in2="effect1_dropShadow_237_2324" result="shape"/>
</filter>
</defs>
</svg>
