<svg width="88" height="16" viewBox="0 0 88 16" fill="none" xmlns="http://www.w3.org/2000/svg">
<path d="M6.87142 4.81324C7.29947 3.74612 7.51349 3.21256 7.86121 3.13861C7.95264 3.11916 8.04714 3.11916 8.13857 3.13861C8.48628 3.21256 8.70031 3.74612 9.12836 4.81324C9.37178 5.4201 9.49349 5.72352 9.72123 5.9299C9.78511 5.98779 9.85446 6.03934 9.92829 6.08384C10.1915 6.24249 10.5201 6.27192 11.1773 6.33078C12.2898 6.43041 12.8461 6.48023 13.0159 6.79739C13.0511 6.86308 13.075 6.9342 13.0867 7.00779C13.143 7.36315 12.7341 7.73519 11.9162 8.47927L11.6891 8.68589C11.3067 9.03376 11.1156 9.2077 11.005 9.42477C10.9386 9.55498 10.8942 9.69521 10.8733 9.83985C10.8386 10.081 10.8946 10.3333 11.0065 10.838L11.0465 11.0183C11.2473 11.9233 11.3477 12.3758 11.2224 12.5982C11.1098 12.798 10.9025 12.9259 10.6734 12.9369C10.4184 12.949 10.0591 12.6562 9.34041 12.0707C8.86694 11.6848 8.6302 11.4919 8.36739 11.4166C8.12723 11.3477 7.87255 11.3477 7.63238 11.4166C7.36957 11.4919 7.13284 11.6848 6.65936 12.0707C5.94071 12.6562 5.58139 12.949 5.32637 12.9369C5.09731 12.9259 4.88994 12.798 4.77737 12.5982C4.65204 12.3758 4.75244 11.9233 4.95323 11.0183L4.99324 10.838C5.10521 10.3333 5.16119 10.081 5.12645 9.83985C5.10561 9.69521 5.06113 9.55498 4.9948 9.42477C4.88422 9.2077 4.69304 9.03376 4.31067 8.68589L4.08356 8.47927C3.2657 7.73519 2.85677 7.36314 2.91308 7.00779C2.92475 6.9342 2.94867 6.86308 2.98385 6.79739C3.15371 6.48023 3.70997 6.43041 4.82248 6.33078C5.47967 6.27192 5.80826 6.24249 6.07149 6.08384C6.14532 6.03934 6.21466 5.98779 6.27854 5.9299C6.50628 5.72352 6.62799 5.4201 6.87142 4.81324Z" fill="#FBD405" stroke="#FBD405" stroke-width="2"/>
<path d="M24.8714 4.81324C25.2995 3.74612 25.5135 3.21256 25.8612 3.13861C25.9526 3.11916 26.0471 3.11916 26.1386 3.13861C26.4863 3.21256 26.7003 3.74612 27.1284 4.81324C27.3718 5.4201 27.4935 5.72352 27.7212 5.9299C27.7851 5.98779 27.8545 6.03934 27.9283 6.08384C28.1915 6.24249 28.5201 6.27192 29.1773 6.33078C30.2898 6.43041 30.8461 6.48023 31.0159 6.79739C31.0511 6.86308 31.075 6.9342 31.0867 7.00779C31.143 7.36315 30.7341 7.73519 29.9162 8.47927L29.6891 8.68589C29.3067 9.03376 29.1156 9.2077 29.005 9.42477C28.9386 9.55498 28.8942 9.69521 28.8733 9.83985C28.8386 10.081 28.8946 10.3333 29.0065 10.838L29.0465 11.0183C29.2473 11.9233 29.3477 12.3758 29.2224 12.5982C29.1098 12.798 28.9025 12.9259 28.6734 12.9369C28.4184 12.949 28.0591 12.6562 27.3404 12.0707C26.8669 11.6848 26.6302 11.4919 26.3674 11.4166C26.1272 11.3477 25.8725 11.3477 25.6324 11.4166C25.3696 11.4919 25.1328 11.6848 24.6594 12.0707C23.9407 12.6562 23.5814 12.949 23.3264 12.9369C23.0973 12.9259 22.8899 12.798 22.7774 12.5982C22.652 12.3758 22.7524 11.9233 22.9532 11.0183L22.9932 10.838C23.1052 10.3333 23.1612 10.081 23.1265 9.83985C23.1056 9.69521 23.0611 9.55498 22.9948 9.42477C22.8842 9.2077 22.693 9.03376 22.3107 8.68589L22.0836 8.47927C21.2657 7.73519 20.8568 7.36314 20.9131 7.00779C20.9247 6.9342 20.9487 6.86308 20.9838 6.79739C21.1537 6.48023 21.71 6.43041 22.8225 6.33078C23.4797 6.27192 23.8083 6.24249 24.0715 6.08384C24.1453 6.03934 24.2147 5.98779 24.2785 5.9299C24.5063 5.72352 24.628 5.4201 24.8714 4.81324Z" fill="#FBD405" stroke="#FBD405" stroke-width="2"/>
<path d="M42.7624 4.4184C43.2868 3.11106 43.549 2.4574 43.9999 2.4574C44.4508 2.4574 44.713 3.11106 45.2374 4.4184L45.2618 4.47927C45.5581 5.21785 45.7062 5.58714 46.0081 5.8116C46.31 6.03606 46.7063 6.07155 47.4989 6.14254L47.6422 6.15537C48.9394 6.27155 49.588 6.32963 49.7268 6.74229C49.8656 7.15494 49.3839 7.59317 48.4205 8.46963L48.099 8.76215C47.6114 9.20583 47.3675 9.42767 47.2539 9.71842C47.2327 9.77265 47.215 9.82822 47.2011 9.88476C47.1264 10.1879 47.1978 10.5097 47.3406 11.1533L47.3851 11.3537C47.6475 12.5366 47.7787 13.128 47.5496 13.3831C47.464 13.4785 47.3527 13.5471 47.2291 13.5808C46.8983 13.6711 46.4287 13.2884 45.4894 12.523C44.8726 12.0204 44.5642 11.7691 44.2101 11.7126C44.0709 11.6903 43.9289 11.6903 43.7897 11.7126C43.4356 11.7691 43.1272 12.0204 42.5104 12.523C41.5711 13.2884 41.1015 13.6711 40.7707 13.5808C40.6471 13.5471 40.5358 13.4785 40.4502 13.3831C40.2211 13.128 40.3523 12.5366 40.6147 11.3537L40.6592 11.1533C40.802 10.5097 40.8734 10.1879 40.7987 9.88476C40.7848 9.82822 40.7671 9.77265 40.7459 9.71842C40.6323 9.42767 40.3884 9.20583 39.9008 8.76215L39.5793 8.46963C38.6159 7.59317 38.1342 7.15494 38.273 6.74229C38.4118 6.32963 39.0604 6.27155 40.3576 6.15537L40.5009 6.14254C41.2935 6.07155 41.6898 6.03606 41.9917 5.8116C42.2936 5.58714 42.4417 5.21785 42.738 4.47927L42.7624 4.4184Z" stroke="#FBD405"/>
<path d="M60.7624 4.4184C61.2868 3.11106 61.549 2.4574 61.9999 2.4574C62.4508 2.4574 62.713 3.11106 63.2374 4.4184L63.2618 4.47927C63.5581 5.21785 63.7062 5.58714 64.0081 5.8116C64.31 6.03606 64.7063 6.07155 65.4989 6.14254L65.6422 6.15537C66.9394 6.27155 67.588 6.32963 67.7268 6.74229C67.8656 7.15494 67.3839 7.59317 66.4205 8.46963L66.099 8.76215C65.6114 9.20583 65.3675 9.42767 65.2539 9.71842C65.2327 9.77265 65.215 9.82822 65.2011 9.88476C65.1264 10.1879 65.1978 10.5097 65.3406 11.1533L65.3851 11.3537C65.6475 12.5366 65.7787 13.128 65.5496 13.3831C65.464 13.4785 65.3527 13.5471 65.2291 13.5808C64.8983 13.6711 64.4287 13.2884 63.4894 12.523C62.8726 12.0204 62.5642 11.7691 62.2101 11.7126C62.0709 11.6903 61.9289 11.6903 61.7897 11.7126C61.4356 11.7691 61.1272 12.0204 60.5104 12.523C59.5711 13.2884 59.1015 13.6711 58.7707 13.5808C58.6471 13.5471 58.5358 13.4785 58.4502 13.3831C58.2211 13.128 58.3523 12.5366 58.6147 11.3537L58.6592 11.1533C58.802 10.5097 58.8734 10.1879 58.7987 9.88476C58.7848 9.82822 58.7671 9.77265 58.7459 9.71842C58.6323 9.42767 58.3884 9.20583 57.9008 8.76215L57.5793 8.46963C56.6159 7.59317 56.1342 7.15494 56.273 6.74229C56.4118 6.32963 57.0604 6.27155 58.3576 6.15537L58.5009 6.14254C59.2935 6.07155 59.6898 6.03606 59.9917 5.8116C60.2936 5.58714 60.4417 5.21785 60.738 4.47927L60.7624 4.4184Z" stroke="#FBD405"/>
<path d="M78.7624 4.4184C79.2868 3.11106 79.549 2.4574 79.9999 2.4574C80.4508 2.4574 80.713 3.11106 81.2374 4.4184L81.2618 4.47927C81.5581 5.21785 81.7062 5.58714 82.0081 5.8116C82.31 6.03606 82.7063 6.07155 83.4989 6.14254L83.6422 6.15537C84.9394 6.27155 85.588 6.32963 85.7268 6.74229C85.8656 7.15494 85.3839 7.59317 84.4205 8.46963L84.099 8.76215C83.6114 9.20583 83.3675 9.42767 83.2539 9.71842C83.2327 9.77265 83.215 9.82822 83.2011 9.88476C83.1264 10.1879 83.1978 10.5097 83.3406 11.1533L83.3851 11.3537C83.6475 12.5366 83.7787 13.128 83.5496 13.3831C83.464 13.4785 83.3527 13.5471 83.2291 13.5808C82.8983 13.6711 82.4287 13.2884 81.4894 12.523C80.8726 12.0204 80.5642 11.7691 80.2101 11.7126C80.0709 11.6903 79.9289 11.6903 79.7897 11.7126C79.4356 11.7691 79.1272 12.0204 78.5104 12.523C77.5711 13.2884 77.1015 13.6711 76.7707 13.5808C76.6471 13.5471 76.5358 13.4785 76.4502 13.3831C76.2211 13.128 76.3523 12.5366 76.6147 11.3537L76.6592 11.1533C76.802 10.5097 76.8734 10.1879 76.7987 9.88476C76.7848 9.82822 76.7671 9.77265 76.7459 9.71842C76.6323 9.42767 76.3884 9.20583 75.9008 8.76215L75.5793 8.46963C74.6159 7.59317 74.1342 7.15494 74.273 6.74229C74.4118 6.32963 75.0604 6.27155 76.3576 6.15537L76.5009 6.14254C77.2935 6.07155 77.6898 6.03606 77.9917 5.8116C78.2936 5.58714 78.4417 5.21785 78.738 4.47927L78.7624 4.4184Z" stroke="#FBD405"/>
</svg>
